<?xml version="1.0" encoding="iso-8859-1"?>
<!-- Generator: Adobe Illustrator 18.1.1, SVG Export Plug-In . SVG Version: 6.00 Build 0)  -->
<svg version="1.1" id="Capa_1" xmlns="http://www.w3.org/2000/svg" xmlns:xlink="http://www.w3.org/1999/xlink" x="0px" y="0px"
	 viewBox="0 0 51 51" style="enable-background:new 0 0 51 51;" xml:space="preserve">
<g>
	<g>
		<rect x="12" y="38.812" style="fill:#010002;" width="27" height="10"/>
		<path style="fill:#010002;" d="M25.625,1.188c-7.819,0-14.675,5.416-18.543,18.642C11.12,19.996,12,21.396,12,22.583v8.23h27
			v-8.23c0-1.682,2.442-2.471,5.185-2.697C40.32,6.618,33.455,1.188,25.625,1.188z M30.625,18.938
			c-0.641-0.075-1.267-0.059-1.871,0.047c-0.95,0.166-1.846,0.556-2.65,1.182c-0.13,0.102-0.274,0.127-0.408,0.106
			c-0.042,0.021-0.09,0.025-0.137,0.033c-0.059,0.01-0.119,0.001-0.183-0.019c-0.043-0.013-0.084-0.014-0.128-0.042
			c-0.8-0.526-1.637-0.872-2.511-1.046c-0.835-0.167-1.703-0.177-2.604-0.029c-0.631,0.104-0.901-0.859-0.266-0.964
			c0.673-0.111,1.332-0.143,1.977-0.108c0.466,0.025,0.923,0.091,1.373,0.197c-0.596-0.609-0.966-1.44-0.966-2.357
			c0-1.861,1.514-3.375,3.375-3.375c1.861,0,3.375,1.514,3.375,3.375c0,0.82-0.306,1.562-0.794,2.148
			c0.425-0.104,0.86-0.165,1.307-0.184c0.365-0.016,0.734-0.009,1.112,0.035C31.257,18.011,31.266,19.013,30.625,18.938z"/>
		<path style="fill:#010002;" d="M6.258,20.812H5.967C2.621,20.812,0,21.59,0,22.583v27.23h11v-11v-8v-8.23
			C11,20.985,7.684,20.812,6.258,20.812z"/>
		<path style="fill:#010002;" d="M46.258,20.812h-0.291c-3.346,0-5.967,0.777-5.967,1.77v8.23v8v11h11v-27.23
			C51,20.985,47.684,20.812,46.258,20.812z"/>
		<rect x="12" y="31.812" style="fill:#010002;" width="27" height="6"/>
	</g>
</g>
<g>
</g>
<g>
</g>
<g>
</g>
<g>
</g>
<g>
</g>
<g>
</g>
<g>
</g>
<g>
</g>
<g>
</g>
<g>
</g>
<g>
</g>
<g>
</g>
<g>
</g>
<g>
</g>
<g>
</g>
</svg>
