<?xml version="1.0" encoding="iso-8859-1"?>
<!-- Generator: Adobe Illustrator 18.1.1, SVG Export Plug-In . SVG Version: 6.00 Build 0)  -->
<svg version="1.1" id="Capa_1" xmlns="http://www.w3.org/2000/svg" xmlns:xlink="http://www.w3.org/1999/xlink" x="0px" y="0px"
	 viewBox="0 0 61.666 61.666" style="enable-background:new 0 0 61.666 61.666;" xml:space="preserve">
<g>
	<g>
		<path style="fill:#010002;" d="M20.795,42.125h8.371v-33c0-0.552-0.448-1-1-1H9.118C8.151,7.149,6.812,6.542,5.333,6.542
			C2.393,6.542,0,8.934,0,11.875c0,1.246,0.447,2.378,1.166,3.287v27.963c0,0.552,0.448,1,1,1h16.072L20.795,42.125z M24.136,9.321
			c2.16,0,3.917,1.757,3.917,3.917s-1.757,3.917-3.917,3.917s-3.917-1.757-3.917-3.917S21.977,9.321,24.136,9.321z M5.308,7.991
			c2.131,0,3.858,1.727,3.858,3.858c0,2.13-1.727,3.858-3.858,3.858S1.45,13.979,1.45,11.85C1.45,9.719,3.177,7.991,5.308,7.991z
			 M3.332,28.125c0-6.571,5.346-11.917,11.917-11.917s11.917,5.346,11.917,11.917S21.82,40.042,15.249,40.042
			S3.332,34.695,3.332,28.125z"/>
		<path style="fill:#010002;" d="M15.249,17.208c-6.02,0-10.917,4.897-10.917,10.917s4.897,10.917,10.917,10.917
			s10.917-4.897,10.917-10.917S21.269,17.208,15.249,17.208z M15.496,30.333c-1.268,0-2.295-1.027-2.295-2.295
			s1.027-2.295,2.295-2.295s2.295,1.027,2.295,2.295C17.791,29.306,16.764,30.333,15.496,30.333z"/>
		<circle style="fill:#010002;" cx="24.136" cy="13.238" r="2.917"/>
		<path style="fill:#010002;" d="M45.166,47.125h-28c-0.552,0-1.056,0.443-1.124,0.993l-0.752,6.015
			c-0.068,0.549,0.324,0.992,0.876,0.992h30c0.552,0,0.943-0.443,0.876-0.993l-0.752-6.015
			C46.223,47.568,45.718,47.125,45.166,47.125z M21.166,53.125h-3v-1h3V53.125z M31.633,54.437c-1.759,0-3.186-1.426-3.186-3.186
			s1.426-3.186,3.186-3.186c1.021,0,1.921,0.489,2.503,1.236l-1.04,0.369c-0.521,0.185-0.793,0.756-0.608,1.276
			c0.146,0.41,0.531,0.666,0.942,0.666c0.111,0,0.224-0.019,0.334-0.058l1.048-0.371c0.001,0.022,0.007,0.044,0.007,0.066
			C34.818,53.012,33.393,54.437,31.633,54.437z"/>
		<path style="fill:#010002;" d="M46.416,17.208c-6.02,0-10.917,4.897-10.917,10.917s4.897,10.917,10.917,10.917
			s10.917-4.897,10.917-10.917S52.436,17.208,46.416,17.208z M46.496,30.333c-1.268,0-2.295-1.027-2.295-2.295
			s1.027-2.295,2.295-2.295s2.295,1.027,2.295,2.295C48.791,29.306,47.764,30.333,46.496,30.333z"/>
		<path style="fill:#010002;" d="M37.529,16.156c1.609,0,2.918-1.309,2.918-2.917c0-1.609-1.309-2.917-2.918-2.917
			c-1.607,0-2.916,1.309-2.916,2.917C34.613,14.847,35.922,16.156,37.529,16.156z"/>
		<path style="fill:#010002;" d="M56.333,6.542c-1.479,0-2.817,0.607-3.785,1.583H33.166c-0.552,0-1,0.448-1,1v33h9.432l2.558,2
			h15.01c0.552,0,1-0.448,1-1V15.566c0.924-0.959,1.5-2.258,1.5-3.692C61.666,8.935,59.273,6.542,56.333,6.542z M37.529,9.321
			c2.16,0,3.918,1.757,3.918,3.917s-1.758,3.917-3.918,3.917c-2.159,0-3.916-1.757-3.916-3.917S35.37,9.321,37.529,9.321z
			 M46.416,40.042c-6.571,0-11.917-5.346-11.917-11.917s5.346-11.917,11.917-11.917s11.917,5.346,11.917,11.917
			S52.987,40.042,46.416,40.042z M56.357,15.708c-2.131,0-3.858-1.728-3.858-3.858c0-2.131,1.728-3.858,3.858-3.858
			s3.857,1.727,3.857,3.858C60.215,13.979,58.488,15.708,56.357,15.708z"/>
		<polygon style="fill:#010002;" points="17.304,46.125 45.09,46.125 41.254,43.125 21.14,43.125 		"/>
		<circle style="fill:#010002;" cx="5.495" cy="11.879" r="1.777"/>
		<circle style="fill:#010002;" cx="56.495" cy="11.879" r="1.777"/>
	</g>
</g>
<g>
</g>
<g>
</g>
<g>
</g>
<g>
</g>
<g>
</g>
<g>
</g>
<g>
</g>
<g>
</g>
<g>
</g>
<g>
</g>
<g>
</g>
<g>
</g>
<g>
</g>
<g>
</g>
<g>
</g>
</svg>
