<?xml version="1.0" encoding="iso-8859-1"?>
<!-- Generator: Adobe Illustrator 16.0.0, SVG Export Plug-In . SVG Version: 6.00 Build 0)  -->
<!DOCTYPE svg PUBLIC "-//W3C//DTD SVG 1.1//EN" "http://www.w3.org/Graphics/SVG/1.1/DTD/svg11.dtd">
<svg fill="#343838" version="1.1" id="Capa_1" xmlns="http://www.w3.org/2000/svg" xmlns:xlink="http://www.w3.org/1999/xlink" x="0px" y="0px"
	 width="55.203px" height="55.203px" viewBox="0 0 55.203 55.203" style="enable-background:new 0 0 55.203 55.203;"
	 xml:space="preserve">
<g>
	<g>
		<path d="M34.602,46.325c0,3.032-2.468,5.5-5.5,5.5h-3c-3.033,0-5.5-2.468-5.5-5.5v-3.024c-1.397,1.262-2.25,2.907-2.25,4.715
			c0,3.97,4.09,7.188,9.135,7.188s9.135-3.219,9.135-7.188c0-1.707-0.758-3.271-2.02-4.504V46.325z"/>
		<path d="M52.014,21.758c-2.684-5.773-3.965-8.676-6.403-14.513c-0.034,0.002-0.069,0.004-0.104,0.007l-0.154-0.365L41.396,6.88
			L30.602,6.861v0.464c0,0.827-0.673,1.5-1.5,1.5h-3c-0.827,0-1.5-0.673-1.5-1.5V6.851L14.158,6.832L9.852,6.825L9.675,7.25
			c-0.026-0.002-0.053-0.003-0.08-0.005c-2.44,5.836-3.721,8.74-6.404,14.513C19.417,23.292,35.787,23.292,52.014,21.758z
			 M13.093,9.825h29.352c0.781,2.157,1.527,4.128,2.62,6.947c-11.74,0.722-22.851,0.722-34.592,0
			C11.565,13.953,12.312,11.982,13.093,9.825z"/>
		<path d="M2.602,22.825v3.083c0,2.163,1.754,3.917,3.917,3.917h14.108h1.025c-0.018,0.166-0.05,0.329-0.05,0.5v16
			c0,2.481,2.019,4.5,4.5,4.5h3c2.48,0,4.5-2.019,4.5-4.5v-16c0-0.171-0.032-0.334-0.051-0.5h1.025h14.107
			c2.164,0,3.918-1.754,3.918-3.917v-3.083C40.019,24.408,14.852,24.408,2.602,22.825z"/>
		<ellipse cx="27.696" cy="15.075" rx="2.468" ry="1"/>
		<path d="M22.946,4.512c0.569,0,1.07-0.272,1.396-0.687h0.26h1v3.5c0,0.276,0.224,0.5,0.5,0.5h3c0.275,0,0.5-0.224,0.5-0.5v-3.5
			h0.948c0.017,0.021,0.034,0.042,0.052,0.063c0.327,0.378,0.805,0.624,1.344,0.624c0.984,0,1.781-0.797,1.781-1.781
			c0-0.984-0.797-1.781-1.781-1.781c-0.539,0-1.017,0.245-1.344,0.624c-0.066,0.078-0.129,0.162-0.182,0.251h-0.818v-1.33
			c-0.216-0.11-0.807-0.303-2-0.495c-1.194,0.191-1.784,0.385-2,0.495v1.33h-1h-0.13c-0.311-0.522-0.875-0.875-1.526-0.875
			c-0.983,0-1.781,0.797-1.781,1.781C21.165,3.715,21.961,4.512,22.946,4.512z"/>
	</g>
</g>
<g>
</g>
<g>
</g>
<g>
</g>
<g>
</g>
<g>
</g>
<g>
</g>
<g>
</g>
<g>
</g>
<g>
</g>
<g>
</g>
<g>
</g>
<g>
</g>
<g>
</g>
<g>
</g>
<g>
</g>
</svg>
