<?xml version="1.0" encoding="iso-8859-1"?>
<!-- Generator: Adobe Illustrator 18.1.1, SVG Export Plug-In . SVG Version: 6.00 Build 0)  -->
<svg version="1.1" id="Capa_1" xmlns="http://www.w3.org/2000/svg" xmlns:xlink="http://www.w3.org/1999/xlink" x="0px" y="0px"
	 viewBox="0 0 58.748 58.748" style="enable-background:new 0 0 58.748 58.748;" xml:space="preserve">
<g>
	<g>
		<path style="fill:#010002;" d="M22.931,33.822c-0.388-0.379-0.764-0.754-1.102-1.145L8.607,45.743
			c-2.977,0.133-7.286,0.361-7.502,0.576c-0.216,0.213-1.08,1.245-1.102,1.596c-0.087,1.363,1.957,2.885,4.066,4.97
			c2.095,2.069,3.583,4.121,4.951,4.067c0.365-0.014,1.417-0.865,1.638-1.084l0.518-7.039l13.507-13.347
			c-0.461-0.393-0.932-0.853-1.453-1.368L22.931,33.822z M4.943,50.694L4.756,50.88c-0.155,0.152-0.407,0.152-0.562,0l-2.435-2.406
			c-0.155-0.152-0.155-0.402,0-0.555l0.187-0.186c0.155-0.152,0.407-0.152,0.562,0l2.435,2.406
			C5.098,50.291,5.098,50.541,4.943,50.694z M9.439,55.137l-0.187,0.186c-0.155,0.152-0.407,0.152-0.562,0l-2.435-2.407
			c-0.155-0.153-0.155-0.402,0-0.555l0.187-0.186c0.155-0.153,0.407-0.153,0.562,0l2.435,2.406
			C9.594,54.735,9.594,54.984,9.439,55.137z"/>
		<path style="fill:#010002;" d="M51.604,10.844c-1.18,0.479-1.893,1.837-2.292,2.974c-0.403,1.147-0.684,2.331-0.867,3.531
			l3.979-4.646c0.569-0.564,1.245-1.003,1.947-1.374C53.489,10.797,52.517,10.473,51.604,10.844z"/>
		<path style="fill:#010002;" d="M58.071,7.831l-4.496-4.442c-1.055-1.042-2.278-1.593-3.539-1.593
			c-1.316,0-2.636,0.615-3.812,1.778L28.825,19.702c-0.049-0.025-0.098-0.05-0.154-0.067c-0.346-0.108-0.709-0.174-1.067-0.164
			c-0.347,0.009-0.688,0.09-1,0.28c-0.587,0.358-0.827,0.993-0.908,1.642c-0.019,0.152-0.037,0.306-0.04,0.456
			c-0.006,0.328,0.12,0.57,0.309,0.731c-0.615,0.665-1.169,1.297-1.65,1.888l8.533,8.432c2.547-2.06,6.108-5.411,11.36-10.601
			l1.95-2.278c0.053-3.173,0.597-6.631,2.356-9.025c2.276-3.094,5.294-2.46,7.917-0.602c1.098-0.459,2.215-0.933,2.311-1.424
			C58.792,8.711,58.553,8.307,58.071,7.831z"/>
		<path style="fill:#010002;" d="M21.601,29.77c0.004,1.355,0.942,2.273,2.029,3.335l0.302,0.297
			c1.423,1.407,2.363,2.338,3.62,2.338c0.917,0,2.044-0.461,3.687-1.619l-8.138-8.042C22.093,27.566,21.598,28.783,21.601,29.77z"/>
	</g>
</g>
<g>
</g>
<g>
</g>
<g>
</g>
<g>
</g>
<g>
</g>
<g>
</g>
<g>
</g>
<g>
</g>
<g>
</g>
<g>
</g>
<g>
</g>
<g>
</g>
<g>
</g>
<g>
</g>
<g>
</g>
</svg>
