<?xml version="1.0" encoding="iso-8859-1"?>
<!-- Generator: Adobe Illustrator 16.0.0, SVG Export Plug-In . SVG Version: 6.00 Build 0)  -->
<!DOCTYPE svg PUBLIC "-//W3C//DTD SVG 1.1//EN" "http://www.w3.org/Graphics/SVG/1.1/DTD/svg11.dtd">
<svg fill="#343838" version="1.1" id="Capa_1" xmlns="http://www.w3.org/2000/svg" xmlns:xlink="http://www.w3.org/1999/xlink" x="0px" y="0px"
	 width="59.416px" height="59.416px" viewBox="0 0 59.416 59.416" style="enable-background:new 0 0 59.416 59.416;"
	 xml:space="preserve">
<g>
	<g>
		<rect x="4" y="42.698" width="4" height="4"/>
		<rect x="51" y="42.698" width="4" height="4"/>
		<polygon points="0,41.698 4,41.698 8,41.698 39,41.698 39,30.698 0,30.698 		"/>
		<path d="M48.023,26.137c-4.035,0-7.307,1.562-7.307,3.562H55.33C55.33,27.699,52.059,26.137,48.023,26.137z"/>
		<path d="M56,17.258v13.44H40v11h11h4h2h2v-7v-4V17.203c-0.453,0.28-0.98,0.449-1.551,0.449C56.92,17.652,56.432,17.501,56,17.258z
			"/>
		<circle cx="57.449" cy="14.685" r="1.967"/>
	</g>
</g>
<g>010002
</g>
<g>
</g>
<g>
</g>
<g>
</g>
<g>
</g>
<g>
</g>
<g>
</g>
<g>
</g>
<g>
</g>
<g>
</g>
<g>
</g>
<g>
</g>
<g>
</g>
<g>
</g>
<g>
</g>
</svg>
