<?xml version="1.0" encoding="iso-8859-1"?>
<!-- Generator: Adobe Illustrator 18.1.1, SVG Export Plug-In . SVG Version: 6.00 Build 0)  -->
<svg version="1.1" id="Capa_1" xmlns="http://www.w3.org/2000/svg" xmlns:xlink="http://www.w3.org/1999/xlink" x="0px" y="0px"
	 viewBox="0 0 450.778 450.778" style="enable-background:new 0 0 450.778 450.778;" xml:space="preserve">
<g>
	<g>
		<polygon style="fill:#343838;" points="235.729,144.607 235.729,193.419 284.541,144.607 		"/>
		<polygon style="fill:#343838;" points="422.003,144.607 373.191,144.607 422.003,193.419 		"/>
		<path style="fill:#343838;" d="M422.003,241.809H235.729v81.79h-62.436c4.869-2.268,8.267-7.169,8.267-12.876
			c0-1.455-0.219-2.861-0.626-4.178c-1.788-5.812-7.21-10.055-13.607-10.055c-6.397,0-11.811,4.235-13.607,10.055
			c-0.406,1.325-0.626,2.723-0.626,4.178c0,5.714,3.398,10.616,8.267,12.876h-60.436c4.869-2.268,8.267-7.169,8.267-12.876
			c0-1.455-0.219-2.861-0.626-4.178c-1.479-4.812-5.446-8.527-10.396-9.673c-1.032-0.236-2.105-0.382-3.211-0.382
			c-0.715,0-1.414,0.073-2.097,0.171c-5.454,0.813-9.917,4.715-11.51,9.884c-0.406,1.325-0.626,2.723-0.626,4.178
			c0,5.714,3.398,10.616,8.267,12.876H43.35v-87.211h149.403l27.775-27.775H24.386L0,236.387h27.093v87.211H14.9v15.412h430.814
			v-15.412h-23.711V241.809z M159.548,310.723c0-1.544,0.463-2.975,1.236-4.178c1.382-2.154,3.788-3.593,6.544-3.593
			c2.756,0,5.162,1.439,6.544,3.593c0.772,1.211,1.236,2.642,1.236,4.178c0,4.292-3.479,7.779-7.779,7.779
			C163.035,318.502,159.548,315.015,159.548,310.723z M87.179,310.723c0-1.544,0.463-2.975,1.236-4.178
			c0.959-1.496,2.422-2.617,4.146-3.178c0.756-0.244,1.553-0.415,2.39-0.415c1.146,0,2.227,0.26,3.211,0.707
			c1.374,0.626,2.52,1.626,3.325,2.886c0.772,1.211,1.236,2.642,1.236,4.178c0,4.292-3.479,7.779-7.779,7.779
			C90.666,318.502,87.179,315.015,87.179,310.723z M355.983,324.956h-54.226v-1.357v-52.876h54.226v52.876V324.956z"/>
		<polygon style="fill:#343838;" points="361.697,144.607 328.866,111.768 296.035,144.607 235.729,204.913 232.022,208.62
			206.954,233.68 235.729,233.68 255.367,233.68 422.003,233.68 450.778,233.68 422.003,204.913 		"/>
		<path style="fill:#343838;" d="M67.638,306.545c1.959,2.528,4.991,4.178,8.437,4.178h0.39c0-1.439,0.179-2.837,0.496-4.178
			c1.772-7.649,8.275-13.477,16.273-14.225c0.569-0.057,1.146-0.089,1.731-0.089c1.097,0,2.17,0.114,3.211,0.301
			c7.308,1.284,13.128,6.844,14.786,14.014c0.309,1.349,0.496,2.739,0.496,4.178h35.384c0-1.439,0.179-2.837,0.496-4.178
			c1.894-8.194,9.226-14.306,17.997-14.306s16.103,6.113,17.997,14.306c0.309,1.317,0.48,2.691,0.488,4.105
			c5.536-0.415,9.917-4.983,9.917-10.632c0-2.934-1.187-5.584-3.089-7.519c-3.967-37.53-24.711-42.512-49.706-42.512
			c-19.476,0-36.367,3.024-44.764,22.102v-0.024c0,0-17.606,8.161-23.752,9.868c-2.544,0.707-4.154,5.048-5.162,9.884
			c-2.357,1.967-3.885,4.885-3.885,8.194c0,2.439,0.845,4.658,2.219,6.462c0,0.041,0,0.065,0,0.065h0.041V306.545z"/>
	</g>
</g>
<g>
</g>
<g>
</g>
<g>
</g>
<g>
</g>
<g>
</g>
<g>
</g>
<g>
</g>
<g>
</g>
<g>
</g>
<g>
</g>
<g>
</g>
<g>
</g>
<g>
</g>
<g>
</g>
<g>
</g>
</svg>
