<?xml version="1.0" encoding="iso-8859-1"?>
<!-- Generator: Adobe Illustrator 18.1.1, SVG Export Plug-In . SVG Version: 6.00 Build 0)  -->
<svg version="1.1" id="Capa_1" xmlns="http://www.w3.org/2000/svg" xmlns:xlink="http://www.w3.org/1999/xlink" x="0px" y="0px"
	 viewBox="0 0 308.564 308.564" style="enable-background:new 0 0 308.564 308.564;" xml:space="preserve">
<g>
	<g>
		<path style="fill:#010002;" d="M219.06,308.564h38.71c5.787,0,10.476-4.688,10.476-10.476v-147.66
			c0-5.787-4.688-10.476-10.476-10.476H50.281c-5.787,0-10.476,4.688-10.476,10.476v147.665c0,5.782,4.688,10.47,10.476,10.47H94.43
			c-0.098-0.767-0.234-1.523-0.234-2.317v-60.635c0-10.274,8.36-18.634,18.634-18.634h87.83c10.274,0,18.634,8.36,18.634,18.634
			v60.635C219.294,307.041,219.158,307.797,219.06,308.564z"/>
		<path style="fill:#010002;" d="M112.83,243.295c-1.278,0-2.317,1.039-2.317,2.317v60.635c0,1.278,1.039,2.317,2.317,2.317h87.83
			c1.278,0,2.317-1.039,2.317-2.317v-60.635c0-1.278-1.039-2.317-2.317-2.317H112.83z"/>
		<path style="fill:#010002;" d="M36.955,124.425l234.647-0.375c6.521-0.011,8.072-3.748,3.47-8.354L162.815,3.444
			c-4.601-4.601-12.075-4.591-16.692,0.027L33.507,116.081C28.889,120.699,30.434,124.436,36.955,124.425z"/>
	</g>
</g>
<g>
</g>
<g>
</g>
<g>
</g>
<g>
</g>
<g>
</g>
<g>
</g>
<g>
</g>
<g>
</g>
<g>
</g>
<g>
</g>
<g>
</g>
<g>
</g>
<g>
</g>
<g>
</g>
<g>
</g>
</svg>
