<?xml version="1.0" encoding="iso-8859-1"?>
<!-- Generator: Adobe Illustrator 18.1.1, SVG Export Plug-In . SVG Version: 6.00 Build 0)  -->
<svg version="1.1" id="Capa_1" xmlns="http://www.w3.org/2000/svg" xmlns:xlink="http://www.w3.org/1999/xlink" x="0px" y="0px"
	 viewBox="0 0 313.535 313.535" style="enable-background:new 0 0 313.535 313.535;" xml:space="preserve">
<g>
	<g>
		<path style="fill:#010002;" d="M7.337,177.353c2.714,1.795,5.847,2.687,8.98,2.687s6.266-0.897,8.98-2.687
			c0.903-0.598,1.762-1.294,2.556-2.094l10.639-10.639v74.515c0,32.841,29.028,60.591,63.387,60.591h114.868
			c33.668,0,61.064-27.184,61.064-60.591v-71.741l7.87,7.87c3.182,3.187,7.365,4.781,11.536,4.781s8.354-1.594,11.536-4.781
			c6.375-6.369,6.375-16.703,0-23.073L179.843,23.269c-11.928-11.922-30.78-12.526-43.583-2.094c-0.859,0.696-1.768,1.3-2.567,2.094
			L4.781,152.186c-6.375,6.369-6.375,16.703,0,23.073C5.575,176.058,6.434,176.754,7.337,177.353z M245.177,134.754v104.376
			c0,15.414-12.755,27.957-28.43,27.957H101.879c-16.382,0.005-30.752-13.059-30.752-27.951v-107.15l85.644-85.638L245.177,134.754z
			"/>
	</g>
</g>
<g>
</g>
<g>
</g>
<g>
</g>
<g>
</g>
<g>
</g>
<g>
</g>
<g>
</g>
<g>
</g>
<g>
</g>
<g>
</g>
<g>
</g>
<g>
</g>
<g>
</g>
<g>
</g>
<g>
</g>
</svg>
