<?xml version="1.0" encoding="iso-8859-1"?>
<!-- Generator: Adobe Illustrator 18.1.1, SVG Export Plug-In . SVG Version: 6.00 Build 0)  -->
<svg version="1.1" id="Capa_1" xmlns="http://www.w3.org/2000/svg" xmlns:xlink="http://www.w3.org/1999/xlink" x="0px" y="0px"
	 viewBox="0 0 58.166 58.166" style="enable-background:new 0 0 58.166 58.166;" xml:space="preserve">
<g>
	<g>
		<path style="fill:#010002;" d="M33.349,6.666V1.65c0-0.912-0.738-1.65-1.647-1.65h-5.234c-0.912,0-1.65,0.739-1.65,1.65v5.016
			H33.349z"/>
		<path style="fill:#010002;" d="M35.517,17.009c-1.578-1.264-2.61-2.191-2.61-3.509V9.583h-7.646V13.5
			c0,1.318-1.034,2.245-2.61,3.509c-1.349,1.081-2.877,2.306-2.877,4.21v8.613h9.309v15.751h-9.311V56.24
			c0,1.063,0.862,1.926,1.926,1.926h14.77c1.063,0,1.926-0.862,1.926-1.926V21.22C38.394,19.315,36.864,18.09,35.517,17.009z"/>
	</g>
</g>
<g>
</g>
<g>
</g>
<g>
</g>
<g>
</g>
<g>
</g>
<g>
</g>
<g>
</g>
<g>
</g>
<g>
</g>
<g>
</g>
<g>
</g>
<g>
</g>
<g>
</g>
<g>
</g>
<g>
</g>
</svg>
