<?xml version="1.0" encoding="iso-8859-1"?>
<!-- Generator: Adobe Illustrator 16.0.0, SVG Export Plug-In . SVG Version: 6.00 Build 0)  -->
<!DOCTYPE svg PUBLIC "-//W3C//DTD SVG 1.1//EN" "http://www.w3.org/Graphics/SVG/1.1/DTD/svg11.dtd">
<svg version="1.1" id="Capa_1" xmlns="http://www.w3.org/2000/svg" xmlns:xlink="http://www.w3.org/1999/xlink" x="0px" y="0px"
	 width="56px" height="56px" viewBox="0 0 56 56" style="enable-background:new 0 0 56 56;" xml:space="preserve">
<g>
	<g>
		<path d="M52,30V13c0-6.627-5.373-12-12-12H16C9.373,1,4,6.373,4,13v17H0v25h6V35h44v20h6V30H52z M49,30H7V13c0-4.963,4.037-9,9-9
			h24c4.963,0,9,4.037,9,9V30z"/>
		<path d="M8,44h40v-7H8V44z M21,40h14v1H21V40z"/>
		<path d="M39.461,12.303l-1.164-1.626l4.445-3.183l1.165,1.626L39.461,12.303z M38.593,16.173l-1.165-1.626l4.445-3.182
			l1.164,1.626L38.593,16.173z M11.449,23.309l-1.143-1.642l7.447-5.184l1.143,1.642L11.449,23.309z M10.592,27.173l-1.164-1.626
			l4.445-3.182l1.164,1.626L10.592,27.173z"/>
	</g>
</g>
<g>
</g>
<g>
</g>
<g>
</g>
<g>
</g>
<g>
</g>
<g>
</g>
<g>
</g>
<g>
</g>
<g>
</g>
<g>
</g>
<g>
</g>
<g>
</g>
<g>
</g>
<g>
</g>
<g>
</g>
</svg>
