<?xml version="1.0" encoding="iso-8859-1"?>
<!-- Generator: Adobe Illustrator 16.0.0, SVG Export Plug-In . SVG Version: 6.00 Build 0)  -->
<!DOCTYPE svg PUBLIC "-//W3C//DTD SVG 1.1//EN" "http://www.w3.org/Graphics/SVG/1.1/DTD/svg11.dtd">
<svg version="1.1" id="Capa_1" xmlns="http://www.w3.org/2000/svg" xmlns:xlink="http://www.w3.org/1999/xlink" x="0px" y="0px"
	 width="54.306px" height="54.306px" viewBox="0 0 54.306 54.306" style="enable-background:new 0 0 54.306 54.306;"
	 xml:space="preserve">
<g>
	<g>
		<polygon points="36.254,49.095 37.27,53.095 1.961,53.095 2.976,49.095 1.22,49.095 0,54.095 39.482,54.095 38.262,49.095 		"/>
		<path d="M21.76,3.095c0-1.104-0.896-2-2-2s-2,0.896-2,2v45h4V3.095z"/>
		<path d="M43.76,22.259v29.836c0,1.104,0.896,2,2,2s2-0.896,2-2v-29.8c-0.659,0.114-1.354,0.194-2.134,0.194
			C44.957,22.489,44.339,22.405,43.76,22.259z"/>
		<path d="M35.223,49.095H4.008l-0.762,3h32.739L35.223,49.095z M4.786,50.667c-0.308,0-0.557-0.25-0.557-0.558
			c0-0.309,0.25-0.558,0.557-0.558c0.307,0,0.557,0.249,0.557,0.558C5.343,50.417,5.093,50.667,4.786,50.667z M33.861,50.802
			c-0.34,0-0.615-0.274-0.615-0.616c0-0.34,0.275-0.615,0.615-0.615c0.342,0,0.616,0.275,0.616,0.615
			C34.478,50.527,34.201,50.802,33.861,50.802z"/>
		<path d="M44.433,3.252l-1.78,9.526L41.17,2.169l-4.225-1.958c0.013,6.962,0.326,21.278,8.681,21.278
			c8.534,0,8.678-7.747,8.68-14.726L44.433,3.252z"/>
	</g>
</g>
<g>
</g>
<g>
</g>
<g>
</g>
<g>
</g>
<g>
</g>
<g>
</g>
<g>
</g>
<g>
</g>
<g>
</g>
<g>
</g>
<g>
</g>
<g>
</g>
<g>
</g>
<g>
</g>
<g>
</g>
</svg>
