<?xml version="1.0" encoding="iso-8859-1"?>
<!-- Generator: Adobe Illustrator 18.1.1, SVG Export Plug-In . SVG Version: 6.00 Build 0)  -->
<svg version="1.1" id="Capa_1" xmlns="http://www.w3.org/2000/svg" xmlns:xlink="http://www.w3.org/1999/xlink" x="0px" y="0px"
	 viewBox="0 0 57.682 57.682" style="enable-background:new 0 0 57.682 57.682;" xml:space="preserve">
<g>
	<g>
		<path style="fill:#010002;" d="M37.222,47.668H20.73c0,0.671,0.002,1.341,0.021,2H37.2C37.22,49.009,37.222,48.339,37.222,47.668z
			"/>
		<path style="fill:#010002;" d="M20.905,51.668h16.142c0.043-0.328,0.078-0.66,0.103-1H20.803
			C20.827,51.008,20.861,51.34,20.905,51.668z"/>
		<path style="fill:#010002;" d="M28.976,57.682c5.382,0,7.243-2.141,7.893-5.014H21.084C21.733,55.541,23.595,57.682,28.976,57.682
			z"/>
		<path style="fill:#010002;" d="M45.811,18.549C45.811,8.305,38.213,0,28.841,0c-9.373,0-16.97,8.305-16.97,18.549
			c0,4.905,1.755,9.353,4.6,12.67c-0.286,0.011,4.161,4.449,4.555,14.449h16.101c0,0,4.457-14.625,4.229-14.624
			C44.115,27.746,45.811,23.369,45.811,18.549z"/>
	</g>
</g>
<g>
</g>
<g>
</g>
<g>
</g>
<g>
</g>
<g>
</g>
<g>
</g>
<g>
</g>
<g>
</g>
<g>
</g>
<g>
</g>
<g>
</g>
<g>
</g>
<g>
</g>
<g>
</g>
<g>
</g>
</svg>
