<?xml version="1.0" encoding="iso-8859-1"?>
<!-- Generator: Adobe Illustrator 18.1.1, SVG Export Plug-In . SVG Version: 6.00 Build 0)  -->
<svg version="1.1" id="Capa_1" xmlns="http://www.w3.org/2000/svg" xmlns:xlink="http://www.w3.org/1999/xlink" x="0px" y="0px"
	 viewBox="0 0 390.082 390.082" style="enable-background:new 0 0 390.082 390.082;" xml:space="preserve">
<g>
	<g>
		<path style="fill:#010002;" d="M369.48,303.968c0.358-4.763-0.975-12.201-2.975-16.607l-21.419-47.186
			c-2-4.406-3.926-7.99-4.3-8.007c-0.333-0.008-0.423-0.016-0.236-0.016c0.024,0,0.057,0,0.089,0l0,0
			c0.293,0-0.593-3.731-1.983-8.332l-4.918-16.282c-1.39-4.601-6.145-10.437-9.681-13.949
			c-15.16-15.103-19.362-41.659-35.294-41.659c-0.041,0-0.081,0.008-0.122,0.008c-18.119,0.057-31.084,13.209-31.084,29.734
			c0,0-1.414,25.06,11.518,43.212c2.853,3.999,6.73,10.543,7.763,15.217l2.122,9.665c1.032,4.682-2.374,8.478-7.592,8.478h-89.748
			h-48.259c-5.219,0-12.323-2.845-15.859-6.357c-7.982-7.917-21.549-21.378-30.222-29.962c-0.553-0.545-1.146-1.138-1.658-1.642
			c-3.544-3.512-6.43-10.218-6.43-14.989v-24.491c0-13.428-13.932-24.313-31.116-24.313S16.96,167.376,16.96,180.804v24.491
			c0,4.771,0.593,12.485,1.325,17.216c1.211,7.836,2.999,19.354,4.219,27.182c0.74,4.723,4.658,10.974,8.73,13.965l60.42,44.293
			c4.072,2.983,11.591,5.731,16.794,6.137l92.967,7.186c5.202,0.398,10.421,4.487,11.648,9.128l13.599,51.275
			c1.227,4.641,6.462,8.405,11.681,8.405h124.676c5.219,0,9.746-3.861,10.104-8.624l-5.113-57.859L369.48,303.968z"/>
		<path style="fill:#010002;" d="M93.653,18.362v61.468l-47.845,40.602l41.48,0.057v45.024c2.569,4.666,4.105,9.811,4.105,15.282
			v24.491c0.016,1.447,1.504,5.032,2.812,6.332l31.888,31.612c1.171,1.162,5.129,2.821,7.275,2.821h23.093v-82.05h62.996v82.05
			h46.187l-0.732-3.333c-0.406-1.837-2.731-6.478-5.779-10.762c-14.469-20.305-13.932-46.91-13.778-50.584
			c0.163-23.329,19.102-41.561,43.277-41.626v-18.988l41.48,0.057L187.742,0l-57.51,48.796V18.362H93.653z"/>
	</g>
</g>
<g>
</g>
<g>
</g>
<g>
</g>
<g>
</g>
<g>
</g>
<g>
</g>
<g>
</g>
<g>
</g>
<g>
</g>
<g>
</g>
<g>
</g>
<g>
</g>
<g>
</g>
<g>
</g>
<g>
</g>
</svg>
