<?xml version="1.0" encoding="iso-8859-1"?>
<!-- Generator: Adobe Illustrator 16.0.0, SVG Export Plug-In . SVG Version: 6.00 Build 0)  -->
<!DOCTYPE svg PUBLIC "-//W3C//DTD SVG 1.1//EN" "http://www.w3.org/Graphics/SVG/1.1/DTD/svg11.dtd">
<svg version="1.1" id="Capa_1" xmlns="http://www.w3.org/2000/svg" xmlns:xlink="http://www.w3.org/1999/xlink" x="0px" y="0px"
	 width="57.528px" height="57.528px" viewBox="0 0 57.528 57.528" style="enable-background:new 0 0 57.528 57.528;"
	 xml:space="preserve">
<g>
	<g>
		<path d="M14.727,39.403c-2.029,0-7.106-0.069-10.285-0.699H2.646l0.771,6.599c2.917,1.758,7.429-0.252,9.869-2.026
			c-0.001-0.022-0.007-0.044-0.007-0.066c0-1.038,0.842-1.88,1.88-1.88c1.039,0,1.88,0.842,1.88,1.88s-0.841,1.88-1.88,1.88
			c-0.165,0-0.323-0.027-0.475-0.068c-0.062,0.074-0.127,0.146-0.214,0.209c-2.821,2.066-7.213,3.716-10.751,2.654l0.914,7.819
			h0.044c0.443,0.841,4.698,1.5,9.889,1.5s9.446-0.659,9.889-1.5h0.042l1.987-17H25.01C21.833,39.334,16.755,39.403,14.727,39.403z"
			/>
		<path d="M23.921,35.628L44.696,2.293c0.438-0.703,0.223-1.628-0.48-2.066c-0.699-0.437-1.625-0.225-2.065,0.479L20.594,35.295
			l-0.234,0.376c-0.118,0.189-0.185,0.396-0.211,0.604c-1.569-0.1-3.386-0.16-5.422-0.16c-6.53,0-10.813,0.625-11.849,1.145
			c1.036,0.519,5.319,1.145,11.849,1.145c6.53,0,10.812-0.626,11.849-1.145c-0.462-0.231-1.574-0.483-3.239-0.693L23.921,35.628z"/>
		<path d="M54.169,51.49c-1.17-0.327-2.293-0.646-3.438-0.896c0.265-0.592-0.304-1.359-0.951-1.39
			c-4.804-0.224-11.301-0.538-15.16,2.908c-0.11-0.017-0.229-0.024-0.354,0.003c-1.254,0.261-2.422,0.561-3.625,1
			c-0.754,0.275-1.069,1.396-0.239,1.828c2.14,1.109,4.583,1.719,7.134,1.984c0.717,0.832,2.128,0.715,3.756,0.161
			c3.829-0.06,7.697-0.725,11.006-1.546c0.599-0.148,0.823-0.77,0.662-1.279c0.491-0.299,0.975-0.607,1.452-0.944
			C55.093,52.834,55.056,51.738,54.169,51.49z"/>
		<path d="M30.919,50.794c0.055-0.013,0.109-0.01,0.164-0.021c0.02,0.01,0.035,0.02,0.053,0.025c1.105,0.439,2.557,0.116,3.522-0.48
			c0.874-0.541,0.478-1.805-0.505-1.864c-0.212-0.015-0.423-0.005-0.634-0.007c-0.313-0.37-0.804-0.43-1.246-0.232
			c0.185-0.08-0.21,0.037-0.253,0.047c-0.18,0.036-0.314,0.047-0.498,0.065c-0.42,0.044-0.848,0.069-1.26,0.163
			c-0.213,0.047-0.368,0.15-0.483,0.281c-0.214,0.031-0.428,0.062-0.642,0.094c-1.272,0.186-0.729,2.109,0.531,1.929
			c0.187-0.026,0.371-0.052,0.555-0.077C30.416,50.82,30.647,50.861,30.919,50.794z"/>
	</g>
</g>
<g>
</g>
<g>
</g>
<g>
</g>
<g>
</g>
<g>
</g>
<g>
</g>
<g>
</g>
<g>
</g>
<g>
</g>
<g>
</g>
<g>
</g>
<g>
</g>
<g>
</g>
<g>
</g>
<g>
</g>
</svg>
