<?xml version="1.0" encoding="iso-8859-1"?>
<!-- Generator: Adobe Illustrator 18.1.1, SVG Export Plug-In . SVG Version: 6.00 Build 0)  -->
<svg version="1.1" id="Capa_1" xmlns="http://www.w3.org/2000/svg" xmlns:xlink="http://www.w3.org/1999/xlink" x="0px" y="0px"
	 viewBox="0 0 409.477 409.477" style="enable-background:new 0 0 409.477 409.477;" xml:space="preserve">
<g>
	<g>
		<path style="fill:#010002;" d="M397.284,376.231h-12.193V53.519c0-24.621-18.232-44.658-40.643-44.658H232.68
			c-22.41,0-40.643,20.037-40.643,44.658v59.265c-3.268-0.764-6.633-1.301-10.161-1.301H70.109
			c-22.41,0-40.643,16.428-40.643,36.635v228.112H12.193C5.462,376.231,0,381.694,0,388.424s5.462,12.193,12.193,12.193h385.091
			c6.73,0,12.193-5.462,12.193-12.193S404.015,376.231,397.284,376.231z M61.98,148.119c0-1.195,2.853-4.121,8.129-4.121h111.768
			c5.275,0,8.129,2.918,8.129,4.121v228.112H61.98V148.119z M224.552,53.519c0-7.161,4.284-12.144,8.129-12.144h111.768
			c3.845,0,8.129,4.983,8.129,12.144v322.713H224.552V53.519z"/>
		<path style="fill:#010002;" d="M268.812,55.12H248.71c-6.495,0-11.77,5.267-11.77,11.77v20.102c0,6.495,5.267,11.77,11.77,11.77
			h20.102c6.495,0,11.77-5.267,11.77-11.77V66.89C280.582,60.387,275.307,55.12,268.812,55.12z"/>
		<path style="fill:#010002;" d="M268.812,112.02H248.71c-6.495,0-11.77,5.267-11.77,11.77v20.102c0,6.495,5.267,11.77,11.77,11.77
			h20.102c6.495,0,11.77-5.267,11.77-11.77V123.79C280.582,117.287,275.307,112.02,268.812,112.02z"/>
		<path style="fill:#010002;" d="M268.812,168.92H248.71c-6.495,0-11.77,5.267-11.77,11.77v20.102c0,6.495,5.267,11.77,11.77,11.77
			h20.102c6.495,0,11.77-5.267,11.77-11.77V180.69C280.582,174.187,275.307,168.92,268.812,168.92z"/>
		<path style="fill:#010002;" d="M328.419,55.12h-20.102c-6.495,0-11.77,5.267-11.77,11.77v20.102c0,6.495,5.267,11.77,11.77,11.77
			h20.102c6.495,0,11.77-5.267,11.77-11.77V66.89C340.189,60.387,334.922,55.12,328.419,55.12z"/>
		<path style="fill:#010002;" d="M328.419,112.02h-20.102c-6.495,0-11.77,5.267-11.77,11.77v20.102c0,6.495,5.267,11.77,11.77,11.77
			h20.102c6.495,0,11.77-5.267,11.77-11.77V123.79C340.189,117.287,334.922,112.02,328.419,112.02z"/>
		<path style="fill:#010002;" d="M328.419,168.92h-20.102c-6.495,0-11.77,5.267-11.77,11.77v20.102c0,6.495,5.267,11.77,11.77,11.77
			h20.102c6.495,0,11.77-5.267,11.77-11.77V180.69C340.189,174.187,334.922,168.92,328.419,168.92z"/>
		<path style="fill:#010002;" d="M268.812,225.82H248.71c-6.495,0-11.77,5.267-11.77,11.77v20.102c0,6.495,5.267,11.77,11.77,11.77
			h20.102c6.495,0,11.77-5.267,11.77-11.77V237.59C280.582,231.087,275.307,225.82,268.812,225.82z"/>
		<path style="fill:#010002;" d="M268.812,282.72H248.71c-6.495,0-11.77,5.267-11.77,11.77v20.102c0,6.495,5.267,11.77,11.77,11.77
			h20.102c6.495,0,11.77-5.267,11.77-11.77V294.49C280.582,287.987,275.307,282.72,268.812,282.72z"/>
		<path style="fill:#010002;" d="M328.419,225.82h-20.102c-6.495,0-11.77,5.267-11.77,11.77v20.102c0,6.495,5.267,11.77,11.77,11.77
			h20.102c6.495,0,11.77-5.267,11.77-11.77V237.59C340.189,231.087,334.922,225.82,328.419,225.82z"/>
		<path style="fill:#010002;" d="M328.419,282.72h-20.102c-6.495,0-11.77,5.267-11.77,11.77v20.102c0,6.495,5.267,11.77,11.77,11.77
			h20.102c6.495,0,11.77-5.267,11.77-11.77V294.49C340.189,287.987,334.922,282.72,328.419,282.72z"/>
		<path style="fill:#010002;" d="M106.24,168.92H86.139c-6.495,0-11.77,5.267-11.77,11.77v20.102c0,6.495,5.267,11.77,11.77,11.77
			h20.102c6.495,0,11.77-5.267,11.77-11.77V180.69C118.011,174.187,112.735,168.92,106.24,168.92z"/>
		<path style="fill:#010002;" d="M165.847,168.92h-20.102c-6.495,0-11.77,5.267-11.77,11.77v20.102c0,6.495,5.267,11.77,11.77,11.77
			h20.102c6.495,0,11.77-5.267,11.77-11.77V180.69C177.617,174.187,172.35,168.92,165.847,168.92z"/>
		<path style="fill:#010002;" d="M106.24,225.82H86.139c-6.495,0-11.77,5.267-11.77,11.77v20.102c0,6.495,5.267,11.77,11.77,11.77
			h20.102c6.495,0,11.77-5.267,11.77-11.77V237.59C118.011,231.087,112.735,225.82,106.24,225.82z"/>
		<path style="fill:#010002;" d="M106.24,282.72H86.139c-6.495,0-11.77,5.267-11.77,11.77v20.102c0,6.495,5.267,11.77,11.77,11.77
			h20.102c6.495,0,11.77-5.267,11.77-11.77V294.49C118.011,287.987,112.735,282.72,106.24,282.72z"/>
		<path style="fill:#010002;" d="M165.847,225.82h-20.102c-6.495,0-11.77,5.267-11.77,11.77v20.102c0,6.495,5.267,11.77,11.77,11.77
			h20.102c6.495,0,11.77-5.267,11.77-11.77V237.59C177.617,231.087,172.35,225.82,165.847,225.82z"/>
		<path style="fill:#010002;" d="M165.847,282.72h-20.102c-6.495,0-11.77,5.267-11.77,11.77v20.102c0,6.495,5.267,11.77,11.77,11.77
			h20.102c6.495,0,11.77-5.267,11.77-11.77V294.49C177.617,287.987,172.35,282.72,165.847,282.72z"/>
	</g>
</g>
<g>
</g>
<g>
</g>
<g>
</g>
<g>
</g>
<g>
</g>
<g>
</g>
<g>
</g>
<g>
</g>
<g>
</g>
<g>
</g>
<g>
</g>
<g>
</g>
<g>
</g>
<g>
</g>
<g>
</g>
</svg>
