<?xml version="1.0" encoding="iso-8859-1"?>
<!-- Generator: Adobe Illustrator 16.0.0, SVG Export Plug-In . SVG Version: 6.00 Build 0)  -->
<!DOCTYPE svg PUBLIC "-//W3C//DTD SVG 1.1//EN" "http://www.w3.org/Graphics/SVG/1.1/DTD/svg11.dtd">
<svg version="1.1" id="Capa_1" xmlns="http://www.w3.org/2000/svg" xmlns:xlink="http://www.w3.org/1999/xlink" x="0px" y="0px"
	 width="58px" height="58px" viewBox="0 0 58 58" style="enable-background:new 0 0 58 58;" xml:space="preserve">
<g>
	<g>
		<path d="M55.562,14.5h-8.125c-0.539,0-1.033,0.181-1.438,0.479v1.996c0.313-0.472,0.867-0.475,1.638-0.475h7.909
			c1.248,0,1.751,0,1.751,2H46v4h11v1H46v3h11v1H46v7.926c0,0.895-0.391,1.692-1,2.254v5.383c0,1.346,1.092,2.438,2.438,2.438h8.125
			c1.346,0,2.438-1.092,2.438-2.438V16.938C58,15.592,56.908,14.5,55.562,14.5z M55.546,43.5h-7.909c-1.248,0-1.932-1-1.932-2
			h11.592C57.297,42.5,56.794,43.5,55.546,43.5z"/>
		<path d="M45,16.938v-2.364c0-1.143-0.932-2.074-2.074-2.074H2.074C0.931,12.5,0,13.431,0,14.574v20.852
			C0,36.568,0.931,37.5,2.074,37.5h40.852c1.143,0,2.074-0.932,2.074-2.074V16.938z M42,34.5H3v-19h39V34.5z"/>
		<polygon points="18.352,42.5 26.932,42.5 26.074,38.5 19.21,38.5 		"/>
		<rect x="17" y="43.5" width="11" height="1"/>
	</g>
</g>
<g>
</g>
<g>
</g>
<g>
</g>
<g>
</g>
<g>
</g>
<g>
</g>
<g>
</g>
<g>
</g>
<g>
</g>
<g>
</g>
<g>
</g>
<g>
</g>
<g>
</g>
<g>
</g>
<g>
</g>
</svg>
