<?xml version="1.0" encoding="iso-8859-1"?>
<!-- Generator: Adobe Illustrator 18.1.1, SVG Export Plug-In . SVG Version: 6.00 Build 0)  -->
<svg version="1.1" id="Capa_1" xmlns="http://www.w3.org/2000/svg" xmlns:xlink="http://www.w3.org/1999/xlink" x="0px" y="0px"
	 viewBox="0 0 52.083 52.083" style="enable-background:new 0 0 52.083 52.083;" xml:space="preserve">
<g>
	<g>
		<path style="fill:#010002;" d="M41.384,23.401c-0.272,0-0.54,0.021-0.807,0.041c-0.14-0.017-0.279-0.041-0.423-0.041H26.25
			c0.482-3.325,6.464-2.758,8.913-3.155c2.06-0.334,4.042-1.271,5.753-2.431c3.217-2.182,4.287-5.886,3.792-9.58
			c-0.169-1.259-2.171-1.275-2,0c0.999,7.452-5.297,9.89-11.577,10.522c-3.471,0.349-6.555,0.866-6.897,4.645H11.329
			c-0.071,0-0.142,0.016-0.212,0.02c-0.14-0.005-0.277-0.021-0.418-0.021C4.79,23.401,0,28.191,0,34.1
			c0,5.908,4.79,10.699,10.699,10.699c3.083,0,5.853-1.312,7.806-3.398h15.073c1.952,2.087,4.723,3.398,7.806,3.398
			c5.909,0,10.699-4.791,10.699-10.699C52.083,28.191,47.293,23.401,41.384,23.401z M4.625,34.401v-1c0-0.552,0.448-1,1-1h3v-3
			c0-0.552,0.448-1,1-1h1c0.552,0,1,0.448,1,1v3h3c0.552,0,1,0.448,1,1v1c0,0.552-0.448,1-1,1h-3v3c0,0.552-0.448,1-1,1h-1
			c-0.552,0-1-0.448-1-1v-3h-3C5.073,35.401,4.625,34.953,4.625,34.401z M24.625,37.12c0,0.155-0.126,0.281-0.281,0.281h-2.438
			c-0.155,0-0.281-0.126-0.281-0.281v-0.438c0-0.155,0.126-0.281,0.281-0.281h2.438c0.155,0,0.281,0.126,0.281,0.281V37.12z
			 M39.75,40.026c-0.967,0-1.75-0.783-1.75-1.75s0.783-1.75,1.75-1.75s1.75,0.783,1.75,1.75S40.717,40.026,39.75,40.026z
			 M30.625,37.12c0,0.155-0.126,0.281-0.281,0.281h-2.438c-0.155,0-0.281-0.126-0.281-0.281v-0.438c0-0.155,0.126-0.281,0.281-0.281
			h2.438c0.155,0,0.281,0.126,0.281,0.281V37.12z M44.75,33.026c-0.967,0-1.75-0.783-1.75-1.75c0-0.966,0.783-1.75,1.75-1.75
			s1.75,0.784,1.75,1.75C46.5,32.243,45.717,33.026,44.75,33.026z"/>
	</g>
</g>
<g>
</g>
<g>
</g>
<g>
</g>
<g>
</g>
<g>
</g>
<g>
</g>
<g>
</g>
<g>
</g>
<g>
</g>
<g>
</g>
<g>
</g>
<g>
</g>
<g>
</g>
<g>
</g>
<g>
</g>
</svg>
