<?xml version="1.0" encoding="iso-8859-1"?>
<!-- Generator: Adobe Illustrator 18.1.1, SVG Export Plug-In . SVG Version: 6.00 Build 0)  -->
<svg version="1.1" id="Capa_1" xmlns="http://www.w3.org/2000/svg" xmlns:xlink="http://www.w3.org/1999/xlink" x="0px" y="0px"
	 viewBox="0 0 58.242 58.242" style="enable-background:new 0 0 58.242 58.242;" xml:space="preserve">
<g>
	<g>
		<path style="fill:#010002;" d="M21.785,1.027l-0.19,17.982c0,0.244-0.124,1.233-0.276,1.233h-0.251
			c-0.153,0-0.276-0.989-0.276-1.233L20.06,2.097c-0.195,0-1.863,1.034-2.539,1.321L16.81,19.106c0,0.244-0.124,1.136-0.276,1.136
			h-0.251c-0.153,0-0.276-0.989-0.276-1.233L15.812,4.467c-2.926,2.045-2.926,7.802-2.926,18.293c0,3.262,0.972,4.603,2.712,5.144
			c0.582,0.181,1.246,0.276,1.993,0.319L16.93,56.995c0,0.602,1.132,1.246,1.664,1.246h0.876c0.532,0,1.664-0.702,1.664-1.303
			l-0.659-28.729c0.747-0.054,1.412-0.167,1.992-0.371c1.711-0.602,2.666-2.019,2.666-5.252c0-7.97-0.271-17.951-1.408-21.682
			C23.315-0.438,23.729-0.193,21.785,1.027z M18.948,57.054c-0.584,0-1.059-0.475-1.059-1.06s0.474-1.06,1.059-1.06
			s1.059,0.475,1.059,1.06S19.533,57.054,18.948,57.054z"/>
		<path style="fill:#010002;" d="M43.357,27.242l2-27h-13l2,27c0.447,0.247,0.857,0.604,1.232,1.049
			c0.779,0.925,1.407,2.238,1.914,3.773L36.93,56.996c0,0.602,1.132,1.246,1.663,1.246h0.877c0.531,0,1.664-0.702,1.664-1.303
			l-0.571-24.887c0.64-2.189,1.357-3.399,1.907-4.057C42.99,27.375,43.357,27.242,43.357,27.242z M41.883,3.227
			c0.017-0.275,0.235-0.488,0.53-0.468c0.275,0.017,0.484,0.254,0.468,0.53L41.83,20.257c-0.017,0.265-0.236,0.469-0.499,0.469
			c-0.01,0-0.021,0-0.031-0.001c-0.275-0.017-0.484-0.254-0.468-0.53L41.883,3.227z M38.357,3.242c0-0.276,0.224-0.5,0.5-0.5
			s0.5,0.224,0.5,0.5v17c0,0.276-0.224,0.5-0.5,0.5s-0.5-0.224-0.5-0.5V3.242z M35.3,2.759c0.295-0.017,0.514,0.193,0.53,0.468
			l1.051,16.968c0.017,0.275-0.192,0.513-0.468,0.53c-0.011,0-0.021,0.001-0.031,0.001c-0.263,0-0.482-0.204-0.499-0.469
			l-1.05-16.968C34.816,3.013,35.025,2.776,35.3,2.759z M38.948,57.054c-0.585,0-1.059-0.475-1.059-1.06s0.474-1.06,1.059-1.06
			s1.06,0.475,1.06,1.06S39.533,57.054,38.948,57.054z"/>
	</g>
</g>
<g>
</g>
<g>
</g>
<g>
</g>
<g>
</g>
<g>
</g>
<g>
</g>
<g>
</g>
<g>
</g>
<g>
</g>
<g>
</g>
<g>
</g>
<g>
</g>
<g>
</g>
<g>
</g>
<g>
</g>
</svg>
