<?xml version="1.0" encoding="iso-8859-1"?>
<!-- Generator: Adobe Illustrator 18.1.1, SVG Export Plug-In . SVG Version: 6.00 Build 0)  -->
<svg version="1.1" id="Capa_1" xmlns="http://www.w3.org/2000/svg" xmlns:xlink="http://www.w3.org/1999/xlink" x="0px" y="0px"
	 viewBox="0 0 302.412 302.412" style="enable-background:new 0 0 302.412 302.412;" xml:space="preserve">
<g>
	<g>
		<path style="fill:#010002;" d="M264.698,1.632H37.714c-16.323,0-29.692,11.999-29.953,26.82L0,164.804h16.954V300.78h48.952
			h15.447h38.944h16.317h146.855V164.804h18.944l-7.756-136.352C294.389,13.63,281.02,1.632,264.698,1.632z M29.496,29.442
			l0.016-0.56c0.016-2.6,3.389-5.493,8.202-5.493h226.978c4.819,0,8.191,2.894,8.208,5.499l6.483,114.161H23.029L29.496,29.442z
			 M84.605,254.32c-1.12,0-2.187-0.245-3.149-0.674c-2.752-1.207-4.672-3.949-4.672-7.141c0-3.209,1.936-5.956,4.699-7.163
			c0.957-0.419,2.007-0.658,3.122-0.658c4.319,0,7.821,3.503,7.821,7.821C92.426,250.822,88.918,254.32,84.605,254.32z
			 M261.711,279.024H142.052v-87.025H59.824l-0.185,87.025H38.71v-114.22h223.002V279.024z"/>
		<rect x="158.369" y="191.999" style="fill:#010002;" width="87.025" height="70.708"/>
	</g>
</g>
<g>
</g>
<g>
</g>
<g>
</g>
<g>
</g>
<g>
</g>
<g>
</g>
<g>
</g>
<g>
</g>
<g>
</g>
<g>
</g>
<g>
</g>
<g>
</g>
<g>
</g>
<g>
</g>
<g>
</g>
</svg>
