<?xml version="1.0" encoding="iso-8859-1"?>
<!-- Generator: Adobe Illustrator 18.1.1, SVG Export Plug-In . SVG Version: 6.00 Build 0)  -->
<svg version="1.1" id="Capa_1" xmlns="http://www.w3.org/2000/svg" xmlns:xlink="http://www.w3.org/1999/xlink" x="0px" y="0px"
	 viewBox="0 0 57 57" style="enable-background:new 0 0 57 57;" xml:space="preserve">
<g>
	<g>
		<path style="fill:#010002;" d="M41.422,47.325l0.217-2.539c2.492-0.238,3.389-1.844,3.389-3.812c0-1.788-0.74-3.277-2.745-3.715
			l0.174-2.041c-1.526,0.781-4.51,1.024-6.507,1.024c-2.08,0-5.235-0.261-6.696-1.122l1.036,12.149l0.019,0.231h0.07
			c-0.042,0.064-0.07,0.13-0.07,0.197c0,0.719,2.484,1.303,5.549,1.303s5.55-0.584,5.55-1.303c0-0.067-0.028-0.133-0.07-0.197h0.07
			L41.422,47.325z M42.146,38.843c1.781,0.284,1.623,1.059,1.609,2.134c-0.014,1.152,0.188,1.946-1.977,2.171L42.146,38.843z"/>
		<path style="fill:#010002;" d="M48.898,11.5c-1.897-4.128-6.058-7-10.898-7H15c-6.627,0-12,5.373-12,12v5h5.25
			c3.875,0,2.812,4,2.812,4c-1.777,14.215-4.355,20.351-6.329,23H2.829C1.267,48.5,0,49.622,0,50.596v0.141
			C0,51.71,1.267,52.5,2.829,52.5h45.342c1.561,0,2.829-0.79,2.829-1.764v-0.141c0-0.973-1.268-2.095-2.83-2.095h-5.344
			c0,0.005,0.003,0.011,0.003,0.016c0,1.1-3.155,1.99-7.046,1.99c-3.892,0-7.047-0.891-7.047-1.99c0-0.005,0.003-0.011,0.003-0.016
			h-4.626c-9.981-6.46-3.809-26.409-3.624-27H25h25v-5h2.947c-0.278-0.656-0.447-1.419-0.447-2.253c0-1.056,0.266-2,0.695-2.747
			H48.898z M22.448,18.25c-1.074,0-1.948-0.874-1.948-1.948s0.874-1.948,1.948-1.948s1.948,0.874,1.948,1.948
			S23.522,18.25,22.448,18.25z M17,17.5v-2h2.625c-0.073,0.257-0.125,0.522-0.125,0.802c0,0.427,0.096,0.831,0.26,1.198H17z
			 M41,17.5H25.136c0.165-0.367,0.26-0.771,0.26-1.198c0-0.28-0.052-0.545-0.125-0.802H41V17.5z"/>
		<path style="fill:#010002;" d="M54.5,11.5h-0.084c-0.549,0.617-0.916,1.627-0.916,2.747c0,0.86,0.221,1.65,0.568,2.253H54.5
			c1.381,0,2.5-1.119,2.5-2.5S55.881,11.5,54.5,11.5z"/>
		<path style="fill:#010002;" d="M46.526,22.5H25.54c0.544,2.102,3.53,3.817,7.491,4.404C33.019,27.009,33,27.112,33,27.22v1.36
			c0,1.208,0.742,2.22,2,2.574v0.688v1.005c-3.387,0.115-5.4,0.812-5.542,1.204c0.154,0.394,2.521,1.192,6.491,1.192
			s6.336-0.799,6.49-1.228C42.3,33.658,40.326,32.975,37,32.85v-1.005v-0.69c1.258-0.354,2-1.366,2-2.574v-1.36
			c0-0.105-0.019-0.206-0.029-0.308C42.963,26.335,45.979,24.613,46.526,22.5z"/>
	</g>
</g>
<g>
</g>
<g>
</g>
<g>
</g>
<g>
</g>
<g>
</g>
<g>
</g>
<g>
</g>
<g>
</g>
<g>
</g>
<g>
</g>
<g>
</g>
<g>
</g>
<g>
</g>
<g>
</g>
<g>
</g>
</svg>
