<?xml version="1.0" encoding="iso-8859-1"?>
<!-- Generator: Adobe Illustrator 18.1.1, SVG Export Plug-In . SVG Version: 6.00 Build 0)  -->
<svg version="1.1" id="Capa_1" xmlns="http://www.w3.org/2000/svg" xmlns:xlink="http://www.w3.org/1999/xlink" x="0px" y="0px"
	 viewBox="0 0 248.114 248.114" style="enable-background:new 0 0 248.114 248.114;" xml:space="preserve">
<g>
	<g>
		<path style="fill:#010002;" d="M59.476,145.813c0.147-8.991,2.219-19.216,5.793-29.398V9.837H11.107
			C5.744,21.253,0,129.55,0,142.153v4.134c1.278-0.305,2.796-0.473,4.569-0.473H59.476z"/>
		<path style="fill:#010002;" d="M248.114,47.132c0-8.409-2.007-15.431-8.354-17.72c-1.398-0.506-2.932-0.859-4.786-0.859
			c-0.288,0-0.468,0.071-0.74,0.087c-0.887-9.415-1.876-16.312-2.964-18.803H70.708v93.536
			c10.938-22.436,28.794-41.527,49.017-41.527c33.303,0,54.119,26.994,54.119,60.297c0,31.552-13.173,57.398-42.86,60.036
			c-1.909,1.033-4.264,1.708-6.913,1.708H38.073v-32.634H27.195v32.634H4.569c-1.773,0-3.285-0.305-4.569-0.81v45.568
			c0,5.216,4.585,9.633,10.008,9.633h222.398c5.711,0,6.913-5.238,6.913-9.633l0.005-86.487c0-8.73-0.925-44.383-2.589-76.631
			c2.132-0.234,3.911-0.848,5.352-1.822C246.602,60.654,248.114,54.415,248.114,47.132z M201.816,34.263
			c6.565,0,11.89,5.319,11.89,11.884c0,6.565-5.325,11.884-11.89,11.884c-6.56,0-11.884-5.319-11.884-11.884
			C189.938,39.583,195.257,34.263,201.816,34.263z M202.339,114.664c-10.264,0-18.58-8.316-18.58-18.58s8.316-18.58,18.58-18.58
			s18.58,8.316,18.58,18.58S212.602,114.664,202.339,114.664z"/>
	</g>
</g>
<g>
</g>
<g>
</g>
<g>
</g>
<g>
</g>
<g>
</g>
<g>
</g>
<g>
</g>
<g>
</g>
<g>
</g>
<g>
</g>
<g>
</g>
<g>
</g>
<g>
</g>
<g>
</g>
<g>
</g>
</svg>
