<?xml version="1.0" encoding="iso-8859-1"?>
<!-- Generator: Adobe Illustrator 16.0.0, SVG Export Plug-In . SVG Version: 6.00 Build 0)  -->
<!DOCTYPE svg PUBLIC "-//W3C//DTD SVG 1.1//EN" "http://www.w3.org/Graphics/SVG/1.1/DTD/svg11.dtd">
<svg version="1.1" id="Capa_1" xmlns="http://www.w3.org/2000/svg" xmlns:xlink="http://www.w3.org/1999/xlink" x="0px" y="0px"
	 width="55.5px" height="55.5px" viewBox="0 0 55.5 55.5" style="enable-background:new 0 0 55.5 55.5;" xml:space="preserve">
<g>
	<g>
		<path d="M10.185,51c-0.093,0.316-0.159,0.645-0.159,0.99c0,1.938,1.572,3.51,3.51,3.51s3.51-1.57,3.51-3.51
			c0-0.348-0.065-0.674-0.159-0.99H10.185z"/>
		<path d="M38.264,51c-0.095,0.316-0.16,0.645-0.16,0.99c0,1.938,1.572,3.51,3.51,3.51c1.939,0,3.512-1.57,3.512-3.51
			c0-0.348-0.064-0.674-0.159-0.99H38.264z"/>
		<path d="M7.25,0v50h41V0H7.25z M46.25,42.628c0,1.308-1.064,2.372-2.372,2.372H11.622c-1.308,0-2.372-1.064-2.372-2.372V27.372
			c0-1.308,1.064-2.372,2.372-2.372h32.256c1.308,0,2.372,1.064,2.372,2.372V42.628z M46.25,19.628c0,1.308-1.064,2.372-2.372,2.372
			H11.622c-1.308,0-2.372-1.064-2.372-2.372V4.372C9.25,3.064,10.314,2,11.622,2h32.256c1.308,0,2.372,1.064,2.372,2.372V19.628z"/>
		<path d="M43.878,3H11.622c-0.756,0-1.372,0.616-1.372,1.372v15.256c0,0.756,0.616,1.372,1.372,1.372h32.256
			c0.757,0,1.372-0.616,1.372-1.372V4.372C45.25,3.616,44.635,3,43.878,3z M34.25,13v1h-13v-1v-1c0-0.276,0.224-0.5,0.5-0.5
			s0.5,0.224,0.5,0.5v1h11v-1c0-0.276,0.225-0.5,0.5-0.5s0.5,0.224,0.5,0.5V13z"/>
		<path d="M43.878,26H11.622c-0.756,0-1.372,0.616-1.372,1.372v15.256c0,0.757,0.616,1.372,1.372,1.372h32.256
			c0.757,0,1.372-0.615,1.372-1.372V27.372C45.25,26.616,44.635,26,43.878,26z M34.25,36v1h-13v-1v-1c0-0.275,0.224-0.5,0.5-0.5
			s0.5,0.225,0.5,0.5v1h11v-1c0-0.275,0.225-0.5,0.5-0.5s0.5,0.225,0.5,0.5V36z"/>
	</g>
</g>
<g>
</g>
<g>
</g>
<g>
</g>
<g>
</g>
<g>
</g>
<g>
</g>
<g>
</g>
<g>
</g>
<g>
</g>
<g>
</g>
<g>
</g>
<g>
</g>
<g>
</g>
<g>
</g>
<g>
</g>
</svg>
