<?xml version="1.0" encoding="iso-8859-1"?>
<!-- Generator: Adobe Illustrator 16.0.0, SVG Export Plug-In . SVG Version: 6.00 Build 0)  -->
<!DOCTYPE svg PUBLIC "-//W3C//DTD SVG 1.1//EN" "http://www.w3.org/Graphics/SVG/1.1/DTD/svg11.dtd">
<svg version="1.1" id="Capa_1" xmlns="http://www.w3.org/2000/svg" xmlns:xlink="http://www.w3.org/1999/xlink" x="0px" y="0px"
	 width="344.032px" height="344.032px" viewBox="0 0 344.032 344.032" style="enable-background:new 0 0 344.032 344.032;"
	 xml:space="preserve">
<g>
	<g>
		<path d="M320.659,141.71c-0.841-2.663-2.27-5.155-4.287-7.245L195.711,9.298C189.713,3.302,181.685,0,173.115,0
			c-9.019,0-17.924,3.734-24.467,10.289L25.604,134.276c-3.879,3.903-5.726,9.259-5.27,14.565
			c-1.039,3.371-1.618,6.941-1.636,10.644l-0.85,184.548h86.172h135.273h86.89l-0.853-184.554
			C325.307,153.035,323.602,146.985,320.659,141.71z M172.626,38.505l81.134,84.167H89.099L172.626,38.505z M140.915,307.139V245.65
			H202.4v61.488H140.915z M239.294,307.139v-98.383H104.021v98.383H54.923l0.718-141.425h232.833l0.648,141.425H239.294z"/>
	</g>
</g>
<g>
</g>
<g>
</g>
<g>
</g>
<g>
</g>
<g>
</g>
<g>
</g>
<g>
</g>
<g>
</g>
<g>
</g>
<g>
</g>
<g>
</g>
<g>
</g>
<g>
</g>
<g>
</g>
<g>
</g>
</svg>
