<?xml version="1.0" encoding="iso-8859-1"?>
<!-- Generator: Adobe Illustrator 18.1.1, SVG Export Plug-In . SVG Version: 6.00 Build 0)  -->
<svg version="1.1" id="Capa_1" xmlns="http://www.w3.org/2000/svg" xmlns:xlink="http://www.w3.org/1999/xlink" x="0px" y="0px"
	 viewBox="0 0 61.853 61.853" style="enable-background:new 0 0 61.853 61.853;" xml:space="preserve">
<g>
	<g>
		<path style="fill:#010002;" d="M60.959,55.425c-0.08-0.518-0.398-0.967-0.861-1.215c-1.681-0.896-3.854-0.959-6.402-0.107
			c-3.465,1.16-12.13,7.855-13.823,2.479c1.588-0.104,2.646-0.523,2.646-0.523c4.131-13.061,4.303-29.288,4.255-34.131
			c-0.206,0.018-0.412,0.044-0.622,0.044l-0.046-0.001l-11.268-0.899c-0.104,0.707-0.201,1.423-0.287,2.147
			c0.624,0.044,1.145,0.203,1.537,0.484c0.501,0.355,0.773,0.856,0.753,1.372l-0.258,7.164c-0.033,0.957-1.063,1.707-2.341,1.707
			l-0.111-0.002c-0.115-0.004-0.224-0.023-0.331-0.037c-0.34,11.299,0.559,21.463,0.559,21.463c0.656,0.365,1.303,0.623,1.935,0.813
			c-0.063,0.258,1.392,7.754,10.16,5.104c2.875-0.869,5.377-2.672,8.192-3.725c1.533-0.568,2.677-0.648,3.529-0.268
			c0.788,0.35,1.711,0.176,2.315-0.439c0.003-0.004,0.007-0.006,0.01-0.01C60.868,56.47,61.038,55.945,60.959,55.425z"/>
		<path style="fill:#010002;" d="M54.637,10.693v-0.61C54.637,6.022,51.075,0,46.153,0L2.708,3.471
			c-1.012,0.08-1.833,0.971-1.833,1.983v9.866c0,1.013,0.822,1.902,1.833,1.984l43.467,3.47
			C51.085,20.755,54.637,14.746,54.637,10.693z"/>
		<path style="fill:#010002;" d="M34.243,32.745c0.679,0,1.141-0.334,1.146-0.553l0.261-7.164c0.004-0.106-0.089-0.24-0.253-0.354
			c-0.234-0.168-0.572-0.272-0.922-0.285c-0.001,0-0.002,0-0.003,0c-0.743,0-1.201,0.333-1.21,0.554l-0.26,7.161
			c-0.009,0.242,0.479,0.615,1.172,0.641H34.243z"/>
	</g>
</g>
<g>
</g>
<g>
</g>
<g>
</g>
<g>
</g>
<g>
</g>
<g>
</g>
<g>
</g>
<g>
</g>
<g>
</g>
<g>
</g>
<g>
</g>
<g>
</g>
<g>
</g>
<g>
</g>
<g>
</g>
</svg>
