<?xml version="1.0" encoding="iso-8859-1"?>
<!-- Generator: Adobe Illustrator 18.1.1, SVG Export Plug-In . SVG Version: 6.00 Build 0)  -->
<svg version="1.1" id="Capa_1" xmlns="http://www.w3.org/2000/svg" xmlns:xlink="http://www.w3.org/1999/xlink" x="0px" y="0px"
	 viewBox="0 0 491.592 491.592" style="enable-background:new 0 0 491.592 491.592;" xml:space="preserve">
<g>
	<g>
		<path style="fill:#010002;" d="M394.057,0H97.543C43.675,0,0,43.675,0,97.543v296.506c0,53.868,43.675,97.543,97.543,97.543
			h296.506c53.868,0,97.543-43.675,97.543-97.543V97.543C491.6,43.675,447.925,0,394.057,0z M411.875,429.197H287.199
			c-5.219,0-10.453-3.764-11.681-8.405l-13.599-51.275c-1.227-4.641-6.446-8.73-11.648-9.128l-92.967-7.186
			c-5.202-0.398-12.721-3.146-16.794-6.137l-60.42-44.293c-4.072-2.983-7.99-9.234-8.73-13.965
			c-1.219-7.828-3.008-19.354-4.219-27.182c-0.732-4.731-1.325-12.437-1.325-17.216v-24.491c0-13.428,13.932-24.313,31.116-24.313
			s31.116,10.884,31.116,24.313v24.491c0,4.771,2.886,11.486,6.43,14.989c0.512,0.504,1.105,1.097,1.658,1.642
			c8.665,8.584,22.24,22.045,30.222,29.962c3.536,3.512,10.64,6.357,15.859,6.357h48.259h89.731c5.219,0,8.616-3.796,7.592-8.478
			l-2.122-9.665c-1.032-4.682-4.91-11.217-7.763-15.217c-12.933-18.151-11.518-43.211-11.518-43.211
			c0-16.525,12.965-29.669,31.084-29.734c0.041,0,0.081-0.008,0.122-0.008c15.932,0,20.134,26.556,35.294,41.659
			c3.528,3.52,8.291,9.348,9.681,13.949l4.918,16.282c1.39,4.601,2.276,8.332,1.983,8.332l0,0c-0.033,0-0.065,0-0.089,0
			c-0.187,0-0.098,0.008,0.236,0.016c0.374,0.016,2.3,3.601,4.3,8.007l21.419,47.186c2,4.406,3.333,11.843,2.975,16.607
			l-1.471,19.631l5.113,57.859C421.621,425.336,417.093,429.197,411.875,429.197z M142.51,118.962V57.485h36.579v30.433
			l57.51-48.796L378.97,159.938l-41.48-0.057v18.996c-24.174,0.065-43.114,18.289-43.277,41.626
			c-0.146,3.674-0.691,30.279,13.778,50.584c3.048,4.284,5.381,8.917,5.779,10.762l0.732,3.333h-46.187v-82.058H205.32v82.05
			h-23.093c-2.138,0-6.096-1.65-7.275-2.821l-31.888-31.612c-1.317-1.301-2.796-4.885-2.812-6.332v-24.491
			c0-5.471-1.536-10.616-4.105-15.282v-45.024l-41.48-0.057L142.51,118.962z"/>
	</g>
</g>
<g>
</g>
<g>
</g>
<g>
</g>
<g>
</g>
<g>
</g>
<g>
</g>
<g>
</g>
<g>
</g>
<g>
</g>
<g>
</g>
<g>
</g>
<g>
</g>
<g>
</g>
<g>
</g>
<g>
</g>
</svg>
