<?xml version="1.0" encoding="iso-8859-1"?>
<!-- Generator: Adobe Illustrator 16.0.0, SVG Export Plug-In . SVG Version: 6.00 Build 0)  -->
<!DOCTYPE svg PUBLIC "-//W3C//DTD SVG 1.1//EN" "http://www.w3.org/Graphics/SVG/1.1/DTD/svg11.dtd">
<svg version="1.1" id="Capa_1" xmlns="http://www.w3.org/2000/svg" xmlns:xlink="http://www.w3.org/1999/xlink" x="0px" y="0px"
	 width="59.536px" height="59.537px" viewBox="0 0 59.536 59.537" style="enable-background:new 0 0 59.536 59.537;"
	 xml:space="preserve">
<g>
	<path d="M34.145,31.014c-1.066-2.376-1.988-4.81-4.044-5.219c-0.274-3.541,3.632-4.783,4.852-7.755
		c1.053-2.562-0.136-4.757-2.419-6.076c-5.118-2.955-13.59,0.624-9.171,7.016c0.597,0.863,2.014,0.038,1.411-0.834
		c-4.701-6.798,8.862-7.515,8.972-1.833c0.039,2.02-2.558,3.741-3.771,5.091c-1.158,1.285-1.687,2.786-1.51,4.483
		c-2.257,0.68-3.014,3.608-4.426,5.994L0,48.623l4.655-0.023l2.08-1.447l46.039-0.241l2.108,1.438l4.654-0.021L34.145,31.014z
		 M9.628,45.134l20.053-13.966l20.18,13.756L9.628,45.134z"/>
</g>
<g>
</g>
<g>
</g>
<g>
</g>
<g>
</g>
<g>
</g>
<g>
</g>
<g>
</g>
<g>
</g>
<g>
</g>
<g>
</g>
<g>
</g>
<g>
</g>
<g>
</g>
<g>
</g>
<g>
</g>
</svg>
