<?xml version="1.0" encoding="iso-8859-1"?>
<!-- Generator: Adobe Illustrator 16.0.0, SVG Export Plug-In . SVG Version: 6.00 Build 0)  -->
<!DOCTYPE svg PUBLIC "-//W3C//DTD SVG 1.1//EN" "http://www.w3.org/Graphics/SVG/1.1/DTD/svg11.dtd">
<svg version="1.1" id="Capa_1" xmlns="http://www.w3.org/2000/svg" xmlns:xlink="http://www.w3.org/1999/xlink" x="0px" y="0px"
	 width="52.97px" height="52.97px" viewBox="0 0 52.97 52.97" style="enable-background:new 0 0 52.97 52.97;" xml:space="preserve"
	>
<g>
	<g>
		<polygon points="11,27.007 8.47,24.545 0,21.511 1.31,23.386 		"/>
		<polygon points="19.48,1.361 12.894,1.361 10.315,1.838 10.315,4.933 12.814,4.596 19.48,4.596 		"/>
		<polygon points="10.922,5.726 10.922,13.871 13.052,13.871 18.885,8.583 18.885,5.527 12.814,5.527 		"/>
		<circle cx="35.103" cy="32.044" r="3.036"/>
		<path d="M46.371,22.363L32.694,8.794l-21.268,19.56l-4.363-1.477V43.67l9.204,8.014l30.103-5.178L46.371,22.363L46.371,22.363z
			 M18.052,47.934c-0.493,0-0.893-0.398-0.893-0.892c0-0.492,0.4-0.893,0.893-0.893c0.493,0,0.892,0.4,0.892,0.893
			C18.945,47.535,18.544,47.934,18.052,47.934z M18.052,44.78c-0.493,0-0.893-0.399-0.893-0.893c0-0.494,0.4-0.893,0.893-0.893
			c0.493,0,0.892,0.399,0.892,0.893C18.945,44.381,18.544,44.78,18.052,44.78z M18.052,41.627c-0.493,0-0.893-0.4-0.893-0.894
			c0-0.494,0.4-0.893,0.893-0.893c0.493,0,0.892,0.4,0.892,0.893C18.945,41.227,18.544,41.627,18.052,41.627z M18.052,38.472
			c-0.493,0-0.893-0.401-0.893-0.893c0-0.493,0.4-0.892,0.893-0.892c0.493,0,0.892,0.399,0.892,0.892
			C18.945,38.072,18.544,38.472,18.052,38.472z M18.052,35.318c-0.493,0-0.893-0.4-0.893-0.894c0-0.492,0.4-0.893,0.893-0.893
			c0.493,0,0.892,0.4,0.892,0.893C18.945,34.918,18.544,35.318,18.052,35.318z M18.052,32.164c-0.493,0-0.893-0.4-0.893-0.893
			s0.4-0.893,0.893-0.893c0.493,0,0.892,0.4,0.892,0.893C18.945,31.764,18.544,32.164,18.052,32.164z M18.052,29.009
			c-0.493,0-0.893-0.4-0.893-0.892c0-0.494,0.4-0.893,0.893-0.893c0.493,0,0.892,0.399,0.892,0.893
			C18.945,28.61,18.544,29.009,18.052,29.009z M18.052,25.854c-0.493,0-0.893-0.4-0.893-0.892c0-0.494,0.4-0.893,0.893-0.893
			c0.493,0,0.892,0.399,0.892,0.893C18.945,25.455,18.544,25.854,18.052,25.854z M32.068,39.841c-4.322,0-7.827-3.917-7.827-8.748
			c0-4.832,3.504-8.748,7.827-8.748c4.321,0,7.826,3.917,7.826,8.748S36.39,39.841,32.068,39.841z M44.121,44.096
			c-0.494,0-0.894-0.399-0.894-0.892c0-0.493,0.4-0.893,0.894-0.893c0.492,0,0.892,0.399,0.892,0.893
			C45.011,43.696,44.611,44.096,44.121,44.096z M44.121,40.941c-0.494,0-0.894-0.401-0.894-0.893c0-0.493,0.4-0.892,0.894-0.892
			c0.492,0,0.892,0.398,0.892,0.892C45.011,40.543,44.611,40.941,44.121,40.941z M44.121,37.788c-0.494,0-0.894-0.401-0.894-0.894
			s0.4-0.892,0.894-0.892c0.492,0,0.892,0.399,0.892,0.892C45.011,37.387,44.611,37.788,44.121,37.788z M44.121,34.634
			c-0.494,0-0.894-0.4-0.894-0.893s0.4-0.894,0.894-0.894c0.492,0,0.892,0.401,0.892,0.894
			C45.011,34.233,44.611,34.634,44.121,34.634z M44.121,31.479c-0.494,0-0.894-0.398-0.894-0.892s0.4-0.893,0.894-0.893
			c0.492,0,0.892,0.399,0.892,0.893C45.011,31.08,44.611,31.479,44.121,31.479z M44.121,28.324c-0.494,0-0.894-0.399-0.894-0.892
			c0-0.494,0.4-0.893,0.894-0.893c0.492,0,0.892,0.399,0.892,0.893C45.011,27.925,44.611,28.324,44.121,28.324z M44.121,25.171
			c-0.494,0-0.894-0.4-0.894-0.893c0-0.492,0.4-0.893,0.894-0.893c0.492,0,0.892,0.4,0.892,0.893
			C45.011,24.771,44.611,25.171,44.121,25.171z"/>
		<path d="M32.068,23.693c-3.692,0-6.695,3.32-6.695,7.4c0,4.081,3.002,7.4,6.695,7.4c1.581,0,3.117-0.621,4.321-1.749
			c0.289-0.269,0.304-0.722,0.035-1.009c-0.271-0.289-0.723-0.304-1.012-0.034c-0.938,0.879-2.128,1.363-3.347,1.363
			c-2.903,0-5.266-2.679-5.266-5.97c0-3.293,2.363-5.972,5.266-5.972c2.108,0,4.01,1.422,4.842,3.623
			c0.141,0.368,0.553,0.552,0.922,0.414c0.368-0.14,0.554-0.552,0.414-0.92C37.201,25.477,34.776,23.693,32.068,23.693z"/>
		<path d="M31.561,32.044c0-1.936,1.577-3.511,3.512-3.511c0.141,0,0.279,0.011,0.415,0.026l-1.021-0.888
			c-0.198-0.173-0.568-0.272-0.818-0.192c-1.946,0.605-3.359,2.42-3.359,4.564c0,0.832,0.212,1.613,0.586,2.293
			c0.126,0.231,0.434,0.516,0.679,0.61c0.414,0.159,1.118,0.347,2.051,0.282C32.402,34.674,31.561,33.456,31.561,32.044z"/>
		<path d="M11.39,26.877L32.654,6.62l17.612,17.759l2.704-2.683L32.73,1.287l-0.036,0.01L20.273,2.813v2.684L19.678,5.5v3.61
			l-6.27,5.686h-3.122V11.25L0.001,20.977l8.763,3.143L11.39,26.877z M49.296,20.65l0.979-0.26l0.712,0.719l-0.263,0.976
			l-0.979,0.259l-0.713-0.717L49.296,20.65z M45.657,16.988l0.979-0.26l0.712,0.717l-0.263,0.976l-0.979,0.259l-0.713-0.716
			L45.657,16.988z M41.536,12.737l0.979-0.259l0.71,0.719l-0.263,0.975l-0.979,0.259l-0.713-0.718L41.536,12.737z M37.095,8.246
			l0.98-0.259l0.712,0.719L38.524,9.68l-0.979,0.259l-0.712-0.716L37.095,8.246z M32.256,3.722l0.979-0.259l0.712,0.719
			l-0.265,0.975l-0.979,0.26l-0.713-0.718L32.256,3.722z M27.378,7.659l0.979-0.26l0.712,0.717l-0.265,0.977l-0.978,0.259
			l-0.713-0.718L27.378,7.659z M22.062,12.737l0.98-0.259l0.712,0.719l-0.263,0.975l-0.979,0.259l-0.713-0.718L22.062,12.737z
			 M16.865,17.662l0.979-0.259l0.712,0.718l-0.264,0.976l-0.979,0.26l-0.712-0.719L16.865,17.662z M11.151,22.69l0.979-0.26
			l0.712,0.719l-0.264,0.976l-0.978,0.26l-0.713-0.718L11.151,22.69z"/>
	</g>
</g>
<g>
</g>
<g>
</g>
<g>
</g>
<g>
</g>
<g>
</g>
<g>
</g>
<g>
</g>
<g>
</g>
<g>
</g>
<g>
</g>
<g>
</g>
<g>
</g>
<g>
</g>
<g>
</g>
<g>
</g>
</svg>
