<?xml version="1.0" encoding="iso-8859-1"?>
<!-- Generator: Adobe Illustrator 16.0.0, SVG Export Plug-In . SVG Version: 6.00 Build 0)  -->
<!DOCTYPE svg PUBLIC "-//W3C//DTD SVG 1.1//EN" "http://www.w3.org/Graphics/SVG/1.1/DTD/svg11.dtd">
<svg version="1.1" id="Capa_1" xmlns="http://www.w3.org/2000/svg" xmlns:xlink="http://www.w3.org/1999/xlink" x="0px" y="0px"
	 width="57.437px" height="57.437px" viewBox="0 0 57.437 57.437" style="enable-background:new 0 0 57.437 57.437;"
	 xml:space="preserve">
<g>
	<g>
		<rect x="29.657" y="19.359" width="2" height="1.999"/>
		<rect x="39.779" y="19.359" width="1.998" height="1.999"/>
		<path d="M34.809,27.312c0.81,0.068,1.808,0.157,2.763,0.417v-4.47h-3.687v3.979C34.194,27.264,34.504,27.288,34.809,27.312z"/>
		<path d="M45.787,26.982v-8.855h1.438l-1.498-9.098H25.731l-1.499,9.098h1.438v8.116c0.858,0.201,1.806,0.394,2.874,0.529
			c0.039,0.005,0.085,0.01,0.125,0.015v-8.659h14.12v9.727C43.755,27.571,44.792,27.27,45.787,26.982z"/>
		<path d="M15.693,44.078l-1.367-1.269c3.45-2.361,7.107-2.707,10.301-2.823c0.636-0.024,6.83-0.024,12.552,0.665
			c1.149,0.078,2.134-0.538,2.134-0.538c8.583-5.486,15.901-8.492,15.901-8.492c1.736-0.652,2.247-1.431,2.222-2.029
			c-0.052-1.085-0.665-1.458-0.671-1.466c-0.591-0.669-2.267-0.881-3.611-0.676c-0.67,0.103-10.449,2.985-10.449,2.985
			c0.278,0.871,0.735,2.462-0.922,4.091c-1.131,0.988-2.873,1.283-5.135,1.237c-2.259-0.043-4.706-0.396-6.593-0.631
			c-0.612-0.075-2.312-0.3-2.312-0.3s1.197-0.553,2.818-0.607c2.025-0.067,3.621-0.053,4.538,0c1.007,0.057,2.45,0.184,3.057,0.205
			c2.761,0.104,3.418-1.67,3.431-2.372c0.034-1.991-1.091-2.651-4.581-2.941c-2.242-0.188-4.652-0.337-6.331-0.548
			c-3.237-0.41-5.564-1.321-6.75-1.435c-0.815-0.078-2.931-0.474-4.941,1.189c-3.691,3.054-9.185,5.415-12.944,6.805l-1.544-1.434
			L0,38.143l11.005,10.265L15.693,44.078z M9.703,43.85c0-0.575,0.465-1.041,1.042-1.041c0.576,0,1.042,0.466,1.042,1.041
			c0,0.576-0.465,1.042-1.042,1.042C10.168,44.892,9.703,44.426,9.703,43.85z"/>
	</g>
</g>
<g>
</g>
<g>
</g>
<g>
</g>
<g>
</g>
<g>
</g>
<g>
</g>
<g>
</g>
<g>
</g>
<g>
</g>
<g>
</g>
<g>
</g>
<g>
</g>
<g>
</g>
<g>
</g>
<g>
</g>
</svg>
