<?xml version="1.0" encoding="iso-8859-1"?>
<!-- Generator: Adobe Illustrator 16.0.0, SVG Export Plug-In . SVG Version: 6.00 Build 0)  -->
<!DOCTYPE svg PUBLIC "-//W3C//DTD SVG 1.1//EN" "http://www.w3.org/Graphics/SVG/1.1/DTD/svg11.dtd">
<svg version="1.1" id="Capa_1" xmlns="http://www.w3.org/2000/svg" xmlns:xlink="http://www.w3.org/1999/xlink" x="0px" y="0px"
	 width="191.617px" height="191.617px" viewBox="0 0 191.617 191.617" style="enable-background:new 0 0 191.617 191.617;"
	 xml:space="preserve">
<g>
	<g>
		<path d="M13.668,57.999l9.77,8.988l24.428-26.541h91.688l23.783,26.443l9.866-8.877c3.895-3.501,4.213-9.497,0.712-13.386
			L149.69,17.696h-16.601V0H112.71v17.696H37.883l-24.767,26.91C9.572,48.458,9.816,54.457,13.668,57.999z"/>
		<path d="M50.382,48.11L29.918,71.494v79.632c0,5.232,4.244,9.479,9.478,9.479h47.186l-3.898-14.808h-9.573
			c-3.297,0-5.056-2.177-5.561-4.038c-0.505-1.865-0.084-4.63,2.765-6.29l69.608-40.409c1.294-0.756,3.117-1.247,4.637-1.247h12.389
			V68.967L138.308,48.11H50.382z"/>
		<path d="M172.407,121.555c0.51-0.302,0.797-1.013,0.644-1.581l-5.332-19.876c-0.154-0.575-0.756-1.033-1.349-1.033h-22.206
			c-0.592,0-1.488,0.239-1.999,0.537l-69.596,40.405c-0.512,0.298-0.445,0.534,0.147,0.534h24.35c0.592,0,1.174,0.472,1.308,1.047
			l0.193,0.855c0.133,0.575,0.658,1.28,1.167,1.571l17.004,9.646c0.518,0.294,1.342,0.28,1.852-0.023L172.407,121.555z"/>
		<path d="M116.601,155.4l-17.94-10.178c-0.512-0.287-1.076-0.981-1.251-1.55l-0.157-0.496c-0.18-0.568-0.799-1.02-1.391-1.02H87.83
			c-0.592,0-0.95,0.458-0.796,1.033l4.809,18.268c0.147,0.567,0.749,1.058,1.341,1.088l17.666,0.958
			c0.588,0.034,1.516-0.109,2.07-0.321l4.414-1.653c0.555-0.208,0.935-0.852,0.842-1.434l-0.476-3.104
			C117.608,156.406,117.122,155.698,116.601,155.4z"/>
		<path d="M177.714,164.791c-4.322-1.105-4.295,4.305-4.295,4.305l-0.007,2.82c-8.952-2.177-8.604-18.486-8.604-18.486
			c1.325-0.219,1.988-1.105,1.988-1.105c3.508-2.516,1.335-15.526,0.5-19.849l1.495-0.88c0.507-0.301,0.921-1.022,0.921-1.615
			v-3.743c0-0.596-0.411-0.821-0.914-0.514l-49.016,29.697c-0.503,0.309-0.835,1.026-0.732,1.608l0.442,2.574
			c0.099,0.585,0.592,0.814,1.104,0.513l27.172-16.077c-0.342,5.931,1.599,8.952,1.599,8.952c1.324,2.649,3.306,2.43,3.306,2.43
			c1.396,24.064,15.048,28.407,20.718,29.174v1.722c0,0,0.141,5.52,3.922,5.294c3.778-0.212,3.617-10.256,3.617-10.256
			S181.791,165.831,177.714,164.791z"/>
	</g>
</g>
<g>
</g>
<g>
</g>
<g>
</g>
<g>
</g>
<g>
</g>
<g>
</g>
<g>
</g>
<g>
</g>
<g>
</g>
<g>
</g>
<g>
</g>
<g>
</g>
<g>
</g>
<g>
</g>
<g>
</g>
</svg>
