<?xml version="1.0" encoding="iso-8859-1"?>
<!-- Generator: Adobe Illustrator 18.1.1, SVG Export Plug-In . SVG Version: 6.00 Build 0)  -->
<svg version="1.1" id="Capa_1" xmlns="http://www.w3.org/2000/svg" xmlns:xlink="http://www.w3.org/1999/xlink" x="0px" y="0px"
	 viewBox="0 0 491.592 491.592" style="enable-background:new 0 0 491.592 491.592;" xml:space="preserve">
<g>
	<g>
		<path style="fill:#010002;" d="M394.049,0H97.543C43.675,0,0,43.675,0,97.543v296.506c0,53.868,43.675,97.543,97.543,97.543
			h296.506c53.868,0,97.543-43.675,97.543-97.543V97.543C491.592,43.675,447.925,0,394.049,0z M80.855,323.306
			c0-3.308,1.528-6.226,3.885-8.194c1.016-4.837,2.617-9.177,5.162-9.884c6.153-1.707,23.752-9.868,23.752-9.868v0.024
			c8.389-19.078,25.288-22.102,44.764-22.102c25.004,0,45.739,4.983,49.706,42.512c1.91,1.935,3.089,4.585,3.089,7.519
			c0,5.641-4.381,10.218-9.917,10.632c-0.008-1.414-0.187-2.78-0.488-4.105c-1.894-8.194-9.226-14.306-17.997-14.306
			s-16.103,6.113-17.997,14.306c-0.309,1.349-0.496,2.739-0.496,4.178h-35.384c0-1.439-0.179-2.837-0.496-4.178
			c-1.658-7.169-7.478-12.729-14.786-14.014c-1.049-0.187-2.113-0.301-3.211-0.301c-0.585,0-1.162,0.033-1.731,0.089
			c-7.999,0.74-14.501,6.576-16.273,14.225c-0.309,1.349-0.496,2.739-0.496,4.178h-0.39c-3.447,0-6.478-1.658-8.437-4.178h-0.057
			c0,0,0-0.024,0-0.065C81.7,327.972,80.855,325.753,80.855,323.306z M437.496,256.977H270.86h-19.647h-28.767l25.06-25.06
			l3.707-3.707l60.306-60.306l32.831-32.831l32.831,32.831l60.306,60.306l28.767,28.767H437.496z M437.496,167.904v48.812
			l-48.812-48.812H437.496z M251.214,167.904h48.812l-48.812,48.812V167.904z M461.207,362.307H30.393v-15.412h12.193v-87.211
			H15.485l24.386-27.775h196.143l-27.775,27.775H58.843v87.211h45.642c-4.869-2.268-8.267-7.169-8.267-12.876
			c0-1.455,0.219-2.861,0.626-4.178c1.593-5.162,6.048-9.072,11.51-9.884c0.691-0.106,1.382-0.171,2.097-0.171
			c1.105,0,2.178,0.138,3.211,0.382c4.942,1.146,8.909,4.869,10.396,9.673c0.406,1.325,0.626,2.723,0.626,4.178
			c0,5.714-3.398,10.616-8.267,12.876h60.436c-4.869-2.268-8.267-7.169-8.267-12.876c0-1.455,0.219-2.861,0.626-4.178
			c1.788-5.812,7.21-10.055,13.607-10.055c6.397,0,11.811,4.235,13.607,10.055c0.406,1.325,0.626,2.723,0.626,4.178
			c0,5.714-3.398,10.616-8.267,12.876h62.436v-81.79h186.283v81.79h23.711v15.412H461.207z"/>
		<path style="fill:#010002;" d="M189.355,329.841c-1.382-2.154-3.788-3.593-6.544-3.593c-2.756,0-5.162,1.439-6.544,3.593
			c-0.772,1.211-1.236,2.642-1.236,4.178c0,4.292,3.479,7.779,7.779,7.779c4.292,0,7.779-3.479,7.779-7.779
			C190.599,332.475,190.135,331.044,189.355,329.841z"/>
		<path style="fill:#010002;" d="M116.986,329.841c-0.805-1.26-1.959-2.26-3.325-2.886c-0.984-0.447-2.065-0.707-3.211-0.707
			c-0.837,0-1.634,0.171-2.39,0.415c-1.723,0.561-3.186,1.683-4.146,3.178c-0.772,1.211-1.236,2.642-1.236,4.178
			c0,4.292,3.479,7.779,7.779,7.779c4.292,0,7.779-3.479,7.779-7.779C118.23,332.475,117.767,331.044,116.986,329.841z"/>
		<polygon style="fill:#010002;" points="317.242,346.903 317.242,348.253 371.468,348.253 371.468,346.903 371.468,294.027 
			317.242,294.027 		"/>
	</g>
</g>
<g>
</g>
<g>
</g>
<g>
</g>
<g>
</g>
<g>
</g>
<g>
</g>
<g>
</g>
<g>
</g>
<g>
</g>
<g>
</g>
<g>
</g>
<g>
</g>
<g>
</g>
<g>
</g>
<g>
</g>
</svg>
