<?xml version="1.0" encoding="iso-8859-1"?>
<!-- Generator: Adobe Illustrator 16.0.0, SVG Export Plug-In . SVG Version: 6.00 Build 0)  -->
<!DOCTYPE svg PUBLIC "-//W3C//DTD SVG 1.1//EN" "http://www.w3.org/Graphics/SVG/1.1/DTD/svg11.dtd">
<svg version="1.1" id="Capa_1" xmlns="http://www.w3.org/2000/svg" xmlns:xlink="http://www.w3.org/1999/xlink" x="0px" y="0px"
	 width="50.946px" height="50.946px" viewBox="0 0 50.946 50.946" style="enable-background:new 0 0 50.946 50.946;"
	 xml:space="preserve">
<g>
	<g>
		<path d="M3.871,15.698l2.645,2.432l6.611-7.183h24.817l6.438,7.157l2.669-2.402c1.055-0.947,1.142-2.57,0.193-3.624l-6.556-7.29
			h-4.494V0h-5.517v4.789H10.424l-6.703,7.284C2.762,13.114,2.829,14.737,3.871,15.698z"/>
		<path d="M42.65,18.667l-5.046-5.645H13.807L8.269,19.35v21.553c0,1.416,1.148,2.565,2.565,2.565h12.345
			c1.175,1.506,3.483,3.799,8.062,7.074c0.768,0.548,2.02,0.538,2.771-0.034c2.257-1.716,6.645-5.283,8.156-8.12
			c0.234-0.326,0.388-0.712,0.445-1.129c0.01-0.039,0.029-0.083,0.037-0.124h-0.022c0.006-0.076,0.022-0.152,0.022-0.232V18.667z
			 M32.375,33.338H18.542V19.505h13.833V33.338z"/>
	</g>
</g>
<g>
</g>
<g>
</g>
<g>
</g>
<g>
</g>
<g>
</g>
<g>
</g>
<g>
</g>
<g>
</g>
<g>
</g>
<g>
</g>
<g>
</g>
<g>
</g>
<g>
</g>
<g>
</g>
<g>
</g>
</svg>
