<?xml version="1.0" encoding="iso-8859-1"?>
<!-- Generator: Adobe Illustrator 16.0.0, SVG Export Plug-In . SVG Version: 6.00 Build 0)  -->
<!DOCTYPE svg PUBLIC "-//W3C//DTD SVG 1.1//EN" "http://www.w3.org/Graphics/SVG/1.1/DTD/svg11.dtd">
<svg version="1.1" id="Capa_1" xmlns="http://www.w3.org/2000/svg" xmlns:xlink="http://www.w3.org/1999/xlink" x="0px" y="0px"
	 width="59.637px" height="59.637px" viewBox="0 0 59.637 59.637" style="enable-background:new 0 0 59.637 59.637;"
	 xml:space="preserve">
<g>
	<g>
		<path d="M50.181,48.816V24.58l-21.076-9.748L7.952,25.107v23.71c0,2.91,1.198,5.271,2.673,5.271h2.674V38.004
			c0-0.575,0.467-1.042,1.042-1.042h9.245c0.575,0,1.042,0.467,1.042,1.042v16.083h20.286
			C47.823,54.087,50.181,51.727,50.181,48.816z M37.406,47.232c0,0.575-0.467,1.042-1.041,1.042H33.49
			c-0.574,0-1.042-0.467-1.042-1.042v-2.874c0-0.575,0.468-1.041,1.042-1.041h2.875c0.574,0,1.041,0.466,1.041,1.041V47.232z
			 M37.406,40.981c0,0.575-0.467,1.042-1.041,1.042H33.49c-0.574,0-1.042-0.467-1.042-1.042v-2.874c0-0.575,0.468-1.041,1.042-1.041
			h2.875c0.574,0,1.041,0.466,1.041,1.041V40.981z M43.679,47.232c0,0.575-0.468,1.042-1.042,1.042h-2.874
			c-0.575,0-1.042-0.467-1.042-1.042v-2.874c0-0.575,0.467-1.041,1.042-1.041h2.874c0.574,0,1.042,0.466,1.042,1.041V47.232z
			 M43.679,40.981c0,0.575-0.468,1.042-1.042,1.042h-2.874c-0.575,0-1.042-0.467-1.042-1.042v-2.874
			c0-0.575,0.467-1.041,1.042-1.041h2.874c0.574,0,1.042,0.466,1.042,1.041V40.981z"/>
		<path d="M57.848,18.721l-7.667-3.629v-2.677c0-1.994-1.398-3.61-3.125-3.61c-1.646,0-2.98,1.475-3.101,3.34L30.659,5.849
			c-0.862-0.407-1.862-0.4-2.715,0.021L1.748,18.74c-1.549,0.761-2.188,2.634-1.427,4.183c0.761,1.548,2.633,2.187,4.182,1.427
			l24.844-12.207L55.174,24.37c0.433,0.205,0.887,0.301,1.336,0.301c1.171,0,2.293-0.66,2.825-1.789
			C60.074,21.322,59.408,19.459,57.848,18.721z"/>
	</g>
</g>
<g>
</g>
<g>
</g>
<g>
</g>
<g>
</g>
<g>
</g>
<g>
</g>
<g>
</g>
<g>
</g>
<g>
</g>
<g>
</g>
<g>
</g>
<g>
</g>
<g>
</g>
<g>
</g>
<g>
</g>
</svg>
