<?xml version="1.0" encoding="iso-8859-1"?>
<!-- Generator: Adobe Illustrator 18.1.1, SVG Export Plug-In . SVG Version: 6.00 Build 0)  -->
<svg version="1.1" id="Capa_1" xmlns="http://www.w3.org/2000/svg" xmlns:xlink="http://www.w3.org/1999/xlink" x="0px" y="0px"
	 viewBox="0 0 468.374 468.374" style="enable-background:new 0 0 468.374 468.374;" xml:space="preserve">
<g>
	<g>
		<path style="fill:#010002;" d="M268.711,36.981c-17.826-17.818-45.967-18.72-65.102-3.13c-1.284,1.04-2.626,1.943-3.82,3.13
			L7.142,229.636c-9.527,9.519-9.519,24.963,0,34.481c1.187,1.187,2.479,2.235,3.829,3.129c4.056,2.682,8.738,4.016,13.42,4.016
			s9.364-1.341,13.42-4.016c1.349-0.894,1.618-1.935,2.804-3.129l14.883-15.9V359.58c-0.008,49.088,45.414,85.952,96.754,85.952
			h171.667c50.316,0,89.219-36.018,89.219-85.943V252.372l12.778,11.762c4.755,4.763,11.51,7.145,17.753,7.145
			s12.737-2.382,17.493-7.145c9.527-9.519,9.657-24.963,0.13-34.481L268.711,36.981z M364.377,359.588
			c0,23.036-17.021,37.172-40.448,37.172H152.253c-24.483,0-47.991-14.916-47.991-37.172V199.455L232.255,71.471l132.122,132.122
			V359.588z"/>
		<path style="fill:#010002;" d="M201.049,172.232v87.431h-11.925c-15.452,0-27.979,12.526-27.979,27.979v58.29
			c0,15.452,12.526,27.979,27.979,27.979h87.431c15.452,0,27.979-12.526,27.979-27.979v-58.29c0-15.452-12.526-27.979-27.979-27.979
			h-11.916v-37.302h17.753c12.234,0,22.15-9.917,22.15-22.15c0-12.234-9.917-22.15-22.15-22.15h-17.753v-5.828
			c0-15.452-12.526-27.979-27.979-27.979h-7.633C213.575,144.254,201.049,156.78,201.049,172.232z M275.271,299.534v34.498
			c0,9.145-7.413,16.558-16.558,16.558h-51.747c-9.145,0-16.558-7.413-16.558-16.558v-34.498c0-7.047,4.43-13.03,10.64-15.42
			c1.845-0.707,3.829-1.138,5.918-1.138h51.747c2.097,0,4.081,0.431,5.918,1.138C270.849,286.504,275.271,292.487,275.271,299.534z"
			/>
	</g>
</g>
<g>
</g>
<g>
</g>
<g>
</g>
<g>
</g>
<g>
</g>
<g>
</g>
<g>
</g>
<g>
</g>
<g>
</g>
<g>
</g>
<g>
</g>
<g>
</g>
<g>
</g>
<g>
</g>
<g>
</g>
</svg>
