<?xml version="1.0" encoding="iso-8859-1"?>
<!-- Generator: Adobe Illustrator 18.1.1, SVG Export Plug-In . SVG Version: 6.00 Build 0)  -->
<svg version="1.1" id="Capa_1" xmlns="http://www.w3.org/2000/svg" xmlns:xlink="http://www.w3.org/1999/xlink" x="0px" y="0px"
	 viewBox="0 0 300.791 300.791" style="enable-background:new 0 0 300.791 300.791;" xml:space="preserve">
<g>
	<g>
		<path style="fill:#010002;" d="M42.618,300.791h26.907h163.623h27.032v-27.146V170.254h3.764c13.108,0,24.574-6.358,29.208-17.998
			c4.634-11.645,1.474-24.405-8.05-33.412l-0.337-0.027l-0.348-0.163L169.549,16.905L150.398,0l-19.151,16.981L16.374,118.795
			l-0.348,0.31l-0.337,0.321c-9.524,9.007-12.684,21.185-8.05,32.825c4.634,11.645,16.094,18.003,29.202,18.003h5.776v103.391
			V300.791z M36.841,143.058c-2.66,0-3.247-1.153-1.316-2.981L150.393,38.585L265.26,140.078c1.931,1.828,1.343,2.981-1.316,2.981
			h-30.959v130.538h-43.513V143.058h-76.147v130.538H69.813V143.058H36.841z"/>
	</g>
</g>
<g>
</g>
<g>
</g>
<g>
</g>
<g>
</g>
<g>
</g>
<g>
</g>
<g>
</g>
<g>
</g>
<g>
</g>
<g>
</g>
<g>
</g>
<g>
</g>
<g>
</g>
<g>
</g>
<g>
</g>
</svg>
