<?xml version="1.0" encoding="iso-8859-1"?>
<!-- Generator: Adobe Illustrator 16.0.0, SVG Export Plug-In . SVG Version: 6.00 Build 0)  -->
<!DOCTYPE svg PUBLIC "-//W3C//DTD SVG 1.1//EN" "http://www.w3.org/Graphics/SVG/1.1/DTD/svg11.dtd">
<svg version="1.1" id="Capa_1" xmlns="http://www.w3.org/2000/svg" xmlns:xlink="http://www.w3.org/1999/xlink" x="0px" y="0px"
	 width="186.699px" height="186.699px" viewBox="0 0 186.699 186.699" style="enable-background:new 0 0 186.699 186.699;"
	 xml:space="preserve">
<g>
	<g>
		<path d="M20.502,66.992L44.929,40.45h91.69l23.784,26.443l9.862-8.875c3.895-3.501,4.213-9.497,0.712-13.388l-24.226-26.934
			h-16.598V0h-20.382v17.696H34.945l-24.765,26.91c-3.545,3.852-3.297,9.851,0.551,13.396L20.502,66.992z"/>
		<path d="M47.443,48.113L26.977,71.497v79.629c0,5.235,4.244,9.479,9.479,9.479h64.891v-22.042c0-6.39,3.747-11.868,9.127-14.511
			v-16.7c0-14.951,14.568-28.068,31.173-28.068c4.336,0,8.527,0.91,12.36,2.498V68.972l-18.64-20.858H47.443z"/>
		<path d="M169.899,126.473v-16.245c0-11.939-12.354-22.814-25.919-22.814s-25.916,10.875-25.916,22.814v16.245h8.761v-16.245
			c0-6.365,7.651-14.052,17.155-14.052c9.507,0,17.158,7.687,17.158,14.052v16.245H169.899z"/>
		<path d="M119.889,130.486c-6.051,0-10.951,4.901-10.951,10.951v34.311c0,6.051,4.9,10.951,10.951,10.951h48.184
			c6.054,0,10.951-4.9,10.951-10.951v-34.311c0-6.05-4.897-10.951-10.951-10.951H119.889z M148.36,159.267v11.376
			c0,2.416-1.961,4.38-4.38,4.38c-2.416,0-4.381-1.964-4.381-4.38v-11.376c-2.091-1.409-3.463-3.802-3.463-6.512
			c0-4.336,3.515-7.848,7.844-7.848c4.336,0,7.851,3.512,7.851,7.848C151.831,155.469,150.455,157.857,148.36,159.267z"/>
	</g>
</g>
<g>
</g>
<g>
</g>
<g>
</g>
<g>
</g>
<g>
</g>
<g>
</g>
<g>
</g>
<g>
</g>
<g>
</g>
<g>
</g>
<g>
</g>
<g>
</g>
<g>
</g>
<g>
</g>
<g>
</g>
</svg>
