<?xml version="1.0" encoding="iso-8859-1"?>
<!-- Generator: Adobe Illustrator 16.0.0, SVG Export Plug-In . SVG Version: 6.00 Build 0)  -->
<!DOCTYPE svg PUBLIC "-//W3C//DTD SVG 1.1//EN" "http://www.w3.org/Graphics/SVG/1.1/DTD/svg11.dtd">
<svg version="1.1" id="Capa_1" xmlns="http://www.w3.org/2000/svg" xmlns:xlink="http://www.w3.org/1999/xlink" x="0px" y="0px"
	 width="58.341px" height="58.342px" viewBox="0 0 58.341 58.342" style="enable-background:new 0 0 58.341 58.342;"
	 xml:space="preserve">
<g>
	<g>
		<path d="M11.073,14.385h27.256l7.069,7.86l2.933-2.639c1.157-1.041,1.253-2.823,0.212-3.979l-7.201-8.005h-4.935V2.361h-6.059
			v5.261H8.106l-7.361,7.999c-1.054,1.145-0.98,2.928,0.164,3.983l2.904,2.67L11.073,14.385z"/>
		<path d="M36.76,26.767c2.312,0,4.541,0.763,6.362,2.14c0.122-0.092,0.25-0.176,0.375-0.261v-5.784l-5.54-6.2H11.821l-6.084,6.952
			v23.67c0,1.557,1.262,2.817,2.818,2.817h23.692c-5.362-5.629-5.882-10.521-5.928-11.21c-0.083-0.547-0.124-1.06-0.124-1.56
			C26.195,31.508,30.935,26.767,36.76,26.767z"/>
		<path d="M49.861,29.198c-2.537,0-4.808,1.119-6.363,2.885c-1.553-1.764-3.824-2.885-6.36-2.885c-4.685,0-8.483,3.798-8.483,8.482
			c0,0.479,0.049,0.945,0.125,1.403h-0.007c0,0,0.374,9.058,14.726,16.896c14.126-7.157,14.728-16.896,14.728-16.896h-0.008
			c0.075-0.458,0.124-0.925,0.124-1.403C58.341,32.996,54.545,29.198,49.861,29.198z M36.873,33.05
			c-2.759,0-5.001,2.244-5.001,5.001c0,0.145-0.117,0.26-0.261,0.26s-0.26-0.115-0.26-0.26c0-3.044,2.477-5.521,5.521-5.521
			c0.144,0,0.261,0.116,0.261,0.26C37.133,32.934,37.016,33.05,36.873,33.05z"/>
	</g>
</g>
<g>
</g>
<g>
</g>
<g>
</g>
<g>
</g>
<g>
</g>
<g>
</g>
<g>
</g>
<g>
</g>
<g>
</g>
<g>
</g>
<g>
</g>
<g>
</g>
<g>
</g>
<g>
</g>
<g>
</g>
</svg>
