<?xml version="1.0" encoding="iso-8859-1"?>
<!-- Generator: Adobe Illustrator 18.1.1, SVG Export Plug-In . SVG Version: 6.00 Build 0)  -->
<svg version="1.1" id="Capa_1" xmlns="http://www.w3.org/2000/svg" xmlns:xlink="http://www.w3.org/1999/xlink" x="0px" y="0px"
	 viewBox="0 0 484.951 484.951" style="enable-background:new 0 0 484.951 484.951;" xml:space="preserve">
<g>
	<g>
		<path style="fill:#010002;" d="M412.184,53.551h-73.157v50.283l-96.177-81.611L0,228.299l70.759-0.089v234.518H414.2V227.755
			l70.751-0.089l-72.767-61.745C412.184,165.92,412.184,53.551,412.184,53.551z M339.027,146.477l30.295,25.711l6.283,5.332
			l20.029,16.997l0.878,0.748l-307.813,0.398l27.67-23.483L242.849,64.866L339.027,146.477z M166.262,428.953V288.654h153.573
			v140.307H166.262V428.953z M381.685,430.205h-29.336V256.139H133.748v174.073h-30.474V228.161l278.412-0.366V430.205z"/>
	</g>
</g>
<g>
</g>
<g>
</g>
<g>
</g>
<g>
</g>
<g>
</g>
<g>
</g>
<g>
</g>
<g>
</g>
<g>
</g>
<g>
</g>
<g>
</g>
<g>
</g>
<g>
</g>
<g>
</g>
<g>
</g>
</svg>
