<?xml version="1.0" encoding="iso-8859-1"?>
<!-- Generator: Adobe Illustrator 18.1.1, SVG Export Plug-In . SVG Version: 6.00 Build 0)  -->
<svg version="1.1" id="Capa_1" xmlns="http://www.w3.org/2000/svg" xmlns:xlink="http://www.w3.org/1999/xlink" x="0px" y="0px"
	 viewBox="0 0 491.6 491.6" style="enable-background:new 0 0 491.6 491.6;" xml:space="preserve">
<g>
	<g>
		<path style="fill:#010002;" d="M165.217,408.371h171.667c23.427,0,40.448-14.136,40.448-37.172V215.212L245.211,83.082
			L117.226,211.067V371.2C117.226,393.456,140.734,408.371,165.217,408.371z M174.11,299.253c0-15.452,12.526-27.979,27.979-27.979
			h11.925v-87.431c0-15.452,12.526-27.979,27.979-27.979h7.633c15.452,0,27.979,12.526,27.979,27.979v5.828h17.753
			c12.233,0,22.15,9.917,22.15,22.15c0,12.234-9.917,22.15-22.15,22.15h-17.753v37.302h11.925c15.452,0,27.979,12.526,27.979,27.979
			v58.29c0,15.452-12.526,27.979-27.979,27.979h-87.439c-15.452,0-27.979-12.526-27.979-27.979V299.253z"/>
		<path style="fill:#010002;" d="M97.547,491.6h296.506c53.868,0,97.543-43.675,97.543-97.543V97.543
			C491.596,43.675,447.921,0,394.053,0H97.547C43.679,0,0.004,43.675,0.004,97.543v296.506C0.004,447.925,43.679,491.6,97.547,491.6
			z M20.106,275.738c-9.527-9.519-9.527-24.963,0-34.481L212.753,48.601c1.195-1.195,2.536-2.089,3.82-3.13
			c19.135-15.591,47.284-14.688,65.102,3.13l192.59,192.663c9.527,9.519,9.397,24.963-0.13,34.481
			c-4.755,4.763-11.258,7.145-17.493,7.145c-6.235,0-12.989-2.382-17.753-7.145l-12.778-11.762v107.216
			c0,49.926-38.903,85.943-89.227,85.943H165.217c-51.348,0-96.763-36.863-96.763-85.943V259.838l-14.883,15.9
			c-1.187,1.187-1.455,2.235-2.804,3.129c-4.056,2.682-8.738,4.016-13.42,4.016s-9.364-1.341-13.42-4.016
			C22.577,277.973,21.293,276.932,20.106,275.738z"/>
		<path style="fill:#010002;" d="M219.931,362.201h51.747c9.145,0,16.558-7.413,16.558-16.558v-34.498
			c0-7.047-4.43-13.03-10.64-15.42c-1.845-0.707-3.829-1.138-5.918-1.138h-51.747c-2.097,0-4.081,0.431-5.918,1.138
			c-6.21,2.39-10.64,8.372-10.64,15.42v34.498C203.373,354.788,210.786,362.201,219.931,362.201z"/>
	</g>
</g>
<g>
</g>
<g>
</g>
<g>
</g>
<g>
</g>
<g>
</g>
<g>
</g>
<g>
</g>
<g>
</g>
<g>
</g>
<g>
</g>
<g>
</g>
<g>
</g>
<g>
</g>
<g>
</g>
<g>
</g>
</svg>
