<?xml version="1.0" encoding="iso-8859-1"?>
<!-- Generator: Adobe Illustrator 18.1.1, SVG Export Plug-In . SVG Version: 6.00 Build 0)  -->
<svg version="1.1" id="Capa_1" xmlns="http://www.w3.org/2000/svg" xmlns:xlink="http://www.w3.org/1999/xlink" x="0px" y="0px"
	 viewBox="0 0 317.717 317.717" style="enable-background:new 0 0 317.717 317.717;" xml:space="preserve">
<g>
	<g>
		<path style="fill:#010002;" d="M311.647,130.714c-1.05-2.752-2.725-5.292-5.015-7.354L182.23,11.202
			c-5.825-5.004-13.456-7.756-21.495-7.756c-8.947,0-18.014,3.378-24.965,9.35L9.023,123.143c-4.444,3.867-6.744,9.48-6.505,15.153
			c-1.028,3.166-1.605,6.511-1.626,9.981L0,314.272h51.774v-16.317v-21.756v-48.952c0-15.017,12.178-27.195,27.195-27.195h32.634
			c15.017,0,27.195,12.178,27.195,27.195v48.952v21.756v16.317h178.918l-0.887-165.995
			C316.798,141.881,314.895,135.892,311.647,130.714z M182.312,200.051h92.464v76.147h-92.464V200.051z"/>
	</g>
</g>
<g>
</g>
<g>
</g>
<g>
</g>
<g>
</g>
<g>
</g>
<g>
</g>
<g>
</g>
<g>
</g>
<g>
</g>
<g>
</g>
<g>
</g>
<g>
</g>
<g>
</g>
<g>
</g>
<g>
</g>
</svg>
