<?xml version="1.0" encoding="iso-8859-1"?>
<!-- Generator: Adobe Illustrator 16.0.0, SVG Export Plug-In . SVG Version: 6.00 Build 0)  -->
<!DOCTYPE svg PUBLIC "-//W3C//DTD SVG 1.1//EN" "http://www.w3.org/Graphics/SVG/1.1/DTD/svg11.dtd">
<svg version="1.1" id="Capa_1" xmlns="http://www.w3.org/2000/svg" xmlns:xlink="http://www.w3.org/1999/xlink" x="0px" y="0px"
	 width="368.773px" height="368.773px" viewBox="0 0 368.773 368.773" style="enable-background:new 0 0 368.773 368.773;"
	 xml:space="preserve">
<g>
	<g>
		<path d="M171.182,368.773h25.217c18.387,0,35.572-10.01,46.543-24.596h92.036V218.424c-1.55,0.204-3.11,0.349-4.702,0.349
			c-7.188,0-14.057-2.107-19.894-6.029c-1.928-1.297-3.747-2.785-5.429-4.467L189.625,92.949c-3.936-3.939-10.787-3.934-14.708,0
			L64.425,203.437l-4.834,4.834c-3.897,3.902-8.551,6.755-13.613,8.502v127.404h79.351
			C135.987,358.763,152.798,368.773,171.182,368.773z M142.596,325.73c-2.759-4.983-4.383-10.55-4.383-16.146v-8.449v-41.985
			c0-17.407,15.561-31.801,32.969-31.801h22.371h2.846c17.408,0,34.048,14.394,34.048,31.801v41.985v8.449
			c0,5.597-1.735,11.163-4.648,16.146c-6.143,10.527-17.588,18.447-29.399,18.447h-25.217
			C159.37,344.177,148.426,336.257,142.596,325.73z"/>
		<path d="M350.866,157.362L200.62,7.11c-3.044-3.05-6.72-5.02-10.593-6.125c-4.02-1.159-8.232-1.309-12.298-0.378
			c-4.32,0.99-8.439,3.104-11.811,6.461c-0.018,0.012-0.036,0.03-0.054,0.042l-11.505,11.499L17.903,155.074
			c-1.895,1.898-3.303,4.065-4.453,6.329c-4.666,9.224-3.251,20.729,4.453,28.427c4.795,4.804,11.085,7.2,17.375,7.2
			c3.678,0,7.326-0.925,10.706-2.564c2.399-1.171,4.687-2.642,6.671-4.636l116.031-116.03c8.038-8.035,21.071-8.035,29.117,0
			l118.312,118.318c5.17,5.176,12.082,7.464,18.861,7.056c5.788-0.349,11.475-2.637,15.889-7.056
			c5.74-5.734,7.968-13.589,6.852-21.035C356.967,166.063,354.733,161.223,350.866,157.362z"/>
	</g>
</g>
<g>
</g>
<g>
</g>
<g>
</g>
<g>
</g>
<g>
</g>
<g>
</g>
<g>
</g>
<g>
</g>
<g>
</g>
<g>
</g>
<g>
</g>
<g>
</g>
<g>
</g>
<g>
</g>
<g>
</g>
</svg>
