<?xml version="1.0" encoding="iso-8859-1"?>
<!-- Generator: Adobe Illustrator 18.1.1, SVG Export Plug-In . SVG Version: 6.00 Build 0)  -->
<svg version="1.1" id="Capa_1" xmlns="http://www.w3.org/2000/svg" xmlns:xlink="http://www.w3.org/1999/xlink" x="0px" y="0px"
	 viewBox="0 0 491.6 491.6" style="enable-background:new 0 0 491.6 491.6;" xml:space="preserve">
<g>
	<g>
		<path style="fill:#010002;" d="M97.547,491.6h296.506c53.868,0,97.543-43.675,97.543-97.543V97.543
			C491.596,43.675,447.921,0,394.053,0H97.547C43.679,0,0.004,43.675,0.004,97.543v296.506C0.004,447.925,43.679,491.6,97.547,491.6
			z M7.003,220.349c-0.715-2.146-1.658-7.706,5.227-12.949l134.04-102.168c6.73-5.129,17.72-4.991,24.313,0.309l35.067,28.174
			V49.698h158.743V200.54l107.037,52.039c7.999,3.894,8.12,9.145,7.478,11.925c-0.642,2.78-3.032,7.446-11.868,7.446h-0.114
			l-9.689-0.041c0.024,0.35,0.106,0.675,0.106,1.024v97.242c0,9.486-7.722,17.208-17.208,17.208h-21.394h-54.356h-74.612h-39.212
			h-0.593h-44.317h-16.257h-68.394h-60.59c-9.486,0-17.208-7.722-17.208-17.208V229.38c0-0.61,0.122-1.187,0.179-1.788
			l-24.402-0.081C10.344,227.494,7.726,222.495,7.003,220.349z"/>
		<path style="fill:#010002;" d="M267.19,370.183c0,0.325-0.081,0.626-0.098,0.951h22.695V271.99H267.19V370.183z"/>
		<circle style="fill:#010002;" cx="285.024" cy="124.887" r="23.996"/>
		<path style="fill:#010002;" d="M305.712,187.673c5.771-5.796,16.485-7.633,23.882-4.048l18.541,9.015V65.955H221.906v80.822
			l69.19,55.591L305.712,187.673z M244.772,124.887c0-22.191,18.054-40.253,40.253-40.253c22.199,0,40.253,18.062,40.253,40.253
			s-18.062,40.253-40.253,40.253C262.833,165.14,244.772,147.078,244.772,124.887z"/>
		<path style="fill:#010002;" d="M418.748,271.99v99.144h21.394c0.52,0,0.951-0.423,0.951-0.951v-97.242
			c0-0.528-0.415-0.951-0.951-0.951H418.748z"/>
		<path style="fill:#010002;" d="M221.906,211.92l55.323,0.187l-55.323-44.463l-16.257-13.063l-45.244-36.367
			c-0.683-0.553-3.536-0.626-4.276-0.057L33.941,211.286l171.708,0.577L221.906,211.92z"/>
		<path style="fill:#010002;" d="M322.481,198.248c-0.195-0.098-0.732-0.309-1.674-0.309c-1.569,0-2.983,0.602-3.577,1.195
			l-14.388,14.469l-14.713,14.794l-20.947,21.061v5.414l80.944,0.333l16.257,0.065l76.035,0.309l-76.035-36.961l-16.257-7.901
			L322.481,198.248z"/>
		<polygon style="fill:#010002;" points="467.048,263.813 467.048,259.488 467.048,255.904 466.999,255.928 467.015,259.472 		"/>
		<path style="fill:#010002;" d="M249.982,228.437h-28.076h-16.257H60.416c-0.52,0-0.951,0.423-0.951,0.951v140.803
			c0,0.52,0.423,0.951,0.951,0.951h60.59V313.43h68.386v57.705h16.257h16.257h11.551h16.517c0.114,0,0.195-0.081,0.293-0.122
			c0.366-0.13,0.65-0.415,0.65-0.829V271.99v-0.951v-8.169v-7.137v-1.455v-11.526V229.38
			C250.933,228.86,250.502,228.437,249.982,228.437z M132.638,298.652H75.445v-57.193h57.193V298.652z M234.709,298.652h-1.341
			h-11.461h-16.257h-28.133v-57.193h28.133h16.257h12.803v24.833V298.652z"/>
		<rect x="137.255" y="329.687" style="fill:#010002;" width="35.88" height="41.448"/>
		<rect x="91.703" y="257.716" style="fill:#010002;" width="24.678" height="24.678"/>
		<polygon style="fill:#010002;" points="193.773,257.716 193.773,282.395 205.649,282.395 218.451,282.395 218.451,257.716 
			205.649,257.716 		"/>
		<polygon style="fill:#010002;" points="348.135,294.141 306.045,294.141 306.045,315.966 348.135,315.966 364.392,315.966 
			402.49,315.966 402.49,294.141 364.392,294.141 		"/>
		<polygon style="fill:#010002;" points="348.135,328.159 306.045,328.159 306.045,349.992 348.135,349.992 364.392,349.992 
			402.49,349.992 402.49,328.159 364.392,328.159 		"/>
		<polygon style="fill:#010002;" points="348.135,362.185 306.045,362.185 306.045,371.134 348.135,371.134 364.392,371.134 
			402.49,371.134 402.49,362.185 364.392,362.185 		"/>
		<polygon style="fill:#010002;" points="348.135,272.421 306.045,272.421 306.045,281.948 348.135,281.948 364.392,281.948 
			402.49,281.948 402.49,272.421 364.392,272.421 		"/>
	</g>
</g>
<g>
</g>
<g>
</g>
<g>
</g>
<g>
</g>
<g>
</g>
<g>
</g>
<g>
</g>
<g>
</g>
<g>
</g>
<g>
</g>
<g>
</g>
<g>
</g>
<g>
</g>
<g>
</g>
<g>
</g>
</svg>
