<?xml version="1.0" encoding="iso-8859-1"?>
<!-- Generator: Adobe Illustrator 16.0.0, SVG Export Plug-In . SVG Version: 6.00 Build 0)  -->
<!DOCTYPE svg PUBLIC "-//W3C//DTD SVG 1.1//EN" "http://www.w3.org/Graphics/SVG/1.1/DTD/svg11.dtd">
<svg version="1.1" id="Capa_1" xmlns="http://www.w3.org/2000/svg" xmlns:xlink="http://www.w3.org/1999/xlink" x="0px" y="0px"
	 width="48.5px" height="48.5px" viewBox="0 0 48.5 48.5" style="enable-background:new 0 0 48.5 48.5;" xml:space="preserve">
<g>
	<g>
		<path d="M6.692,16.95h9.129v-6.654l7.946-7.48l8.618,7.593v6.598l9.271-0.021c1.886-0.004,3.118-1.507,2.757-3.356l-2.016-10.28
			C42.036,1.5,40.213,0,38.33,0L11.043,0.057c-1.884,0-3.793,1.479-4.263,3.305L4.131,13.644C3.661,15.47,4.808,16.95,6.692,16.95z"
			/>
		<path d="M39.1,48.5c1.886,0,3.412-1.528,3.412-3.413V18.506H30.761v-6.774l-6.774-6.254l-6.775,6.254v6.774H5.461v26.581
			c0,1.885,1.527,3.413,3.411,3.413h8.118V31.437h13.993V48.5H39.1z M23.986,16.805c-1.498,0-2.71-1.213-2.71-2.711
			c0-1.498,1.213-2.711,2.71-2.711c1.499,0,2.713,1.215,2.713,2.711C26.699,15.591,25.486,16.805,23.986,16.805z"/>
	</g>
</g>
<g>
</g>
<g>
</g>
<g>
</g>
<g>
</g>
<g>
</g>
<g>
</g>
<g>
</g>
<g>
</g>
<g>
</g>
<g>
</g>
<g>
</g>
<g>
</g>
<g>
</g>
<g>
</g>
<g>
</g>
</svg>
