<?xml version="1.0" encoding="iso-8859-1"?>
<!-- Generator: Adobe Illustrator 18.1.1, SVG Export Plug-In . SVG Version: 6.00 Build 0)  -->
<svg version="1.1" id="Capa_1" xmlns="http://www.w3.org/2000/svg" xmlns:xlink="http://www.w3.org/1999/xlink" x="0px" y="0px"
	 viewBox="0 0 475.676 475.676" style="enable-background:new 0 0 475.676 475.676;" xml:space="preserve">
<g>
	<g>
		<path style="fill:#010002;" d="M475.668,198.967L333.296,78.16l-57.51,48.796v-22.305h-36.579v53.34l-47.845,40.602l41.48,0.057
			v132.927H0v142.25h123.969c0.317-39.976,15.274-75.027,55.916-92.121c19.761-8.316,40.838-11.104,61.728-15.257
			c26.491-5.267,41.228-11.738,55.673-30.043c1.187-1.504,2.398-3.154,3.593-4.828c0.382-0.536,0.764-1.105,1.146-1.658V258.42
			h64.606v73.157v4.828v7.364h-0.154c-0.406,4.625-1.991,9.47-5.129,14.379c-28.296,44.219-58.81,62.98-110.223,72.474
			c-16.168,2.983-37.343,4.243-51.519,13.258c-10.088,6.422-11.965,18.119-11.551,29.946h-38.448h326.07v-142.25h-41.48V198.918
			L475.668,198.967z"/>
		<path style="fill:#010002;" d="M122.847,37.209c1.707-3.633,2.707-8.031,2.707-12.778c0,0-6.885-22.581-15.387-22.581h-0.398
			c-8.494,0-15.387,22.581-15.387,22.581c0,4.747,1,9.145,2.707,12.778c4.154-0.894,8.462-1.39,12.876-1.39
			C114.385,35.819,118.685,36.314,122.847,37.209z"/>
		<path style="fill:#010002;" d="M14.851,96.767v0.398c0,8.494,22.581,15.387,22.581,15.387c4.747,0,9.145-1,12.778-2.707
			c-0.894-4.154-1.39-8.462-1.39-12.876c0-4.422,0.496-8.722,1.39-12.876c-3.633-1.707-8.031-2.707-12.778-2.707
			C37.432,81.379,14.851,88.272,14.851,96.767z"/>
		<path style="fill:#010002;" d="M97.088,156.723c-1.707,3.633-2.707,8.031-2.707,12.778c0,0,6.885,22.581,15.387,22.581h0.398
			c8.494,0,15.387-22.581,15.387-22.581c0-4.747-1-9.145-2.707-12.778c-4.154,0.894-8.462,1.39-12.876,1.39
			C105.541,158.113,101.241,157.617,97.088,156.723z"/>
		<path style="fill:#010002;" d="M140.714,149.732c1.187,3.853,3.414,7.795,6.633,11.323c0,0,20.305,12.038,26.589,6.308
			l0.293-0.268c6.275-5.731-3.853-27.052-3.853-27.052c-3.219-3.528-6.942-6.105-10.673-7.641
			C154.671,139.442,148.2,145.351,140.714,149.732z"/>
		<path style="fill:#010002;" d="M173.927,26.568c-6.275-5.731-26.589,6.308-26.589,6.308c-3.219,3.52-5.446,7.47-6.633,11.323
			c7.486,4.381,13.957,10.291,18.988,17.33c3.731-1.536,7.454-4.113,10.673-7.641c0,0,10.128-21.321,3.853-27.052L173.927,26.568z"
			/>
		<path style="fill:#010002;" d="M46,26.568l-0.293,0.268c-6.275,5.731,3.853,27.052,3.853,27.052
			c3.219,3.528,6.942,6.105,10.673,7.641c5.032-7.031,11.494-12.949,18.988-17.33c-1.187-3.853-3.414-7.795-6.633-11.323
			C72.588,32.876,52.283,20.838,46,26.568z"/>
		<path style="fill:#010002;" d="M60.233,132.402c-3.731,1.536-7.454,4.113-10.673,7.641c0,0-10.128,21.321-3.853,27.052L46,167.363
			c6.275,5.731,26.589-6.308,26.589-6.308c3.211-3.52,5.446-7.47,6.633-11.323C71.727,145.351,65.256,139.442,60.233,132.402z"/>
		<path style="fill:#010002;" d="M205.084,97.165v-0.398c0-8.494-22.581-15.387-22.581-15.387c-4.747,0-9.145,1-12.778,2.707
			c0.894,4.154,1.39,8.462,1.39,12.876c0,4.422-0.496,8.722-1.39,12.876c3.633,1.707,8.031,2.707,12.778,2.707
			C182.503,112.552,205.084,105.659,205.084,97.165z"/>
		<path style="fill:#010002;" d="M66.979,63.122c-5.592,7.096-9.437,15.599-10.974,24.906c-0.48,2.918-0.788,5.885-0.788,8.933
			s0.309,6.023,0.788,8.933c1.528,9.299,5.381,17.81,10.974,24.906c3.715,4.715,8.177,8.795,13.217,12.079
			c6.194,4.024,13.25,6.795,20.834,8.047c2.918,0.48,5.885,0.788,8.933,0.788c3.048,0,6.023-0.309,8.933-0.788
			c7.584-1.252,14.64-4.024,20.834-8.047c5.048-3.276,9.502-7.364,13.217-12.079c5.592-7.096,9.437-15.599,10.974-24.906
			c0.48-2.918,0.788-5.885,0.788-8.933s-0.309-6.023-0.788-8.933c-1.528-9.299-5.381-17.81-10.974-24.906
			c-3.715-4.715-8.177-8.795-13.217-12.071c-6.194-4.024-13.25-6.795-20.834-8.047c-2.918-0.48-5.885-0.788-8.933-0.788
			c-3.048,0-6.023,0.309-8.933,0.788c-7.584,1.252-14.64,4.024-20.834,8.047C75.149,54.327,70.694,58.416,66.979,63.122z"/>
	</g>
</g>
<g>
</g>
<g>
</g>
<g>
</g>
<g>
</g>
<g>
</g>
<g>
</g>
<g>
</g>
<g>
</g>
<g>
</g>
<g>
</g>
<g>
</g>
<g>
</g>
<g>
</g>
<g>
</g>
<g>
</g>
</svg>
