<?xml version="1.0" encoding="iso-8859-1"?>
<!-- Generator: Adobe Illustrator 18.1.1, SVG Export Plug-In . SVG Version: 6.00 Build 0)  -->
<svg version="1.1" id="Capa_1" xmlns="http://www.w3.org/2000/svg" xmlns:xlink="http://www.w3.org/1999/xlink" x="0px" y="0px"
	 viewBox="0 0 371.587 371.587" style="enable-background:new 0 0 371.587 371.587;" xml:space="preserve">
<g>
	<g>
		<path style="fill:#010002;" d="M339.103,220.58c-4.583,0-9.953-1.748-13.443-5.245l-10.209-8.634v120.471
			c0,0.227-0.03,0.43-0.03,0.656c34.632-33.068,56.166-80.523,56.166-136.85c0-102.606-83.184-185.79-185.796-185.79
			S0,88.372,0,190.979c0,53.559,20.192,99.76,52.908,132.9V203.664l-10.096,11.671c-0.871,0.871-0.239,1.641-1.229,2.297
			c-2.977,1.969-6.414,2.948-9.851,2.948s-6.874-0.985-9.851-2.948c-0.99-0.656-1.939-1.42-2.81-2.297
			c-6.993-6.987-6.999-18.324-0.006-25.311L160.473,48.603c0.877-0.877,1.85-1.533,2.792-2.297
			c14.046-11.444,34.679-10.782,47.765,2.297L352.356,190.03c6.993,6.987,6.796,18.324-0.197,25.311
			C348.662,218.832,343.686,220.58,339.103,220.58z"/>
		<path style="fill:#010002;" d="M88.709,167.863v171.249c0,7.357,3.855,13.604,9.708,18.271c5.776,2.989,11.737,5.663,17.853,8.043
			c3.073,0.621,6.212,0.973,9.326,0.973h126.014c0.788,0,1.486-0.131,2.244-0.173c6.629-2.47,13.085-5.281,19.321-8.461
			c4.111-4.636,6.468-10.919,6.468-18.652V170.906l-96.985-96.991L88.709,167.863z M236.008,329.601H132.351V225.944h103.656
			V329.601z M226.52,181.557v35.682H208.62v-35.682c0-3.497-2.846-6.343-6.337-6.343h-37.388c-3.497,0-6.343,2.852-6.343,6.343
			v35.682h-17.901v-35.682c0-13.366,10.878-24.243,24.243-24.243h37.388C215.649,157.314,226.52,168.191,226.52,181.557z"/>
	</g>
</g>
<g>
</g>
<g>
</g>
<g>
</g>
<g>
</g>
<g>
</g>
<g>
</g>
<g>
</g>
<g>
</g>
<g>
</g>
<g>
</g>
<g>
</g>
<g>
</g>
<g>
</g>
<g>
</g>
<g>
</g>
</svg>
