<?xml version="1.0" encoding="iso-8859-1"?>
<!-- Generator: Adobe Illustrator 16.0.0, SVG Export Plug-In . SVG Version: 6.00 Build 0)  -->
<!DOCTYPE svg PUBLIC "-//W3C//DTD SVG 1.1//EN" "http://www.w3.org/Graphics/SVG/1.1/DTD/svg11.dtd">
<svg version="1.1" id="Capa_1" xmlns="http://www.w3.org/2000/svg" xmlns:xlink="http://www.w3.org/1999/xlink" x="0px" y="0px"
	 width="209.19px" height="209.19px" viewBox="0 0 209.19 209.19" style="enable-background:new 0 0 209.19 209.19;"
	 xml:space="preserve">
<g>
	<g>
		<path d="M62.615,77.431l41.196-20.237l42.828,20.273c0.719,0.339,1.465,0.498,2.211,0.498c1.94,0,3.799-1.094,4.688-2.962
			c1.222-2.592,0.116-5.685-2.471-6.906l-12.717-6.021v-4.437c0-3.304-2.317-5.985-5.181-5.985c-2.725,0-4.942,2.443-5.141,5.537
			l-22.053-10.439c-1.427-0.672-3.083-0.666-4.503,0.033L58.035,68.128c-2.565,1.261-3.623,4.366-2.365,6.935
			C56.941,77.642,60.05,78.698,62.615,77.431z"/>
		<path d="M197.595,100.406c-1.529-0.683-3.381,0.134-4.271,1.815l-9.739-11.365c-0.63-0.736-1.558-1.141-2.526-1.11l-29.673,1.083
			c-1.752,0.063-3.125,1.542-3.06,3.293c0.059,1.759,1.536,3.126,3.289,3.06l28.144-1.023l18.911,22.073
			c0.318,0.369,0.697,0.646,1.115,0.832c1.085,0.489,2.402,0.342,3.367-0.482c1.335-1.146,1.485-3.152,0.346-4.483l-5.615-6.557
			l1.111-2.485C199.82,103.206,199.197,101.121,197.595,100.406z"/>
		<path d="M8.145,119.06c0.417-0.188,0.799-0.462,1.114-0.832l18.909-22.072l28.144,1.023c1.752,0.067,3.23-1.3,3.291-3.059
			c0.063-1.752-1.304-3.23-3.06-3.294l-29.675-1.083c-0.967-0.031-1.899,0.375-2.525,1.11l-9.74,11.365
			c-0.89-1.679-2.739-2.499-4.267-1.816c-1.605,0.715-2.233,2.799-1.405,4.647l1.11,2.485l-5.611,6.56
			c-1.146,1.331-0.989,3.337,0.348,4.483C5.741,119.402,7.058,119.549,8.145,119.06z"/>
		<path d="M182.316,140.859c0.653-0.52,1.204-1.177,1.563-1.988l10.062-22.514l-15.526-17.804l-23.911,0.76l-9.846,22.027
			c-0.619,1.39-0.876,2.762-0.797,3.863c-2.57-0.615-5.106-1.153-7.57-1.608c1.273-1.522,2.067-3.449,2.067-5.588V77.814
			l-34.949-16.163L68.33,78.687v39.319c0,2.539,0.558,4.798,1.434,6.393c-1.896,0.387-3.845,0.835-5.814,1.311
			c0.228-1.167,0.046-2.737-0.683-4.374l-9.844-22.026l-23.913-0.76l-15.528,17.804l10.064,22.515
			c0.392,0.88,1.004,1.581,1.73,2.111C16.464,146.591,7.59,153.75,0,162.932h112.114c-2.313-5.373-7.791-13.213-20.809-18.442
			c-13.211-5.308-14.101-21.401-14.104-21.439v-22.973c0-0.958,0.77-1.729,1.726-1.729h15.332c0.955,0,1.728,0.773,1.728,1.729
			v20.991c-0.01,0.041-1.696,5.705,17.951,15.396c11.311,5.574,8.966,18.743,6.372,26.471h88.881
			C200.668,153.707,191.555,146.5,182.316,140.859z M29.966,136.531l-5.282-11.82l5.32-2.375l5.282,11.812L29.966,136.531z
			 M37.755,133.05l-5.284-11.82l5.323-2.379l5.28,11.817L37.755,133.05z M48.668,130.248l-5.376-12.029
			c-0.238-0.537,0-1.163,0.534-1.403l8.584-3.839c0.534-0.236,1.16,0.003,1.398,0.54l5.934,13.274
			C56.122,127.769,52.414,128.916,48.668,130.248z M114.094,118.468h-9.501V97.367h9.501V118.468z M127.996,118.468h-9.5V97.367h9.5
			V118.468z M164.64,118.218l-5.209,11.652c-3.736-1.369-7.429-2.529-11.046-3.515l5.735-12.84c0.239-0.537,0.869-0.78,1.403-0.54
			l8.582,3.839C164.64,117.055,164.879,117.681,164.64,118.218z M164.856,130.671l5.28-11.816l5.325,2.378l-5.284,11.82
			L164.856,130.671z M172.641,134.152l5.284-11.813l5.317,2.375l-5.28,11.82L172.641,134.152z"/>
	</g>
</g>
<g>
</g>
<g>
</g>
<g>
</g>
<g>
</g>
<g>
</g>
<g>
</g>
<g>
</g>
<g>
</g>
<g>
</g>
<g>
</g>
<g>
</g>
<g>
</g>
<g>
</g>
<g>
</g>
<g>
</g>
</svg>
