<?xml version="1.0" encoding="iso-8859-1"?>
<!-- Generator: Adobe Illustrator 16.0.0, SVG Export Plug-In . SVG Version: 6.00 Build 0)  -->
<!DOCTYPE svg PUBLIC "-//W3C//DTD SVG 1.1//EN" "http://www.w3.org/Graphics/SVG/1.1/DTD/svg11.dtd">
<svg version="1.1" id="Capa_1" xmlns="http://www.w3.org/2000/svg" xmlns:xlink="http://www.w3.org/1999/xlink" x="0px" y="0px"
	 width="181.151px" height="181.151px" viewBox="0 0 181.151 181.151" style="enable-background:new 0 0 181.151 181.151;"
	 xml:space="preserve">
<g>
	<g>
		<polygon points="153.623,59.819 153.623,19.53 128.398,19.53 128.398,34.945 		"/>
		<polygon points="156.409,19.53 156.409,12.987 124.929,12.987 124.929,19.53 127.386,21.019 127.386,18.17 154.852,18.17 
			154.852,20.24 		"/>
		<path d="M3.257,87.838h11.014l4.146-4.305v87.479h4.534v2.498l-4.534,2.197v5.444h60.242v-5.185l-4.794-2.717l-0.101-2.238h88.583
			V83.624l4.147,4.214h11.399L88.755,0L3.257,87.838z M70.451,166.43H27.613v-32.818h36.341c0.307,2.364,1.627,4.144,3.214,4.144
			h3.283V166.43z M70.451,126.182c0,0-1.468,0-3.283,0c-1.622,0-2.964,1.872-3.228,4.318H27.613V97.682h42.838V126.182z
			 M155.868,141.677v4.918h-77.73v-4.918l3.455-1.3h70.909L155.868,141.677z M118.3,97.682h33.685v40.073H118.3V97.682z
			 M115.189,137.755H83.926V97.682h31.263V137.755z M103.27,49.099v15.763h9.5v3.451h-46.12v-3.451h9.676V49.099
			c0-8.586,6.034-15.548,13.473-15.548C97.236,33.554,103.27,40.513,103.27,49.099z"/>
	</g>
</g>
<g>
</g>
<g>
</g>
<g>
</g>
<g>
</g>
<g>
</g>
<g>
</g>
<g>
</g>
<g>
</g>
<g>
</g>
<g>
</g>
<g>
</g>
<g>
</g>
<g>
</g>
<g>
</g>
<g>
</g>
</svg>
