<?xml version="1.0" encoding="iso-8859-1"?>
<!-- Generator: Adobe Illustrator 16.0.0, SVG Export Plug-In . SVG Version: 6.00 Build 0)  -->
<!DOCTYPE svg PUBLIC "-//W3C//DTD SVG 1.1//EN" "http://www.w3.org/Graphics/SVG/1.1/DTD/svg11.dtd">
<svg version="1.1" id="Capa_1" xmlns="http://www.w3.org/2000/svg" xmlns:xlink="http://www.w3.org/1999/xlink" x="0px" y="0px"
	 width="59.638px" height="59.638px" viewBox="0 0 59.638 59.638" style="enable-background:new 0 0 59.638 59.638;"
	 xml:space="preserve">
<g>
	<g>
		<path d="M57.848,18.72l-7.664-3.628v-2.677c0-1.994-1.401-3.609-3.125-3.609c-1.646,0-2.981,1.474-3.104,3.339L30.66,5.85
			c-0.86-0.407-1.862-0.399-2.716,0.021L1.747,18.74c-1.548,0.761-2.188,2.633-1.426,4.183c0.761,1.55,2.637,2.187,4.184,1.426
			l24.844-12.205l25.829,12.225c0.432,0.204,0.885,0.301,1.334,0.301c1.17,0,2.293-0.662,2.826-1.79
			C60.075,21.322,59.408,19.459,57.848,18.72z"/>
		<path d="M44.913,54.087c2.911,0,5.271-2.359,5.271-5.27V24.581l-21.076-9.747L7.952,25.108v23.71c0,2.91,1.198,5.27,2.674,5.27
			h2.675V38.005c0-0.576,0.466-1.042,1.042-1.042h9.245c0.574,0,1.042,0.466,1.042,1.042v16.083L44.913,54.087L44.913,54.087z
			 M38.204,36.372h5.729v12.724h-5.729V36.372z M29.819,36.372h5.729v12.724h-5.729V36.372z"/>
	</g>
</g>
<g>
</g>
<g>
</g>
<g>
</g>
<g>
</g>
<g>
</g>
<g>
</g>
<g>
</g>
<g>
</g>
<g>
</g>
<g>
</g>
<g>
</g>
<g>
</g>
<g>
</g>
<g>
</g>
<g>
</g>
</svg>
