<?xml version="1.0" encoding="iso-8859-1"?>
<!-- Generator: Adobe Illustrator 16.0.0, SVG Export Plug-In . SVG Version: 6.00 Build 0)  -->
<!DOCTYPE svg PUBLIC "-//W3C//DTD SVG 1.1//EN" "http://www.w3.org/Graphics/SVG/1.1/DTD/svg11.dtd">
<svg version="1.1" id="Capa_1" xmlns="http://www.w3.org/2000/svg" xmlns:xlink="http://www.w3.org/1999/xlink" x="0px" y="0px"
	 width="190.735px" height="190.735px" viewBox="0 0 190.735 190.735" style="enable-background:new 0 0 190.735 190.735;"
	 xml:space="preserve">
<g>
	<g>
		<path d="M158.419,153.302l-5.886-11.697c-1.144-2.262-4.107-3.966-6.626-3.818l-7.733,0.444v-1.536
			c0.144-0.072,0.294-0.1,0.438-0.175c1.93-1.074,3.33-2.833,3.936-4.948c0.698-2.471,0.239-5.075-1.28-7.156
			c-0.369-0.51-1.085-0.615-1.595-0.25c-0.506,0.377-0.622,1.096-0.246,1.605c1.095,1.499,1.431,3.385,0.924,5.168
			c-0.438,1.543-1.444,2.81-2.844,3.579c-1.393,0.776-3.001,0.958-4.548,0.527c-1.53-0.438-2.807-1.448-3.576-2.848
			c-0.773-1.393-0.955-3.001-0.517-4.545c0.362-1.279,1.143-2.36,2.197-3.131c0.763,2.05,1.772,3.408,3.1,3.408
			c1.814,0,3.121-2.221,4.097-6.987c0.862-4.224,1.338-9.884,1.338-15.955c0-7.019-0.636-13.484-1.752-17.738
			c-0.164-0.609-0.78-0.967-1.396-0.812c-0.608,0.161-0.975,0.785-0.811,1.395c1.047,4.012,1.68,10.426,1.68,17.156
			c0,5.917-0.465,11.417-1.3,15.492c-0.055,0.25-0.1,0.463-0.157,0.688c-1.123-0.175-2.256-0.116-3.354,0.171
			c-0.797-3.501-1.484-9.038-1.484-16.352c0-12.72,2.073-20.106,3.145-20.654c0.633,0,1.149-0.508,1.149-1.143
			c0-0.633-0.52-1.142-1.149-1.142c-5.362,0-5.431,21.998-5.431,22.938c0,0.627,0.034,10.644,1.663,17.234
			c-1.82,1.078-3.142,2.769-3.724,4.812c-0.609,2.122-0.353,4.354,0.719,6.276c1.074,1.934,2.833,3.333,4.955,3.936
			c0.51,0.15,1.034,0.175,1.551,0.223v0.763l-9.866,0.496c-2.525,0.127-5.284,2.14-6.17,4.515l-4.952,13.291
			c-0.883,2.368,0.444,4.145,2.964,3.974l40.056-2.793C158.436,157.535,159.566,155.561,158.419,153.302z M135.258,123.382
			c-0.514,1.584-0.944,2.187-1.006,2.279c-0.339-0.157-0.732-0.894-1.15-2.125C133.807,123.358,134.533,123.29,135.258,123.382z"/>
		<path d="M151.747,160.899l-32.306,2.269c-2.525,0.171-4.541,2.368-4.514,4.894l0.216,18.579c0.03,2.525,2.084,4.35,4.603,4.065
			l32.309-3.604c2.519-0.28,4.531-2.553,4.497-5.082l-0.195-16.864C156.325,162.624,154.265,160.731,151.747,160.899z
			 M119.852,166.576l3.531-0.229l0.034,2.923l-3.535,0.267L119.852,166.576z M119.934,174.297l-0.031-2.468l3.542-0.264l0.027,2.454
			L119.934,174.297z M125.669,166.196l3.6-0.232l0.041,2.854l-3.61,0.274L125.669,166.196z M125.751,173.828l-0.024-2.447
			l3.604-0.271l0.031,2.43L125.751,173.828z M132.147,185.401c0,0-0.03-2.689-0.071-6.006c-0.041-3.312,1.868-6.129,4.264-6.293
			c2.393-0.157,4.36,2.313,4.401,5.526l0.062,5.812L132.147,185.401z M143.273,165.07l3.456-0.226l0.024,2.443l-3.453,0.268
			L143.273,165.07z M143.362,172.788l-0.034-2.94l3.456-0.263l0.034,2.922L143.362,172.788z M149.015,164.697l3.692-0.235
			l0.024,2.378l-3.686,0.28L149.015,164.697z M149.097,172.329l-0.03-2.919l3.692-0.28l0.034,2.908L149.097,172.329z"/>
		<path d="M32.104,66.371c-0.786,3.925,0.476,7.78,3.044,10.472c2.25,2.354,3.21,4.225,1.869,6.314
			c-0.796,1.23-1.364,2.621-1.658,4.149c-1.225,6.401,2.972,12.576,9.368,13.798l37.671,7.214c0.742,0.141,1.485,0.205,2.221,0.205
			c3.364,0,6.617-1.437,8.877-4.024l18.352-20.967c1.893-2.161,2.844-4.822,2.909-7.484c0.007-0.531,0.017-1.097,0.017-1.686
			l-26.18,12.092c-2.681,1.241-6.529,1.966-9.9,1.966c-1.062,0-2.083-0.07-2.993-0.221l-18.749-3.097
			c-1.605-0.267-2.698-1.781-2.424-3.39c0.258-1.605,1.766-2.691,3.384-2.425l18.752,3.094c2.635,0.435,7.044-0.164,9.456-1.278
			l28.619-13.218c0-0.95,0.007-1.85,0.024-2.622c0.044-1.725-0.284-3.484-1.041-5.162c-0.547-1.215-1.283-2.284-2.152-3.2
			c-13.704,3.095-24.988,4.093-33.783,4.093c-15.006,0-22.841-2.873-23.363-3.076c-1.524-0.579-2.283-2.278-1.704-3.806
			c0.578-1.518,2.274-2.277,3.792-1.706c0.204,0.074,20.347,7.313,58.833-2.471c1.924-2.565,2.793-5.881,2.167-9.226
			c-6.109-2.156-13.296-4.818-19.933-7.599c-14.943-6.261-41.716-5.185-41.981-5.178c-1.634,0.044-3.005-1.192-3.075-2.821
			c-0.069-1.626,1.199-3.003,2.825-3.073c1.15-0.046,28.361-1.14,44.516,5.628c5.924,2.488,12.306,4.878,17.936,6.882
			c0.485,0,1.026,0.024,1.667,0.109l12.224,1.569l-0.876,16.548c0,0-2.943,0.809-6.578,1.812c-3.634,1.001-6.577,4.95-6.577,8.821
			v5.424c0,3.869,2.748,8.514,6.146,10.376l6.964,3.815c0.842-1.304,1.855-2.113,3.135-2.113c1.27,0,2.286,1.023,2.286,2.29
			c0,0.596-0.243,1.128-0.63,1.539l10.588-4.466c3.566-1.502,6.77-5.849,7.146-9.699l0.526-5.4c0.38-3.852-2.163-8.071-5.674-9.423
			l-6.365-2.447l0.459-10.218c-0.209-0.067-0.452-0.126-0.623-0.193c-1.27-0.513-2.272-2.565-2.272-4.221
			c0-0.821,0.271-1.668,0.719-2.418c4.329-1.29,7.734-4.988,8.35-9.76c0.575-4.477-1.471-8.645-4.91-11.088l0.021-0.484
			c-0.179-0.195-0.353-0.405-0.548-0.549c-1.304-0.95-1.633-1.528-1.358-2.04c0.287-0.537,1.037-0.679,1.037-0.679
			c0.229-0.074,0.595-0.057,1.009,0.021c0,0,0.055-1.14,0.12-2.544c0.062-1.405-1.051-3.732-2.495-5.196
			c-1.443-1.461-3.818-1.578-5.311-0.253c-1.431,1.273-2.738,5.197-3.025,8.93L93.198,2.574c-5.633-1.418-14.9-2.532-20.708-2.484
			L53.263,0.248c-6.372-1.321-12.619,2.779-13.937,9.158c-0.267,1.293-0.31,2.579-0.158,3.819c0.262,2.103,1.692,6.263,1.646,9.526
			c-0.021,1.776-0.245,3.314-0.575,4.618c-0.792,3.16-4.495,6.343-6.08,8.483c-0.936,1.265-1.625,2.734-1.997,4.363
			c-0.534,2.341-0.327,4.675,0.459,6.766c1.153,3.046,4.053,6.509,4.057,8.744c0.005,2.236-2.067,5.103-3.177,6.974
			C32.85,63.809,32.369,65.039,32.104,66.371z M143.047,72.605c2.521,0.125,2.847,1.338,0.719,2.704l-5.168,3.336
			c-2.129,1.367-5.496,1.251-7.519-0.255l-5.52-4.115c-2.033-1.509-1.629-2.628,0.89-2.501L143.047,72.605z"/>
	</g>
</g>
<g>
</g>
<g>
</g>
<g>
</g>
<g>
</g>
<g>
</g>
<g>
</g>
<g>
</g>
<g>
</g>
<g>
</g>
<g>
</g>
<g>
</g>
<g>
</g>
<g>
</g>
<g>
</g>
<g>
</g>
</svg>
