<?xml version="1.0" encoding="iso-8859-1"?>
<!-- Generator: Adobe Illustrator 18.1.1, SVG Export Plug-In . SVG Version: 6.00 Build 0)  -->
<svg version="1.1" id="Capa_1" xmlns="http://www.w3.org/2000/svg" xmlns:xlink="http://www.w3.org/1999/xlink" x="0px" y="0px"
	 viewBox="0 0 491.6 491.6" style="enable-background:new 0 0 491.6 491.6;" xml:space="preserve">
<g>
	<g>
		<path style="fill:#010002;" d="M97.547,491.6h296.506c53.868,0,97.543-43.675,97.543-97.543V97.543
			C491.596,43.675,447.921,0,394.053,0H97.547C43.679,0,0.004,43.675,0.004,97.543v296.506C0.004,447.925,43.679,491.6,97.547,491.6
			z M51.71,383.783l59.574-59.574c0.26-0.26,0.593-0.398,0.894-0.593L98.4,309.747c-2.113-2.13-1.414-3.528,1.553-3.13l72.092,9.73
			c0.163-0.211,0.285-0.415,0.455-0.626c11.331-14.648,28.856-30.303,49.357-44.089c8.047-5.414,16.143-10.21,24.069-14.404
			l-5.731-10.096c-2.365-4.235-2.365-10.689,0-14.924l28.149-51.161c2.365-4.243,8.218-8.405,13.071-8.405h11.599l-0.106-23.817
			l-17.444-17.444c-3.43-3.43-3.43-8.998,0-12.429l17.233-17.233l-0.024-5.869l-17.208-17.208c-3.43-3.43-3.43-8.998,0-12.429
			l16.997-16.997l-0.033-7.625c-0.041-8.982,7.21-15.265,16.184-15.265c0.024,0,0.049,0,0.073,0c8.95,0,16.216,5.357,16.257,14.314
			l0.577,132h11.754c4.853,0,10.705,4.373,13.071,8.616l28.149,50.901c2.365,4.235,2.365,11.347,0,15.582l-28.149,48.861
			c-2.365,4.235-8.218,6.096-13.071,6.096h-32.783c8.941-8.868,15.704-19.525,20.061-32.189c1.609-1.008,3.154-2.162,4.544-3.577
			c9.429-9.649,9.242-25.117-0.406-34.538c-2.943-2.878-6.454-4.747-10.136-5.836c-5.406-1.601-11.226-1.39-16.452,0.813
			c-2.902,1.227-5.617,3.032-7.95,5.422c-2.325,2.382-4.056,5.121-5.21,8.031c4.406-0.862,8.592-1.439,12.274-1.439
			c8.901,0,15.135,2.569,18.549,7.641c8.633,12.851-5.235,34.831-27.336,55.673c-5.609,5.284-11.73,10.502-18.167,15.477
			c-4.609,3.56-9.372,6.999-14.201,10.25c-9.746,6.552-19.549,12.193-29.052,16.94c-7.641,3.812-15.038,6.999-22.02,9.445
			c-7.267,2.544-14.103,4.365-20.175,5.235c-2.869,0.406-5.592,0.642-8.112,0.642c-6.828,0-12.055-1.544-15.68-4.544
			c-1.097-0.91-2.073-1.918-2.869-3.089c-2.138-3.178-2.934-7.023-2.439-11.429c-3.91,3.325-6.446,8.218-6.446,13.754
			c0,10.006,8.112,18.119,18.119,18.119c5.649,0,10.624-2.634,13.949-6.69c8.616-0.772,16.777-2.764,24.288-6.105l6.877,63.126
			c0.325,2.983-1.122,3.674-3.235,1.544l-13.729-13.835c-0.138,0.179-0.203,0.39-0.366,0.553l-59.574,59.566
			c-2.122,2.122-5.56,2.122-7.682,0L51.71,391.464C49.596,389.342,49.596,385.904,51.71,383.783z"/>
		<path style="fill:#010002;" d="M168.891,348.505c2.243,3.349,7.657,4.048,11.795,4.048c2.552,0,5.422-0.325,8.437-0.821
			c5.666-0.935,12.071-2.747,18.948-5.259c9.185-3.357,19.151-7.999,29.352-13.721c6.015-3.373,12.079-7.031,18.094-11.071
			c4.463-3.008,8.649-6.04,12.656-9.08c4.398-3.341,8.503-6.674,12.315-9.982c25.703-22.297,37.895-43.081,32.531-51.056
			c-2.252-3.349-7.657-4.048-11.803-4.048c-4.056,0-8.803,0.715-13.949,1.935c-0.106,6.487,2.292,12.998,7.299,17.883
			c1.195,1.162,2.479,2.178,3.829,3.048c-5.625,11.388-14.591,19.647-26.109,26.19c-0.959,0.545-1.756,1.171-2.471,1.829
			c-0.52-0.536-1.097-1.032-1.463-1.683l-18.387-32.392c-7.779,4.105-15.721,8.779-23.565,14.054
			c-18.362,12.347-34.124,26.15-44.943,39.237l18.444,2.487c2.975,0.398,5.649,3.146,5.975,6.129l1.276,11.738
			c-6.259,3.926-13.502,6.056-20.988,6.958c-3.284-4.641-8.665-7.69-14.778-7.69c-0.805,0-1.577,0.138-2.349,0.236
			c-1.512,4.219-1.674,7.649-0.536,10.104C168.631,347.887,168.704,348.236,168.891,348.505z"/>
	</g>
</g>
<g>
</g>
<g>
</g>
<g>
</g>
<g>
</g>
<g>
</g>
<g>
</g>
<g>
</g>
<g>
</g>
<g>
</g>
<g>
</g>
<g>
</g>
<g>
</g>
<g>
</g>
<g>
</g>
<g>
</g>
</svg>
