<?xml version="1.0" encoding="iso-8859-1"?>
<!-- Generator: Adobe Illustrator 16.0.0, SVG Export Plug-In . SVG Version: 6.00 Build 0)  -->
<!DOCTYPE svg PUBLIC "-//W3C//DTD SVG 1.1//EN" "http://www.w3.org/Graphics/SVG/1.1/DTD/svg11.dtd">
<svg version="1.1" id="Capa_1" xmlns="http://www.w3.org/2000/svg" xmlns:xlink="http://www.w3.org/1999/xlink" x="0px" y="0px"
	 width="55.333px" height="55.333px" viewBox="0 0 55.333 55.333" style="enable-background:new 0 0 55.333 55.333;"
	 xml:space="preserve">
<g>
	<g>
		<path d="M23.613,43.683L3.5,45.326c-0.573,0.047-0.742,0.444-0.377,0.888l1.066,1.299c0.364,0.445,1.125,0.773,1.7,0.734
			l19.861-1.355c0.574-0.04,1.132-0.528,1.247-1.092l2.669-13.089l-3.103-2.387L23.613,43.683z"/>
		<path d="M30.473,30.189h-2.975l2.699,2.118h1.277c0.575,0,0.719-0.336,0.319-0.75L30.473,30.189z"/>
		<path d="M22.806,42.699l2.825-13.216h3.8c0.576,0,0.751-0.365,0.393-0.814L19.408,15.604c-0.078,0.204-0.199,0.389-0.358,0.532
			c0.093,0.185,0.149,0.388,0.149,0.608c0,0.401-0.176,0.756-0.452,1.006c0.092,0.184,0.15,0.388,0.15,0.608
			c0,0.4-0.177,0.757-0.453,1.007c0.093,0.183,0.15,0.389,0.15,0.607c0,0.752-0.612,1.363-1.362,1.363
			c-0.75,0-1.362-0.61-1.362-1.363c0-0.4,0.176-0.758,0.452-1.008c-0.092-0.183-0.15-0.387-0.15-0.607
			c0-0.401,0.176-0.757,0.452-1.006c-0.092-0.184-0.15-0.389-0.15-0.608c0-0.062,0.012-0.12,0.021-0.182l-2.935,2.848
			c0,0,0.06-0.354,0.132-0.792c0.074-0.437-0.329-0.732-0.9-0.661l-2.372,0.297c-0.571,0.071-1.147,0.582-1.287,1.139L7.71,25.089
			l-5.648,5.484c-0.412,0.4-0.281,0.725,0.293,0.725h2.389l-2.23,12.094c-0.104,0.565,0.276,0.985,0.85,0.937L22.806,42.699z
			 M14.656,23.012c0.323-0.993,1.334-1.556,2.257-1.255c0.924,0.3,1.412,1.348,1.089,2.342c-0.322,0.995-1.333,1.556-2.257,1.256
			C14.823,25.053,14.335,24.006,14.656,23.012z"/>
		<path d="M52.555,43.988l-2.687,1.136l-0.927-1.463l-3.019,1.482l-0.208-0.371l3.399-1.657l0.908,1.477l2.709-1.132
			c0.53-0.221,0.721-0.8,0.424-1.293l-0.27-0.447c-0.297-0.493-0.817-0.778-1.161-0.638L51.1,41.336l-0.719-1.039
			c0,0,0.317-0.127,0.709-0.285c0.393-0.155,0.448-0.669,0.124-1.145c-0.323-0.475-0.924-0.746-1.343-0.604l-0.757,0.255
			l-0.851-1.173c0,0,0.376-0.149,0.841-0.332c0.466-0.182,0.589-0.721,0.276-1.203l-0.191-0.295
			c-0.313-0.482-1.004-0.711-1.542-0.51l-1.796,0.671c-0.539,0.2-0.805,0.686-0.597,1.083l0.378,0.719l-3.272,1.249L27.202,11.399
			l1.76-1.67c0.836-0.792,1.344-2.1,1.137-2.923l-0.374-1.489l-3.801,3.776l-0.227-0.411l3.744-3.745L26.586,0.93
			c-0.388-0.543-1.245-0.959-1.912-0.929l-5.621,0.255c-0.669,0.03-1.607,0.423-2.1,0.875l-3.801,3.505
			c-0.492,0.454-0.619,1.291-0.285,1.869l2.421,4.184l2.459-0.106c-0.023-0.097-0.037-0.196-0.037-0.298
			c0-0.751,0.611-1.363,1.361-1.363c0.751,0,1.362,0.611,1.362,1.363c0,0.064-0.012,0.123-0.021,0.184l1.392-0.06l0.233,0.419
			l-1.763,0.074c-0.075,0.146-0.173,0.279-0.295,0.389c0.093,0.184,0.15,0.388,0.15,0.608c0,0.4-0.176,0.758-0.452,1.006
			c0.092,0.185,0.149,0.389,0.149,0.607c0,0.235-0.066,0.452-0.173,0.645l0.173,0.05l3.549-0.967l22.749,41.001
			c0.387,0.698,1.107,1.092,1.853,1.092c0.348,0,0.703-0.085,1.027-0.266c1.022-0.567,1.392-1.857,0.824-2.881l-2.342-4.222
			l2.456-1.132c0,0,0.091,0.167,0.203,0.376c0.111,0.21,0.643,0.224,1.186,0.033l1.196-0.419c0.544-0.19,0.983-0.81,0.983-1.387
			c0,0,0-0.415,0-0.93C53.515,43.999,53.085,43.764,52.555,43.988z M22.849,6.999c-0.141,0.042-0.281,0.099-0.417,0.174
			c-0.021,0.012-0.037,0.028-0.058,0.041c-0.354,0.147-0.727,0.279-1.122,0.386c-2.641,0.725-5.086,0.205-5.46-1.16
			c-0.376-1.364,1.462-3.058,4.104-3.784c2.64-0.724,5.088-0.205,5.461,1.159C25.652,4.884,24.589,6.15,22.849,6.999z"/>
		<path d="M12.616,6.825c-0.331-0.581-0.403-0.546-0.159,0.077l1.506,3.853c0.419,1.071,1.295,2.099,1.957,2.295l1.197,0.354
			c0.03-0.354,0.191-0.672,0.441-0.896c-0.093-0.185-0.149-0.388-0.149-0.608c0-0.345,0.135-0.652,0.347-0.891l-2.687,0.112
			L12.616,6.825z"/>
		<circle cx="17.186" cy="20.022" r="0.757"/>
		<circle cx="17.489" cy="18.41" r="0.756"/>
		<circle cx="17.792" cy="16.795" r="0.757"/>
		<circle cx="18.094" cy="15.18" r="0.757"/>
		<circle cx="18.396" cy="13.566" r="0.756"/>
		<circle cx="18.699" cy="11.95" r="0.757"/>
		<circle cx="19.001" cy="10.337" r="0.758"/>
		<path d="M3.769,32.757l0.145-0.732H2.186c0,0,0.322,0.327,0.719,0.732C3.303,33.163,3.689,33.163,3.769,32.757z"/>
	</g>
</g>
<g>
</g>
<g>
</g>
<g>
</g>
<g>
</g>
<g>
</g>
<g>
</g>
<g>
</g>
<g>
</g>
<g>
</g>
<g>
</g>
<g>
</g>
<g>
</g>
<g>
</g>
<g>
</g>
<g>
</g>
</svg>
