<?xml version="1.0" encoding="iso-8859-1"?>
<!-- Generator: Adobe Illustrator 16.0.0, SVG Export Plug-In . SVG Version: 6.00 Build 0)  -->
<!DOCTYPE svg PUBLIC "-//W3C//DTD SVG 1.1//EN" "http://www.w3.org/Graphics/SVG/1.1/DTD/svg11.dtd">
<svg version="1.1" id="Capa_1" xmlns="http://www.w3.org/2000/svg" xmlns:xlink="http://www.w3.org/1999/xlink" x="0px" y="0px"
	 width="55.049px" height="55.049px" viewBox="0 0 55.049 55.049" style="enable-background:new 0 0 55.049 55.049;"
	 xml:space="preserve">
<g>
	<g>
		<polygon points="25.105,0 23.46,2.346 23.46,1.321 19.314,2.479 16.519,1.626 16.519,12.251 5.672,27.728 8.357,27.728 27.364,0 
					"/>
		<polygon points="10.571,28.594 10.571,53.953 14.129,54.684 14.129,28.169 11.222,28.515 		"/>
		<path d="M40.65,39.028c-0.602,0-1.207-0.073-1.8-0.222c-1.309-0.325-2.432-1.213-3.159-2.494c-0.816-1.44-1.057-3.221-0.688-4.98
			l-4.713-1.551v8.681l-3.659,0.978V29.356c-0.752-0.63-1.22-1.718-1.155-2.933c0.101-1.85,1.396-3.284,2.896-3.203
			c0.828,0.042,1.542,0.542,2.002,1.291l6.891,2.004c0.521-0.763,1.681-2.201,3.455-3.077v-1.443l5.61-0.978L28.278,0.406
			L9.251,27.97L14.8,27.37v27.68l25.92-6.83v-9.193C40.697,39.026,40.674,39.028,40.65,39.028L40.65,39.028z"/>
		<path d="M44.59,23.568c-4.513-0.449-6.911,3.91-6.911,3.91l-9.473-2.751c0,0-0.78,0.178-1.024,1.359
			c-0.229,1.104,0.25,2.062,0.25,2.062l8.539,2.811c-1.018,3.343,0.529,6.596,3.146,7.246c2.886,0.719,6.289-0.406,8.972-4.757
			C50.771,29.099,49.104,24.016,44.59,23.568z M44.596,31.738c-1.094,1.96-2.919,3.024-4.077,2.381
			c-1.156-0.647-1.206-2.759-0.111-4.718c1.095-1.962,2.919-3.025,4.076-2.379S45.689,29.779,44.596,31.738z"/>
		<polygon points="23.294,0.938 19.996,0.406 16.813,1.289 19.334,2.038 		"/>
	</g>
</g>
<g>
</g>
<g>
</g>
<g>
</g>
<g>
</g>
<g>
</g>
<g>
</g>
<g>
</g>
<g>
</g>
<g>
</g>
<g>
</g>
<g>
</g>
<g>
</g>
<g>
</g>
<g>
</g>
<g>
</g>
</svg>
