<?xml version="1.0" encoding="iso-8859-1"?>
<!-- Generator: Adobe Illustrator 18.1.1, SVG Export Plug-In . SVG Version: 6.00 Build 0)  -->
<svg version="1.1" id="Capa_1" xmlns="http://www.w3.org/2000/svg" xmlns:xlink="http://www.w3.org/1999/xlink" x="0px" y="0px"
	 viewBox="0 0 46 46" style="enable-background:new 0 0 46 46;" xml:space="preserve">
<g>
	<g>
		<path style="fill:#010002;" d="M36.404,39c-0.118,1.27-5.995,1.279-13.242,1.279S10.039,40.269,9.921,39H0.918
			C0.603,39,0.295,38.943,0,38.856v2.038C0,42.057,0.943,43,2.106,43h41.789C45.057,43,46,42.057,46,40.895v-1.918
			C45.919,38.983,45.845,39,45.758,39H36.404z"/>
		<path style="fill:#010002;" d="M43.893,9H2.106C0.943,9,0,9.943,0,11.106v3.817C0.292,14.961,0.608,15,0.918,15h44.84
			c0.089,0,0.161-0.011,0.242-0.016v-3.878C46,9.943,45.057,9,43.893,9z M4.58,13.365c-0.787,0-1.424-0.638-1.424-1.424
			s0.637-1.424,1.424-1.424c0.786,0,1.424,0.637,1.424,1.424S5.366,13.365,4.58,13.365z M17.218,13.365
			c-0.786,0-1.424-0.638-1.424-1.424s0.638-1.424,1.424-1.424c0.787,0,1.424,0.637,1.424,1.424S18.004,13.365,17.218,13.365z
			 M25.645,13.365c-0.787,0-1.424-0.638-1.424-1.424s0.637-1.424,1.424-1.424c0.786,0,1.424,0.637,1.424,1.424
			S26.431,13.365,25.645,13.365z M34.068,13.365c-0.785,0-1.424-0.638-1.424-1.424s0.639-1.424,1.424-1.424
			c0.787,0,1.425,0.637,1.425,1.424S34.855,13.365,34.068,13.365z M42.495,13.365c-0.786,0-1.425-0.638-1.425-1.424
			s0.639-1.424,1.425-1.424s1.424,0.637,1.424,1.424S43.281,13.365,42.495,13.365z"/>
		<path style="fill:#010002;" d="M0.918,16C0.594,16,0.289,15.966,0,15.93v21.867C0.275,37.918,0.586,38,0.918,38h11.076
			c2.354-0.349,6.47-0.354,11.169-0.354c4.698,0,8.814,0.005,11.168,0.354h11.427c0.091,0,0.164-0.017,0.242-0.027V15.984
			C45.917,15.989,45.848,16,45.758,16H0.918z M41,32.895C41,34.057,40.057,35,38.895,35H7.106C5.943,35,5,34.057,5,32.895v-11.79
			C5,19.943,5.943,19,7.106,19h31.787C40.057,19,41,19.943,41,21.105V32.895z"/>
		<path style="fill:#010002;" d="M44.314,3H2.186C1.023,3,0,3.922,0,5.085v2.106C0,8.355,1.023,8,2.186,8h42.128
			C45.477,8,46,8.355,46,7.191V5.085C46,3.922,45.477,3,44.314,3z"/>
	</g>
</g>
<g>
</g>
<g>
</g>
<g>
</g>
<g>
</g>
<g>
</g>
<g>
</g>
<g>
</g>
<g>
</g>
<g>
</g>
<g>
</g>
<g>
</g>
<g>
</g>
<g>
</g>
<g>
</g>
<g>
</g>
</svg>
