<?xml version="1.0" encoding="iso-8859-1"?>
<!-- Generator: Adobe Illustrator 18.1.1, SVG Export Plug-In . SVG Version: 6.00 Build 0)  -->
<svg version="1.1" id="Capa_1" xmlns="http://www.w3.org/2000/svg" xmlns:xlink="http://www.w3.org/1999/xlink" x="0px" y="0px"
	 viewBox="0 0 56.75 56.75" style="enable-background:new 0 0 56.75 56.75;" xml:space="preserve">
<g>
	<g>
		<path style="fill:#010002;" d="M40.783,52.75h-26.4c-0.128,0-0.251-0.021-0.369-0.057l-0.461,3.736
			c-0.017,0.139,0.083,0.303,0.137,0.321h4.879v-2.286c0-0.394,0.32-0.714,0.715-0.714h16.57c0.395,0,0.715,0.32,0.715,0.715v2.285
			h4.988c0.052-0.017,0.148-0.171,0.131-0.302l-0.456-3.785C41.09,52.715,40.942,52.75,40.783,52.75z"/>
		<path style="fill:#010002;" d="M27.819,0c-3.803,0-9.804,0.783-11.108,1.75h21.925C37.465,0.959,32.993,0,27.819,0z"/>
		<path style="fill:#010002;" d="M40.566,17.362c-0.03,3.093-0.062,5.619-2.586,6.598l-0.301,4.115
			c3.798-0.709,5.52-4.127,5.52-10.837c0-5.717-1.252-9.041-3.969-10.341l-0.304,4.153C40.614,12.371,40.59,14.815,40.566,17.362z"
			/>
		<path style="fill:#010002;" d="M14.383,51.75h0.014h26.386c0.352,0,0.786-0.689,0.786-1.25v-5.939
			c-0.166-0.812-4.54-8.062-5.492-8.811H19.089c-0.956,0.746-5.352,8-5.523,8.854l0.003,5.896
			C13.569,51.049,14.026,51.75,14.383,51.75z M27.381,39.126c1.221,0,2.295,0.584,2.994,1.477l-1.356,0.668
			c-0.496,0.244-0.699,0.844-0.456,1.339c0.174,0.354,0.529,0.559,0.898,0.559c0.148,0,0.299-0.033,0.44-0.103l1.243-0.612
			c0.021,0.16,0.049,0.318,0.049,0.484c0,2.105-1.706,3.812-3.812,3.812c-2.105,0-3.812-1.707-3.812-3.812
			S25.276,39.126,27.381,39.126z"/>
		<polygon style="fill:#010002;" points="36.182,34.75 36.187,34.75 38.531,2.75 16.61,2.75 19.114,34.75 		"/>
	</g>
</g>
<g>
</g>
<g>
</g>
<g>
</g>
<g>
</g>
<g>
</g>
<g>
</g>
<g>
</g>
<g>
</g>
<g>
</g>
<g>
</g>
<g>
</g>
<g>
</g>
<g>
</g>
<g>
</g>
<g>
</g>
</svg>
