<?xml version="1.0" encoding="iso-8859-1"?>
<!-- Generator: Adobe Illustrator 18.1.1, SVG Export Plug-In . SVG Version: 6.00 Build 0)  -->
<svg version="1.1" id="Capa_1" xmlns="http://www.w3.org/2000/svg" xmlns:xlink="http://www.w3.org/1999/xlink" x="0px" y="0px"
	 viewBox="0 0 60.917 60.917" style="enable-background:new 0 0 60.917 60.917;" xml:space="preserve">
<g>
	<g>
		<path style="fill:#010002;" d="M38.458,4.917h-0.024C38.18,2.135,34.772,0,30.458,0s-7.72,2.135-7.975,4.917h-0.025v39h0.037
			c-0.022,0.164-0.037,0.331-0.037,0.5c0,1.936,1.524,3.59,3.839,4.5h-2.839v9h14v-9h-2.839c2.316-0.91,3.839-2.564,3.839-4.5
			c0-0.169-0.015-0.336-0.037-0.5h0.037V4.917z M30.458,2c3.196,0,6,1.519,6,3.25s-2.804,3.25-6,3.25s-6-1.519-6-3.25
			S27.263,2,30.458,2z M35.125,52.042c0,1.999-2.094,3.625-4.667,3.625s-4.667-1.626-4.667-3.625c0-1.105,0.653-2.084,1.66-2.749
			c0.002,0,0.005,0.001,0.007,0.001v1.247c-0.417,0.426-0.667,0.942-0.667,1.501c0,1.447,1.645,2.625,3.667,2.625
			s3.667-1.178,3.667-2.625c0-0.559-0.249-1.075-0.667-1.501v-1.247c0.002,0,0.005-0.001,0.007-0.001
			C34.472,49.958,35.125,50.937,35.125,52.042z M36.458,44.917h-0.086c-0.474,1.513-3.03,2.75-5.914,2.75
			c-2.883,0-5.44-1.237-5.914-2.75h-0.086v-1v-2v-1v-8v-1.133c0.69,1.105,1.526,2.115,2.542,2.965
			c0.983,0.82,2.406-0.586,1.415-1.414c-1.825-1.525-3.004-3.568-3.743-5.809c-0.05-0.152-0.124-0.276-0.214-0.375V14.476
			c2.181,3.484,1.446,8.465,3.262,12.196c0.564,1.159,2.289,0.145,1.726-1.01c-2.218-4.555-0.776-10.164-4.656-13.952
			c-0.105-0.103-0.218-0.168-0.332-0.214V8.749c1.455,1.078,3.583,1.751,6,1.751s4.545-0.673,6-1.751v5.177
			c-0.002,0.001-0.003,0.002-0.005,0.003c-9.243,6.451,1.241,20.941-9.375,25.75c-1.173,0.532-0.156,2.256,1.009,1.728
			c11.115-5.038,1.443-18.384,8.371-24.923v16.433v8v1v2V44.917z"/>
		<rect x="23.458" y="58.917" style="fill:#010002;" width="14" height="2"/>
	</g>
</g>
<g>
</g>
<g>
</g>
<g>
</g>
<g>
</g>
<g>
</g>
<g>
</g>
<g>
</g>
<g>
</g>
<g>
</g>
<g>
</g>
<g>
</g>
<g>
</g>
<g>
</g>
<g>
</g>
<g>
</g>
</svg>
