<?xml version="1.0" encoding="iso-8859-1"?>
<!-- Generator: Adobe Illustrator 16.0.0, SVG Export Plug-In . SVG Version: 6.00 Build 0)  -->
<!DOCTYPE svg PUBLIC "-//W3C//DTD SVG 1.1//EN" "http://www.w3.org/Graphics/SVG/1.1/DTD/svg11.dtd">
<svg version="1.1" id="Capa_1" xmlns="http://www.w3.org/2000/svg" xmlns:xlink="http://www.w3.org/1999/xlink" x="0px" y="0px"
	 width="57.457px" height="57.456px" viewBox="0 0 57.457 57.456" style="enable-background:new 0 0 57.457 57.456;"
	 xml:space="preserve">
<g>
	<g>
		<path d="M48.496,13.279c-2.699,3.859-10.689,6.665-20.106,6.665c-9.596,0-17.195-2.804-19.429-6.823l2.306,36.059h0.011
			c-0.001,0.037-0.01,0.072-0.01,0.108c0,4.394,6.097,8.168,17.121,8.168c11.023,0,17.81-3.774,17.81-8.168
			c0-0.036-0.01-0.071-0.012-0.108h0.012L48.496,13.279z M42.435,41.653c-1.621,0.646-3.308,1.137-5.02,1.501l0.243-4.807
			c1.694-0.291,3.372-0.685,5.003-1.19L42.435,41.653z M42.878,32.864c-1.604,0.59-3.289,1.037-5.013,1.371l0.227-4.472
			c1.63-0.42,3.308-0.952,5.025-1.615L42.878,32.864z M31.771,34.982c-2.046,0.119-4.067,0.119-6,0.047v-3.943
			c0.542,0.021,1.079,0.049,1.643,0.049c1.391,0,2.846-0.07,4.356-0.227V34.982z M19.576,34.547c-1.964-0.23-3.668-0.498-4.98-0.732
			l-0.234-4.631c1.406,0.404,3.083,0.83,5.003,1.187L19.576,34.547z M15.046,42.758l-0.244-4.834
			c1.39,0.237,3.077,0.486,4.979,0.695l0.25,4.943C18.012,43.311,16.3,43.01,15.046,42.758z M25.771,39.055
			c0.803,0.027,1.616,0.047,2.447,0.047c1.165,0,2.355-0.041,3.553-0.108v4.946c-2.06,0.15-4.083,0.166-6,0.095V39.055z
			 M43.511,20.358l-0.171,3.373c-1.722,0.744-3.401,1.345-5.034,1.817l0.174-3.449L43.511,20.358z M31.771,23.179v3.681
			c-2.124,0.241-4.132,0.295-6,0.217v-3.898H31.771z M18.946,22.099l0.21,4.153c-2-0.412-3.687-0.899-5.009-1.302l-0.232-4.592
			L18.946,22.099z M15.479,51.318l-0.224-4.432c1.36,0.256,3.049,0.531,4.982,0.758l0.274,5.414L15.479,51.318z M25.771,53.18
			v-5.117c0.701,0.023,1.411,0.041,2.138,0.041c1.258,0,2.553-0.049,3.861-0.141v5.217H25.771z M41.947,51.318l-5.03,1.74
			l0.292-5.775c1.688-0.316,3.363-0.75,5.008-1.303L41.947,51.318z"/>
		<path d="M25.064,4.056c0.341,0.136,0.667,0.298,0.968,0.477c-0.033-0.355,0-0.709,0.1-1.055c0.159-0.545,0.49-1.067,0.978-1.567
			c-1.001,0.032-1.984,0.099-2.942,0.202C24.569,2.746,24.861,3.435,25.064,4.056z"/>
		<path d="M38.982,5.224c1.781-0.418,3.242-0.546,4.403-0.405c-1.383-0.665-2.997-1.239-4.786-1.701
			C38.816,3.85,38.935,4.582,38.982,5.224z"/>
		<path d="M28.389,18.943c10.886,0,20.085-3.907,20.085-8.531c0-1.369-0.822-2.671-2.24-3.831c0.822,1.711-0.159,3.939-0.205,4.04
			c-0.1,0.248-2.813,6.549-17.041,6.549h-0.117c-14.303-0.036-17.509-6.272-17.638-6.538c-0.765-1.476-0.477-2.527-0.1-3.146
			c0.231-0.381,0.651-0.799,0.977-0.937l-0.002-0.005c0.679-0.296,1.334-0.491,1.964-0.607c0.128-0.42,0.311-0.851,0.54-1.286
			c-3.283,1.581-5.34,3.699-5.34,5.995C9.271,15.298,17.668,18.943,28.389,18.943z"/>
		<path d="M15.167,5.817c0.026,0,0.053-0.005,0.079-0.005c1.735,0,2.934,0.768,3.722,1.596c0.107-1.745,1.101-3.02,2.854-3.586
			c0.663-0.213,1.366-0.222,2.051-0.103c-0.525-1.278-1.432-2.607-2.93-2.607c-0.722,0-1.548,0.298-2.458,0.887
			C16.628,3.201,15.653,4.558,15.167,5.817z"/>
		<path d="M27.093,3.758c-0.169,0.58-0.046,1.188,0.364,1.81c0.801,0.688,1.298,1.301,1.32,1.327l2.044,2.531l-2.71-1.8
			c-0.033-0.022-0.809-0.543-1.403-1.382c-0.893-0.749-2.228-1.619-3.615-1.619c-0.331,0-0.656,0.05-0.965,0.15
			c-2.566,0.828-2.323,3.167-1.949,4.488c0.206,0.462,0.231,0.664,0.096,0.871l-0.148,0.226h-0.271
			c-0.373,0-0.484-0.336-0.538-0.497c-0.033-0.099-0.067-0.209-0.101-0.328c-0.262-0.59-1.391-2.723-3.971-2.723
			c-0.825,0-1.739,0.214-2.717,0.638c-0.197,0.115-1.357,0.89-0.403,2.732c0.034,0.068,3.138,5.954,16.748,5.987h0.115
			c13.477,0,16.098-5.888,16.124-5.948c0.018-0.038,0.955-2.138,0.134-3.414c-0.783-1.216-3.089-1.383-6.613-0.467l-0.625,0.163
			l-0.001-0.646C38.007,5.618,37.949,0,33.834,0c-0.853,0-1.837,0.236-2.929,0.702C28.723,1.635,27.404,2.691,27.093,3.758z"/>
	</g>
</g>
<g>
</g>
<g>
</g>
<g>
</g>
<g>
</g>
<g>
</g>
<g>
</g>
<g>
</g>
<g>
</g>
<g>
</g>
<g>
</g>
<g>
</g>
<g>
</g>
<g>
</g>
<g>
</g>
<g>
</g>
</svg>
