<?xml version="1.0" encoding="iso-8859-1"?>
<!-- Generator: Adobe Illustrator 18.1.1, SVG Export Plug-In . SVG Version: 6.00 Build 0)  -->
<svg version="1.1" id="Capa_1" xmlns="http://www.w3.org/2000/svg" xmlns:xlink="http://www.w3.org/1999/xlink" x="0px" y="0px"
	 viewBox="0 0 491.592 491.592" style="enable-background:new 0 0 491.592 491.592;" xml:space="preserve">
<g>
	<g>
		<path style="fill:#010002;" d="M113.8,205.328v160.133c0,22.256,25.483,40.968,49.966,40.968h171.667
			c23.427,0,38.481-17.932,38.481-40.968V209.473l-132.13-132.13L113.8,205.328z M284.354,206.084
			c30.954,0,56.055,25.093,56.055,56.055c0,1.821-0.098,3.633-0.276,5.43c-0.309,3.203-0.935,6.308-1.756,9.332
			c-0.138,0.512-0.244,1.032-0.398,1.544c-0.122,0.398-0.26,0.78-0.39,1.171c-15.607,49.983-91.804,89.065-91.804,89.065
			s-76.197-39.09-91.804-89.065c-0.13-0.39-0.268-0.772-0.39-1.171c-0.146-0.512-0.26-1.024-0.398-1.544
			c-0.821-3.024-1.447-6.129-1.756-9.332c-0.179-1.796-0.276-3.609-0.276-5.43c0-30.954,25.093-56.055,56.055-56.055
			c14.957,0,28.507,5.893,38.562,15.444C255.847,211.977,269.397,206.084,284.354,206.084z"/>
		<path style="fill:#010002;" d="M394.049,0H97.543C43.675,0,0,43.675,0,97.543v296.506c0,53.868,43.675,97.543,97.543,97.543
			h296.506c53.868,0,97.543-43.675,97.543-97.543V97.543C491.592,43.675,447.917,0,394.049,0z M472.433,269.999
			c-4.755,4.763-11.502,7.145-17.745,7.145c-6.243,0-13.485-2.382-18.241-7.145l-13.762-11.762v107.216
			c0,49.934-36.928,89.739-87.252,89.739H163.766c-51.348,0-98.738-40.659-98.738-89.739V254.091l-13.892,15.9
			c-1.187,1.187-1.691,2.089-3.04,2.983c-4.056,2.682-7.519,4.162-12.201,4.162s-9.364-1.341-13.42-4.016
			c-1.349-0.894-2.642-1.935-3.829-3.129c-9.527-9.519-9.535-24.963-0.008-34.481L211.278,42.862c1.195-1.195,2.52-2.089,3.804-3.13
			c19.135-15.591,47.251-14.688,65.069,3.13l192.533,192.663C482.211,245.036,481.959,260.48,472.433,269.999z"/>
	</g>
</g>
<g>
</g>
<g>
</g>
<g>
</g>
<g>
</g>
<g>
</g>
<g>
</g>
<g>
</g>
<g>
</g>
<g>
</g>
<g>
</g>
<g>
</g>
<g>
</g>
<g>
</g>
<g>
</g>
<g>
</g>
</svg>
