<?xml version="1.0" encoding="iso-8859-1"?>
<!-- Generator: Adobe Illustrator 18.1.1, SVG Export Plug-In . SVG Version: 6.00 Build 0)  -->
<svg version="1.1" id="Capa_1" xmlns="http://www.w3.org/2000/svg" xmlns:xlink="http://www.w3.org/1999/xlink" x="0px" y="0px"
	 viewBox="0 0 57.917 57.917" style="enable-background:new 0 0 57.917 57.917;" xml:space="preserve">
<g>
	<g>
		<path style="fill:#010002;" d="M17.448,9.747c0.33-0.048,0.662-0.084,1.002-0.084c0.654,0,1.285,0.111,1.896,0.284
			c2.24-0.513,3.916-2.509,3.916-4.905C24.262,2.257,22.005,0,19.22,0s-5.042,2.257-5.042,5.042
			C14.178,7.201,15.541,9.028,17.448,9.747z"/>
		<path style="fill:#010002;" d="M10.882,15.472c0.007-0.015,0.015-0.028,0.022-0.043c-0.042-0.042-0.088-0.075-0.123-0.132
			c-0.624-1.019-0.904-2.188-0.79-3.379h-0.23c-1.288-0.001-2.333,1.044-2.333,2.332v1.001v0.333v16
			c0,1.288,1.045,2.333,2.334,2.333h0.333c1.288,0,2.333-1.045,2.333-2.333v-5.436c-0.528-0.372-1.017-0.792-1.452-1.265
			C9.346,23.112,9.305,19.066,10.882,15.472z"/>
		<path style="fill:#010002;" d="M13.253,11.917h-1.762c-0.066,0.687,0.015,1.327,0.251,1.938
			C12.196,13.121,12.699,12.468,13.253,11.917z"/>
		<path style="fill:#010002;" d="M26.017,15.47c0.969,2.208,1.322,4.583,1.076,6.5l2.632,9.964c0.137,0.52,0.444,0.943,0.839,1.246
			c1.216,0.305,2.563,0.389,3.23-0.668c0.72-1.141,0.485-2.591,0.215-3.838c-0.009-0.038-0.001-0.07-0.002-0.104l-3.616-13.692
			c-0.04-0.357-0.127-0.697-0.271-1.01c-0.221-0.789-0.823-1.367-1.554-1.595c-0.145-0.071-0.295-0.129-0.45-0.18
			c-0.323-0.105-0.663-0.176-1.022-0.176h-2.666h-0.781C24.58,12.845,25.387,14.034,26.017,15.47z"/>
		<path style="fill:#010002;" d="M24.488,29.158c0.274,0.444,0.528,0.895,0.767,1.349l0.169-5.143
			c-0.246,0.227-0.506,0.439-0.78,0.64c0.022,0.054,0.044,0.107,0.059,0.168c0.131,0.575-0.147,1.551-0.74,2.41
			C24.157,28.728,24.337,28.913,24.488,29.158z"/>
		<path style="fill:#010002;" d="M20.736,30.295c-0.618-0.071-1.167-0.362-1.562-0.864c-0.337-0.43-0.524-0.958-0.532-1.459
			c-0.082,0.002-0.163,0.012-0.245,0.012c-1.786,0-3.495-0.431-4.97-1.219v7.152v21.667c0.001,1.288,1.046,2.333,2.335,2.333h0.333
			c1.288,0,2.333-1.045,2.333-2.333V33.917h1v21.667c0,1.288,1.045,2.333,2.334,2.333h0.333c1.288,0,2.333-1.045,2.333-2.333
			l0.353-10.7c-0.409-4.786-1.15-9.496-3.747-13.707C20.848,30.875,20.759,30.579,20.736,30.295z"/>
		<path style="fill:#010002;" d="M11.712,24.205c1.625,1.766,4.062,2.778,6.686,2.778c1.299,0,2.568-0.252,3.716-0.711
			c0.345-0.149,0.679-0.32,0.972-0.516c0.163-0.109,0.321-0.178,0.472-0.223c0.607-0.38,1.162-0.82,1.63-1.328
			c1.355-1.473,1.317-5.133-0.087-8.333c-0.687-1.566-2.71-5.209-6.651-5.209s-5.965,3.644-6.652,5.21
			C10.394,19.073,10.356,22.733,11.712,24.205z M20.428,14.917c0-0.552,0.448-1,1-1s1,0.448,1,1v3c0,0.552-0.448,1-1,1s-1-0.448-1-1
			V14.917z M17.428,14.917c0-0.552,0.448-1,1-1s1,0.448,1,1v3c0,0.552-0.448,1-1,1s-1-0.448-1-1V14.917z M18.63,21.347
			c0.875,0,1.585,0.771,1.585,1.722s-0.71,1.722-1.585,1.722s-1.585-0.771-1.585-1.722S17.755,21.347,18.63,21.347z M14.428,14.917
			c0-0.552,0.448-1,1-1s1,0.448,1,1v3c0,0.552-0.448,1-1,1s-1-0.448-1-1V14.917z"/>
		<path style="fill:#010002;" d="M19.961,28.813c0.175,0.224,0.492,0.481,0.988,0.504c0.065-0.116,0.14-0.227,0.228-0.328
			c0.737,0.109,1.262-0.364,1.565-0.77c0.084-0.004,0.167,0,0.25,0.005c0.5-0.629,0.742-1.356,0.75-1.699
			c-0.028,0.016-0.062,0.036-0.1,0.062c-1.302,0.87-3.184,1.297-3.996,1.449C19.669,28.298,19.781,28.584,19.961,28.813z"/>
		<path style="fill:#010002;" d="M49.494,52.917h-5.708l-6.161-23.418c0.777-1.4-1.131-3.144-2.342-1.809
			c-0.151,0.167-0.272,0.341-0.413,0.51c0.046,0.055,0.083,0.121,0.103,0.209c0.33,1.517,0.655,3.629-0.531,4.887
			c-0.709,0.752-1.578,1.009-2.488,1.021c-0.006,0.03-0.016,0.06-0.021,0.091c-0.31,1.518-0.429,3.116-0.439,4.81
			c-0.021,3.396,0.603,6.951-0.244,10.058c-0.924-2.694-2.143-7.639-2.33-8.392c-0.382-1.533-0.888-3.066-1.475-4.578
			c-0.916-2.356-2.035-4.658-3.22-6.811c-0.329-0.598-0.864-0.791-1.378-0.723c-0.086,0.192-0.249,0.448-0.583,0.621
			c-0.302,0.158-0.489,0.205-0.644,0.201c-0.225,0.397-0.271,0.897,0.015,1.415c3.021,5.486,4.284,11.14,6.014,17.054
			c0.273,0.936,0.698,2.793,1.433,4.193c0.66,1.26,1.57,2.15,2.855,1.655c0.675-0.259,1.851-1.763,2.101-2.446
			c1.06-2.879,0.646-5.204,0.574-8.361c-0.095-4.023-0.484-8.054,1.501-11.504l5.606,21.317h-0.068
			c-0.549,0-1.508,0.693-1.508,1.447l-0.715,0.187c0,0.755,0.445,1.366,0.995,1.366h2.245c0.184,0.178,0.424,0.291,0.687,0.291
			c0.085,0,0.17-0.011,0.256-0.033c0.172-0.045,0.31-0.143,0.429-0.258h4.228c0.55,0,1.302-0.441,1.302-1.195l0.92-0.627
			C50.489,53.341,50.044,52.917,49.494,52.917z M37.177,31.948c-0.207,0.371-0.255,0.003-0.554-0.825l0.539-0.865
			C37.463,31.086,37.338,31.66,37.177,31.948z"/>
	</g>
</g>
<g>
</g>
<g>
</g>
<g>
</g>
<g>
</g>
<g>
</g>
<g>
</g>
<g>
</g>
<g>
</g>
<g>
</g>
<g>
</g>
<g>
</g>
<g>
</g>
<g>
</g>
<g>
</g>
<g>
</g>
</svg>
