<?xml version="1.0" encoding="iso-8859-1"?>
<!-- Generator: Adobe Illustrator 18.1.1, SVG Export Plug-In . SVG Version: 6.00 Build 0)  -->
<svg version="1.1" id="Capa_1" xmlns="http://www.w3.org/2000/svg" xmlns:xlink="http://www.w3.org/1999/xlink" x="0px" y="0px"
	 viewBox="0 0 424.864 424.864" style="enable-background:new 0 0 424.864 424.864;" xml:space="preserve">
<g>
	<g>
		<path style="fill:#010002;" d="M19.923,419.711h72.669h21.703h54.713h22.923h210.034V151.468h22.898l-10.9-109.459
			c-0.374-20.817-19.159-36.855-42.09-36.855H52.99c-22.931,0-41.716,16.038-42.09,36.855L0,151.468h19.923V419.711z
			 M369.452,395.325h-28.109v-43.016c0-12.063-9.779-21.85-21.85-21.85c-12.071,0-21.85,9.779-21.85,21.85v43.016h-41.992v-65.029
			h-98.445l-0.26,65.029h-35.075v-43.016c0-12.063-9.779-21.85-21.85-21.85s-21.85,9.779-21.85,21.85v43.016H52.437V151.468h317.014
			V395.325z M41.464,38.741c0.024-3.658,4.763-9.202,11.526-9.202h318.884c6.771,0,11.51,5.365,11.526,9.023l9.104,80.392H32.36
			L41.464,38.741z"/>
		<path style="fill:#010002;" d="M127.212,223.268h-5.332v-24.044c0-12.063-9.779-21.85-21.85-21.85s-21.85,9.779-21.85,21.85
			v24.044h-5.332v9.145h54.364V223.268z"/>
		<path style="fill:#010002;" d="M200.369,223.268h-5.332v-24.044c0-12.063-9.779-21.85-21.85-21.85
			c-12.071,0-21.85,9.779-21.85,21.85v24.044h-5.332v9.145h54.364V223.268z"/>
		<path style="fill:#010002;" d="M273.527,223.268h-5.332v-24.044c0-12.063-9.779-21.85-21.85-21.85s-21.85,9.779-21.85,21.85
			v24.044h-5.332v9.145h54.364C273.527,232.412,273.527,223.268,273.527,223.268z"/>
		<path style="fill:#010002;" d="M346.684,223.268h-5.332v-24.044c0-12.063-9.779-21.85-21.85-21.85
			c-12.071,0-21.85,9.779-21.85,21.85v24.044h-5.332v9.145h54.364C346.684,232.412,346.684,223.268,346.684,223.268z"/>
		<path style="fill:#010002;" d="M127.212,296.425h-5.332V272.38c0-12.063-9.779-21.85-21.85-21.85s-21.85,9.779-21.85,21.85v24.044
			h-5.332v9.145h54.364V296.425z"/>
		<path style="fill:#010002;" d="M200.369,296.425h-5.332V272.38c0-12.063-9.779-21.85-21.85-21.85
			c-12.071,0-21.85,9.779-21.85,21.85v24.044h-5.332v9.145h54.364V296.425z"/>
		<path style="fill:#010002;" d="M273.527,296.425h-5.332V272.38c0-12.063-9.779-21.85-21.85-21.85s-21.85,9.779-21.85,21.85v24.044
			h-5.332v9.145h54.364C273.527,305.569,273.527,296.425,273.527,296.425z"/>
		<path style="fill:#010002;" d="M346.684,296.425h-5.332V272.38c0-12.063-9.779-21.85-21.85-21.85
			c-12.071,0-21.85,9.779-21.85,21.85v24.044h-5.332v9.145h54.364C346.684,305.569,346.684,296.425,346.684,296.425z"/>
	</g>
</g>
<g>
</g>
<g>
</g>
<g>
</g>
<g>
</g>
<g>
</g>
<g>
</g>
<g>
</g>
<g>
</g>
<g>
</g>
<g>
</g>
<g>
</g>
<g>
</g>
<g>
</g>
<g>
</g>
<g>
</g>
</svg>
