<?xml version="1.0" encoding="iso-8859-1"?>
<!-- Generator: Adobe Illustrator 18.1.1, SVG Export Plug-In . SVG Version: 6.00 Build 0)  -->
<svg version="1.1" id="Capa_1" xmlns="http://www.w3.org/2000/svg" xmlns:xlink="http://www.w3.org/1999/xlink" x="0px" y="0px"
	 viewBox="0 0 491.592 491.592" style="enable-background:new 0 0 491.592 491.592;" xml:space="preserve">
<g>
	<g>
		<path style="fill:#010002;" d="M394.049,0H97.543C43.675,0,0,43.675,0,97.543v296.506c0,53.868,43.675,97.543,97.543,97.543
			h296.506c53.868,0,97.543-43.675,97.543-97.543V97.543C491.592,43.675,447.917,0,394.049,0z M438.943,180.771v268.243H228.909
			h-22.923h-54.713h-21.703H56.9V180.771H36.977l10.9-109.459c0.374-20.817,19.159-36.855,42.09-36.855h318.884
			c22.931,0,41.716,16.038,42.09,36.855l10.892,109.459H438.943z"/>
		<path style="fill:#010002;" d="M89.414,424.629h25.743v-43.016c0-12.063,9.779-21.85,21.85-21.85s21.85,9.779,21.85,21.85v43.016
			h35.075l0.26-65.029h98.445v65.029h42v-43.016c0-12.063,9.779-21.85,21.85-21.85c12.071,0,21.85,9.779,21.85,21.85v43.016h28.109
			V180.771H89.431v243.857H89.414z M329.297,252.571h5.332v-24.044c0-12.063,9.779-21.85,21.85-21.85
			c12.071,0,21.85,9.779,21.85,21.85v24.044h5.332v9.145h-54.364C329.297,261.716,329.297,252.571,329.297,252.571z
			 M329.297,325.728h5.332v-24.044c0-12.063,9.779-21.85,21.85-21.85c12.071,0,21.85,9.779,21.85,21.85v24.044h5.332v9.145h-54.364
			C329.297,334.873,329.297,325.728,329.297,325.728z M256.14,252.571h5.332v-24.044c0-12.063,9.779-21.85,21.85-21.85
			c12.071,0,21.85,9.779,21.85,21.85v24.044h5.332v9.145h-54.364C256.139,261.716,256.139,252.571,256.14,252.571z M256.14,325.728
			h5.332v-24.044c0-12.063,9.779-21.85,21.85-21.85c12.071,0,21.85,9.779,21.85,21.85v24.044h5.332v9.145h-54.364
			C256.139,334.873,256.139,325.728,256.14,325.728z M182.982,252.571h5.332v-24.044c0-12.063,9.779-21.85,21.85-21.85
			s21.85,9.779,21.85,21.85v24.044h5.332v9.145h-54.364V252.571z M182.982,325.728h5.332v-24.044c0-12.063,9.779-21.85,21.85-21.85
			s21.85,9.779,21.85,21.85v24.044h5.332v9.145h-54.364V325.728z M109.825,252.571h5.332v-24.044c0-12.063,9.779-21.85,21.85-21.85
			s21.85,9.779,21.85,21.85v24.044h5.332v9.145h-54.364V252.571z M109.825,325.728h5.332v-24.044c0-12.063,9.779-21.85,21.85-21.85
			s21.85,9.779,21.85,21.85v24.044h5.332v9.145h-54.364V325.728z"/>
		<path style="fill:#010002;" d="M408.851,58.843H89.967c-6.771,0-11.51,5.544-11.526,9.202l-9.104,80.213h360.145l-9.104-80.392
			C420.353,64.208,415.614,58.843,408.851,58.843z"/>
	</g>
</g>
<g>
</g>
<g>
</g>
<g>
</g>
<g>
</g>
<g>
</g>
<g>
</g>
<g>
</g>
<g>
</g>
<g>
</g>
<g>
</g>
<g>
</g>
<g>
</g>
<g>
</g>
<g>
</g>
<g>
</g>
</svg>
