<?xml version="1.0" encoding="iso-8859-1"?>
<!-- Generator: Adobe Illustrator 16.0.0, SVG Export Plug-In . SVG Version: 6.00 Build 0)  -->
<!DOCTYPE svg PUBLIC "-//W3C//DTD SVG 1.1//EN" "http://www.w3.org/Graphics/SVG/1.1/DTD/svg11.dtd">
<svg version="1.1" id="Capa_1" xmlns="http://www.w3.org/2000/svg" xmlns:xlink="http://www.w3.org/1999/xlink" x="0px" y="0px"
	 width="182.105px" height="182.104px" viewBox="0 0 182.105 182.104" style="enable-background:new 0 0 182.105 182.104;"
	 xml:space="preserve">
<g>
	<g>
		<path d="M175.338,6.95H7.587L0.204,58.234c-0.719,4.998,0.522,9.048,2.775,9.048h4.076v93.247c0,8.076,6.55,14.626,14.626,14.626
			h138.647c8.08,0,14.63-6.55,14.63-14.626V67.282c0,0,1.824,0,4.076,0c2.248,0,3.549-4.057,2.905-9.065L175.338,6.95z
			 M50.277,163.575H23.463v-35.351h26.814V163.575z M50.277,117.561H23.463V82.211h26.814V117.561z M104.414,169.365H77.6v-30.166
			c0-5.048,4.093-9.141,9.142-9.141h8.535c5.048,0,9.141,4.093,9.141,9.141v30.166H104.414z M104.414,117.561H77.6V82.211h26.814
			V117.561z M81.865,57.835V39.554h18.282v18.281H81.865z M125.82,51.883c-1.763,1.81-4.658,1.843-6.461,0.084L91.523,24.85
			L62.602,52.024c-0.883,0.829-2.009,1.241-3.133,1.241c-1.217,0-2.434-0.482-3.333-1.439c-1.728-1.839-1.636-4.734,0.204-6.463
			L85.782,17.7c3.284-3.083,8.382-3.037,11.606,0.103l28.346,27.617C127.541,47.183,127.579,50.078,125.82,51.883z M158.984,163.575
			h-26.812v-35.351h26.812V163.575z M158.984,117.561h-26.812V82.211h26.812V117.561z"/>
	</g>
</g>
<g>
</g>
<g>
</g>
<g>
</g>
<g>
</g>
<g>
</g>
<g>
</g>
<g>
</g>
<g>
</g>
<g>
</g>
<g>
</g>
<g>
</g>
<g>
</g>
<g>
</g>
<g>
</g>
<g>
</g>
</svg>
