<?xml version="1.0" encoding="iso-8859-1"?>
<!-- Generator: Adobe Illustrator 16.0.0, SVG Export Plug-In . SVG Version: 6.00 Build 0)  -->
<!DOCTYPE svg PUBLIC "-//W3C//DTD SVG 1.1//EN" "http://www.w3.org/Graphics/SVG/1.1/DTD/svg11.dtd">
<svg version="1.1" id="Capa_1" xmlns="http://www.w3.org/2000/svg" xmlns:xlink="http://www.w3.org/1999/xlink" x="0px" y="0px"
	 width="61.795px" height="61.795px" viewBox="0 0 61.795 61.795" style="enable-background:new 0 0 61.795 61.795;"
	 xml:space="preserve">
<g>
	<g>
		<path d="M8.034,32.542l1.007,1.496l11.541-5.964l10.677,17.627l20.625-11.667c2.003-1.133,2.649-3.641,1.446-5.602L43.146,11.858
			l-1.818,0.967c-0.509,0.27-0.92,0.924-0.92,1.46c0,0.285,0,0.619,0,0.973c0,1.074-1.636,2.842-3.654,3.947l-7.104,3.891
			c-2.019,1.106-3.654,1.078-3.654-0.063c0,0,0-0.462,0-1.033c0-0.571-0.413-0.815-0.919-0.544l-2.022,1.074v-1.104
			c0-0.575-0.417-1.25-0.931-1.507l-2.386-1.194c-0.515-0.257-1.354-0.269-1.876-0.026l-4.202,1.954
			c-0.521,0.243-0.945,0.906-0.945,1.481v5.888c0,0-1.274,0.676-2.845,1.512C8.3,30.368,7.478,31.714,8.034,32.542z"/>
		<path d="M31.973,10.161c-0.934-0.253-1.324-0.454-1.351-0.792c-0.024-0.296,0.173-0.62,0.859-0.676
			c0.761-0.062,1.276,0.141,1.551,0.245l0.219-1.219c-0.383-0.139-0.871-0.259-1.57-0.224l-0.077-0.928L30.57,6.65l0.081,1.003
			c-1.112,0.304-1.706,1.085-1.629,2.025c0.083,1.024,0.898,1.49,2.06,1.777c0.813,0.2,1.172,0.425,1.205,0.826
			c0.032,0.413-0.359,0.69-0.971,0.74c-0.687,0.056-1.328-0.115-1.791-0.321l-0.216,1.26c0.42,0.19,1.122,0.334,1.832,0.307
			l0.083,1.003l1.044-0.084L32.179,14.1c1.198-0.3,1.786-1.156,1.711-2.096C33.811,11.042,33.267,10.502,31.973,10.161z"/>
		<path d="M30.313,0.099c0,0-8.14,0.269-8.007,11.654c0.108,9.327,7.962,8.481,7.962,8.481s8.437-0.038,7.728-13.585
			C37.58-1.325,30.313,0.099,30.313,0.099z M24.502,11.23c-0.001,0-0.002,0-0.003,0c-0.143,0-0.259-0.114-0.26-0.257
			c-0.103-8.85,6.305-9.165,6.369-9.167c0.161-0.013,0.263,0.108,0.269,0.251c0.005,0.144-0.107,0.264-0.251,0.27
			c-0.244,0.009-5.962,0.314-5.865,8.64C24.761,11.111,24.646,11.229,24.502,11.23z M30.567,17.77c0,0-4.31,0.227-4.226-6.115
			c0.095-7.033,5.339-7.939,5.339-7.939s4.707-0.907,4.609,4.521C36.105,18.522,30.567,17.77,30.567,17.77z"/>
		<path d="M25.11,60.94c1.995,1.148,5.222,1.139,7.21-0.021l17.307-10.105c1.988-1.16,3.6-3.966,3.6-6.268v-7.871L30.562,49.421
			L19.797,31.432l-8.782,4.391v12.832c0,2.301,1.616,5.097,3.61,6.246l0.937,0.54V44.259l5.833,3.633v10.907L25.11,60.94z"/>
	</g>
</g>
<g>
</g>
<g>
</g>
<g>
</g>
<g>
</g>
<g>
</g>
<g>
</g>
<g>
</g>
<g>
</g>
<g>
</g>
<g>
</g>
<g>
</g>
<g>
</g>
<g>
</g>
<g>
</g>
<g>
</g>
</svg>
