<?xml version="1.0" encoding="iso-8859-1"?>
<!-- Generator: Adobe Illustrator 18.1.1, SVG Export Plug-In . SVG Version: 6.00 Build 0)  -->
<svg version="1.1" id="Capa_1" xmlns="http://www.w3.org/2000/svg" xmlns:xlink="http://www.w3.org/1999/xlink" x="0px" y="0px"
	 viewBox="0 0 56.126 56.126" style="enable-background:new 0 0 56.126 56.126;" xml:space="preserve">
<g>
	<g>
		<path style="fill:#010002;" d="M3.312,43.708V15.844c0-1.499,1.358-2.813,2.906-2.813c1.575,0,2.906,1.231,2.906,2.688
			c0,0.552,0.448,1,1,1s1-0.448,1-1c0-2.585-2.201-4.688-4.906-4.688c-2.659,0-4.906,2.204-4.906,4.813V43.75
			C0.537,44.243,0,45.094,0,45.094h4.687C4.687,45.094,4.122,44.193,3.312,43.708z"/>
		<path style="fill:#010002;" d="M55.312,29.669c-0.293-0.175-0.65-0.263-1.064-0.188c-9.022,1.61-17.5-3.88-25.87-6.333
			c-0.065-0.019-0.13-0.035-0.195-0.054c-6.668-1.921-13.708-2.241-20.187,0c-1.092,0.378-2.17,0.821-3.226,1.349
			c-0.016,0.008-0.032,0.014-0.047,0.022c-0.951,0.478-0.917,1.472-0.411,2.13c0.415,0.539,1.147,0.852,1.924,0.461
			c9.181-4.618,19.315-2.063,28.402,1.455c6.619,2.562,13.217,5.146,20.406,3.862c0.098-0.016,0.184-0.045,0.268-0.075
			C56.5,31.869,56.289,30.252,55.312,29.669z"/>
		<path style="fill:#010002;" d="M34.638,30.511c-9.088-3.518-19.221-6.073-28.402-1.455c-0.777,0.39-1.509,0.078-1.924-0.461
			c0,0,2.231,11.489,4.899,14.008l-0.032,1.134c-0.036,1.252,0.698,1.597,1.64,0.771c0.752-0.66,1.383-1.214,1.609-1.412H47.06
			l1.548,1.403c0.94,0.851,1.704,0.527,1.704-0.725c0-0.337,0-0.652,0-0.939c2.713-1.408,5-8.537,5-8.537
			c-0.084,0.031-0.17,0.059-0.268,0.076C47.855,35.656,41.257,33.074,34.638,30.511z"/>
	</g>
</g>
<g>
</g>
<g>
</g>
<g>
</g>
<g>
</g>
<g>
</g>
<g>
</g>
<g>
</g>
<g>
</g>
<g>
</g>
<g>
</g>
<g>
</g>
<g>
</g>
<g>
</g>
<g>
</g>
<g>
</g>
</svg>
