<?xml version="1.0" encoding="iso-8859-1"?>
<!-- Generator: Adobe Illustrator 18.1.1, SVG Export Plug-In . SVG Version: 6.00 Build 0)  -->
<svg version="1.1" id="Capa_1" xmlns="http://www.w3.org/2000/svg" xmlns:xlink="http://www.w3.org/1999/xlink" x="0px" y="0px"
	 viewBox="0 0 58.335 58.335" style="enable-background:new 0 0 58.335 58.335;" xml:space="preserve">
<g>
	<g>
		<path style="fill:#010002;" d="M29.077,18.941c15.101,0,23-2.007,23-3.083c0-0.896-5.489-2.432-16.027-2.923
			c0.624,0.561,1.256,0.963,2.248,1.017c1.056,0.058,1.604,0.903,1.582,1.669c-0.02,0.724-0.551,1.457-1.527,1.457l-0.109-0.003
			c-1.862-0.101-3.369-0.757-4.741-2.067c-0.201-0.191-0.374-0.365-0.532-0.523c-0.89-0.89-1.222-1.223-3.456-1.586
			c-0.006-0.001-0.011-0.003-0.018-0.004c-0.086,0.013-0.172,0.024-0.267,0.024c-0.064,0-0.131-0.003-0.199-0.01
			c-1.706-0.165-2.495,0.595-3.622,1.695l-0.417,0.404c-1.371,1.309-2.877,1.966-4.741,2.067l-0.109,0.003
			c-0.977,0-1.508-0.733-1.528-1.457c-0.021-0.766,0.526-1.611,1.583-1.669c1.001-0.055,1.634-0.463,2.265-1.033
			c-10.771,0.474-16.385,2.034-16.385,2.939C6.077,16.934,13.976,18.941,29.077,18.941z"/>
		<path style="fill:#010002;" d="M19.614,15.593c0.004,0.146,0.063,0.484,0.528,0.484v0.5l0.055-0.501
			c1.634-0.089,2.9-0.642,4.105-1.792l0.409-0.396c0.878-0.857,1.662-1.615,2.863-1.889c0.01-0.001,0.019,0.002,0.029,0.001
			c0.667-0.106,1.474-0.113,2.25-0.056c2.29,0.391,2.82,0.829,3.824,1.834c0.153,0.153,0.321,0.321,0.516,0.506
			c1.206,1.151,2.472,1.704,4.105,1.792l0.055,0.502v-0.5c0.465,0,0.524-0.338,0.528-0.484c0.006-0.226-0.121-0.615-0.638-0.644
			c-1.68-0.091-2.6-0.995-3.49-1.869c-0.274-0.27-0.556-0.547-0.87-0.81c-0.961-0.804-2.031-1.22-3.242-1.305
			c-0.87-0.098-1.806-0.092-2.666-0.007c0-0.001,0-0.002,0-0.003c-0.07,0.003-0.135,0.02-0.205,0.026
			c-0.157,0.015-0.316,0.028-0.461,0.051c-0.011,0.002-0.017,0.008-0.027,0.01c-0.978,0.163-1.865,0.554-2.671,1.228
			c-0.314,0.262-0.596,0.54-0.87,0.809c-0.89,0.874-1.811,1.778-3.49,1.869C19.735,14.979,19.607,15.368,19.614,15.593z"/>
		<path style="fill:#010002;" d="M58.327,20.816c-0.082-1.927-3.082-1.935-3,0c0.04,0.941,0.048,2.066-0.852,2.611
			c-0.531,0.323-1.218,0.339-1.898,0.24v-6.871c-2.72,2.46-16.069,3.146-23.5,3.146s-20.78-0.687-23.5-3.147v6.894
			c-0.62,0.07-1.233,0.032-1.718-0.263c-0.899-0.545-0.891-1.67-0.851-2.611c0.082-1.935-2.918-1.927-3,0
			c-0.082,1.935,0.443,4.241,2.336,5.202c1.033,0.526,2.13,0.678,3.233,0.62v9.53c0,6.227,5.19,11.274,11.591,11.274h24.15
			c6.402,0,11.259-5.047,11.259-11.273v-9.541c1.164,0.086,2.324-0.056,3.414-0.608C57.884,25.057,58.409,22.751,58.327,20.816z"/>
	</g>
</g>
<g>
</g>
<g>
</g>
<g>
</g>
<g>
</g>
<g>
</g>
<g>
</g>
<g>
</g>
<g>
</g>
<g>
</g>
<g>
</g>
<g>
</g>
<g>
</g>
<g>
</g>
<g>
</g>
<g>
</g>
</svg>
