<?xml version="1.0" encoding="iso-8859-1"?>
<!-- Generator: Adobe Illustrator 16.0.0, SVG Export Plug-In . SVG Version: 6.00 Build 0)  -->
<!DOCTYPE svg PUBLIC "-//W3C//DTD SVG 1.1//EN" "http://www.w3.org/Graphics/SVG/1.1/DTD/svg11.dtd">
<svg version="1.1" id="Capa_1" xmlns="http://www.w3.org/2000/svg" xmlns:xlink="http://www.w3.org/1999/xlink" x="0px" y="0px"
	 width="51px" height="51px" viewBox="0 0 51 51" style="enable-background:new 0 0 51 51;" xml:space="preserve">
<g>
	<g>
		<path d="M14.5,33.25c-0.276,0-0.5,0.448-0.5,1v10c0,0.552,0.224,1,0.5,1s0.5-0.448,0.5-1v-10C15,33.698,14.776,33.25,14.5,33.25z"
			/>
		<path d="M17.5,33.25c-0.276,0-0.5,0.448-0.5,1v10c0,0.552,0.224,1,0.5,1s0.5-0.448,0.5-1v-10C18,33.698,17.776,33.25,17.5,33.25z"
			/>
		<path d="M5.5,33.25c-0.276,0-0.5,0.448-0.5,1v10c0,0.552,0.224,1,0.5,1s0.5-0.448,0.5-1v-10C6,33.698,5.776,33.25,5.5,33.25z"/>
		<path d="M20.5,33.25c-0.276,0-0.5,0.448-0.5,1v10c0,0.552,0.224,1,0.5,1s0.5-0.448,0.5-1v-10C21,33.698,20.776,33.25,20.5,33.25z"
			/>
		<path d="M8.5,33.25c-0.276,0-0.5,0.448-0.5,1v10c0,0.552,0.224,1,0.5,1s0.5-0.448,0.5-1v-10C9,33.698,8.776,33.25,8.5,33.25z"/>
		<path d="M11.5,33.25c-0.276,0-0.5,0.448-0.5,1v10c0,0.552,0.224,1,0.5,1s0.5-0.448,0.5-1v-10C12,33.698,11.776,33.25,11.5,33.25z"
			/>
		<path d="M23.5,33.25c-0.276,0-0.5,0.448-0.5,1v10c0,0.552,0.224,1,0.5,1s0.5-0.448,0.5-1v-10C24,33.698,23.776,33.25,23.5,33.25z"
			/>
		<circle cx="39.812" cy="26.438" r="3.812"/>
		<path d="M25,20.25H7c-1.105,0-2,0.895-2,2v6c0,1.105,0.895,2,2,2h18c1.105,0,2-0.895,2-2v-6C27,21.145,26.105,20.25,25,20.25z
			 M25.957,25.667l-15.106-0.032l-0.018,3.368l-1-0.006l0.018-3.364l-3.81-0.008l0.002-1l3.813,0.008l0.019-3.386l1,0.006
			l-0.019,3.382l15.103,0.032L25.957,25.667z"/>
		<path d="M26.5,33.25c-0.275,0-0.5,0.448-0.5,1v10c0,0.552,0.225,1,0.5,1s0.5-0.448,0.5-1v-10C27,33.698,26.775,33.25,26.5,33.25z"
			/>
		<path d="M8,7.75c0.788,0,1.483-0.372,1.941-0.942L9.865,7.091l27.938,7.526c0.453-0.649,1.111-1.185,1.914-1.556L10.494,5.188
			C10.46,3.837,9.36,2.75,8,2.75c-1.381,0-2.5,1.119-2.5,2.5S6.619,7.75,8,7.75z"/>
		<path d="M38.175,16.25h8.15c-0.248-1.545-1.972-2.75-4.075-2.75S38.423,14.705,38.175,16.25z"/>
		<path d="M48.662,17.25H3.122C1.915,17.25,0,21.658,0,23.392v17.594c0,1.906,1.971,7.264,3.122,7.264h45.54
			c0.679,0,2.338-3.877,2.338-7.264V23.392C51,21.512,49.802,17.25,48.662,17.25z M6,44.25c0,0.552-0.224,1-0.5,1s-0.5-0.448-0.5-1
			v-10c0-0.552,0.224-1,0.5-1s0.5,0.448,0.5,1V44.25z M9,44.25c0,0.552-0.224,1-0.5,1s-0.5-0.448-0.5-1v-10c0-0.552,0.224-1,0.5-1
			s0.5,0.448,0.5,1V44.25z M12,44.25c0,0.552-0.224,1-0.5,1s-0.5-0.448-0.5-1v-10c0-0.552,0.224-1,0.5-1s0.5,0.448,0.5,1V44.25z
			 M15,44.25c0,0.552-0.224,1-0.5,1s-0.5-0.448-0.5-1v-10c0-0.552,0.224-1,0.5-1s0.5,0.448,0.5,1V44.25z M18,44.25
			c0,0.552-0.224,1-0.5,1s-0.5-0.448-0.5-1v-10c0-0.552,0.224-1,0.5-1s0.5,0.448,0.5,1V44.25z M21,44.25c0,0.552-0.224,1-0.5,1
			s-0.5-0.448-0.5-1v-10c0-0.552,0.224-1,0.5-1s0.5,0.448,0.5,1V44.25z M24,44.25c0,0.552-0.224,1-0.5,1s-0.5-0.448-0.5-1v-10
			c0-0.552,0.224-1,0.5-1s0.5,0.448,0.5,1V44.25z M27,44.25c0,0.552-0.225,1-0.5,1s-0.5-0.448-0.5-1v-10c0-0.552,0.225-1,0.5-1
			s0.5,0.448,0.5,1V44.25z M27,28.25c0,1.105-0.895,2-2,2H7c-1.105,0-2-0.895-2-2v-6c0-1.105,0.895-2,2-2h18c1.105,0,2,0.895,2,2
			V28.25z M39.812,30.25c-2.105,0-3.812-1.707-3.812-3.812c0-2.104,1.707-3.812,3.812-3.812c2.104,0,3.812,1.707,3.812,3.812
			C43.624,28.543,41.918,30.25,39.812,30.25z"/>
		<polygon points="10.875,21.253 9.875,21.247 9.856,24.633 6.043,24.625 6.041,25.625 9.851,25.633 9.833,28.997 10.833,29.003 
			10.851,25.635 25.957,25.667 25.959,24.667 10.856,24.635 		"/>
	</g>
</g>
<g>
</g>
<g>
</g>
<g>
</g>
<g>
</g>
<g>
</g>
<g>
</g>
<g>
</g>
<g>
</g>
<g>
</g>
<g>
</g>
<g>
</g>
<g>
</g>
<g>
</g>
<g>
</g>
<g>
</g>
</svg>
