<?xml version="1.0" encoding="iso-8859-1"?>
<!-- Generator: Adobe Illustrator 18.1.1, SVG Export Plug-In . SVG Version: 6.00 Build 0)  -->
<svg version="1.1" id="Capa_1" xmlns="http://www.w3.org/2000/svg" xmlns:xlink="http://www.w3.org/1999/xlink" x="0px" y="0px"
	 viewBox="0 0 51.585 51.585" style="enable-background:new 0 0 51.585 51.585;" xml:space="preserve">
<g>
	<path style="fill:#010002;" d="M44.785,14.267l-7.447-7.446c0,0,2.367,1.228,8.362-2.628c0.352,0.729,0.937,1.317,1.662,1.675
		C45.401,9.042,44.164,12.12,44.785,14.267z M6.812,37.349c0.003,0.008,1.136,2.448-2.627,8.347c0.74,0.355,1.337,0.952,1.696,1.69
		c2.982-1.768,5.727-2.685,8.376-2.592v-0.001l30.526-30.526l-7.445-7.446L6.812,37.349L6.812,37.349z M2.627,46.33
		C1.178,46.33,0,47.509,0,48.958c0,1.448,1.178,2.627,2.627,2.627s2.627-1.179,2.627-2.627C5.254,47.509,4.076,46.33,2.627,46.33z
		 M48.957,0c-1.448,0-2.627,1.178-2.627,2.627s1.179,2.627,2.627,2.627s2.627-1.178,2.627-2.627S50.405,0,48.957,0z"/>
</g>
<g>
</g>
<g>
</g>
<g>
</g>
<g>
</g>
<g>
</g>
<g>
</g>
<g>
</g>
<g>
</g>
<g>
</g>
<g>
</g>
<g>
</g>
<g>
</g>
<g>
</g>
<g>
</g>
<g>
</g>
</svg>
