<?xml version="1.0" encoding="iso-8859-1"?>
<!-- Generator: Adobe Illustrator 16.0.0, SVG Export Plug-In . SVG Version: 6.00 Build 0)  -->
<!DOCTYPE svg PUBLIC "-//W3C//DTD SVG 1.1//EN" "http://www.w3.org/Graphics/SVG/1.1/DTD/svg11.dtd">
<svg version="1.1" id="Capa_1" xmlns="http://www.w3.org/2000/svg" xmlns:xlink="http://www.w3.org/1999/xlink" x="0px" y="0px"
	 width="27.863px" height="27.863px" viewBox="0 0 27.863 27.863" style="enable-background:new 0 0 27.863 27.863;"
	 xml:space="preserve">
<g>
	<g>
		<path d="M27.597,25.842c0.039-0.535-0.137-1.085-0.547-1.495l-4.506-4.506c-0.398-0.399-0.93-0.578-1.451-0.552l-1.762-1.76
			c3.352-4.248,3.076-10.442-0.844-14.362c-4.223-4.225-11.097-4.224-15.32,0c-4.223,4.223-4.224,11.097,0,15.322
			c3.919,3.918,10.115,4.194,14.361,0.842l1.76,1.762c-0.025,0.521,0.152,1.053,0.553,1.451l4.506,4.507
			c0.41,0.409,0.959,0.586,1.494,0.546c0.502,0.377,1.203,0.359,1.658-0.097C27.957,27.046,27.974,26.342,27.597,25.842z
			 M16.687,16.686c-3.23,3.229-8.485,3.229-11.716,0c-3.23-3.23-3.23-8.487,0-11.717s8.485-3.23,11.716,0
			C19.917,8.199,19.916,13.456,16.687,16.686z"/>
		<path d="M7.882,10.362v4.492h5.684v-4.492L10.724,7.98L7.882,10.362z M10.426,13.477H9.259V12.31h1.167V13.477z M10.426,11.715
			H9.259v-1.167h1.167V11.715z M11.021,10.549h1.167v1.167h-1.167V10.549z M11.021,12.31h1.167v1.167h-1.167V12.31z"/>
		<path d="M11.106,5.737c-0.222-0.186-0.545-0.186-0.767,0L6.079,9.311C5.827,9.522,5.793,9.898,6.005,10.15
			c0.118,0.141,0.287,0.213,0.457,0.213c0.135,0,0.271-0.045,0.382-0.139l3.88-3.252l3.879,3.252
			c0.253,0.212,0.629,0.178,0.84-0.074c0.211-0.252,0.178-0.628-0.074-0.839L11.106,5.737z"/>
	</g>
</g>
<g>
</g>
<g>
</g>
<g>
</g>
<g>
</g>
<g>
</g>
<g>
</g>
<g>
</g>
<g>
</g>
<g>
</g>
<g>
</g>
<g>
</g>
<g>
</g>
<g>
</g>
<g>
</g>
<g>
</g>
</svg>
