<?xml version="1.0" encoding="iso-8859-1"?>
<!-- Generator: Adobe Illustrator 18.1.1, SVG Export Plug-In . SVG Version: 6.00 Build 0)  -->
<svg version="1.1" id="Capa_1" xmlns="http://www.w3.org/2000/svg" xmlns:xlink="http://www.w3.org/1999/xlink" x="0px" y="0px"
	 viewBox="0 0 491.592 491.592" style="enable-background:new 0 0 491.592 491.592;" xml:space="preserve">
<g>
	<g>
		<path style="fill:#010002;" d="M276.152,135.666l-0.016-0.577c-0.008-2.349-3.048-5.032-7.397-5.032H63.98
			c-4.349,0-7.389,1.479-7.405,3.82l-5.836,101.851h231.25L276.152,135.666z"/>
		<path style="fill:#010002;" d="M66.971,365.786h113.8V284.5h59.899l0.171,81.286h29.344V260.114H66.971
			C66.971,260.114,66.971,365.786,66.971,365.786z M83.228,284.5h73.157v65.029H83.228C83.228,349.529,83.228,284.5,83.228,284.5z"
			/>
		<path style="fill:#010002;" d="M229.258,327.427c-0.862-0.374-1.813-0.593-2.812-0.593c-3.894,0-7.056,3.154-7.056,7.056
			c0,3.902,3.154,7.056,7.056,7.056c1.016,0,1.967-0.219,2.845-0.61c2.479-1.097,4.211-3.56,4.211-6.446
			C233.493,330.996,231.754,328.516,229.258,327.427z"/>
		<path style="fill:#010002;" d="M394.049,0H97.543C43.675,0,0,43.675,0,97.543v296.506c0,53.868,43.675,97.543,97.543,97.543
			h296.506c53.868,0,97.543-43.675,97.543-97.543V97.543C491.592,43.675,447.925,0,394.049,0z M418.662,49.227
			c0,0,18.013-10.681,23.581-5.601l0.26,0.236c5.568,5.08-3.414,23.996-3.414,23.996c-2.853,3.13-6.161,5.414-9.462,6.771
			c-4.463-6.243-10.201-11.486-16.842-15.371C413.834,55.851,415.809,52.356,418.662,49.227z M385.327,21.703h0.358
			c7.535,0,13.648,20.029,13.648,20.029c0,4.211-0.886,8.112-2.398,11.339c-3.69-0.797-7.503-1.236-11.421-1.236
			s-7.738,0.439-11.421,1.236c-1.512-3.227-2.398-7.129-2.398-11.339C371.679,41.732,377.792,21.703,385.327,21.703z M377.58,58.209
			c2.585-0.423,5.219-0.699,7.925-0.699s5.34,0.276,7.925,0.699c6.722,1.105,12.981,3.568,18.476,7.137
			c4.479,2.91,8.429,6.527,11.73,10.713c4.958,6.292,8.372,13.835,9.73,22.093c0.423,2.585,0.699,5.219,0.699,7.925
			s-0.276,5.34-0.699,7.925c-1.357,8.25-4.771,15.794-9.73,22.093c-3.292,4.178-7.251,7.803-11.73,10.713
			c-5.495,3.568-11.754,6.031-18.476,7.137c-2.585,0.423-5.219,0.699-7.925,0.699s-5.34-0.276-7.925-0.699
			c-6.722-1.105-12.981-3.568-18.476-7.137c-4.479-2.91-8.429-6.527-11.73-10.713c-4.958-6.292-8.372-13.835-9.73-22.093
			c-0.423-2.585-0.699-5.219-0.699-7.925s0.276-5.34,0.699-7.925c1.357-8.251,4.771-15.794,9.73-22.093
			c3.292-4.178,7.251-7.803,11.73-10.713C364.591,61.777,370.85,59.322,377.58,58.209z M439.089,144.29
			c0,0,8.99,18.915,3.414,23.996l-0.26,0.236c-5.568,5.08-23.581-5.601-23.581-5.601c-2.853-3.121-4.828-6.625-5.885-10.047
			c6.641-3.885,12.38-9.128,16.842-15.371C432.928,138.877,436.236,141.161,439.089,144.29z M399.332,170.424
			c0,0-6.113,20.029-13.648,20.029h-0.358c-7.535,0-13.648-20.029-13.648-20.029c0-4.211,0.886-8.112,2.398-11.339
			c3.69,0.797,7.503,1.236,11.421,1.236c3.918,0,7.738-0.439,11.421-1.236C398.438,162.311,399.332,166.213,399.332,170.424z
			 M358.234,152.882c-1.057,3.414-3.032,6.917-5.885,10.047c0,0-18.013,10.681-23.581,5.601l-0.26-0.236
			c-5.568-5.08,3.414-23.996,3.414-23.996c2.853-3.13,6.161-5.414,9.462-6.771C345.846,143.754,351.585,148.997,358.234,152.882z
			 M328.508,43.87l0.26-0.236c5.568-5.088,23.581,5.592,23.581,5.592c2.853,3.13,4.828,6.625,5.885,10.047
			c-6.641,3.885-12.38,9.128-16.842,15.371c-3.308-1.357-6.617-3.65-9.462-6.771C331.922,67.865,322.94,48.95,328.508,43.87z
			 M301.131,105.899c0-7.535,20.029-13.648,20.029-13.648c4.211,0,8.112,0.886,11.339,2.398c-0.797,3.69-1.236,7.503-1.236,11.421
			s0.439,7.738,1.236,11.421c-3.227,1.512-7.129,2.398-11.339,2.398c0,0-20.029-6.113-20.029-13.648V105.899z M36.961,137.552
			C37.196,124.18,49.259,113.8,63.98,113.8h204.759c14.721,0,26.784,10.38,27.028,23.752l6.999,122.563h-16.322v121.929h-43.13
			H229.38h-35.132h-14.721H50.714V260.114H29.962L36.961,137.552z M444.324,428.782h-17.663v43.35h-36.579v-43.35h-28.45v43.35
			h-36.579v-43.35h-28.45v43.35h-36.579v-43.35h-28.45v43.35h-36.579v-43.35h-28.45v43.35h-36.579v-43.35h-28.45v43.35H64.939
			v-43.35H45.967v-16.257h18.964v-19.647h36.579v19.647h28.45v-19.647h36.579v19.647h28.45v-19.647h36.579v19.647h28.45v-19.647
			h36.579v19.647h28.45v-19.647h36.579v19.647h28.45v-19.647h36.579v19.647h17.663v16.257H444.324z M469.88,105.899v0.358
			c0,7.535-20.029,13.648-20.029,13.648c-4.211,0-8.112-0.886-11.339-2.398c0.797-3.69,1.236-7.503,1.236-11.421
			c0-3.918-0.439-7.738-1.236-11.421c3.227-1.512,7.129-2.398,11.339-2.398C449.852,92.251,469.88,98.364,469.88,105.899z"/>
	</g>
</g>
<g>
</g>
<g>
</g>
<g>
</g>
<g>
</g>
<g>
</g>
<g>
</g>
<g>
</g>
<g>
</g>
<g>
</g>
<g>
</g>
<g>
</g>
<g>
</g>
<g>
</g>
<g>
</g>
<g>
</g>
</svg>
