<?xml version="1.0" encoding="iso-8859-1"?>
<!-- Generator: Adobe Illustrator 18.1.1, SVG Export Plug-In . SVG Version: 6.00 Build 0)  -->
<svg version="1.1" id="Capa_1" xmlns="http://www.w3.org/2000/svg" xmlns:xlink="http://www.w3.org/1999/xlink" x="0px" y="0px"
	 viewBox="0 0 54.451 54.451" style="enable-background:new 0 0 54.451 54.451;" xml:space="preserve">
<g>
	<g>
		<path style="fill:#010002;" d="M0.19,49.189c0.741,2.972,5.294,5.262,10.816,5.262c5.141,0,9.44-1.985,10.609-4.656
			c-2.009,2.036-5.89,3.389-10.448,3.389C6.17,53.183,1.984,51.558,0.19,49.189z"/>
		<path style="fill:#010002;" d="M13.16,42.35c0.053,0.196,0.091,0.398,0.091,0.611v3.334c0,1.288-1.045,2.333-2.333,2.333h-0.333
			c-1.289,0-2.334-1.045-2.334-2.333v-3.333c0-0.187,0.027-0.365,0.069-0.539c-4.025,0.57-7.165,2.381-8.016,4.666
			c0.528,2.811,5.286,5.094,10.864,5.094c5.198,0,9.686-1.983,10.7-4.527C21.338,45.004,17.775,42.864,13.16,42.35z"/>
		<path style="fill:#010002;" d="M38.774,3.196l-4.748,2.876c-0.064-0.111-0.118-0.227-0.213-0.321L28.079,0L8.913,8.677
			l0.144,31.391l0.004,1.006v0.133l0.022,4.762c0.004,0.826,0.675,1.493,1.5,1.493c0.002,0,0.004,0,0.007,0
			c0.829-0.004,1.497-0.679,1.493-1.507l-0.027-5.968l-0.134-29.379l15.5-7.017l4.028,4.041l-5.096,3.086l3.83,18.111l0.438-0.035
			c14.907-1.172,23.298-13.931,23.381-14.06l0.258-0.399L38.774,3.196z M43.415,22.003c-0.119,0.105-2.973,2.59-7.693,3.939
			l-0.458,0.13l-5.286-15.507l3.055-1.745L43.78,21.68L43.415,22.003z"/>
	</g>
</g>
<g>
</g>
<g>
</g>
<g>
</g>
<g>
</g>
<g>
</g>
<g>
</g>
<g>
</g>
<g>
</g>
<g>
</g>
<g>
</g>
<g>
</g>
<g>
</g>
<g>
</g>
<g>
</g>
<g>
</g>
</svg>
