<?xml version="1.0" encoding="iso-8859-1"?>
<!-- Generator: Adobe Illustrator 18.1.1, SVG Export Plug-In . SVG Version: 6.00 Build 0)  -->
<svg version="1.1" id="Capa_1" xmlns="http://www.w3.org/2000/svg" xmlns:xlink="http://www.w3.org/1999/xlink" x="0px" y="0px"
	 viewBox="0 0 55.2 55.2" style="enable-background:new 0 0 55.2 55.2;" xml:space="preserve">
<g>
	<g>
		<rect x="11.1" y="22" style="fill:#010002;" width="32.9" height="2.1"/>
		<rect x="14.6" y="25" style="fill:#010002;" width="1.7" height="11.6"/>
		<rect x="38.9" y="25" style="fill:#010002;" width="1.7" height="11.6"/>
		<path style="fill:#010002;" d="M3.6,26.2c0.1-2.1,0.2-4.1-2.1-7.6l-1.5,1c2,3,1.9,4.1,1.8,6c-0.1,1.2-0.1,3.1,0.3,5v6h1.8v-5.2H10
			v5.2h1.6v-6.9H3.8C3.5,28.3,3.5,27.2,3.6,26.2z"/>
		<path style="fill:#010002;" d="M53.4,25.6c-0.1-2-0.2-3,1.8-6l-1.5-1c-2.3,3.5-2.2,5.5-2.1,7.6c0,1,0.1,2.1-0.2,3.5h-7.8v6.9h1.7
			v-5.2h6.1v5.2h1.8v-6C53.6,28.7,53.5,26.8,53.4,25.6z"/>
	</g>
</g>
<g>
</g>
<g>
</g>
<g>
</g>
<g>
</g>
<g>
</g>
<g>
</g>
<g>
</g>
<g>
</g>
<g>
</g>
<g>
</g>
<g>
</g>
<g>
</g>
<g>
</g>
<g>
</g>
<g>
</g>
</svg>
