<?xml version="1.0" encoding="iso-8859-1"?>
<!-- Generator: Adobe Illustrator 16.0.0, SVG Export Plug-In . SVG Version: 6.00 Build 0)  -->
<!DOCTYPE svg PUBLIC "-//W3C//DTD SVG 1.1//EN" "http://www.w3.org/Graphics/SVG/1.1/DTD/svg11.dtd">
<svg version="1.1" id="Capa_1" xmlns="http://www.w3.org/2000/svg" xmlns:xlink="http://www.w3.org/1999/xlink" x="0px" y="0px"
	 width="356.637px" height="356.637px" viewBox="0 0 356.637 356.637" style="enable-background:new 0 0 356.637 356.637;"
	 xml:space="preserve">
<g>
	<g>
		<path d="M290.562,103.916c0.162-0.811,0.366-1.609,0.366-2.459V12.298C290.928,5.51,285.422,0,278.63,0h-43.042
			c-6.792,0-12.298,5.51-12.298,12.298v21.84l-25.425-26.37c-5.002-4.999-11.715-7.461-18.896-7.064
			c-6.566,0.405-12.809,3.245-17.585,8.034l-124.11,125.05c-4.225,4.251-4.201,11.13,0.054,15.348
			c3.771,3.744,9.581,4.125,13.793,1.225v193.979c0,6.785,5.51,12.298,12.298,12.298h79.936h67.638h79.936
			c6.791,0,12.298-5.513,12.298-12.298V148.337l0.618,0.646c2.138,2.2,4.979,3.32,7.818,3.32c2.715,0,5.429-1.015,7.53-3.044
			c4.317-4.161,4.443-11.031,0.288-15.342L290.562,103.916z M247.886,24.596h18.446V71.77l-18.446-18.447V24.596z M155.652,332.041
			v-79.936h43.042v79.936H155.652z M278.63,122.979v209.062h-55.34v-92.233c0-6.785-5.507-12.298-12.298-12.298h-67.638
			c-6.789,0-12.298,5.513-12.298,12.298v92.233h-55.34V129.127c0-0.997-0.153-1.955-0.375-2.882L176.762,24.056
			c0.976-0.979,2.306-1.612,3.54-1.685c1.446-0.111,2.011,0.541,2.077,0.606l96.27,99.866
			C278.642,122.885,278.63,122.931,278.63,122.979z"/>
		<path d="M135.668,156.797c0,24.583,19.996,44.58,44.579,44.58c24.584,0,44.58-19.996,44.58-44.58s-19.996-44.58-44.58-44.58
			C155.664,112.218,135.668,132.214,135.668,156.797z M203.306,156.797c0,12.709-10.347,23.059-23.059,23.059
			c-12.715,0-23.058-10.35-23.058-23.059c0-12.709,10.343-23.058,23.058-23.058C192.959,133.739,203.306,144.088,203.306,156.797z"
			/>
	</g>
</g>
<g>
</g>
<g>
</g>
<g>
</g>
<g>
</g>
<g>
</g>
<g>
</g>
<g>
</g>
<g>
</g>
<g>
</g>
<g>
</g>
<g>
</g>
<g>
</g>
<g>
</g>
<g>
</g>
<g>
</g>
</svg>
