<?xml version="1.0" encoding="iso-8859-1"?>
<!-- Generator: Adobe Illustrator 18.1.1, SVG Export Plug-In . SVG Version: 6.00 Build 0)  -->
<svg version="1.1" id="Capa_1" xmlns="http://www.w3.org/2000/svg" xmlns:xlink="http://www.w3.org/1999/xlink" x="0px" y="0px"
	 viewBox="0 0 54.441 54.441" style="enable-background:new 0 0 54.441 54.441;" xml:space="preserve">
<g>
	<g>
		<rect x="3.439" y="15.447" style="fill:#010002;" width="5" height="20"/>
		<polygon style="fill:#010002;" points="54.347,46.876 44.559,47.695 44.475,46.699 54.292,45.877 54.038,41.317 38.396,43.009 
			38.486,44.629 47.89,43.699 47.988,44.695 38.542,45.63 38.797,50.243 54.441,48.551 		"/>
		<path style="fill:#010002;" d="M39.208,41.915c-0.005,0.119-0.009,0.189-0.009,0.189l13.608-1.468
			c0.006-0.066,0.006-0.127,0.011-0.193c1.767-21.567-17.072-21.626-19.955-21.509c-0.816-0.939-1.841-1.684-3.039-2.248h0.006
			c-0.11-0.041-0.206-0.087-0.311-0.13c-0.181-0.08-0.359-0.163-0.548-0.234c-2.5-1.19-3.511-2.925-3.91-3.973
			c-1.066,0.305-2.229,0.307-3.021,0.307c-0.805,0-1.991,0-3.069-0.319c-1.372,1.945-6.327,4.35-6.327,4.35h0.008
			c-1.285,0.606-2.371,1.417-3.213,2.456v12.878c2.38,4.045,6.768,6.768,11.8,6.768c4.608,0,8.677-2.284,11.159-5.774
			C39.257,32.334,39.253,40.569,39.208,41.915z"/>
		<path style="fill:#010002;" d="M27.45,10.33l15.373,1.378c0,0,3.812-2.8,0-5.756L27.337,6.878
			c0.232,0.618,0.365,1.284,0.365,1.981C27.702,9.436,27.606,9.915,27.45,10.33z"/>
		<path style="fill:#010002;" d="M16.378,8.859c0-0.708,0.136-1.382,0.374-2.007l-15.058-0.9c-3.811,2.956,0,5.756,0,5.756
			l14.952-1.34C16.48,9.945,16.378,9.453,16.378,8.859z"/>
		<path style="fill:#010002;" d="M22.04,11.655c3.398,0,4.662-0.758,4.662-2.796c0-2.571-2.092-4.662-4.663-4.662
			c-2.57,0-4.661,2.091-4.661,4.662C17.378,10.897,18.642,11.655,22.04,11.655z"/>
	</g>
</g>
<g>
</g>
<g>
</g>
<g>
</g>
<g>
</g>
<g>
</g>
<g>
</g>
<g>
</g>
<g>
</g>
<g>
</g>
<g>
</g>
<g>
</g>
<g>
</g>
<g>
</g>
<g>
</g>
<g>
</g>
</svg>
