<?xml version="1.0" encoding="iso-8859-1"?>
<!-- Generator: Adobe Illustrator 18.1.1, SVG Export Plug-In . SVG Version: 6.00 Build 0)  -->
<svg version="1.1" id="Capa_1" xmlns="http://www.w3.org/2000/svg" xmlns:xlink="http://www.w3.org/1999/xlink" x="0px" y="0px"
	 viewBox="0 0 55.623 55.623" style="enable-background:new 0 0 55.623 55.623;" xml:space="preserve">
<g>
	<polygon style="fill:#010002;" points="52.287,1.835 20.389,33.732 21.719,35.078 53.625,3.173 	"/>
	<path style="fill:#010002;" d="M22.246,36.92l-0.057,0.057l-3.637-3.681c-0.895-0.515-2.242-0.604-2.096-0.031
		c0.143,0.559-0.119,0.978-0.454,1.287c-1.245-0.184-2.445,0.144-3.298,0.979L1.451,47.478c-1.563,1.532-1.955,3.707,0.089,5.713
		l0.333,0.326c2.044,2.006,3.514,2.852,5.077,1.318l13.255-11.947c0.846-0.831,1.113-2.065,0.871-3.34
		c0.43-0.592,1.391-0.587,1.391-0.587C22.879,38.556,22.73,37.66,22.246,36.92z M2.588,50.419c-0.118,0-0.236-0.041-0.331-0.125
		c-0.207-0.183-0.227-0.499-0.043-0.706L12.441,38.01c0.183-0.207,0.5-0.227,0.706-0.044c0.207,0.183,0.227,0.499,0.043,0.706
		L2.962,50.25C2.864,50.362,2.726,50.419,2.588,50.419z M5.168,51.019c-0.128,0-0.256-0.049-0.354-0.146
		c-0.195-0.195-0.195-0.512,0-0.707l10.923-10.923c0.195-0.195,0.512-0.195,0.707,0s0.195,0.512,0,0.707L5.522,50.872
		C5.424,50.97,5.296,51.019,5.168,51.019z M17.677,43.247L6.099,53.474c-0.095,0.084-0.213,0.125-0.331,0.125
		c-0.138,0-0.276-0.057-0.375-0.169c-0.183-0.207-0.164-0.523,0.043-0.706l11.578-10.227c0.208-0.183,0.523-0.163,0.706,0.044
		C17.903,42.748,17.884,43.064,17.677,43.247z"/>
	<polygon style="fill:#010002;" points="54.587,0 52.287,1.834 53.625,3.172 55.482,0.875 	"/>
</g>
<g>
</g>
<g>
</g>
<g>
</g>
<g>
</g>
<g>
</g>
<g>
</g>
<g>
</g>
<g>
</g>
<g>
</g>
<g>
</g>
<g>
</g>
<g>
</g>
<g>
</g>
<g>
</g>
<g>
</g>
</svg>
