<?xml version="1.0" encoding="iso-8859-1"?>
<!-- Generator: Adobe Illustrator 18.1.1, SVG Export Plug-In . SVG Version: 6.00 Build 0)  -->
<svg version="1.1" id="Capa_1" xmlns="http://www.w3.org/2000/svg" xmlns:xlink="http://www.w3.org/1999/xlink" x="0px" y="0px"
	 viewBox="0 0 53.17 53.17" style="enable-background:new 0 0 53.17 53.17;" xml:space="preserve">
<g>
	<g>
		<rect x="4.17" y="45.585" style="fill:#010002;" width="6" height="3"/>
		<rect x="39.17" y="45.585" style="fill:#010002;" width="6" height="3"/>
		<path style="fill:#010002;" d="M9.567,9.458c-0.242,0.28-0.397,0.626-0.397,1.055v4.072h31v-4.072c0-0.438-0.148-0.817-0.42-1.121
			c0.23-0.262,0.41-0.554,0.533-0.868c0.117-0.3,0.195-0.614,0.195-0.939c0-1.589-2.652-3-4.529-3H13.308
			c-1.875,0-4.528,1.411-4.528,3c0,0.356,0.086,0.701,0.226,1.025C9.139,8.919,9.331,9.202,9.567,9.458z"/>
		<path style="fill:#010002;" d="M52.25,30.585h-2.16c-0.483,0-0.868,0.377-0.906,0.85c-0.002,0.024-0.014,0.046-0.014,0.07v1.08
			h-0.885l-1.428-15.581c-0.069-0.769-0.759-1.419-1.507-1.419H3.943c-0.779,0-1.443,0.575-1.51,1.308L0.006,43.521
			c-0.027,0.296,0.042,0.536,0.207,0.716c0.205,0.224,0.549,0.348,0.969,0.348H4.17h6h29h6h2.939c0.413,0,0.755-0.125,0.962-0.352
			c0.169-0.186,0.241-0.433,0.214-0.733l-0.816-8.915h0.701v1.08c0,0.343,0.196,0.63,0.474,0.788
			c0.134,0.076,0.281,0.132,0.446,0.132h2.16c0.508,0,0.92-0.412,0.92-0.92v-4.16C53.17,30.997,52.758,30.585,52.25,30.585z"/>
	</g>
</g>
<g>
</g>
<g>
</g>
<g>
</g>
<g>
</g>
<g>
</g>
<g>
</g>
<g>
</g>
<g>
</g>
<g>
</g>
<g>
</g>
<g>
</g>
<g>
</g>
<g>
</g>
<g>
</g>
<g>
</g>
</svg>
