<?xml version="1.0" encoding="iso-8859-1"?>
<!-- Generator: Adobe Illustrator 18.1.1, SVG Export Plug-In . SVG Version: 6.00 Build 0)  -->
<svg version="1.1" id="Capa_1" xmlns="http://www.w3.org/2000/svg" xmlns:xlink="http://www.w3.org/1999/xlink" x="0px" y="0px"
	 viewBox="0 0 482.324 482.324" style="enable-background:new 0 0 482.324 482.324;" xml:space="preserve">
<g>
	<g>
		<polygon style="fill:#010002;" points="328.653,0 293.658,0 293.658,251.113 4.9,251.113 4.9,280.002 328.653,280.002 		"/>
		<path style="fill:#010002;" d="M346.152,61.261v209.992l37.191,0.008v42.487c0,8.68-7.061,15.739-15.74,15.739h-39.72
			c0.47-1.342,0.689-2.084,0.686-2.084c3.35-12.178,5.353-25.012,5.353-38.656H4.899c0,146.013,112.35,193.577,112.35,193.577
			h98.466v-36.623l9.425-18.096l0.158,0.001c2.956-0.879,5.983-1.662,8.834-2.746c39.608-15.078,63.93-42.116,77.954-63.894h55.518
			c26.037,0,47.22-21.183,47.22-47.219v-42.479l36.365,0.008l26.236-210.008L346.152,61.261z"/>
		<rect x="346.152" y="26.25" style="fill:#010002;" width="131.247" height="26.242"/>
	</g>
</g>
<g>
</g>
<g>
</g>
<g>
</g>
<g>
</g>
<g>
</g>
<g>
</g>
<g>
</g>
<g>
</g>
<g>
</g>
<g>
</g>
<g>
</g>
<g>
</g>
<g>
</g>
<g>
</g>
<g>
</g>
</svg>
