<?xml version="1.0" encoding="iso-8859-1"?>
<!-- Generator: Adobe Illustrator 18.1.1, SVG Export Plug-In . SVG Version: 6.00 Build 0)  -->
<svg version="1.1" id="Capa_1" xmlns="http://www.w3.org/2000/svg" xmlns:xlink="http://www.w3.org/1999/xlink" x="0px" y="0px"
	 viewBox="0 0 55 55" style="enable-background:new 0 0 55 55;" xml:space="preserve">
<g>
	<g>
		<path style="fill:#010002;" d="M41,26.212V34h4.323C43.477,32.6,41.938,29.812,41,26.212z"/>
		<path style="fill:#010002;" d="M45.424,2H6v0.118C2.788,3.045,0.031,9.796,0.031,18H0v35h40V42V19v-1
			C40,10.58,42.274,4.275,45.424,2z"/>
		<path style="fill:#010002;" d="M48,2.083c-3.794,0-7,7.289-7,15.917c0,8.523,3.271,16,7,16s7-7.477,7-16
			C55,9.372,51.794,2.083,48,2.083z M48.68,22.667c-1.117,0-2.021-2.15-2.021-4.63s0.905-4.606,2.021-4.606s2.02,2.126,2.02,4.606
			C50.699,20.516,49.794,22.667,48.68,22.667z"/>
	</g>
</g>
<g>
</g>
<g>
</g>
<g>
</g>
<g>
</g>
<g>
</g>
<g>
</g>
<g>
</g>
<g>
</g>
<g>
</g>
<g>
</g>
<g>
</g>
<g>
</g>
<g>
</g>
<g>
</g>
<g>
</g>
</svg>
