<?xml version="1.0" encoding="iso-8859-1"?>
<!-- Generator: Adobe Illustrator 18.1.1, SVG Export Plug-In . SVG Version: 6.00 Build 0)  -->
<svg version="1.1" id="Capa_1" xmlns="http://www.w3.org/2000/svg" xmlns:xlink="http://www.w3.org/1999/xlink" x="0px" y="0px"
	 viewBox="0 0 58.001 58.001" style="enable-background:new 0 0 58.001 58.001;" xml:space="preserve">
<g>
	<g>
		<path style="fill:#010002;" d="M5.835,37.5h11.91c0,0,0.089,1.276-0.011,3h37.514c1.518,0,2.752-1.234,2.752-2.752l0.001-26.496
			c0-1.518-1.234-2.752-2.752-2.752H2.752C1.234,8.5,0,9.734,0,11.252v26.496C0,39.266,1.234,40.5,2.752,40.5h3.012
			C5.901,39.496,5.946,38.479,5.835,37.5z M5,12.5h48v23H5V12.5z"/>
		<polygon style="fill:#010002;" points="23.691,46.5 34.529,46.5 33.445,41.5 24.775,41.5 		"/>
		<rect x="22" y="47.5" style="fill:#010002;" width="14" height="2"/>
		<path style="fill:#010002;" d="M16.667,38.5H6.738c0.473,4.562-2.363,10-2.363,10H14.48C17.14,45.5,16.667,38.5,16.667,38.5z
			 M13.492,46.045c-2.055-0.391-4.112-1.566-5.826,0.246c-0.444,0.47-1.15-0.239-0.707-0.707c2.026-2.145,4.319-0.975,6.799-0.504
			C14.391,45.201,14.122,46.165,13.492,46.045z M14.258,42.293c-0.889,0.168-1.703,0.068-2.542-0.27
			c-1.028-0.414-1.836-0.787-2.8,0.017c-0.492,0.409-1.203-0.294-0.707-0.707c0.72-0.599,1.546-0.991,2.499-0.737
			c1.124,0.301,2.07,0.963,3.284,0.734C14.622,41.211,14.891,42.175,14.258,42.293z"/>
	</g>
</g>
<g>
</g>
<g>
</g>
<g>
</g>
<g>
</g>
<g>
</g>
<g>
</g>
<g>
</g>
<g>
</g>
<g>
</g>
<g>
</g>
<g>
</g>
<g>
</g>
<g>
</g>
<g>
</g>
<g>
</g>
</svg>
