<?xml version="1.0" encoding="iso-8859-1"?>
<!-- Generator: Adobe Illustrator 18.1.1, SVG Export Plug-In . SVG Version: 6.00 Build 0)  -->
<svg version="1.1" id="Capa_1" xmlns="http://www.w3.org/2000/svg" xmlns:xlink="http://www.w3.org/1999/xlink" x="0px" y="0px"
	 viewBox="0 0 491.592 491.592" style="enable-background:new 0 0 491.592 491.592;" xml:space="preserve">
<g>
	<g>
		<path style="fill:#010002;" d="M394.049,0H97.543C43.675,0,0,43.675,0,97.543v296.506c0,53.868,43.675,97.543,97.543,97.543
			h296.506c53.868,0,97.543-43.675,97.543-97.543V97.543C491.592,43.675,447.925,0,394.049,0z M430.725,441.455H45.634
			c-6.73,0-12.193-5.462-12.193-12.193c0-6.73,5.462-12.193,12.193-12.193h17.273V188.957c0-20.2,18.232-36.635,40.643-36.635
			h111.768c3.528,0,6.893,0.536,10.161,1.301V94.357c0-24.621,18.232-44.658,40.643-44.658h111.768
			c22.41,0,40.643,20.037,40.643,44.658v322.713h12.193c6.73,0,12.193,5.462,12.193,12.193
			C442.918,435.992,437.456,441.455,430.725,441.455z"/>
		<path style="fill:#010002;" d="M377.889,82.212H266.121c-3.845,0-8.129,4.983-8.129,12.144v322.713h128.025V94.357
			C386.018,87.195,381.726,82.212,377.889,82.212z M314.015,355.43c0,6.495-5.267,11.77-11.77,11.77h-20.102
			c-6.495,0-11.77-5.267-11.77-11.77v-20.102c0-6.495,5.267-11.77,11.77-11.77h20.102c6.495,0,11.77,5.267,11.77,11.77V355.43z
			 M314.015,298.53c0,6.495-5.267,11.77-11.77,11.77h-20.102c-6.495,0-11.77-5.267-11.77-11.77v-20.102
			c0-6.495,5.267-11.77,11.77-11.77h20.102c6.495,0,11.77,5.267,11.77,11.77V298.53z M314.015,241.63
			c0,6.495-5.267,11.77-11.77,11.77h-20.102c-6.495,0-11.77-5.267-11.77-11.77v-20.102c0-6.495,5.267-11.77,11.77-11.77h20.102
			c6.495,0,11.77,5.267,11.77,11.77V241.63z M314.015,184.73c0,6.495-5.267,11.77-11.77,11.77h-20.102
			c-6.495,0-11.77-5.267-11.77-11.77v-20.102c0-6.495,5.267-11.77,11.77-11.77h20.102c6.495,0,11.77,5.267,11.77,11.77V184.73z
			 M314.015,127.83c0,6.495-5.267,11.77-11.77,11.77h-20.102c-6.495,0-11.77-5.267-11.77-11.77v-20.102
			c0-6.495,5.267-11.77,11.77-11.77h20.102c6.495,0,11.77,5.267,11.77,11.77V127.83z M373.63,355.43
			c0,6.495-5.267,11.77-11.77,11.77h-20.102c-6.495,0-11.77-5.267-11.77-11.77v-20.102c0-6.495,5.267-11.77,11.77-11.77h20.102
			c6.495,0,11.77,5.267,11.77,11.77V355.43z M373.63,298.53c0,6.495-5.267,11.77-11.77,11.77h-20.102
			c-6.495,0-11.77-5.267-11.77-11.77v-20.102c0-6.495,5.267-11.77,11.77-11.77h20.102c6.495,0,11.77,5.267,11.77,11.77V298.53z
			 M373.63,241.63c0,6.495-5.267,11.77-11.77,11.77h-20.102c-6.495,0-11.77-5.267-11.77-11.77v-20.102
			c0-6.495,5.267-11.77,11.77-11.77h20.102c6.495,0,11.77,5.267,11.77,11.77V241.63z M373.63,184.73
			c0,6.495-5.267,11.77-11.77,11.77h-20.102c-6.495,0-11.77-5.267-11.77-11.77v-20.102c0-6.495,5.267-11.77,11.77-11.77h20.102
			c6.495,0,11.77,5.267,11.77,11.77V184.73z M373.63,127.83c0,6.495-5.267,11.77-11.77,11.77h-20.102
			c-6.495,0-11.77-5.267-11.77-11.77v-20.102c0-6.495,5.267-11.77,11.77-11.77h20.102c6.495,0,11.77,5.267,11.77,11.77V127.83z"/>
		<path style="fill:#010002;" d="M215.318,184.836H103.55c-5.275,0-8.129,2.918-8.129,4.121v228.112h128.025V188.957
			C223.446,187.754,220.593,184.836,215.318,184.836z M151.443,355.43c0,6.495-5.267,11.77-11.77,11.77h-20.102
			c-6.495,0-11.77-5.267-11.77-11.77v-20.102c0-6.495,5.267-11.77,11.77-11.77h20.102c6.495,0,11.77,5.267,11.77,11.77V355.43z
			 M151.443,298.53c0,6.495-5.267,11.77-11.77,11.77h-20.102c-6.495,0-11.77-5.267-11.77-11.77v-20.102
			c0-6.495,5.267-11.77,11.77-11.77h20.102c6.495,0,11.77,5.267,11.77,11.77V298.53z M151.443,241.63
			c0,6.495-5.267,11.77-11.77,11.77h-20.102c-6.495,0-11.77-5.267-11.77-11.77v-20.102c0-6.495,5.267-11.77,11.77-11.77h20.102
			c6.495,0,11.77,5.267,11.77,11.77V241.63z M211.058,355.43c0,6.495-5.267,11.77-11.77,11.77h-20.102
			c-6.495,0-11.77-5.267-11.77-11.77v-20.102c0-6.495,5.267-11.77,11.77-11.77h20.102c6.495,0,11.77,5.267,11.77,11.77V355.43z
			 M211.058,298.53c0,6.495-5.267,11.77-11.77,11.77h-20.102c-6.495,0-11.77-5.267-11.77-11.77v-20.102
			c0-6.495,5.267-11.77,11.77-11.77h20.102c6.495,0,11.77,5.267,11.77,11.77V298.53z M211.058,241.63
			c0,6.495-5.267,11.77-11.77,11.77h-20.102c-6.495,0-11.77-5.267-11.77-11.77v-20.102c0-6.495,5.267-11.77,11.77-11.77h20.102
			c6.495,0,11.77,5.267,11.77,11.77V241.63z"/>
	</g>
</g>
<g>
</g>
<g>
</g>
<g>
</g>
<g>
</g>
<g>
</g>
<g>
</g>
<g>
</g>
<g>
</g>
<g>
</g>
<g>
</g>
<g>
</g>
<g>
</g>
<g>
</g>
<g>
</g>
<g>
</g>
</svg>
