<?xml version="1.0" encoding="iso-8859-1"?>
<!-- Generator: Adobe Illustrator 18.1.1, SVG Export Plug-In . SVG Version: 6.00 Build 0)  -->
<svg version="1.1" id="Capa_1" xmlns="http://www.w3.org/2000/svg" xmlns:xlink="http://www.w3.org/1999/xlink" x="0px" y="0px"
	 viewBox="0 0 56.06 56.06" style="enable-background:new 0 0 56.06 56.06;" xml:space="preserve">
<g>
	<path style="fill:#010002;" d="M20.688,9.03C13.045,5.151,5.689,0.646,0,2.367l0.176,5.225l3.585,6.161l19.675,17.848L30.2,13.712
		L20.688,9.03z"/>
	<path style="fill:#010002;" d="M55.751,52.376c-2.367-2.234-6.555-2.75-8.104-5.713c0.346-0.43,0.494-1.006,0.438-1.562
		c0.916-0.349,1.863-0.804,2.854-1.373c0.146-0.084,0.271-0.189,0.411-0.28c-4.152-1.052-13.961-10.634-15.641-13.257
		c-1.01-1.576,0.091-8.189,1.005-12.709c-0.453-0.419-0.857-0.807-1.171-1.14l-4.442-2.187l-6.869,18.167l12.367,11.219
		c0.979,0.621,1.927,1.121,2.861,1.504c0.012-0.089,0.039-0.17,0.1-0.231c0.2-0.203,0.603-0.133,0.898,0.158
		c0.16,0.156,0.25,0.344,0.273,0.517c1.194,0.351,2.379,0.507,3.59,0.444c0.181,0.659,0.662,1.221,1.451,1.363
		c0.651,1.395,1.6,2.456,2.976,3.287c1.874,1.132,3.96,1.668,5.589,3.207C55.274,54.675,56.69,53.263,55.751,52.376z M30.984,36.378
		c-0.2,0.203-0.603,0.132-0.898-0.159c-0.296-0.292-0.374-0.692-0.173-0.896c0.199-0.204,0.602-0.133,0.898,0.158
		C31.106,35.772,31.185,36.174,30.984,36.378z M31.668,34.61c-0.296-0.291-0.374-0.691-0.174-0.896
		c0.2-0.203,0.603-0.132,0.899,0.159c0.295,0.291,0.373,0.692,0.173,0.896C32.366,34.974,31.964,34.902,31.668,34.61z
		 M33.397,38.749c-0.2,0.204-0.603,0.133-0.898-0.158s-0.374-0.692-0.173-0.896c0.199-0.203,0.602-0.132,0.898,0.159
		C33.519,38.145,33.597,38.546,33.397,38.749z M34.079,36.983c-0.296-0.291-0.373-0.691-0.174-0.896
		c0.201-0.203,0.604-0.132,0.899,0.159s0.374,0.692,0.173,0.896C34.778,37.347,34.376,37.275,34.079,36.983z M35.808,41.122
		c-0.199,0.204-0.602,0.133-0.898-0.158c-0.296-0.291-0.373-0.692-0.174-0.896c0.201-0.203,0.604-0.132,0.899,0.159
		C35.931,40.519,36.009,40.919,35.808,41.122z M36.491,39.355c-0.297-0.291-0.374-0.692-0.174-0.896s0.603-0.133,0.898,0.158
		c0.297,0.291,0.374,0.692,0.174,0.896C37.189,39.718,36.786,39.647,36.491,39.355z M38.22,43.495
		c-0.199,0.203-0.602,0.133-0.898-0.159c-0.296-0.291-0.373-0.692-0.174-0.896c0.201-0.203,0.604-0.133,0.899,0.158
		S38.421,43.292,38.22,43.495z M39.802,41.887c-0.201,0.204-0.604,0.132-0.898-0.159c-0.297-0.291-0.374-0.691-0.174-0.896
		s0.603-0.132,0.898,0.159C39.925,41.282,40.002,41.683,39.802,41.887z M42.213,44.26c-0.2,0.204-0.603,0.132-0.898-0.159
		s-0.374-0.692-0.174-0.896s0.603-0.133,0.899,0.159C42.335,43.655,42.413,44.056,42.213,44.26z"/>
	<path style="fill:#010002;" d="M36.95,23.08l12.453,11.474c0.826,0.838,1.607,3.025,0.789,3.84
		c-0.819,0.813-3.153-0.207-3.979-1.045l-8.171-7.148c0.558,1.559,1.329,2.847,2.355,3.848c6.045,5.898,10.007,8.216,11.557,8.987
		c0.454-0.343,0.889-0.705,1.293-1.085c4.924-4.631-3.318-12.845-10.34-19.043c0.153-0.631-0.265-1.654-1.11-2.553
		c-1.045-1.11-2.331-1.598-2.872-1.089c-0.034,0.032-0.053,0.076-0.08,0.114c-0.621-0.54-1.188-1.038-1.7-1.502
		C36.991,19.753,36.923,21.489,36.95,23.08z"/>
</g>
<g>
</g>
<g>
</g>
<g>
</g>
<g>
</g>
<g>
</g>
<g>
</g>
<g>
</g>
<g>
</g>
<g>
</g>
<g>
</g>
<g>
</g>
<g>
</g>
<g>
</g>
<g>
</g>
<g>
</g>
</svg>
