<?xml version="1.0" encoding="iso-8859-1"?>
<!-- Generator: Adobe Illustrator 16.0.0, SVG Export Plug-In . SVG Version: 6.00 Build 0)  -->
<!DOCTYPE svg PUBLIC "-//W3C//DTD SVG 1.1//EN" "http://www.w3.org/Graphics/SVG/1.1/DTD/svg11.dtd">
<svg version="1.1" id="Capa_1" xmlns="http://www.w3.org/2000/svg" xmlns:xlink="http://www.w3.org/1999/xlink" x="0px" y="0px"
	 width="55.254px" height="55.253px" viewBox="0 0 55.254 55.253" style="enable-background:new 0 0 55.254 55.253;"
	 xml:space="preserve">
<g>
	<g>
		<path d="M41.702,29.582c-1.519-7.248-5.13-13.871-13.693-14.206c-0.777-1.279-1.261-2.188-1.391-2.438
			c-2.188-5.041-7.3-8.419-12.759-8.419C6.217,4.519,0,10.736,0,18.377c0,2.071,0.472,4.03,1.292,5.795c2.193,4.716,6.96,8,12.49,8
			h9.472c1.657,0,3-1.342,3-3c0-1.657-1.343-3-3-3h-9.47c-1.994,0-3.809-0.761-5.187-2c-1.589-1.428-2.596-3.493-2.596-5.795
			c0-4.333,3.525-7.858,7.859-7.858c3.121,0,6.047,1.957,7.281,4.868l0.083,0.178c0.047,0.094,0.209,0.411,0.469,0.885
			c-3.395,1.476-5.626,4.31-7.079,7.721h9.363c2.362,0.001,4.277,2.096,4.277,4.68v0.642c0,2.583-1.915,4.679-4.278,4.679H12.262
			c-0.396,3.75-0.4,7.347-0.4,10c0,1.461,1.039,2.65,2.724,3.578c-0.004,0.061-0.018,0.117-0.018,0.18
			c0,1.55,1.256,2.806,2.805,2.806c0.981,0,1.842-0.506,2.343-1.271c4.885,0.979,11.113,0.938,15.875-0.129
			c0.486,0.834,1.38,1.398,2.413,1.398c1.549,0,2.805-1.256,2.805-2.807c0-0.196-0.021-0.389-0.061-0.574
			c1.292-0.862,2.061-1.924,2.061-3.182c0-2.123-0.002-4.849-0.205-7.771c1.653,0.49,3.377,0.777,5.17,0.777
			c0.157,0,0.32-0.014,0.48-0.02v-6.005C45.963,31.244,43.755,30.621,41.702,29.582z M27.728,44.666
			c-1.906,0-3.451-1.545-3.451-3.451c0-1.905,1.545-3.451,3.451-3.451c1.906,0,3.451,1.546,3.451,3.451
			C31.179,43.121,29.634,44.666,27.728,44.666z"/>
		<path d="M53.895,27.172h-3.281c-0.75,0-1.359,0.609-1.359,1.359v13.282c0,0.75,0.609,1.358,1.359,1.358h3.281
			c0.75,0,1.359-0.608,1.359-1.358V28.531C55.254,27.781,54.645,27.172,53.895,27.172z"/>
	</g>
</g>
<g>
</g>
<g>
</g>
<g>
</g>
<g>
</g>
<g>
</g>
<g>
</g>
<g>
</g>
<g>
</g>
<g>
</g>
<g>
</g>
<g>
</g>
<g>
</g>
<g>
</g>
<g>
</g>
<g>
</g>
</svg>
