<?xml version="1.0" encoding="iso-8859-1"?>
<!-- Generator: Adobe Illustrator 18.1.1, SVG Export Plug-In . SVG Version: 6.00 Build 0)  -->
<svg version="1.1" id="Capa_1" xmlns="http://www.w3.org/2000/svg" xmlns:xlink="http://www.w3.org/1999/xlink" x="0px" y="0px"
	 viewBox="0 0 55.951 55.951" style="enable-background:new 0 0 55.951 55.951;" xml:space="preserve">
<g>
	<g>
		<path style="fill:#010002;" d="M35.734,43.782l-15.471-0.027c0,0-0.001,0-0.002,0c-0.827,0-1.499,0.67-1.5,1.497
			c-0.001,0.829,0.669,1.501,1.498,1.503l15.47,0.027c0.001,0,0.002,0,0.003,0c0.827,0,1.498-0.67,1.5-1.497
			C37.232,44.456,36.562,43.784,35.734,43.782z"/>
		<path style="fill:#010002;" d="M35.394,48.291L35.394,48.291l-14.796,0.014c-0.828,0.001-1.5,0.673-1.499,1.501
			s0.672,1.499,1.5,1.499H20.6l14.794-0.014c0.829-0.001,1.5-0.673,1.499-1.501S36.222,48.291,35.394,48.291z"/>
		<path style="fill:#010002;" d="M33.391,52.896c-0.002,0-0.005,0-0.008,0l-10.79,0.055c-0.828,0.004-1.497,0.679-1.492,1.508
			c0.004,0.825,0.675,1.492,1.5,1.492c0.002,0,0.005,0,0.008,0l10.79-0.055c0.828-0.004,1.496-0.679,1.492-1.508
			C34.887,53.563,34.216,52.896,33.391,52.896z"/>
		<path style="fill:#010002;" d="M43.843,17.344C43.843,7.765,36.739,0,27.976,0S12.108,7.765,12.108,17.344
			c0,4.458,1.552,8.509,4.08,11.581c-0.134,0.007-0.231,0.014-0.256,0.021c0.001,0,4.368,4.389,4.738,13.389h15.055
			c0,0,0.021-8.104,4.29-13.491c0,0-0.073,0-0.183,0C42.32,25.78,43.843,21.761,43.843,17.344z M28.275,38.834
			c-0.276,0-0.5-0.224-0.5-0.5V25.538l-5.37-5.479c-0.193-0.197-0.19-0.514,0.007-0.707c0.197-0.194,0.513-0.19,0.707,0.007
			l5.143,5.247l4.76-5.233c0.187-0.203,0.502-0.218,0.707-0.034c0.204,0.186,0.219,0.502,0.033,0.707l-4.987,5.481v12.807
			C28.775,38.61,28.551,38.834,28.275,38.834z"/>
	</g>
</g>
<g>
</g>
<g>
</g>
<g>
</g>
<g>
</g>
<g>
</g>
<g>
</g>
<g>
</g>
<g>
</g>
<g>
</g>
<g>
</g>
<g>
</g>
<g>
</g>
<g>
</g>
<g>
</g>
<g>
</g>
</svg>
