<?xml version="1.0" encoding="iso-8859-1"?>
<!-- Generator: Adobe Illustrator 16.0.0, SVG Export Plug-In . SVG Version: 6.00 Build 0)  -->
<!DOCTYPE svg PUBLIC "-//W3C//DTD SVG 1.1//EN" "http://www.w3.org/Graphics/SVG/1.1/DTD/svg11.dtd">
<svg version="1.1" id="Capa_1" xmlns="http://www.w3.org/2000/svg" xmlns:xlink="http://www.w3.org/1999/xlink" x="0px" y="0px"
	 width="55.782px" height="55.781px" viewBox="0 0 55.782 55.781" style="enable-background:new 0 0 55.782 55.781;"
	 xml:space="preserve">
<g>
	<g>
		<path d="M12.76,35.094L6.206,47.805c-1.311,4.448,2.946,7.977,6.581,7.977s8.102-3.465,6.581-7.977L12.76,35.094z"/>
		<path d="M49.254,20.05c-0.254-0.445-0.535-0.881-0.863-1.299v-0.01c-0.04-0.046-0.083-0.09-0.124-0.136
			c-2.04-2.263-4.837-4.012-6.594-4.98c-6.548-3.366-14.9-4.951-18.053-4.951c-8.504,0-15.423,6.73-15.423,15.002
			c0,0.168,0.033,0.327,0.049,0.49h9.901c0.016-0.164,0.049-0.322,0.049-0.49c0-2.758,2.433-5.002,5.423-5.002
			c4.79,0,14.893,3.643,16.771,5.975v24.518c0,2.763,2.237,5,5,5s5-2.237,5-5V24.14C50.391,22.664,49.972,21.304,49.254,20.05z"/>
		<polygon points="5.391,31.167 20.391,31.167 20.391,29.167 12.391,29.167 12.391,28.167 20.391,28.167 20.391,25.167 
			5.391,25.167 		"/>
		<path d="M42.518,7.54l0.936,0.328c-0.041,0.139-0.062,0.284-0.062,0.432v5.147c1.533,0.923,3.407,2.218,5,3.814V9.599V8.3V8.038
			l-0.027-0.012c-0.135-1.046-1.015-1.859-2.088-1.859h-0.349c-0.384,0-0.791,0.114-1.168,0.299l-1.114-0.482L29.823,0
			c0,0-1.68,0.993-1.257,2.648L42.518,7.54z"/>
	</g>
</g>
<g>
</g>
<g>
</g>
<g>
</g>
<g>
</g>
<g>
</g>
<g>
</g>
<g>
</g>
<g>
</g>
<g>
</g>
<g>
</g>
<g>
</g>
<g>
</g>
<g>
</g>
<g>
</g>
<g>
</g>
</svg>
