<?xml version="1.0" encoding="iso-8859-1"?>
<!-- Generator: Adobe Illustrator 16.0.0, SVG Export Plug-In . SVG Version: 6.00 Build 0)  -->
<!DOCTYPE svg PUBLIC "-//W3C//DTD SVG 1.1//EN" "http://www.w3.org/Graphics/SVG/1.1/DTD/svg11.dtd">
<svg version="1.1" id="Capa_1" xmlns="http://www.w3.org/2000/svg" xmlns:xlink="http://www.w3.org/1999/xlink" x="0px" y="0px"
	 width="60.245px" height="60.245px" viewBox="0 0 60.245 60.245" style="enable-background:new 0 0 60.245 60.245;"
	 xml:space="preserve">
<g>
	<path d="M60.245,20.337l-6.764,5.299l-2.341-2.988l6.764-5.298L60.245,20.337z M59.239,14.21c-2.312-3.23-6.877-4.07-10.106-1.757
		L24.094,29.881c-2.728,1.896-5.633,2.146-7.147,2.121c-0.088,1.416-3.3,1.935-5.474,1.935c-2.204,0-5.482-0.53-5.482-1.991
		c0-0.005,0.002-0.009,0.002-0.014H5.458c-9.232,5-3.957,17-3.957,17h16.306l0.01-0.032c-0.011,0.132-0.016,0.205-0.016,0.205
		L59.239,14.21z M6.97,28.328v3.021v0.583h0.051c-0.008,0.012-0.028,0.024-0.033,0.037c0.129,0.299,1.829,0.968,4.485,0.968
		c2.619,0,4.302-0.649,4.472-0.997c-0.036-0.005-0.057-0.008-0.057-0.008h0.082v-0.586v-3.031c-1.674,0.359-3.864,0.39-4.515,0.39
		C10.807,28.705,8.642,28.675,6.97,28.328z M16.957,26.932h0.013v-1.326v-4.51c-1.681,0.699-4.911,0.729-5.393,0.729
		c-0.504,0-4.025-0.033-5.607-0.841v4.601v1.347h0.014c-0.01,0.013-0.03,0.031-0.039,0.042c0.51,0.287,2.412,0.73,5.51,0.73
		c3.139,0,5.047-0.465,5.518-0.756C16.97,26.944,16.961,26.936,16.957,26.932z M16.888,20.049c-0.527-0.32-2.447-0.775-5.312-0.775
		c-2.855,0-4.766,0.456-5.285,0.775c0.52,0.319,2.43,0.775,5.285,0.775C14.441,20.824,16.361,20.37,16.888,20.049z"/>
</g>
<g>
</g>
<g>
</g>
<g>
</g>
<g>
</g>
<g>
</g>
<g>
</g>
<g>
</g>
<g>
</g>
<g>
</g>
<g>
</g>
<g>
</g>
<g>
</g>
<g>
</g>
<g>
</g>
<g>
</g>
</svg>
