<?xml version="1.0" encoding="iso-8859-1"?>
<!-- Generator: Adobe Illustrator 18.1.1, SVG Export Plug-In . SVG Version: 6.00 Build 0)  -->
<svg version="1.1" id="Capa_1" xmlns="http://www.w3.org/2000/svg" xmlns:xlink="http://www.w3.org/1999/xlink" x="0px" y="0px"
	 viewBox="0 0 313.533 313.533" style="enable-background:new 0 0 313.533 313.533;" xml:space="preserve">
<g>
	<g>
		<path style="fill:#010002;" d="M38.497,180.105v59.068c0,32.841,29.028,60.591,63.387,60.591h23.638
			c9.013,0,16.317-7.305,16.317-16.317V180.105h38.193l0.789,103.467c0.071,8.964,7.354,16.192,16.317,16.192h19.613
			c33.673,0,61.064-27.184,61.064-60.591v-59.068h19.401c6.598,0,12.553-3.976,15.072-10.073c2.529-6.097,1.131-13.114-3.535-17.78
			L179.847,23.324c-6.162-6.162-14.359-9.556-23.067-9.556c-8.724,0-16.915,3.399-23.083,9.562l-51.84,51.84
			c-0.794-11.248-10.079-20.163-21.533-20.163h-0.136c-11.982,0-21.691,9.709-21.691,21.686v38.209c0,1.186,0.163,2.241,0.348,3.285
			L4.78,152.252c-4.667,4.667-6.065,11.683-3.535,17.78c2.524,6.097,8.48,10.073,15.077,10.073H38.497z"/>
	</g>
</g>
<g>
</g>
<g>
</g>
<g>
</g>
<g>
</g>
<g>
</g>
<g>
</g>
<g>
</g>
<g>
</g>
<g>
</g>
<g>
</g>
<g>
</g>
<g>
</g>
<g>
</g>
<g>
</g>
<g>
</g>
</svg>
