<?xml version="1.0" encoding="iso-8859-1"?>
<!-- Generator: Adobe Illustrator 18.1.1, SVG Export Plug-In . SVG Version: 6.00 Build 0)  -->
<svg version="1.1" id="Capa_1" xmlns="http://www.w3.org/2000/svg" xmlns:xlink="http://www.w3.org/1999/xlink" x="0px" y="0px"
	 viewBox="0 0 316.945 316.945" style="enable-background:new 0 0 316.945 316.945;" xml:space="preserve">
<g>
	<g>
		<path style="fill:#010002;" d="M158.465,2.605L4.752,136.858c-4.471,4.221-5.967,10.862-3.715,16.529
			c2.094,5.26,7.087,8.659,12.727,8.659h25.868V314.34h59.83v-92.464h33.793l0.114,92.464h140.143V162.046h29.692
			c5.559,0,10.53-3.443,12.646-8.762c2.355-5.912,0.859-13.01-3.971-17.568L158.465,2.605z M251.756,140.29v152.294h-96.658
			l-0.114-92.464H77.706v92.464H61.389V140.29H33.883L158.509,31.443L283.971,140.29H251.756z"/>
		<path style="fill:#010002;" d="M235.439,140.29h-70.708v65.269h70.708V140.29z M213.682,183.802h-27.195v-21.756h27.195V183.802z"
			/>
	</g>
</g>
<g>
</g>
<g>
</g>
<g>
</g>
<g>
</g>
<g>
</g>
<g>
</g>
<g>
</g>
<g>
</g>
<g>
</g>
<g>
</g>
<g>
</g>
<g>
</g>
<g>
</g>
<g>
</g>
<g>
</g>
</svg>
