<?xml version="1.0" encoding="iso-8859-1"?>
<!-- Generator: Adobe Illustrator 16.0.0, SVG Export Plug-In . SVG Version: 6.00 Build 0)  -->
<!DOCTYPE svg PUBLIC "-//W3C//DTD SVG 1.1//EN" "http://www.w3.org/Graphics/SVG/1.1/DTD/svg11.dtd">
<svg version="1.1" id="Capa_1" xmlns="http://www.w3.org/2000/svg" xmlns:xlink="http://www.w3.org/1999/xlink" x="0px" y="0px"
	 width="51px" height="51px" viewBox="0 0 51 51" style="enable-background:new 0 0 51 51;" xml:space="preserve">
<g>
	<g>
		<path d="M19.001,2.5L19,1c-0.049-0.144-0.668-0.5-1.5-0.5s-1.451,0.356-1.501,0.512V2.5H19.001z"/>
		<path d="M49,12.5H22.203L23,41.986c0,1.393-1.122,2.514-2.5,2.514h-13C6.122,44.5,5,43.379,5,42l0.797-29.5H2
			c-1.657,0-2,1.343-2,3v32c0,1.657,1.343,3,3,3h45c1.657,0,3-1.343,3-3v-32C51,13.843,50.657,12.5,49,12.5z M40,42.5
			c0,1.105-0.895,2-2,2h-3c-1.105,0-2-0.895-2-2v-5h7V42.5z M40,35.5h-7v-10c0-1.105,0.895-2,2-2h3c1.105,0,2,0.895,2,2V35.5z"/>
		<path d="M7.5,43.5h13c0.827,0,1.5-0.673,1.5-1.5L21,5.014C21,4.173,20.327,3.5,19.5,3.5h-11C7.673,3.5,7,4.173,7,5L6,42.014
			C6,42.827,6.673,43.5,7.5,43.5z M14.106,33.908c-0.659,0-1.194-0.535-1.194-1.194s0.535-1.194,1.194-1.194
			c0.66,0,1.194,0.535,1.194,1.194S14.766,33.908,14.106,33.908z M14.106,29.814c-0.659,0-1.194-0.534-1.194-1.193
			c0-0.66,0.535-1.194,1.194-1.194c0.66,0,1.194,0.535,1.194,1.194S14.766,29.814,14.106,29.814z M14.106,25.721
			c-0.659,0-1.194-0.535-1.194-1.194c0-0.659,0.535-1.194,1.194-1.194c0.66,0,1.194,0.535,1.194,1.194
			C15.3,25.187,14.766,25.721,14.106,25.721z M19.019,33.908c-0.66,0-1.194-0.535-1.194-1.194s0.534-1.194,1.194-1.194
			c0.659,0,1.194,0.535,1.194,1.194S19.678,33.908,19.019,33.908z M19.019,29.908c-0.66,0-1.194-0.535-1.194-1.194
			s0.534-1.194,1.194-1.194c0.659,0,1.194,0.535,1.194,1.194S19.678,29.908,19.019,29.908z M20.213,24.527
			c0,0.66-0.535,1.194-1.194,1.194c-0.66,0-1.194-0.535-1.194-1.194c0-0.659,0.534-1.194,1.194-1.194
			C19.678,23.333,20.213,23.868,20.213,24.527z M8.621,6.427C8.619,5.84,9.513,5.5,10.354,5.5h6.794
			c1.086,0,1.735,0.326,1.735,0.871l0.615,7.014c0.002,0.657-0.914,1.115-1.733,1.115H9.736c-0.819,0-1.735-0.458-1.735-1.072
			L8.621,6.427z M9.194,23.333c0.66,0,1.194,0.535,1.194,1.194c0,0.66-0.535,1.194-1.194,1.194C8.535,25.721,8,25.186,8,24.527
			C8,23.868,8.535,23.333,9.194,23.333z M9.194,27.427c0.66,0,1.194,0.535,1.194,1.194s-0.535,1.193-1.194,1.193
			C8.535,29.814,8,29.28,8,28.621C8,27.961,8.535,27.427,9.194,27.427z M9.194,31.427c0.66,0,1.194,0.534,1.194,1.194
			c0,0.659-0.535,1.193-1.194,1.193C8.535,33.814,8,33.28,8,32.621C8,31.961,8.535,31.427,9.194,31.427z"/>
		<path d="M17.765,13.5c0.33,0,0.6-0.116,0.724-0.2L17.9,6.594C17.765,6.551,17.506,6.5,17.148,6.5h-6.794
			c-0.362,0-0.631,0.091-0.751,0.152l-0.589,6.649C9.139,13.385,9.407,13.5,9.736,13.5H17.765z"/>
	</g>
</g>
<g>
</g>
<g>
</g>
<g>
</g>
<g>
</g>
<g>
</g>
<g>
</g>
<g>
</g>
<g>
</g>
<g>
</g>
<g>
</g>
<g>
</g>
<g>
</g>
<g>
</g>
<g>
</g>
<g>
</g>
</svg>
