<?xml version="1.0" encoding="iso-8859-1"?>
<!-- Generator: Adobe Illustrator 18.1.1, SVG Export Plug-In . SVG Version: 6.00 Build 0)  -->
<svg version="1.1" id="Capa_1" xmlns="http://www.w3.org/2000/svg" xmlns:xlink="http://www.w3.org/1999/xlink" x="0px" y="0px"
	 viewBox="0 0 55.84 55.84" style="enable-background:new 0 0 55.84 55.84;" xml:space="preserve">
<g>
	<g>
		<path style="fill:#010002;" d="M53.654,26.816L47,20.162V14.92H34v16.393c0,7.861-4.896,14.07-11.286,14.56
			c1.621,5.276,5.89,9.047,11.22,9.047h0.265C41.023,54.92,47,48.744,47,41.126V32.83l0.32,0.32c2.525,2.525,5.604,2.771,7.35,1.025
			l0.066-0.066C56.482,32.361,56.18,29.341,53.654,26.816z"/>
		<path style="fill:#010002;" d="M46,10.886V9.954c0-1.123-0.911-2.034-2.035-2.034H34v5h9.966C45.089,12.92,46,12.009,46,10.886z"
			/>
		<path style="fill:#010002;" d="M33,31.313V6.92H9v3.267l-1,1l-5.815,5.815c-2.525,2.525-2.829,5.546-1.083,7.293l0.067,0.067
			C2.798,25.991,5.583,25.86,8,23.786c0.173-0.148,0.35-0.281,0.519-0.45L9,22.855v8.458c0,7.249,5.907,13.607,12.641,13.607h0.264
			C28.126,44.92,33,38.942,33,31.313z"/>
		<path style="fill:#010002;" d="M11.534,4.919h18.931c0.846,0,1.534-0.688,1.534-1.534V2.454c0-0.41-0.159-0.795-0.448-1.085
			c-0.29-0.289-0.675-0.449-1.085-0.449H11.534C10.688,0.92,10,1.608,10,2.454v0.931C10,4.231,10.688,4.919,11.534,4.919z"/>
	</g>
</g>
<g>
</g>
<g>
</g>
<g>
</g>
<g>
</g>
<g>
</g>
<g>
</g>
<g>
</g>
<g>
</g>
<g>
</g>
<g>
</g>
<g>
</g>
<g>
</g>
<g>
</g>
<g>
</g>
<g>
</g>
</svg>
