<?xml version="1.0" encoding="iso-8859-1"?>
<!-- Generator: Adobe Illustrator 18.1.1, SVG Export Plug-In . SVG Version: 6.00 Build 0)  -->
<svg version="1.1" id="Capa_1" xmlns="http://www.w3.org/2000/svg" xmlns:xlink="http://www.w3.org/1999/xlink" x="0px" y="0px"
	 viewBox="0 0 472.644 472.644" style="enable-background:new 0 0 472.644 472.644;" xml:space="preserve">
<g>
	<g>
		<path style="fill:#010002;" d="M318.759,142.664c0-22.191-18.062-40.253-40.253-40.253s-40.253,18.062-40.253,40.253
			s18.054,40.253,40.253,40.253S318.759,164.855,318.759,142.664z M278.507,166.66c-13.225,0-23.996-10.762-23.996-23.996
			s10.762-23.996,23.996-23.996s23.996,10.762,23.996,23.996S291.74,166.66,278.507,166.66z"/>
		<path style="fill:#010002;" d="M464.911,270.356l-107.037-52.039V67.475H199.139v84.017l-35.067-28.174
			c-6.592-5.3-17.582-5.438-24.313-0.309L5.72,225.17c-6.885,5.243-5.942,10.803-5.227,12.949c0.723,2.146,3.333,7.145,11.982,7.169
			l24.402,0.081c-0.065,0.593-0.179,1.171-0.179,1.788v140.803c0,9.486,7.722,17.208,17.208,17.208h60.59h68.394h16.257h44.333
			h0.593h39.212h74.612h54.356h21.394c9.486,0,17.208-7.722,17.208-17.208v-97.242c0-0.35-0.081-0.683-0.106-1.024l9.689,0.041
			h0.114c8.836,0,11.226-4.666,11.868-7.446C473.032,279.501,472.918,274.25,464.911,270.356z M357.874,388.912h-16.257h-42.098
			v-8.95h42.098h16.257h38.099v8.95H357.874z M215.396,388.912h-16.257h-16.257v-57.705h-68.394v57.705h-60.59
			c-0.52,0-0.951-0.423-0.951-0.951V247.157c0-0.52,0.423-0.951,0.951-0.951h145.241h16.257h28.076c0.52,0,0.951,0.423,0.951,0.951
			v13.372v11.526v1.455v7.137v8.177v0.951v98.193c0,0.406-0.293,0.691-0.65,0.829c-0.106,0.041-0.179,0.122-0.293,0.122h-16.534
			h-11.551V388.912z M130.745,388.912v-41.448h35.88v41.448H130.745z M153.887,135.991l45.244,36.367l16.257,13.063l55.323,44.455
			l-55.323-0.187l-16.257-0.057l-171.7-0.569l122.181-93.129C150.36,135.373,153.205,135.438,153.887,135.991z M395.973,367.769
			h-38.099h-16.257h-42.098v-21.833h42.098h16.257h38.099V367.769z M395.973,333.743h-38.099h-16.257h-42.098V311.91h42.098h16.257
			h38.099V333.743z M395.973,299.725h-38.099h-16.257h-42.098v-9.519h42.098h16.257h38.099V299.725z M357.874,273.047l-16.257-0.065
			l-80.944-0.333v-5.414l20.947-21.061l14.713-14.794l14.388-14.469c0.593-0.593,2.008-1.195,3.577-1.195
			c0.935,0,1.479,0.211,1.674,0.309l25.654,12.469l16.257,7.901l76.035,36.961L357.874,273.047z M215.396,83.732h126.229v126.684
			l-18.541-9.015c-7.397-3.585-18.11-1.748-23.882,4.048l-14.615,14.688l-69.19-55.591V83.732z M260.575,388.912
			c0.016-0.317,0.098-0.626,0.098-0.951v-98.193h22.597v99.144H260.575z M434.575,387.96c0,0.52-0.423,0.951-0.951,0.951H412.23
			v-99.144h21.394c0.528,0,0.951,0.415,0.951,0.951V387.96z M460.505,277.249l-0.024-3.544c0.016-0.008,0.033-0.016,0.049-0.024
			v3.585v4.324L460.505,277.249z"/>
		<path style="fill:#010002;" d="M68.928,316.429h57.193v-57.193H68.928V316.429z M85.185,275.494h24.678v24.678H85.185V275.494z"/>
		<path style="fill:#010002;" d="M199.139,259.236h-28.133v57.193h28.133h16.257h11.461h1.341v-32.36v-24.833h-12.803H199.139z
			 M211.934,300.172h-12.803h-11.876v-24.678h11.876h12.803V300.172z"/>
	</g>
</g>
<g>
</g>
<g>
</g>
<g>
</g>
<g>
</g>
<g>
</g>
<g>
</g>
<g>
</g>
<g>
</g>
<g>
</g>
<g>
</g>
<g>
</g>
<g>
</g>
<g>
</g>
<g>
</g>
<g>
</g>
</svg>
