<?xml version="1.0" encoding="iso-8859-1"?>
<!-- Generator: Adobe Illustrator 16.0.0, SVG Export Plug-In . SVG Version: 6.00 Build 0)  -->
<!DOCTYPE svg PUBLIC "-//W3C//DTD SVG 1.1//EN" "http://www.w3.org/Graphics/SVG/1.1/DTD/svg11.dtd">
<svg version="1.1" id="Capa_1" xmlns="http://www.w3.org/2000/svg" xmlns:xlink="http://www.w3.org/1999/xlink" x="0px" y="0px"
	 width="359.152px" height="359.152px" viewBox="0 0 359.152 359.152" style="enable-background:new 0 0 359.152 359.152;"
	 xml:space="preserve">
<g>
	<g>
		<path d="M31.489,194.384l7.575-7.548l22.458,149.268c0,6.232,5.17,11.289,11.553,11.289h216.95
			c6.383,0,11.553-5.057,11.553-11.289l21.93-145.743l4.372,4.233c3.578,3.471,8.208,5.2,12.832,5.2
			c4.815,0,9.625-1.873,13.24-5.614c7.092-7.32,6.905-18.993-0.408-26.085L203.31,22.562c-6.965-6.966-16.23-10.803-26.084-10.803
			c-9.851,0-19.11,3.837-26.084,10.803L5.404,168.299c-7.206,7.2-7.206,18.885,0,26.085C12.613,201.59,24.283,201.59,31.489,194.384
			z M181.356,271.558c-25.187,0-45.606-20.423-45.606-45.606c0-25.185,20.419-45.606,45.606-45.606
			c25.185,0,45.606,20.422,45.606,45.606C226.957,251.135,206.541,271.558,181.356,271.558z"/>
	</g>
</g>
<g>
</g>
<g>
</g>
<g>
</g>
<g>
</g>
<g>
</g>
<g>
</g>
<g>
</g>
<g>
</g>
<g>
</g>
<g>
</g>
<g>
</g>
<g>
</g>
<g>
</g>
<g>
</g>
<g>
</g>
</svg>
