<?xml version="1.0" encoding="iso-8859-1"?>
<!-- Generator: Adobe Illustrator 16.0.0, SVG Export Plug-In . SVG Version: 6.00 Build 0)  -->
<!DOCTYPE svg PUBLIC "-//W3C//DTD SVG 1.1//EN" "http://www.w3.org/Graphics/SVG/1.1/DTD/svg11.dtd">
<svg version="1.1" id="Capa_1" xmlns="http://www.w3.org/2000/svg" xmlns:xlink="http://www.w3.org/1999/xlink" x="0px" y="0px"
	 width="49px" height="49px" viewBox="0 0 49 49" style="enable-background:new 0 0 49 49;" xml:space="preserve">
<g>
	<g>
		<path d="M20.583,38.543v8.242c0,1.158,0.991,2.215,2.079,2.215h3.869c1.094,0,2.053-1.035,2.053-2.215v-8.273
			c-1.328,0.264-2.691,0.405-4.083,0.405C23.167,38.917,21.858,38.784,20.583,38.543z"/>
		<path d="M18.583,2c0-1.105-0.895-2-2-2h-2c-1.105,0-2,0.895-2,2v14h6V2z"/>
		<path d="M36.584,2c0-1.105-0.896-2-2-2h-2c-1.105,0-2,0.895-2,2v14h6V2z"/>
		<path d="M4.609,18C5.151,28.354,14.04,36.917,24.5,36.917c10.46,0,19.349-8.563,19.89-18.917H4.609z"/>
	</g>
</g>
<g>
</g>
<g>
</g>
<g>
</g>
<g>
</g>
<g>
</g>
<g>
</g>
<g>
</g>
<g>
</g>
<g>
</g>
<g>
</g>
<g>
</g>
<g>
</g>
<g>
</g>
<g>
</g>
<g>
</g>
</svg>
