<?xml version="1.0" encoding="iso-8859-1"?>
<!-- Generator: Adobe Illustrator 18.1.1, SVG Export Plug-In . SVG Version: 6.00 Build 0)  -->
<svg version="1.1" id="Capa_1" xmlns="http://www.w3.org/2000/svg" xmlns:xlink="http://www.w3.org/1999/xlink" x="0px" y="0px"
	 viewBox="0 0 54.221 54.221" style="enable-background:new 0 0 54.221 54.221;" xml:space="preserve">
<g>
	<g>
		<path style="fill:#010002;" d="M40,21.097v4.825c3.514-0.091,8.024-0.204,8.896,2.798c0.86,2.967-3.565,7.263-5.158,9.395
			c-2.908,3.891-8.727,11.661-2.111,15.132c2.834,1.487,5.598-2.683,2.746-4.179c-2.618-1.374,8.535-14.756,9.404-17.756
			C56.435,22.144,46.564,21.499,40,21.097z"/>
		<path style="fill:#010002;" d="M39,33.587V13.658C38.497,12.531,25.402,2.012,23.948,1.653L16,1.658v43h7.973
			C25.576,44.277,38.234,34.944,39,33.587z"/>
		<rect y="11.658" style="fill:#010002;" width="12" height="3"/>
		<rect y="31.658" style="fill:#010002;" width="12" height="3"/>
		<polygon style="fill:#010002;" points="15,35.658 15,30.658 15,15.658 15,10.658 15,0.658 13,0.658 13,2.658 13,42.658 13,45.658 
			15,45.658 		"/>
	</g>
</g>
<g>
</g>
<g>
</g>
<g>
</g>
<g>
</g>
<g>
</g>
<g>
</g>
<g>
</g>
<g>
</g>
<g>
</g>
<g>
</g>
<g>
</g>
<g>
</g>
<g>
</g>
<g>
</g>
<g>
</g>
</svg>
