<?xml version="1.0" encoding="iso-8859-1"?>
<!-- Generator: Adobe Illustrator 16.0.0, SVG Export Plug-In . SVG Version: 6.00 Build 0)  -->
<!DOCTYPE svg PUBLIC "-//W3C//DTD SVG 1.1//EN" "http://www.w3.org/Graphics/SVG/1.1/DTD/svg11.dtd">
<svg version="1.1" id="Capa_1" xmlns="http://www.w3.org/2000/svg" xmlns:xlink="http://www.w3.org/1999/xlink" x="0px" y="0px"
	 width="358.628px" height="358.628px" viewBox="0 0 358.628 358.628" style="enable-background:new 0 0 358.628 358.628;"
	 xml:space="preserve">
<g>
	<g>
		<path style="fill:#030303;" d="M339.868,121.428L339.868,121.428l-43.801-43.803l-43.806,43.803h-0.223v142.01h-2.928h-2.928
			v-142.01H145.492H19.03v142.01h-2.928h-2.928H0v17.565h283.001H311.3h47.328v-17.565h-18.761V121.428L339.868,121.428z
			 M297.154,126.328c7.816,0,14.152,10.487,14.152,23.421c0,12.934-6.336,23.421-14.152,23.421s-14.152-10.487-14.152-23.421
			C283.001,136.815,289.337,126.328,297.154,126.328z M203.47,154.564v79.598h-57.978h-3.502v-79.598h3.502H203.47z M57.089,154.564
			h61.48v79.598h-61.48V154.564z M283.001,263.438v-27.321c0-7.822,6.336-14.157,14.152-14.157s14.152,6.335,14.152,14.157v27.321
			H283.001z"/>
		<polygon style="fill:#030303;" points="19.03,110.472 246.183,110.472 278.856,77.631 51.597,77.631 		"/>
	</g>
</g>
<g>
</g>
<g>
</g>
<g>
</g>
<g>
</g>
<g>
</g>
<g>
</g>
<g>
</g>
<g>
</g>
<g>
</g>
<g>
</g>
<g>
</g>
<g>
</g>
<g>
</g>
<g>
</g>
<g>
</g>
</svg>
