<?xml version="1.0" encoding="iso-8859-1"?>
<!-- Generator: Adobe Illustrator 18.1.1, SVG Export Plug-In . SVG Version: 6.00 Build 0)  -->
<svg version="1.1" id="Capa_1" xmlns="http://www.w3.org/2000/svg" xmlns:xlink="http://www.w3.org/1999/xlink" x="0px" y="0px"
	 viewBox="0 0 54 54" style="enable-background:new 0 0 54 54;" xml:space="preserve">
<g>
	<g>
		<rect x="16.962" y="21" style="fill:#010002;" width="11" height="2"/>
		<path style="fill:#010002;" d="M50.462,0h-43c-1.378,0-2.5,1.122-2.5,2.5v15c0,1.378,1.122,2.5,2.5,2.5h28
			c1.93,0,3.5,1.57,3.5,3.5V33v10.5V54h11.5c1.379,0,2.5-1.121,2.5-2.5v-49C52.962,1.122,51.841,0,50.462,0z M29.024,10.25
			c-1.502,0-2.788-0.876-3.41-2.138l-0.732,0.126c-0.057,0.01-0.114,0.015-0.17,0.015c-0.478,0-0.901-0.344-0.984-0.831
			c-0.094-0.544,0.271-1.062,0.816-1.155l0.698-0.12c0.151-1.967,1.777-3.521,3.783-3.521c2.105,0,3.812,1.707,3.812,3.812
			S31.13,10.25,29.024,10.25z"/>
		<path style="fill:#010002;" d="M7.462,47c-1.378,0-2.5,1.121-2.5,2.5v2c0,1.379,1.122,2.5,2.5,2.5h30.5v-8.059
			C37.326,46.593,36.441,47,35.462,47H7.462z"/>
		<polygon style="fill:#010002;" points="15.962,27 23.726,27 24.156,28 24.309,28.356 26.389,28.351 26.51,28 26.856,27 28.962,27 
			28.962,24 15.962,24 		"/>
		<path style="fill:#010002;" d="M14.962,24.625L1.806,23.312c0,0-1.635,1.812-0.135,4.312l13.291-1.249V24.625z"/>
		<path style="fill:#010002;" d="M16.444,43.929c-2.413,0.185-3.982,0.479-3.982,0.81c0,0.559,4.435,1.012,9.906,1.012
			s9.906-0.453,9.906-1.012c0-0.331-1.569-0.625-3.983-0.81c1.081-0.834,1.87-1.913,2.443-3.136
			c4.395-0.197,5.868-2.088,5.868-4.395c0-2.015-1.128-3.712-4.343-4.24c0.014-0.753,0.015-1.48,0.015-2.158H12.462
			C12.462,34.427,12.467,40.857,16.444,43.929z M34.053,36.443c-0.022,1.25-0.081,2.098-2.599,2.396
			c0.431-1.529,0.635-3.169,0.731-4.762C34.003,34.48,34.073,35.336,34.053,36.443z"/>
	</g>
</g>
<g>
</g>
<g>
</g>
<g>
</g>
<g>
</g>
<g>
</g>
<g>
</g>
<g>
</g>
<g>
</g>
<g>
</g>
<g>
</g>
<g>
</g>
<g>
</g>
<g>
</g>
<g>
</g>
<g>
</g>
</svg>
