<?xml version="1.0" encoding="iso-8859-1"?>
<!-- Generator: Adobe Illustrator 18.1.1, SVG Export Plug-In . SVG Version: 6.00 Build 0)  -->
<svg version="1.1" id="Capa_1" xmlns="http://www.w3.org/2000/svg" xmlns:xlink="http://www.w3.org/1999/xlink" x="0px" y="0px"
	 viewBox="0 0 55 55" style="enable-background:new 0 0 55 55;" xml:space="preserve">
<g>
	<g>
		<path style="fill:#010002;" d="M10.169,42.239l-0.073-1.005c-1.279,0.025-1.51-0.452-1.577-1.237
			c-0.066-0.779,0.108-1.343,1.377-1.511L9.823,37.49c-1.699,0.124-2.324,1.238-2.228,2.55C7.691,41.352,8.47,42.363,10.169,42.239z
			"/>
		<path style="fill:#010002;" d="M16,47.25V46H0v4h17.22C16.475,49.314,16,48.34,16,47.25z"/>
		<path style="fill:#010002;" d="M12.54,16h-0.131C10.413,16,9,17.248,9,19.057v8.694c0,1.158,0.564,2.17,1.565,2.752
			c0.089,0.808,0.547,1.557,1.435,1.771V34c0,0.276,0.224,0.5,0.5,0.5S13,34.276,13,34v-1.712c0.912-0.197,1.346-0.962,1.436-1.785
			c0.998-0.581,1.561-1.589,1.564-2.744v-8.711C15.994,17.244,14.533,16,12.54,16z"/>
		<path style="fill:#010002;" d="M12.949,44.744c1.161,0,2.196,0.089,2.311-0.869l0.633-6.999C16.009,35.917,15.161,36,14,36h-2.103
			c-1.161,0-2.008-0.083-1.893,0.876l0.633,7.005C10.753,44.839,11.788,44.744,12.949,44.744z"/>
		<path style="fill:#010002;" d="M52.25,5h-32.5C18.233,5,17,6.233,17,7.75v39.5c0,1.517,1.233,2.75,2.75,2.75H22h30.25
			c1.517,0,2.75-1.233,2.75-2.75V7.75C55,6.233,53.767,5,52.25,5z M37.124,25.25c0.087,1.288-1.914,1.28-2,0
			c-0.312-4.637,1.472-9.228-0.214-13.734c-0.452-1.211,1.48-1.729,1.929-0.532C38.602,15.694,36.799,20.412,37.124,25.25z
			 M42.124,25.25c0.087,1.288-1.914,1.28-2,0c-0.312-4.637,1.472-9.228-0.214-13.734c-0.452-1.211,1.48-1.729,1.929-0.532
			C43.602,15.694,41.799,20.412,42.124,25.25z M47.124,25.25c0.087,1.288-1.914,1.28-2,0c-0.312-4.637,1.472-9.228-0.214-13.734
			c-0.452-1.211,1.48-1.729,1.929-0.532C48.602,15.694,46.799,20.412,47.124,25.25z"/>
	</g>
</g>
<g>
</g>
<g>
</g>
<g>
</g>
<g>
</g>
<g>
</g>
<g>
</g>
<g>
</g>
<g>
</g>
<g>
</g>
<g>
</g>
<g>
</g>
<g>
</g>
<g>
</g>
<g>
</g>
<g>
</g>
</svg>
