<?xml version="1.0" encoding="iso-8859-1"?>
<!-- Generator: Adobe Illustrator 18.1.1, SVG Export Plug-In . SVG Version: 6.00 Build 0)  -->
<svg version="1.1" id="Capa_1" xmlns="http://www.w3.org/2000/svg" xmlns:xlink="http://www.w3.org/1999/xlink" x="0px" y="0px"
	 viewBox="0 0 45.174 45.174" style="enable-background:new 0 0 45.174 45.174;" xml:space="preserve">
<g>
	<g>
		<path style="fill:#010002;" d="M29.245,7.917v6.607c3.926,2.298,6.575,6.549,6.575,11.417c0,7.298-5.937,13.233-13.233,13.233
			S9.354,33.238,9.354,25.941c0-5,2.789-9.359,6.891-11.609V7.801c-7.501,2.623-12.891,9.744-12.891,18.14
			c0,10.623,8.611,19.233,19.233,19.233s19.233-8.61,19.233-19.233C41.82,17.664,36.581,10.629,29.245,7.917z"/>
		<path style="fill:#010002;" d="M20.245,22.146c0,1.264,0.926,1.854,2.19,1.854h0.589c1.264,0,2.221-0.59,2.221-1.854V2.364
			C25.245,1.1,24.288,0,23.024,0h-0.589c-1.264,0-2.19,1.1-2.19,2.364V22.146z"/>
	</g>
</g>
<g>
</g>
<g>
</g>
<g>
</g>
<g>
</g>
<g>
</g>
<g>
</g>
<g>
</g>
<g>
</g>
<g>
</g>
<g>
</g>
<g>
</g>
<g>
</g>
<g>
</g>
<g>
</g>
<g>
</g>
</svg>
