<?xml version="1.0" encoding="iso-8859-1"?>
<!-- Generator: Adobe Illustrator 18.1.1, SVG Export Plug-In . SVG Version: 6.00 Build 0)  -->
<svg version="1.1" id="Capa_1" xmlns="http://www.w3.org/2000/svg" xmlns:xlink="http://www.w3.org/1999/xlink" x="0px" y="0px"
	 viewBox="0 0 53 53" style="enable-background:new 0 0 53 53;" xml:space="preserve">
<g>
	<g>
		<path style="fill:#010002;" d="M0.5,0v53h52V0H0.5z M3.5,3h45v11h-45V3z M3.5,17h45v11h-45V17z M49.5,49h-15h-2h-29V31h29h2h15V49
			z"/>
		<path style="fill:#010002;" d="M4.5,48h28V32h-28V48z M27.5,37c0-0.553,0.447-1,1-1s1,0.447,1,1v6c0,0.553-0.447,1-1,1
			s-1-0.447-1-1V37z"/>
		<path style="fill:#010002;" d="M33.5,48h15V32h-15V48z M36.5,37c0-0.553,0.447-1,1-1s1,0.447,1,1v6c0,0.553-0.447,1-1,1
			s-1-0.447-1-1V37z"/>
		<path style="fill:#010002;" d="M13.32,12.937c5.955,0,5.956-3.747,5.956-6.937H7.365C7.365,9.19,7.365,12.937,13.32,12.937z"/>
		<path style="fill:#010002;" d="M39.32,26.937c5.955,0,5.955-3.747,5.955-6.937h-11.91C33.365,23.19,33.365,26.937,39.32,26.937z"
			/>
		<path style="fill:#010002;" d="M12.271,20.629c-1.419,0-2.295,0.292-2.581,0.478c0.286,0.19,1.17,0.494,2.577,0.5l0.038,0.5v-0.5
			c1.322,0,2.257-0.275,2.561-0.478C14.56,20.92,13.613,20.634,12.271,20.629L12.271,20.629z"/>
		<path style="fill:#010002;" d="M12.305,22.606h-0.042c-0.711-0.003-1.675-0.098-2.436-0.353l0.469,4.232h0.017
			c0.083,0.471,0.962,0.843,2.046,0.843c1.139,0,2.062-0.409,2.062-0.914c0-0.018-0.01-0.035-0.012-0.052l0.413-4.131
			C14.051,22.506,13.042,22.606,12.305,22.606z"/>
		<path style="fill:#010002;" d="M23.305,22.606h-0.042c-0.711-0.003-1.675-0.098-2.436-0.353l0.469,4.232h0.017
			c0.083,0.471,0.962,0.843,2.046,0.843c1.139,0,2.062-0.409,2.062-0.914c0-0.018-0.01-0.035-0.012-0.052l0.413-4.131
			C25.051,22.506,24.042,22.606,23.305,22.606z"/>
		<path style="fill:#010002;" d="M23.271,20.629c-1.419,0-2.295,0.292-2.581,0.478c0.286,0.19,1.17,0.494,2.577,0.5l0.038,0.5v-0.5
			c1.322,0,2.257-0.275,2.561-0.478C25.56,20.92,24.613,20.634,23.271,20.629L23.271,20.629z"/>
		<path style="fill:#010002;" d="M39.811,7.527C39.855,6.944,39.858,6.408,39.858,6h-8.584c0,1.534,0.001,4.814,2.319,5.98
			c-1.372,0.09-2.319,0.269-2.319,0.477c0,0.298,1.922,0.54,4.291,0.54c2.371,0,4.293-0.242,4.293-0.54
			c0-0.208-0.946-0.387-2.318-0.477c0.499-0.25,0.886-0.603,1.193-1.011c1.827-0.063,2.644-0.835,2.644-1.789
			C41.376,8.438,40.888,7.803,39.811,7.527z M40.469,9.181c-0.01,0.515,0.015,0.877-1.271,0.998
			c0.279-0.607,0.445-1.272,0.536-1.918C40.479,8.431,40.478,8.754,40.469,9.181z"/>
	</g>
</g>
<g>
</g>
<g>
</g>
<g>
</g>
<g>
</g>
<g>
</g>
<g>
</g>
<g>
</g>
<g>
</g>
<g>
</g>
<g>
</g>
<g>
</g>
<g>
</g>
<g>
</g>
<g>
</g>
<g>
</g>
</svg>
