<?xml version="1.0" encoding="iso-8859-1"?>
<!-- Generator: Adobe Illustrator 16.0.0, SVG Export Plug-In . SVG Version: 6.00 Build 0)  -->
<!DOCTYPE svg PUBLIC "-//W3C//DTD SVG 1.1//EN" "http://www.w3.org/Graphics/SVG/1.1/DTD/svg11.dtd">
<svg version="1.1" id="Capa_1" xmlns="http://www.w3.org/2000/svg" xmlns:xlink="http://www.w3.org/1999/xlink" x="0px" y="0px"
	 width="55.094px" height="55.094px" viewBox="0 0 55.094 55.094" style="enable-background:new 0 0 55.094 55.094;"
	 xml:space="preserve">
<g>
	<g>
		<path d="M50,13.386V6.268c0-1.105-0.895-2-2-2H2c-1.105,0-2,0.895-2,2v30c0,1.105,0.895,2,2,2h29.79l-1.045-1.214l0.345-0.786H2
			v-30h45v30h-4.725c0.406,0.691,0.767,1.355,1.091,2H48c1.105,0,2-0.895,2-2v-6.203c2.27-3.186,5.157-2.838,5.093-8.124
			C55.023,16.11,51.88,17.118,50,13.386z M52.917,23.268c-0.599,0-1.083-0.484-1.083-1.083c0-0.598,0.484-1.083,1.083-1.083
			S54,21.586,54,22.185C54,22.784,53.516,23.268,52.917,23.268z"/>
		<path d="M34.293,38.268h0.33c-0.075-0.021-0.139-0.029-0.188-0.029S34.339,38.252,34.293,38.268z"/>
		<path d="M29.016,35.268h2.514l3.64-8.303l0.519,0.568c2.572,2.823,4.516,5.402,5.979,7.733H46V7.268H3v28h24.252l-14.02-17.118
			c0,0-1.739-4.427-1.029-10.024L33.93,27.521l-2.926,6.881L29.016,35.268z"/>
		<path d="M31.913,36.877l1.073,1.248c0.304-0.467,0.781-0.888,1.449-0.888c1.154,0,2.424,1.279,3.881,3.912
			c2.951,5.33,3.641,7.763,2.367,9.677l3.785-0.66c0.456-1.357,2.19-8.815-9.007-21.385L31.913,36.877z M42.939,46.606
			c0.463,0,0.838,0.376,0.838,0.838c0,0.464-0.375,0.839-0.838,0.839s-0.838-0.375-0.838-0.839
			C42.102,46.982,42.477,46.606,42.939,46.606z M40.451,39.6c0.463,0,0.838,0.375,0.838,0.838s-0.375,0.838-0.838,0.838
			s-0.838-0.375-0.838-0.838S39.988,39.6,40.451,39.6z M36.738,33.847c0,0.463-0.375,0.838-0.838,0.838s-0.838-0.375-0.838-0.838
			s0.375-0.838,0.838-0.838S36.738,33.384,36.738,33.847z"/>
	</g>
</g>
<g>
</g>
<g>
</g>
<g>
</g>
<g>
</g>
<g>
</g>
<g>
</g>
<g>
</g>
<g>
</g>
<g>
</g>
<g>
</g>
<g>
</g>
<g>
</g>
<g>
</g>
<g>
</g>
<g>
</g>
</svg>
