<?xml version="1.0" encoding="iso-8859-1"?>
<!-- Generator: Adobe Illustrator 18.1.1, SVG Export Plug-In . SVG Version: 6.00 Build 0)  -->
<svg version="1.1" id="Capa_1" xmlns="http://www.w3.org/2000/svg" xmlns:xlink="http://www.w3.org/1999/xlink" x="0px" y="0px"
	 viewBox="0 0 60.417 60.417" style="enable-background:new 0 0 60.417 60.417;" xml:space="preserve">
<g>
	<g>
		<path style="fill:#010002;" d="M0,12.241v5.181c0.613,0.569,3.664,2.698,4.245,2.998H8v-10H4.152
			C3.843,10.502,0.755,11.795,0,12.241z"/>
		<path style="fill:#010002;" d="M11.495,10.42H9v10h2.478c0.163-0.125,0.481-0.52,0.532-0.669L12,10.908
			C11.959,10.855,11.65,10.521,11.495,10.42z"/>
		<path style="fill:#010002;" d="M49.493,36.686c0.558-5.08-1.474-5.659-1.495-5.665l-2.356-0.498l0.124,0.227
			c1.924,0.94,1.76,4.243,1.613,5.545L49.493,36.686z"/>
		<path style="fill:#010002;" d="M56.979,9.42h-6.5c-0.79-0.571-1.45-1-1.621-1H39.8c-0.172,0-1.027,0.429-2.072,1h-2.812
			c-1.289-0.985-2.748-2-3.018-2H22.84c-0.259,0-1.821,0.94-3.264,1.89c-5.096-0.154-5.209,1.418-5.209,1.418
			c0.022,0.689,0.076,1.342,0.152,1.966L13,13.767v2.888l2.607,0.374c2.124,5.336,6.211,6.893,6.434,6.974l0.028,0.089l19.374,2.731
			l1.559,0.22c0.604,0.707,1.185,1.522,1.601,2.237l3.611,0.764c0.124,0.025,3.105,0.715,2.206,7.297l-0.07,0.52l-1.15-0.213
			c-0.043,0.405-0.097,0.829-0.168,1.283c-0.289,1.846-0.474,3.577-0.636,5.104c-0.401,3.771-0.666,6.261-2.065,7.06
			c-0.407,0.232-0.568,0.371-0.632,0.441c0.055,0.054,0.178,0.152,0.443,0.294l1.57,0.834c0.386,0.205,1.118,0.332,1.909,0.332
			c0,0,0,0,0.001,0c1.084,0,2.042-0.236,2.384-0.588c2.585-2.659,6.192-11.546,5.534-25.124c-0.006-0.107-0.045-0.205-0.104-0.296
			l-0.022-1.271L57.211,14.53c0.363-1.764,1.557-1.824,1.557-1.824l1.649-2.261C60.188,9.316,56.979,9.42,56.979,9.42z
			 M30.243,20.683c-2.319-1.5-6.624-4.256-6.157-6.219s4.441-2.699,7.127-2.06C31.214,12.404,31.667,21.605,30.243,20.683z
			 M50.6,12.374c0.969,0.548,2.36,2.136,3.277,6.655c0.329,1.623,0.053,2.978-0.469,2.978c-0.52,0-0.924-1.371-1.096-3.037
			c-0.211-2.034-0.709-4.594-1.869-6.042C49.984,12.357,50.023,12.049,50.6,12.374z M46.208,12.374
			c0.968,0.552,2.36,2.149,3.276,6.693c0.33,1.632,0.053,2.994-0.469,2.994c-0.52,0-0.923-1.379-1.096-3.054
			c-0.211-2.045-0.708-4.62-1.869-6.076C45.593,12.356,45.632,12.047,46.208,12.374z M41.659,12.936
			c-0.458-0.578-0.419-0.889,0.157-0.56c0.968,0.553,2.359,2.16,3.276,6.729c0.329,1.641,0.052,3.011-0.469,3.011
			s-0.923-1.386-1.097-3.071C43.316,16.989,42.82,14.399,41.659,12.936z M54.338,38.052c-0.729,0-1.318-0.591-1.318-1.319
			c0-0.728,0.59-1.318,1.318-1.318s1.319,0.59,1.319,1.318C55.657,37.461,55.066,38.052,54.338,38.052z"/>
	</g>
</g>
<g>
</g>
<g>
</g>
<g>
</g>
<g>
</g>
<g>
</g>
<g>
</g>
<g>
</g>
<g>
</g>
<g>
</g>
<g>
</g>
<g>
</g>
<g>
</g>
<g>
</g>
<g>
</g>
<g>
</g>
</svg>
