<?xml version="1.0" encoding="iso-8859-1"?>
<!-- Generator: Adobe Illustrator 16.0.0, SVG Export Plug-In . SVG Version: 6.00 Build 0)  -->
<!DOCTYPE svg PUBLIC "-//W3C//DTD SVG 1.1//EN" "http://www.w3.org/Graphics/SVG/1.1/DTD/svg11.dtd">
<svg version="1.1" id="Capa_1" xmlns="http://www.w3.org/2000/svg" xmlns:xlink="http://www.w3.org/1999/xlink" x="0px" y="0px"
	 width="58.405px" height="58.405px" viewBox="0 0 58.405 58.405" style="enable-background:new 0 0 58.405 58.405;"
	 xml:space="preserve">
<g>
	<path d="M43.393,49.072H0l1.033-2h43.393L43.393,49.072z M56.449,9.807c-3.062,4.672-9.258,5.676-12.137,10.509
		c-0.688,0.154-1.06,0.731-1.114,1.345c-1.12,0.007-2.423,0.099-3.938,0.099C26.136,21.759,2.066,38.072,2.066,45.072h42.36
		c0-6,5.182-3.743,5.206-5.359c0.218-14.55,1.072-17.423-3.454-17.92c-0.005-0.142-0.031-0.297-0.07-0.433
		c2.814-4.69,9.062-5.826,12.125-10.501C58.966,9.74,57.176,8.697,56.449,9.807z M33.482,37.581c0.77,0.629,1.242,1.349,1.242,1.999
		c0,1.599-2.445,1.599-5.034,1.599H27.52c-1.255,0-2.455-0.013-3.323-0.168c-1.077-0.191-1.632-0.645-1.688-1.327
		c-2.499-0.104-4.247-0.787-4.63-2.026c-0.756-2.439,4.048-6.096,10.73-8.167c6.683-2.071,12.711-1.772,13.468,0.667
		C42.751,32.327,39.018,35.458,33.482,37.581z M22.988,39.58c0,1.178,2.515,1.098,5.618,1.098s5.619,0.08,5.619-1.098
		c0-1.177-2.516-3.164-5.619-3.164S22.988,38.403,22.988,39.58z"/>
</g>
<g>
</g>
<g>
</g>
<g>
</g>
<g>
</g>
<g>
</g>
<g>
</g>
<g>
</g>
<g>
</g>
<g>
</g>
<g>
</g>
<g>
</g>
<g>
</g>
<g>
</g>
<g>
</g>
<g>
</g>
</svg>
