<?xml version="1.0" encoding="iso-8859-1"?>
<!-- Generator: Adobe Illustrator 18.1.1, SVG Export Plug-In . SVG Version: 6.00 Build 0)  -->
<svg version="1.1" id="Capa_1" xmlns="http://www.w3.org/2000/svg" xmlns:xlink="http://www.w3.org/1999/xlink" x="0px" y="0px"
	 viewBox="0 0 54.239 54.239" style="enable-background:new 0 0 54.239 54.239;" xml:space="preserve">
<g>
	<g>
		<path style="fill:#010002;" d="M4.965,33.239c-1.318-3.001-2.055-6.312-2.055-9.795c0-0.744,0.039-1.478,0.104-2.205H1.413v12
			h0.816H4.965z"/>
		<path style="fill:#010002;" d="M49.743,33.239h2.67v-12h-0.72c0.065,0.727,0.104,1.461,0.104,2.205
			C51.798,26.927,51.06,30.238,49.743,33.239z"/>
		<path style="fill:#010002;" d="M52.826,54.239l-1.205-20h-2.345c-3.994,8.078-12.318,13.648-21.923,13.648
			S9.424,42.317,5.43,34.239H3.171l-1.207,20h5.449v-3h40v3H52.826z"/>
		<path style="fill:#010002;" d="M27.354,46.887c12.927,0,23.444-10.517,23.444-23.443C50.798,10.517,40.281,0,27.354,0
			S3.91,10.517,3.91,23.444C3.91,36.371,14.427,46.887,27.354,46.887z M27.25,1.79c11.901,0,21.55,9.648,21.55,21.55
			S39.15,44.889,27.25,44.889c-11.902,0-21.55-9.647-21.55-21.549S15.347,1.79,27.25,1.79z"/>
		<path style="fill:#010002;" d="M25.078,18.098L12.635,9.499c-2.265,1.872-2.845,4.718-2.845,4.718l11.796,8.786
			C21.677,20.77,23.097,18.878,25.078,18.098z"/>
		<path style="fill:#010002;" d="M24.778,28.228l0.444,14.852c2.785,0.733,5.361-0.427,5.361-0.427l0.083-15.232
			c-0.964,0.823-2.211,1.323-3.575,1.323C26.264,28.744,25.482,28.556,24.778,28.228z"/>
		<path style="fill:#010002;" d="M32.581,22.748l12.153-9.292c-1.03-2.69-3.475-4.105-3.475-4.105l-12.264,8.707
			C30.956,18.784,32.394,20.587,32.581,22.748z"/>
		<path style="fill:#010002;" d="M22.575,23.228c0,2.49,2.026,4.516,4.516,4.516s4.515-2.026,4.515-4.516s-2.025-4.516-4.515-4.516
			C24.601,18.712,22.575,20.738,22.575,23.228z"/>
	</g>
</g>
<g>
</g>
<g>
</g>
<g>
</g>
<g>
</g>
<g>
</g>
<g>
</g>
<g>
</g>
<g>
</g>
<g>
</g>
<g>
</g>
<g>
</g>
<g>
</g>
<g>
</g>
<g>
</g>
<g>
</g>
</svg>
