<?xml version="1.0" encoding="iso-8859-1"?>
<!-- Generator: Adobe Illustrator 18.1.1, SVG Export Plug-In . SVG Version: 6.00 Build 0)  -->
<svg version="1.1" id="Capa_1" xmlns="http://www.w3.org/2000/svg" xmlns:xlink="http://www.w3.org/1999/xlink" x="0px" y="0px"
	 viewBox="0 0 59.687 59.687" style="enable-background:new 0 0 59.687 59.687;" xml:space="preserve">
<g>
	<g>
		<path style="fill:#010002;" d="M37.094,33.579l-1.804-0.685l-0.868,25.604c0,0.576,3.012,1.189,4.427,1.189h0.631
			c1.416,0,4.428-0.613,4.428-1.189l-0.927-27.324L37.094,33.579z M39.256,55.816c-0.786,0-1.423-0.638-1.423-1.423
			c0-0.786,0.637-1.423,1.423-1.423s1.423,0.637,1.423,1.423C40.679,55.178,40.042,55.816,39.256,55.816z M39.256,40.049
			c-0.786,0-1.423-0.637-1.423-1.424c0-0.785,0.637-1.422,1.423-1.422s1.423,0.637,1.423,1.422
			C40.679,39.413,40.042,40.049,39.256,40.049z"/>
		<path style="fill:#010002;" d="M27.821,12.5c0-8.022-0.476-10.391-2.334-11.087l-0.219,10.362c0,0.498-0.367,0.912-0.818,0.912
			h-0.289c-0.451,0-0.818-0.414-0.818-0.923l-0.844-10.64c-0.227,0-0.46,0.001-0.706,0.001c-0.426,0-0.819,0.003-1.187,0.012
			l-0.843,10.666c0.001,0.469-0.365,0.883-0.816,0.883h-0.289c-0.451,0-0.818-0.414-0.818-0.923L17.625,1.662
			c-1.857,0.998-1.86,3.835-1.86,11.854c0,2.184,0.392,3.915,1.318,5.11c0.296,0.65,0.648,1.419,1.021,2.224
			c0.575,1.244,1.195,2.565,1.737,3.681l-0.852,32.735c0,0.771,1.642,1.422,2.414,1.422h1.271c0.772,0,2.414-0.718,2.414-1.49
			l-0.864-33.106l1.977-5.163l0.335-0.876C27.437,16.611,27.821,14.657,27.821,12.5z"/>
		<path style="fill:#010002;" d="M37.08,32.504l6.841-2.795L41.111,0c-3.698,3.21-5.405,6.936-5.647,7.492l-1.507,23.826
			L37.08,32.504z"/>
	</g>
</g>
<g>
</g>
<g>
</g>
<g>
</g>
<g>
</g>
<g>
</g>
<g>
</g>
<g>
</g>
<g>
</g>
<g>
</g>
<g>
</g>
<g>
</g>
<g>
</g>
<g>
</g>
<g>
</g>
<g>
</g>
</svg>
