<?xml version="1.0" encoding="iso-8859-1"?>
<!-- Generator: Adobe Illustrator 16.0.0, SVG Export Plug-In . SVG Version: 6.00 Build 0)  -->
<!DOCTYPE svg PUBLIC "-//W3C//DTD SVG 1.1//EN" "http://www.w3.org/Graphics/SVG/1.1/DTD/svg11.dtd">
<svg version="1.1" id="Capa_1" xmlns="http://www.w3.org/2000/svg" xmlns:xlink="http://www.w3.org/1999/xlink" x="0px" y="0px"
	 width="57px" height="57px" viewBox="0 0 57 57" style="enable-background:new 0 0 57 57;" xml:space="preserve">
<g>
	<g>
		<polygon points="46.5,57 46.395,55 10.605,55 10.5,57 		"/>
		<path d="M43.5,0h-30l-2.842,54h35.684L43.5,0z M21.054,44.417C20.912,42.492,19.978,41,18.833,41s-2.079,1.492-2.221,3.417
			c-0.012-0.165-0.029-0.329-0.029-0.5c0-2.163,1.007-3.917,2.25-3.917s2.25,1.754,2.25,3.917
			C21.083,44.088,21.066,44.252,21.054,44.417z M21.054,37.417C20.912,35.492,19.978,34,18.833,34s-2.079,1.492-2.221,3.417
			c-0.012-0.165-0.029-0.329-0.029-0.5c0-2.163,1.007-3.917,2.25-3.917s2.25,1.754,2.25,3.917
			C21.083,37.088,21.066,37.252,21.054,37.417z M21.054,30.417C20.912,28.493,19.978,27,18.833,27s-2.079,1.493-2.221,3.417
			c-0.012-0.165-0.029-0.329-0.029-0.5c0-2.163,1.007-3.917,2.25-3.917s2.25,1.754,2.25,3.917
			C21.083,30.088,21.066,30.252,21.054,30.417z M26.054,23.417C25.912,21.493,24.978,20,23.833,20s-2.079,1.493-2.221,3.417
			c-0.012-0.166-0.029-0.329-0.029-0.5c0-2.163,1.007-3.917,2.25-3.917s2.25,1.754,2.25,3.917
			C26.083,23.088,26.066,23.251,26.054,23.417z M31.055,44.417C30.912,42.492,29.979,41,28.833,41c-1.145,0-2.079,1.492-2.221,3.417
			c-0.012-0.165-0.029-0.329-0.029-0.5c0-2.163,1.007-3.917,2.25-3.917s2.25,1.754,2.25,3.917
			C31.083,44.088,31.066,44.252,31.055,44.417z M31.055,37.417C30.912,35.492,29.979,34,28.833,34c-1.145,0-2.079,1.492-2.221,3.417
			c-0.012-0.165-0.029-0.329-0.029-0.5c0-2.163,1.007-3.917,2.25-3.917s2.25,1.754,2.25,3.917
			C31.083,37.088,31.066,37.252,31.055,37.417z M31.055,30.417C30.912,28.493,29.979,27,28.833,27c-1.145,0-2.079,1.493-2.221,3.417
			c-0.012-0.165-0.029-0.329-0.029-0.5c0-2.163,1.007-3.917,2.25-3.917s2.25,1.754,2.25,3.917
			C31.083,30.088,31.066,30.252,31.055,30.417z M36.055,23.417C35.912,21.493,34.979,20,33.833,20s-2.079,1.493-2.222,3.417
			c-0.012-0.166-0.028-0.329-0.028-0.5c0-2.163,1.007-3.917,2.25-3.917s2.25,1.754,2.25,3.917
			C36.083,23.088,36.066,23.251,36.055,23.417z M41.055,44.417C40.912,42.492,39.979,41,38.833,41s-2.079,1.492-2.222,3.417
			c-0.012-0.165-0.028-0.329-0.028-0.5c0-2.163,1.007-3.917,2.25-3.917s2.25,1.754,2.25,3.917
			C41.083,44.088,41.066,44.252,41.055,44.417z M41.055,37.417C40.912,35.492,39.979,34,38.833,34s-2.079,1.492-2.222,3.417
			c-0.012-0.165-0.028-0.329-0.028-0.5c0-2.163,1.007-3.917,2.25-3.917s2.25,1.754,2.25,3.917
			C41.083,37.088,41.066,37.252,41.055,37.417z M41.055,30.417C40.912,28.493,39.979,27,38.833,27s-2.079,1.493-2.222,3.417
			c-0.012-0.165-0.028-0.329-0.028-0.5c0-2.163,1.007-3.917,2.25-3.917s2.25,1.754,2.25,3.917
			C41.083,30.088,41.066,30.252,41.055,30.417z M15,14l0.5-12h26.188l0.375,12H15z"/>
	</g>
</g>
<g>
</g>
<g>
</g>
<g>
</g>
<g>
</g>
<g>
</g>
<g>
</g>
<g>
</g>
<g>
</g>
<g>
</g>
<g>
</g>
<g>
</g>
<g>
</g>
<g>
</g>
<g>
</g>
<g>
</g>
</svg>
