<?xml version="1.0" encoding="iso-8859-1"?>
<!-- Generator: Adobe Illustrator 18.1.1, SVG Export Plug-In . SVG Version: 6.00 Build 0)  -->
<svg version="1.1" id="Capa_1" xmlns="http://www.w3.org/2000/svg" xmlns:xlink="http://www.w3.org/1999/xlink" x="0px" y="0px"
	 viewBox="0 0 491.592 491.592" style="enable-background:new 0 0 491.592 491.592;" xml:space="preserve">
<g>
	<g>
		<path style="fill:#010002;" d="M296.457,438.049c-9.811,2.333-29.946,6.251-54.486,6.251s-44.667-3.918-54.486-6.251
			c-18.403-4.381-24.703-8.25-26.873-11.526h-25.077c0,11.851,47.008,27.946,104.997,27.946s104.997-16.095,104.997-27.946H323.33
			C321.16,429.807,314.86,433.676,296.457,438.049z"/>
		<path style="fill:#010002;" d="M491.592,97.543C491.592,43.675,447.917,0,394.049,0H97.543C43.675,0,0,43.675,0,97.543v296.506
			c0,53.868,43.675,97.543,97.543,97.543h296.506c53.868,0,97.543-43.675,97.543-97.543V97.543z M431.985,207.238
			c-2.78,2.682-7.096,4.024-10.681,4.024c-3.755,0-8.958-1.479-11.778-4.389l-3.585-3.381l-0.122,212.871
			c0,8.974-1.496,10.161-10.478,10.161h-25.426c0,27.832-36.392,38.375-48.357,41.838c-23.353,6.763-52.129,10.486-81.026,10.486
			c-28.905,0-57.68-3.723-81.026-10.486c-11.957-3.463-48.357-14.006-48.357-41.838H94.576c-8.974,0-13.908-1.187-13.908-10.161
			V208.701c0,3.845-19.305,8.137-24.638-0.374c-4.211-6.714-1.959-15.908,3.625-21.524L223.357,21.484
			c6.324-6.324,13.843-10.079,22.524-10.624c9.51-0.52,16.94,2.731,23.54,9.34l30.726,34.863l0.122-30.523
			c0-8.974,5.796-12.29,14.77-12.29l64.045-0.284c8.974,0,10.478,5.251,10.478,14.225v117.864c0,1.122,1.276,2.203,2.406,3.251
			l39.31,39.651C436.773,192.655,437.691,201.743,431.985,207.238z"/>
		<polygon style="fill:#010002;" points="357.048,36.351 332.662,36.351 332.662,80.424 357.048,104.81 		"/>
		<path style="fill:#010002;" d="M232.412,243.914v-21.11h-21.118C214.155,233.046,222.17,241.061,232.412,243.914z"/>
		<path style="fill:#010002;" d="M176.593,426.523c12.607,4.316,37.156,9.657,65.386,9.657s52.779-5.34,65.386-9.657h-17.688
			h-89.414H176.593z"/>
		<path style="fill:#010002;" d="M248.669,185.429v21.11h21.11C266.918,196.305,258.911,188.29,248.669,185.429z"/>
		<rect x="210.733" y="337.108" style="fill:#010002;" width="56.9" height="65.029"/>
		<path style="fill:#010002;" d="M211.294,206.547h21.118v-21.118C222.17,188.282,214.155,196.297,211.294,206.547z"/>
		<path style="fill:#010002;" d="M248.377,39.505c-1.642,0.106-4.113,0.935-5.406,2.227l-135.52,135.089
			c-0.78,1.146-0.024,225.316-0.024,225.316h28.109h42.675v-75.189c0-8.974,8.299-14.225,17.273-14.225h90.943
			c8.974,0,13.721,5.251,13.721,14.225v75.189h45.382h27.775V169.424L251.474,40.301C251.392,40.22,250.287,39.359,248.377,39.505z
			 M299.465,214.676c0,32.498-26.434,58.932-58.932,58.932S181.6,247.174,181.6,214.676s26.434-58.932,58.932-58.932
			S299.465,182.169,299.465,214.676z"/>
		<path style="fill:#010002;" d="M269.779,222.804h-21.11v21.11C258.911,241.053,266.918,233.038,269.779,222.804z"/>
	</g>
</g>
<g>
</g>
<g>
</g>
<g>
</g>
<g>
</g>
<g>
</g>
<g>
</g>
<g>
</g>
<g>
</g>
<g>
</g>
<g>
</g>
<g>
</g>
<g>
</g>
<g>
</g>
<g>
</g>
<g>
</g>
</svg>
