<?xml version="1.0" encoding="iso-8859-1"?>
<!-- Generator: Adobe Illustrator 16.0.0, SVG Export Plug-In . SVG Version: 6.00 Build 0)  -->
<!DOCTYPE svg PUBLIC "-//W3C//DTD SVG 1.1//EN" "http://www.w3.org/Graphics/SVG/1.1/DTD/svg11.dtd">
<svg version="1.1" id="Capa_1" xmlns="http://www.w3.org/2000/svg" xmlns:xlink="http://www.w3.org/1999/xlink" x="0px" y="0px"
	 width="53.532px" height="53.533px" viewBox="0 0 53.532 53.533" style="enable-background:new 0 0 53.532 53.533;"
	 xml:space="preserve">
<g>
	<g>
		<path d="M13.207,12.023h27.255l7.07,7.86l2.933-2.639c1.156-1.041,1.252-2.823,0.212-3.979L43.476,5.26h-4.935V0h-6.059v5.26
			H10.241l-7.362,7.999c-1.054,1.145-0.98,2.928,0.164,3.982l2.904,2.672L13.207,12.023z"/>
		<path d="M13.955,14.301l-6.083,6.951v23.67c0,1.557,1.262,2.818,2.818,2.818h16.204l-0.52-0.905
			c-0.493-0.855-0.539-2.077-0.111-2.97l1.599-3.349c0.291-0.61,0.874-1.386,1.384-1.837l0.298-0.208l5.707-3.062l7.308-15.304
			c0.336-0.705,0.814-1.219,1.378-1.502l-3.845-4.302L13.955,14.301L13.955,14.301z"/>
		<path d="M45.598,29.524l0.525-0.194c0.443-0.163,0.939-0.583,1.107-0.936l0.306-0.64c0.544-1.138,0.507-2.966-0.082-4.082
			l-1.218-2.308c-0.588-1.115-1.507-1.097-2.052,0.042l-7.527,15.766l-6.158,3.304c-0.354,0.314-0.807,0.916-1.01,1.343
			l-1.601,3.352c-0.204,0.427-0.179,1.105,0.057,1.516l3.592,6.254c0.235,0.41,0.801,0.667,1.267,0.574l7.317-1.461
			c0.463-0.092,1.005-0.514,1.209-0.94l1.415-2.962c0.204-0.428,0.381-1.158,0.395-1.631l-1.286-6.867l0.83-1.736l-0.454-1.343
			c-0.152-0.448,0.084-0.942,0.528-1.106l0.433-0.158c0.444-0.165,0.682-0.662,0.529-1.109l-0.147-0.438
			c-0.152-0.449,0.085-0.943,0.529-1.108l0.525-0.192c0.444-0.165,0.824-0.34,0.85-0.392c0.024-0.053-0.078-0.459-0.229-0.907
			l-0.181-0.531C44.916,30.184,45.151,29.688,45.598,29.524z M37.76,50.208l-4.022,1.228c-0.452,0.138-0.978-0.099-1.176-0.529
			l-1.874-4.107c-0.195-0.431-0.011-0.614,0.417-0.41l6.7,3.2C38.233,49.792,38.21,50.069,37.76,50.208z M44.924,23.857
			l-5.989,12.499c-0.045,0.095-0.139,0.149-0.235,0.149c-0.037,0-0.076-0.009-0.113-0.024c-0.129-0.063-0.184-0.218-0.122-0.349
			l5.99-12.499c0.062-0.13,0.218-0.184,0.348-0.123C44.93,23.572,44.986,23.727,44.924,23.857z"/>
	</g>
</g>
<g>
</g>
<g>
</g>
<g>
</g>
<g>
</g>
<g>
</g>
<g>
</g>
<g>
</g>
<g>
</g>
<g>
</g>
<g>
</g>
<g>
</g>
<g>
</g>
<g>
</g>
<g>
</g>
<g>
</g>
</svg>
