<?xml version="1.0" encoding="iso-8859-1"?>
<!-- Generator: Adobe Illustrator 16.0.0, SVG Export Plug-In . SVG Version: 6.00 Build 0)  -->
<!DOCTYPE svg PUBLIC "-//W3C//DTD SVG 1.1//EN" "http://www.w3.org/Graphics/SVG/1.1/DTD/svg11.dtd">
<svg version="1.1" id="Capa_1" xmlns="http://www.w3.org/2000/svg" xmlns:xlink="http://www.w3.org/1999/xlink" x="0px" y="0px"
	 width="57.204px" height="57.203px" viewBox="0 0 57.204 57.203" style="enable-background:new 0 0 57.204 57.203;"
	 xml:space="preserve">
<g>
	<g>
		<path d="M7.745,33.974l2.497,21.231h36.597l2.873-21.231l-21.109-16.55L7.745,33.974z M27.854,50.022h-7.618l-0.48-7.993h8.098
			V50.022z M27.854,40.529h-8.188l-0.554-9.241h8.743L27.854,40.529L27.854,40.529z M29.353,31.287h8.743l-0.617,9.241h-8.125
			V31.287z M29.353,42.029h8.026l-0.533,7.993h-7.493V42.029z"/>
		<polygon points="57.204,37.844 49.585,19.61 28.838,1.998 24.867,5.298 24.505,9.805 24.48,13.854 13.134,22.742 12.4,15.659 
			7.495,19.735 0,37.844 28.838,15.113 		"/>
		<polygon points="13.74,21.12 23.733,13.292 23.733,9.879 12.574,9.879 		"/>
		<path d="M24.106,4.674h-9.908l-1.625,4.683h11.158L24.106,4.674z M22.171,8.358H14.81l0.875-2.685h6.799L22.171,8.358z"/>
	</g>
</g>
<g>
</g>
<g>
</g>
<g>
</g>
<g>
</g>
<g>
</g>
<g>
</g>
<g>
</g>
<g>
</g>
<g>
</g>
<g>
</g>
<g>
</g>
<g>
</g>
<g>
</g>
<g>
</g>
<g>
</g>
</svg>
