<?xml version="1.0" encoding="iso-8859-1"?>
<!-- Generator: Adobe Illustrator 16.0.0, SVG Export Plug-In . SVG Version: 6.00 Build 0)  -->
<!DOCTYPE svg PUBLIC "-//W3C//DTD SVG 1.1//EN" "http://www.w3.org/Graphics/SVG/1.1/DTD/svg11.dtd">
<svg version="1.1" id="Capa_1" xmlns="http://www.w3.org/2000/svg" xmlns:xlink="http://www.w3.org/1999/xlink" x="0px" y="0px"
	 width="31.078px" height="31.078px" viewBox="0 0 31.078 31.078" style="enable-background:new 0 0 31.078 31.078;"
	 xml:space="preserve">
<g>
	<g>
		<path d="M30.767,15.039l-5.025-4.455V4.017c0-0.512-0.414-0.926-0.925-0.926h-3.702c-0.511,0-0.925,0.414-0.925,0.926v1.645
			l-4.037-3.578c-0.351-0.311-0.876-0.311-1.228,0L0.311,15.039c-0.288,0.255-0.387,0.662-0.251,1.021
			c0.137,0.36,0.481,0.598,0.865,0.598h4.627v11.645c0,0.512,0.414,0.926,0.925,0.926c0.512,0,0.926-0.414,0.926-0.926v-12.57
			c0-0.511-0.414-0.925-0.926-0.925H3.364L15.539,4.012L20.5,8.41c0.273,0.243,0.66,0.301,0.993,0.152s0.546-0.479,0.546-0.844
			V4.942h1.852v6.059c0,0.265,0.112,0.517,0.312,0.692l3.511,3.113h-3.112c-0.513,0-0.926,0.414-0.926,0.925v12.571
			c0,0.512,0.413,0.926,0.926,0.926c0.511,0,0.925-0.414,0.925-0.926V16.657h4.626c0.384,0,0.729-0.237,0.865-0.598
			C31.154,15.701,31.054,15.294,30.767,15.039z"/>
		<path d="M19.764,20.353l0.739-4.407c0-0.565-0.464-1.03-1.031-1.03h-7.865c-0.568,0-1.033,0.465-1.033,1.03l0.74,4.407
			c0.948,0.112,1.689,0.912,1.689,1.891c0,0.552-0.239,1.048-0.615,1.396h6.303c-0.376-0.349-0.615-0.845-0.615-1.396
			C18.075,21.265,18.816,20.464,19.764,20.353z"/>
		<path d="M10.897,25.916c0,0.569,0.464,1.033,1.032,1.033v2.278h0.557v-2.278h6.106v2.278h0.557v-2.278
			c0.568,0,1.032-0.464,1.032-1.033v-1.761h-9.284V25.916z"/>
		<path d="M19.988,20.847c-0.771,0-1.396,0.625-1.396,1.396s0.625,1.396,1.396,1.396c0.771,0,1.396-0.625,1.396-1.396
			S20.759,20.847,19.988,20.847z M20.401,23.006l0.103-0.612c0-0.48-0.116-0.869-0.271-0.981c0.364,0.108,0.636,0.433,0.636,0.831
			C20.869,22.577,20.675,22.856,20.401,23.006z"/>
		<path d="M12.486,22.243c0-0.771-0.625-1.396-1.396-1.396s-1.396,0.625-1.396,1.396s0.625,1.396,1.396,1.396
			S12.486,23.015,12.486,22.243z M10.677,23.006c-0.274-0.149-0.468-0.429-0.468-0.764c0-0.397,0.272-0.722,0.636-0.831
			c-0.154,0.113-0.271,0.501-0.271,0.98L10.677,23.006z"/>
	</g>
</g>
<g>
</g>
<g>
</g>
<g>
</g>
<g>
</g>
<g>
</g>
<g>
</g>
<g>
</g>
<g>
</g>
<g>
</g>
<g>
</g>
<g>
</g>
<g>
</g>
<g>
</g>
<g>
</g>
<g>
</g>
</svg>
