<?xml version="1.0" encoding="iso-8859-1"?>
<!-- Generator: Adobe Illustrator 18.1.1, SVG Export Plug-In . SVG Version: 6.00 Build 0)  -->
<svg version="1.1" id="Capa_1" xmlns="http://www.w3.org/2000/svg" xmlns:xlink="http://www.w3.org/1999/xlink" x="0px" y="0px"
	 viewBox="0 0 313.568 313.568" style="enable-background:new 0 0 313.568 313.568;" xml:space="preserve">
<g>
	<g>
		<path style="fill:#010002;" d="M280.041,109.684V22.866h-85.937c-1.768-2.975-3.802-5.793-6.288-8.273
			c-8.186-8.191-19.341-12.51-31.035-12.14c-11.716-0.364-22.839,3.949-31.03,12.14c-2.486,2.48-4.514,5.298-6.288,8.273h-84.18
			v85.062l-23.045,23.045c-16.317,16.323-16.317,42.876,0,59.193c6.337,6.337,14.359,10.345,23.04,11.705v109.265h106.285
			l0.158-87.025h34.979v87.025h103.342V201.604c8.012-1.605,15.376-5.526,21.288-11.438c16.317-16.317,16.317-42.871,0-59.193
			L280.041,109.684z M280.041,164.488c-0.441,0.941-1.012,1.828-1.789,2.605c-3.486,3.486-9.551,3.492-13.043,0l-17.802-17.807
			l-90.626-90.62l-88.863,88.863l-19.559,19.559c-3.481,3.486-9.551,3.486-13.043,0c-0.011-0.011-0.022-0.027-0.033-0.038
			c-3.546-3.584-3.546-9.382,0-12.967c0.011-0.011,0.022-0.027,0.033-0.038l32.602-32.602L133.861,55.5l11.694-11.694l1.246-3.084
			c0.457-1.142,1.142-2.17,2.029-3.057c2.154-2.154,4.71-2.605,6.467-2.605l1.485,0.071l1.485-0.071
			c1.762,0,4.319,0.451,6.472,2.605c0.887,0.887,1.566,1.915,2.029,3.057l1.246,3.084L179.707,55.5l67.7,67.7l30.845,30.845
			c0.772,0.772,1.349,1.67,1.789,2.605C281.205,159.136,281.205,162.008,280.041,164.488z M247.407,55.5v21.55l-21.55-21.55H247.407
			z M67.918,55.5H87.71L67.918,75.293V55.5z M247.407,278.502h-38.073v-87.025H109.151l-0.158,87.025H67.918v-85.219
			c1.218-0.974,2.399-2.002,3.514-3.117l85.35-85.344l85.35,85.344c1.643,1.643,3.421,3.095,5.276,4.422V278.502z"/>
	</g>
</g>
<g>
</g>
<g>
</g>
<g>
</g>
<g>
</g>
<g>
</g>
<g>
</g>
<g>
</g>
<g>
</g>
<g>
</g>
<g>
</g>
<g>
</g>
<g>
</g>
<g>
</g>
<g>
</g>
<g>
</g>
</svg>
