<?xml version="1.0" encoding="iso-8859-1"?>
<!-- Generator: Adobe Illustrator 16.0.0, SVG Export Plug-In . SVG Version: 6.00 Build 0)  -->
<!DOCTYPE svg PUBLIC "-//W3C//DTD SVG 1.1//EN" "http://www.w3.org/Graphics/SVG/1.1/DTD/svg11.dtd">
<svg version="1.1" id="Capa_1" xmlns="http://www.w3.org/2000/svg" xmlns:xlink="http://www.w3.org/1999/xlink" x="0px" y="0px"
	 width="59px" height="59px" viewBox="0 0 59 59" style="enable-background:new 0 0 59 59;" xml:space="preserve">
<g>
	<g>
		<path d="M55.583,14.505h-0.167c-1.887,0-3.416,1.53-3.416,3.417v33.583h7V17.922C59,16.035,57.471,14.505,55.583,14.505z
			 M55.438,16.505h0.125c0.641,0,1.176,0.421,1.362,1h-2.85C54.262,16.927,54.798,16.505,55.438,16.505z M56.925,18.505
			c-0.187,0.579-0.723,1-1.362,1h-0.125c-0.64,0-1.176-0.421-1.361-1H56.925z M55.562,47.317c-1.484,0-2.688-1.203-2.688-2.688
			c0-1.484,1.204-2.688,2.688-2.688c1.483,0,2.688,1.203,2.688,2.688C58.25,46.114,57.047,47.317,55.562,47.317z M55.562,37.317
			c-1.484,0-2.688-1.203-2.688-2.688c0-1.484,1.204-2.688,2.688-2.688c1.483,0,2.688,1.204,2.688,2.688
			C58.25,36.113,57.047,37.317,55.562,37.317z M55.562,27.318c-1.484,0-2.688-1.204-2.688-2.688s1.204-2.688,2.688-2.688
			c1.483,0,2.688,1.204,2.688,2.688S57.047,27.318,55.562,27.318z"/>
		<path d="M3.583,14.505H3.417C1.53,14.505,0,16.035,0,17.922v33.583h7V17.922C7,16.035,5.47,14.505,3.583,14.505z M3.437,16.505
			h0.125c0.64,0,1.176,0.421,1.363,1h-2.85C2.261,16.927,2.797,16.505,3.437,16.505z M4.925,18.505c-0.187,0.579-0.723,1-1.363,1
			H3.437c-0.639,0-1.176-0.421-1.362-1H4.925z M3.562,47.317c-1.484,0-2.688-1.203-2.688-2.688c0-1.484,1.204-2.688,2.688-2.688
			s2.688,1.203,2.688,2.688C6.25,46.114,5.046,47.317,3.562,47.317z M3.562,37.317c-1.484,0-2.688-1.203-2.688-2.688
			c0-1.484,1.204-2.688,2.688-2.688s2.688,1.204,2.688,2.688C6.25,36.113,5.046,37.317,3.562,37.317z M3.562,27.318
			c-1.484,0-2.688-1.204-2.688-2.688s1.204-2.688,2.688-2.688S6.25,23.146,6.25,24.63S5.046,27.318,3.562,27.318z"/>
		<circle cx="55.562" cy="24.63" r="2"/>
		<circle cx="55.562" cy="34.629" r="2"/>
		<circle cx="55.562" cy="44.629" r="2"/>
		<circle cx="3.562" cy="24.63" r="2"/>
		<circle cx="3.562" cy="34.629" r="2"/>
		<circle cx="3.562" cy="44.629" r="2"/>
		<path d="M38,9.63V8.38c0-1.036-1.839-0.875-2.875-0.875h-11.25C22.839,7.505,21,7.344,21,8.38v1.25
			c0,1.036,1.839,1.875,2.875,1.875H10v23v17h39v-17v-23H35.125C36.161,11.505,38,10.666,38,9.63z M14,42.504h-1
			c-0.276,0-0.5-0.224-0.5-0.5c0-0.275,0.224-0.5,0.5-0.5h1c0.276,0,0.5,0.225,0.5,0.5C14.5,42.281,14.276,42.504,14,42.504z
			 M25,42.504h-1c-0.276,0-0.5-0.224-0.5-0.5c0-0.275,0.224-0.5,0.5-0.5h1c0.276,0,0.5,0.225,0.5,0.5
			C25.5,42.281,25.276,42.504,25,42.504z M28,42.504h-1c-0.276,0-0.5-0.224-0.5-0.5c0-0.275,0.224-0.5,0.5-0.5h1
			c0.276,0,0.5,0.225,0.5,0.5C28.5,42.281,28.276,42.504,28,42.504z M31,42.504h-1c-0.276,0-0.5-0.224-0.5-0.5
			c0-0.275,0.224-0.5,0.5-0.5h1c0.275,0,0.5,0.225,0.5,0.5C31.5,42.281,31.275,42.504,31,42.504z M34,42.504h-1
			c-0.275,0-0.5-0.224-0.5-0.5c0-0.275,0.225-0.5,0.5-0.5h1c0.275,0,0.5,0.225,0.5,0.5C34.5,42.281,34.275,42.504,34,42.504z
			 M47,13.505v16v10H12v-10v-16H47z"/>
	</g>
</g>
<g>
</g>
<g>
</g>
<g>
</g>
<g>
</g>
<g>
</g>
<g>
</g>
<g>
</g>
<g>
</g>
<g>
</g>
<g>
</g>
<g>
</g>
<g>
</g>
<g>
</g>
<g>
</g>
<g>
</g>
</svg>
