<?xml version="1.0" encoding="iso-8859-1"?>
<!-- Generator: Adobe Illustrator 16.0.0, SVG Export Plug-In . SVG Version: 6.00 Build 0)  -->
<!DOCTYPE svg PUBLIC "-//W3C//DTD SVG 1.1//EN" "http://www.w3.org/Graphics/SVG/1.1/DTD/svg11.dtd">
<svg version="1.1" id="Capa_1" xmlns="http://www.w3.org/2000/svg" xmlns:xlink="http://www.w3.org/1999/xlink" x="0px" y="0px"
	 width="55.906px" height="55.906px" viewBox="0 0 55.906 55.906" style="enable-background:new 0 0 55.906 55.906;"
	 xml:space="preserve">
<g>
	<g>
		<path d="M42.633,8.35V6.504c0-0.583-0.472-1.056-1.054-1.056h-3.253c-0.582,0-1.056,0.472-1.056,1.056V8.35h-9.317h-9.317V6.504
			c0-0.583-0.473-1.056-1.056-1.056h-3.253c-0.582,0-1.054,0.472-1.054,1.056V8.35h-7.12L0,14.943v1.32h1.098v33.14
			c0,0.584,0.472,1.055,1.055,1.055h25.8h25.801c0.583,0,1.054-0.471,1.054-1.055v-33.14h1.099v-1.32L49.754,8.35H42.633z
			 M12.13,43.622H8.438v-4.087h3.692V43.622z M12.13,25.689H8.438v-4.086h3.692V25.689z M31.712,48.37h-3.759h-3.758V35.25
			c1.186-1.253,3.758-1.45,3.758-1.45s2.572,0.196,3.759,1.45V48.37z M32.7,26.415h-4.747h-4.747v-7.186
			c1.911-1.318,4.747-1.318,4.747-1.318s2.837,0,4.747,1.317V26.415z M33.755,15.823h-5.802h-5.802c-0.582,0-0.693-0.305-0.25-0.681
			l5.247-4.439c0.444-0.376,1.167-0.376,1.61,0l5.247,4.439C34.448,15.518,34.336,15.823,33.755,15.823z M47.467,43.622h-3.69
			v-4.087h3.69V43.622z M47.467,25.689h-3.69v-4.086h3.69V25.689z"/>
	</g>
</g>
<g>
</g>
<g>
</g>
<g>
</g>
<g>
</g>
<g>
</g>
<g>
</g>
<g>
</g>
<g>
</g>
<g>
</g>
<g>
</g>
<g>
</g>
<g>
</g>
<g>
</g>
<g>
</g>
<g>
</g>
</svg>
