<?xml version="1.0" encoding="iso-8859-1"?>
<!-- Generator: Adobe Illustrator 18.1.1, SVG Export Plug-In . SVG Version: 6.00 Build 0)  -->
<svg version="1.1" id="Capa_1" xmlns="http://www.w3.org/2000/svg" xmlns:xlink="http://www.w3.org/1999/xlink" x="0px" y="0px"
	 viewBox="0 0 310.027 310.027" style="enable-background:new 0 0 310.027 310.027;" xml:space="preserve">
<g>
	<g>
		<path style="fill:#010002;" d="M38.073,310.027h103.342h65.269h65.269V130.538h32.634V97.903h-32.634V65.269h-32.634v32.634
			H70.708V65.269H38.073v32.634H5.439v32.634h32.634V310.027z M239.319,130.538v146.855h-32.634v-81.586h-65.269v81.586H70.708
			V130.538H239.319z"/>
		<rect x="70.708" y="32.634" style="fill:#010002;" width="32.634" height="32.634"/>
		<rect x="103.342" y="163.172" style="fill:#010002;" width="32.634" height="32.634"/>
		<polygon style="fill:#010002;" points="174.05,32.634 184.928,32.634 206.684,32.634 206.684,0 184.928,0 174.05,0 135.977,0 
			103.342,0 103.342,32.634 135.977,32.634 		"/>
		<rect x="206.684" y="32.634" style="fill:#010002;" width="32.634" height="32.634"/>
	</g>
</g>
<g>
</g>
<g>
</g>
<g>
</g>
<g>
</g>
<g>
</g>
<g>
</g>
<g>
</g>
<g>
</g>
<g>
</g>
<g>
</g>
<g>
</g>
<g>
</g>
<g>
</g>
<g>
</g>
<g>
</g>
</svg>
