<?xml version="1.0" encoding="iso-8859-1"?>
<!-- Generator: Adobe Illustrator 18.1.1, SVG Export Plug-In . SVG Version: 6.00 Build 0)  -->
<svg version="1.1" id="Capa_1" xmlns="http://www.w3.org/2000/svg" xmlns:xlink="http://www.w3.org/1999/xlink" x="0px" y="0px"
	 viewBox="0 0 468.207 468.207" style="enable-background:new 0 0 468.207 468.207;" xml:space="preserve">
<g>
	<g>
		<path style="fill:#010002;" d="M268.662,35.005c-17.826-17.826-45.935-18.72-65.069-3.129c-1.284,1.04-2.609,1.943-3.804,3.129
			L7.141,227.661c-9.527,9.519-9.519,24.963,0.008,34.481c1.187,1.187,2.479,2.235,3.829,3.129c4.056,2.682,8.738,4.016,13.42,4.016
			s8.145-1.479,12.201-4.162c1.349-0.894,1.853-1.796,3.04-2.983l13.892-15.899v111.361c0,49.089,47.39,89.74,98.738,89.74h171.667
			c50.316,0,87.252-39.814,87.252-89.74V250.388l13.762,11.762c4.755,4.763,12.006,7.145,18.241,7.145
			c6.235,0,12.981-2.382,17.745-7.145c9.527-9.519,9.779-24.963,0.252-34.481L268.662,35.005z M362.417,357.604
			c0,23.036-15.046,40.968-38.481,40.968H152.269c-24.483,0-49.966-18.712-49.966-40.968V197.471L230.295,69.487l132.122,132.122
			V357.604z"/>
		<path style="fill:#010002;" d="M139.686,254.282c0,1.821,0.098,3.633,0.276,5.43c0.309,3.203,0.935,6.308,1.756,9.332
			c0.138,0.512,0.244,1.032,0.398,1.544c0.122,0.398,0.26,0.78,0.39,1.171c15.607,49.983,91.804,89.065,91.804,89.065
			s76.197-39.09,91.804-89.065c0.13-0.39,0.268-0.772,0.39-1.171c0.146-0.512,0.26-1.024,0.398-1.544
			c0.821-3.024,1.447-6.129,1.756-9.332c0.179-1.796,0.276-3.609,0.276-5.43c0-30.954-25.093-56.055-56.055-56.055
			c-14.957,0-28.507,5.893-38.562,15.444c-10.055-9.543-23.605-15.444-38.562-15.444
			C164.787,198.227,139.686,223.32,139.686,254.282z"/>
	</g>
</g>
<g>
</g>
<g>
</g>
<g>
</g>
<g>
</g>
<g>
</g>
<g>
</g>
<g>
</g>
<g>
</g>
<g>
</g>
<g>
</g>
<g>
</g>
<g>
</g>
<g>
</g>
<g>
</g>
<g>
</g>
</svg>
