<?xml version="1.0" encoding="iso-8859-1"?>
<!-- Generator: Adobe Illustrator 18.1.1, SVG Export Plug-In . SVG Version: 6.00 Build 0)  -->
<svg version="1.1" id="Capa_1" xmlns="http://www.w3.org/2000/svg" xmlns:xlink="http://www.w3.org/1999/xlink" x="0px" y="0px"
	 viewBox="0 0 52.072 52.072" style="enable-background:new 0 0 52.072 52.072;" xml:space="preserve">
<g>
	<g>
		<path style="fill:#010002;" d="M47.436,23.256c-0.545-0.298-1.191-0.54-2.033-0.763c-1.241-0.329-2.95-0.615-5.08-0.854
			c-4.153-0.464-9.646-0.72-15.47-0.72c-5.821,0-11.315,0.256-15.469,0.72c-2.13,0.238-3.839,0.525-5.08,0.854
			c-0.842,0.223-1.488,0.464-2.033,0.763C0.22,24.376,0,26.132,0,26.836c0,0.055,0.001,0.113,0.005,0.18
			c0.065,8.358,5.792,15.591,14.054,19.017v0.354c0,1.058,0.859,1.918,1.919,1.918h17.753c1.06,0,1.918-0.86,1.918-1.918v-0.354
			c8.264-3.426,13.988-10.656,14.056-19.017c0.002-0.064,0.003-0.125,0.003-0.18C49.707,26.132,49.486,24.376,47.436,23.256z
			 M34.027,42.554l-1.099,0.455c1.166-0.979,2.235-2.041,3.192-3.183c1.976-2.351,3.446-4.987,4.354-7.772
			c0,0,2.401-0.037,5.039-1.16C44.349,35.174,39.214,40.403,34.027,42.554z M24.853,29.221c-11.775,0-21.322-1.065-21.322-2.385
			c0-1.317,9.546-2.384,21.322-2.384s21.322,1.067,21.322,2.384C46.175,28.153,36.629,29.221,24.853,29.221z"/>
		<path style="fill:#010002;" d="M51.616,5.433c-0.281-0.659-1.045-0.969-1.703-0.688c-0.659,0.281-0.966,1.039-0.686,1.697
			c0.004,0.014,0.58,1.456-0.021,2.86c-0.435,1.012-1.394,1.817-2.854,2.395c-2.201,0.869-3.649,2.166-4.305,3.855
			c-0.902,2.333,0.133,4.492,0.178,4.583c0.227,0.458,0.687,0.725,1.164,0.725c0.192,0,0.389-0.042,0.569-0.132
			c0.644-0.316,0.908-1.092,0.593-1.735c-0.004-0.012-0.566-1.26-0.086-2.505c0.381-0.986,1.336-1.787,2.838-2.38
			c2.148-0.848,3.599-2.137,4.307-3.83C52.624,7.85,51.657,5.531,51.616,5.433z"/>
		<path style="fill:#010002;" d="M35.563,20.051c0.195,0,0.395-0.045,0.578-0.137c0.64-0.321,0.898-1.095,0.58-1.735
			c-0.006-0.013-0.599-1.271-0.105-2.538c0.379-0.979,1.324-1.78,2.809-2.38c2.141-0.868,3.577-2.17,4.271-3.87
			c0.99-2.436,0.003-4.747-0.04-4.844c-0.286-0.656-1.056-0.96-1.709-0.672c-0.654,0.287-0.956,1.046-0.668,1.703
			c0.006,0.015,0.593,1.451,0.006,2.86c-0.423,1.016-1.375,1.83-2.832,2.42c-2.192,0.889-3.632,2.199-4.271,3.894
			c-0.881,2.34,0.174,4.491,0.221,4.581C34.628,19.786,35.089,20.051,35.563,20.051z"/>
	</g>
</g>
<g>
</g>
<g>
</g>
<g>
</g>
<g>
</g>
<g>
</g>
<g>
</g>
<g>
</g>
<g>
</g>
<g>
</g>
<g>
</g>
<g>
</g>
<g>
</g>
<g>
</g>
<g>
</g>
<g>
</g>
</svg>
