<?xml version="1.0" encoding="iso-8859-1"?>
<!-- Generator: Adobe Illustrator 18.1.1, SVG Export Plug-In . SVG Version: 6.00 Build 0)  -->
<svg version="1.1" id="Capa_1" xmlns="http://www.w3.org/2000/svg" xmlns:xlink="http://www.w3.org/1999/xlink" x="0px" y="0px"
	 viewBox="0 0 468.382 468.382" style="enable-background:new 0 0 468.382 468.382;" xml:space="preserve">
<g>
	<g>
		<path style="fill:#010002;" d="M268.711,35.498c-17.826-17.818-45.967-18.72-65.102-3.13c-1.284,1.04-2.626,1.943-3.82,3.13
			L7.142,228.153c-9.527,9.519-9.519,24.963,0,34.481c1.187,1.187,2.479,2.235,3.829,3.129c4.056,2.682,8.738,4.016,13.42,4.016
			s9.364-1.341,13.42-4.016c1.349-0.894,1.618-1.935,2.804-3.129l14.883-15.899v111.361c0,49.088,45.422,88.927,96.763,88.927
			h171.667c50.316,0,89.219-39.001,89.219-88.927V250.88l12.778,11.762c4.755,4.763,11.51,7.145,17.753,7.145
			c6.243,0,12.737-2.382,17.493-7.145c9.527-9.519,9.657-24.963,0.13-34.481L268.711,35.498z M364.377,358.104
			c0,23.036-17.021,40.155-40.448,40.155H152.253c-24.483,0-47.991-17.899-47.991-40.155V197.972L232.255,69.987l132.122,132.13
			V358.104z"/>
		<path style="fill:#010002;" d="M189.076,238.704c0,12.445,3.211,24.142,8.828,34.343c-0.585,0.471-1.195,0.894-1.731,1.439
			l-61.192,62.306c-7.86,8.007-7.747,20.874,0.26,28.743c3.959,3.885,9.104,5.82,14.241,5.82c5.259,0,10.518-2.032,14.501-6.08
			l61.192-62.306c0.463-0.48,0.813-1.016,1.219-1.528c10.144,5.536,21.768,8.689,34.116,8.689c39.383,0,71.426-32.043,71.426-71.434
			c0-39.383-32.043-71.426-71.426-71.426C221.11,167.278,189.076,199.313,189.076,238.704z M260.502,191.664
			c25.938,0,47.04,21.102,47.04,47.04s-21.102,47.048-47.04,47.048c-25.938,0-47.048-21.102-47.048-47.048
			C213.461,212.766,234.563,191.664,260.502,191.664z"/>
	</g>
</g>
<g>
</g>
<g>
</g>
<g>
</g>
<g>
</g>
<g>
</g>
<g>
</g>
<g>
</g>
<g>
</g>
<g>
</g>
<g>
</g>
<g>
</g>
<g>
</g>
<g>
</g>
<g>
</g>
<g>
</g>
</svg>
