<?xml version="1.0" encoding="iso-8859-1"?>
<!-- Generator: Adobe Illustrator 16.0.0, SVG Export Plug-In . SVG Version: 6.00 Build 0)  -->
<!DOCTYPE svg PUBLIC "-//W3C//DTD SVG 1.1//EN" "http://www.w3.org/Graphics/SVG/1.1/DTD/svg11.dtd">
<svg version="1.1" id="Capa_1" xmlns="http://www.w3.org/2000/svg" xmlns:xlink="http://www.w3.org/1999/xlink" x="0px" y="0px"
	 width="56.486px" height="56.486px" viewBox="0 0 56.486 56.486" style="enable-background:new 0 0 56.486 56.486;"
	 xml:space="preserve">
<g>
	<g>
		<path d="M51.734,16.604c-0.256-1.472-1.485-3.322-2.743-4.131L30.518,0.603c-1.259-0.808-3.296-0.803-4.55,0.014L7.604,12.572
			c-1.254,0.815-2.48,2.672-2.739,4.145L2.319,31.218c-0.085,0.493,0.024,1.143,0.244,1.454c0.22,0.312,0.761,0.387,1.208,0.166
			l22.035-10.823c1.342-0.658,3.52-0.663,4.864-0.003l22.158,10.829c0.447,0.219,0.948,0.015,1.116-0.453l0.061-0.164
			c0.171-0.47,0.239-1.248,0.153-1.739L51.734,16.604z"/>
		<path d="M25.8,24.485L5.943,34.108l1.051,19.674c0.08,1.494,1.357,2.704,2.853,2.704h9.788c1.497,0,2.758-0.076,2.819-0.17
			c0.061-0.092,0.108-1.382,0.108-2.877V43.108c0.389-0.006,0.756-0.1,1.082-0.27c0.688,0.36,1.603,0.351,2.283-0.023
			c0.696,0.383,1.633,0.383,2.328,0c0.694,0.382,1.628,0.384,2.32,0.005c0.702,0.383,1.646,0.377,2.342-0.016
			c0.335,0.188,0.716,0.288,1.118,0.3v10.335c0,1.495,0.034,2.785,0.078,2.877c0.044,0.094,1.291,0.17,2.788,0.17h9.852
			c1.496,0,2.737-1.211,2.773-2.707l0.498-20.543l-19.325-8.81C29.342,23.809,27.146,23.833,25.8,24.485z M14.531,48.471h-2.708
			v-2.369h2.708V48.471z M14.531,45.201h-2.708v-3.048h2.708V45.201z M18.143,48.471h-2.709v-2.369h2.709V48.471z M18.143,45.201
			h-2.709v-3.048h2.709V45.201z M42.014,42.153h2.426v2.764h-2.426V42.153z M42.014,45.822h2.426v2.65h-2.426V45.822z
			 M38.121,42.153h2.991v2.764h-2.991V42.153z M38.121,45.822h2.991v2.65h-2.991V45.822z M34.973,40.639
			c0.004,0.004,0.007,0.012,0.011,0.016l0.244,0.324h-0.023c0.057,0.135,0.092,0.28,0.092,0.435c0,0.604-0.492,1.091-1.094,1.091
			c-0.494,0-0.896-0.338-1.029-0.791h-0.309c-0.133,0.453-0.536,0.791-1.031,0.791c-0.496,0-0.896-0.338-1.03-0.791H30.55
			c-0.132,0.453-0.534,0.791-1.029,0.791c-0.497,0-0.897-0.338-1.032-0.791h-0.265c-0.134,0.453-0.537,0.791-1.032,0.791
			c-0.496,0-0.897-0.338-1.03-0.791h-0.267c-0.133,0.453-0.537,0.791-1.031,0.791c-0.495,0-0.896-0.338-1.03-0.791h-0.178
			c-0.134,0.453-0.536,0.791-1.032,0.791c-0.602,0-1.09-0.487-1.09-1.091c0-0.243,0.096-0.457,0.23-0.639l1.05-1.601h11.061
			L34.973,40.639z M32.984,33.97h-9.141v-6.603h9.141V33.97z"/>
	</g>
</g>
<g>
</g>
<g>
</g>
<g>
</g>
<g>
</g>
<g>
</g>
<g>
</g>
<g>
</g>
<g>
</g>
<g>
</g>
<g>
</g>
<g>
</g>
<g>
</g>
<g>
</g>
<g>
</g>
<g>
</g>
</svg>
