<?xml version="1.0" encoding="iso-8859-1"?>
<!-- Generator: Adobe Illustrator 18.1.1, SVG Export Plug-In . SVG Version: 6.00 Build 0)  -->
<svg version="1.1" id="Capa_1" xmlns="http://www.w3.org/2000/svg" xmlns:xlink="http://www.w3.org/1999/xlink" x="0px" y="0px"
	 viewBox="0 0 446.931 446.931" style="enable-background:new 0 0 446.931 446.931;" xml:space="preserve">
<g>
	<g>
		<path style="fill:#010002;" d="M386.767,205.832l-28.149-50.901c-2.365-4.243-8.226-8.616-13.079-8.616h-11.754l-0.577-132
			C333.167,5.357,325.901,0,316.951,0c-0.024,0-0.049,0-0.073,0c-8.974,0-16.225,6.283-16.184,15.265l0.033,7.625l-16.997,16.997
			c-3.43,3.43-3.43,8.998,0,12.429l17.208,17.208l0.024,5.869l-17.233,17.233c-3.43,3.43-3.43,8.998,0,12.429l17.444,17.444
			l0.106,23.817h-11.591c-4.853,0-10.705,4.162-13.071,8.405l-28.149,51.161c-2.365,4.235-2.365,10.689,0,14.924l5.731,10.096
			c-7.934,4.202-16.021,8.998-24.069,14.404c-20.5,13.786-38.034,29.45-49.357,44.089c-0.163,0.211-0.293,0.415-0.455,0.626
			l-72.092-9.73c-2.975-0.398-3.666,1-1.553,3.129l13.778,13.867c-0.301,0.195-0.634,0.333-0.894,0.593l-59.574,59.574
			c-2.122,2.122-2.122,5.56,0,7.681l80.205,80.205c2.122,2.122,5.56,2.122,7.682,0l59.574-59.566
			c0.163-0.163,0.228-0.374,0.366-0.553l13.721,13.81c2.113,2.13,3.56,1.439,3.235-1.544l-6.877-63.127
			c-7.519,3.341-15.672,5.332-24.288,6.105c-3.325,4.048-8.299,6.69-13.949,6.69c-10.006,0-18.119-8.112-18.119-18.119
			c0-5.536,2.536-10.429,6.446-13.754c-0.496,4.414,0.301,8.251,2.439,11.429c0.788,1.179,1.772,2.187,2.869,3.089
			c3.617,2.999,8.852,4.544,15.68,4.544c2.52,0,5.243-0.228,8.112-0.642c6.072-0.862,12.908-2.691,20.175-5.235
			c6.982-2.447,14.379-5.633,22.02-9.445c9.502-4.747,19.305-10.388,29.052-16.94c4.837-3.251,9.592-6.69,14.201-10.25
			c6.438-4.975,12.559-10.185,18.167-15.477c22.11-20.842,35.977-42.821,27.336-55.673c-3.414-5.072-9.657-7.641-18.549-7.641
			c-3.682,0-7.868,0.585-12.274,1.439c1.162-2.91,2.886-5.649,5.21-8.031c2.341-2.398,5.048-4.202,7.95-5.422
			c5.227-2.211,11.047-2.414,16.452-0.813c3.69,1.089,7.194,2.959,10.136,5.836c9.649,9.429,9.827,24.89,0.406,34.538
			c-1.39,1.423-2.934,2.569-4.544,3.577c-4.357,12.672-11.12,23.329-20.061,32.189h32.783c4.853,0,10.705-1.861,13.071-6.096
			l28.149-48.861C389.133,217.179,389.133,210.067,386.767,205.832z M309.473,221.179c4.146,0,9.551,0.699,11.803,4.048
			c5.365,7.982-6.828,28.759-32.531,51.056c-3.812,3.308-7.917,6.641-12.315,9.982c-3.999,3.04-8.185,6.072-12.656,9.08
			c-6.007,4.04-12.079,7.706-18.094,11.071c-10.201,5.714-20.167,10.356-29.352,13.721c-6.869,2.512-13.274,4.324-18.948,5.259
			c-3.016,0.496-5.885,0.821-8.437,0.821c-4.137,0-9.551-0.699-11.795-4.048c-0.179-0.268-0.26-0.618-0.398-0.919
			c-1.138-2.455-0.975-5.885,0.536-10.104c0.78-0.106,1.544-0.236,2.349-0.236c6.113,0,11.494,3.048,14.778,7.69
			c7.486-0.902,14.729-3.024,20.988-6.958l-1.276-11.738c-0.325-2.983-2.999-5.723-5.975-6.129l-18.444-2.487
			c10.827-13.087,26.58-26.889,44.943-39.237c7.844-5.275,15.778-9.949,23.565-14.054l18.387,32.392
			c0.366,0.658,0.943,1.146,1.463,1.683c0.707-0.658,1.512-1.284,2.471-1.829c11.51-6.543,20.484-14.802,26.109-26.19
			c-1.349-0.87-2.634-1.886-3.829-3.048c-5.007-4.893-7.405-11.404-7.299-17.883C300.678,221.894,305.417,221.179,309.473,221.179z"
			/>
	</g>
</g>
<g>
</g>
<g>
</g>
<g>
</g>
<g>
</g>
<g>
</g>
<g>
</g>
<g>
</g>
<g>
</g>
<g>
</g>
<g>
</g>
<g>
</g>
<g>
</g>
<g>
</g>
<g>
</g>
<g>
</g>
</svg>
