<?xml version="1.0" encoding="iso-8859-1"?>
<!-- Generator: Adobe Illustrator 16.0.0, SVG Export Plug-In . SVG Version: 6.00 Build 0)  -->
<!DOCTYPE svg PUBLIC "-//W3C//DTD SVG 1.1//EN" "http://www.w3.org/Graphics/SVG/1.1/DTD/svg11.dtd">
<svg version="1.1" id="Capa_1" xmlns="http://www.w3.org/2000/svg" xmlns:xlink="http://www.w3.org/1999/xlink" x="0px" y="0px"
	 width="55.558px" height="55.558px" viewBox="0 0 55.558 55.558" style="enable-background:new 0 0 55.558 55.558;"
	 xml:space="preserve">
<g>
	<g>
		<path d="M41.389,47.586l5.454-1.269c0.56-0.13,1.035-0.702,1.062-1.277l0.735-16.015c0.026-0.575-0.296-1.354-0.722-1.741
			L36.275,16.689c-0.425-0.388-1.06-0.334-1.415,0.116L21.541,33.688c-0.356,0.451-0.646,1.283-0.646,1.859v17.527
			c0,0.575,0.444,0.899,0.992,0.724l7.281-2.333c0.546-0.176,0.992-0.784,0.992-1.359V32.59c0-0.575,0.457-1.133,1.021-1.243
			l8.171-1.615c0.564-0.112,1.022,0.264,1.022,0.839v16.209C40.375,47.356,40.83,47.716,41.389,47.586z"/>
		<path d="M15.074,38.525c0.437,0.373,1.077,0.306,1.427-0.149l18.449-24.002c0.351-0.456,0.979-0.511,1.402-0.123l16.388,14.996
			c0.424,0.389,1.092,0.369,1.493-0.044l1.032-1.062c0.4-0.412,0.388-1.068-0.029-1.465L36.973,9.283
			c-0.417-0.396-1.186-0.901-1.713-1.128L20.576,1.877c-0.529-0.226-1.117-0.219-1.315,0.017s0.069,0.615,0.594,0.849l4.721,2.098
			c0.526,0.233,0.952,0.89,0.952,1.464v1.41c0,0.575,0.467,1.045,1.042,1.051l1.284,0.011c0.576,0.005,1.042,0.476,1.042,1.051
			v8.804c0,0.575-0.46,1.117-1.028,1.209l-11.731,1.917c-0.568,0.093-1.443-0.046-1.953-0.309l-4.863-2.511
			c-0.511-0.263-0.926-0.943-0.926-1.519v-1.555c0-0.575-0.3-0.685-0.67-0.244l-7.478,8.897c-0.371,0.441-0.315,1.1,0.122,1.474
			L15.074,38.525z"/>
		<path d="M10.822,17.961l3.672,1.896c0.511,0.263,1.386,0.401,1.953,0.309l10.072-1.646c0.568-0.093,1.028-0.634,1.028-1.209v-6.18
			c0-0.575-0.466-1.046-1.042-1.051l-1.284-0.011c-0.575-0.006-1.042-0.475-1.042-1.051V7.123c0-0.575-0.425-1.231-0.952-1.464
			l-4.78-2.124c-0.526-0.233-1.41-0.33-1.973-0.215l-5.556,1.129c-0.563,0.115-1.021,0.674-1.021,1.249v10.745
			C9.896,17.018,10.31,17.698,10.822,17.961z"/>
		<path d="M16.391,40.246c-0.367,0.442-1.018,0.5-1.455,0.127L8.8,35.133c-0.438-0.374-0.792-0.211-0.792,0.365v6.114
			c0,0.576,0.338,1.363,0.755,1.76l10.188,9.673c0.417,0.396,0.755,0.251,0.755-0.325V37.283c0-0.576-0.297-0.683-0.663-0.239
			L16.391,40.246z"/>
	</g>
</g>
<g>
</g>
<g>
</g>
<g>
</g>
<g>
</g>
<g>
</g>
<g>
</g>
<g>
</g>
<g>
</g>
<g>
</g>
<g>
</g>
<g>
</g>
<g>
</g>
<g>
</g>
<g>
</g>
<g>
</g>
</svg>
