<?xml version="1.0" encoding="iso-8859-1"?>
<!-- Generator: Adobe Illustrator 18.1.1, SVG Export Plug-In . SVG Version: 6.00 Build 0)  -->
<svg version="1.1" id="Capa_1" xmlns="http://www.w3.org/2000/svg" xmlns:xlink="http://www.w3.org/1999/xlink" x="0px" y="0px"
	 viewBox="0 0 55.163 55.163" style="enable-background:new 0 0 55.163 55.163;" xml:space="preserve">
<g>
	<g>
		<path style="fill:#010002;" d="M48.143,29.163H6.268c-1.692,0-3.063,1.371-3.063,3.062V52.1c0,1.692,1.371,3.063,3.063,3.063
			h14.937V42.429c0-1.926,2.635-3.266,5.295-3.266h0.235c2.66,0,4.47,1.34,4.47,3.266v12.734h16.938
			c1.691,0,3.062-1.371,3.062-3.062V32.225C51.205,30.534,49.834,29.163,48.143,29.163z"/>
		<path style="fill:#010002;" d="M51.887,24.756L29.15,0.875c-1.172-1.22-3.049-1.144-4.194,0.101L3.249,24.683
			c-1.145,1.245-0.702,2.48,0.989,2.48h46.705C52.637,27.163,53.057,25.976,51.887,24.756z"/>
	</g>
</g>
<g>
</g>
<g>
</g>
<g>
</g>
<g>
</g>
<g>
</g>
<g>
</g>
<g>
</g>
<g>
</g>
<g>
</g>
<g>
</g>
<g>
</g>
<g>
</g>
<g>
</g>
<g>
</g>
<g>
</g>
</svg>
