<?xml version="1.0" encoding="iso-8859-1"?>
<!-- Generator: Adobe Illustrator 18.1.1, SVG Export Plug-In . SVG Version: 6.00 Build 0)  -->
<svg version="1.1" id="Capa_1" xmlns="http://www.w3.org/2000/svg" xmlns:xlink="http://www.w3.org/1999/xlink" x="0px" y="0px"
	 viewBox="0 0 491.592 491.592" style="enable-background:new 0 0 491.592 491.592;" xml:space="preserve">
<g>
	<g>
		<path style="fill:#010002;" d="M273.462,293.913c25.938,0,47.04-21.102,47.04-47.048c0-25.938-21.102-47.04-47.04-47.04
			s-47.048,21.102-47.048,47.04C226.413,272.811,247.523,293.913,273.462,293.913z"/>
		<path style="fill:#010002;" d="M165.213,406.429h171.667c23.427,0,40.448-17.119,40.448-40.155V210.286L245.207,78.156
			L117.222,206.141v160.133C117.222,388.53,140.73,406.429,165.213,406.429z M147.932,344.96l61.192-62.306
			c0.536-0.545,1.154-0.967,1.731-1.439c-5.617-10.201-8.828-21.898-8.828-34.343c0-39.383,32.043-71.426,71.434-71.426
			c39.383,0,71.426,32.043,71.426,71.426c0,39.391-32.043,71.434-71.426,71.434c-12.347,0-23.971-3.154-34.116-8.689
			c-0.415,0.504-0.756,1.049-1.219,1.528l-61.192,62.306c-3.983,4.048-9.242,6.08-14.501,6.08c-5.137,0-10.283-1.935-14.241-5.82
			C140.185,365.827,140.072,352.967,147.932,344.96z"/>
		<path style="fill:#010002;" d="M97.543,491.592h296.506c53.868,0,97.543-43.675,97.543-97.543V97.543
			C491.592,43.675,447.917,0,394.049,0H97.543C43.675,0,0,43.675,0,97.543v296.506C0,447.925,43.675,491.592,97.543,491.592z
			 M20.102,270.812c-9.527-9.519-9.527-24.963,0-34.481L212.749,43.675c1.195-1.195,2.536-2.089,3.82-3.13
			c19.135-15.591,47.284-14.688,65.102,3.13l192.59,192.663c9.527,9.519,9.397,24.963-0.13,34.481
			c-4.755,4.763-11.258,7.145-17.493,7.145c-6.235,0-12.989-2.382-17.753-7.145l-12.778-11.762v107.216
			c0,49.934-38.903,88.927-89.219,88.927H165.213c-51.348,0-96.763-39.846-96.763-88.927V254.912l-14.883,15.899
			c-1.187,1.187-1.455,2.235-2.804,3.129c-4.056,2.682-8.738,4.016-13.42,4.016s-9.364-1.341-13.42-4.016
			C22.573,273.047,21.289,272.007,20.102,270.812z"/>
	</g>
</g>
<g>
</g>
<g>
</g>
<g>
</g>
<g>
</g>
<g>
</g>
<g>
</g>
<g>
</g>
<g>
</g>
<g>
</g>
<g>
</g>
<g>
</g>
<g>
</g>
<g>
</g>
<g>
</g>
<g>
</g>
</svg>
