<?xml version="1.0" encoding="iso-8859-1"?>
<!-- Generator: Adobe Illustrator 16.0.0, SVG Export Plug-In . SVG Version: 6.00 Build 0)  -->
<!DOCTYPE svg PUBLIC "-//W3C//DTD SVG 1.1//EN" "http://www.w3.org/Graphics/SVG/1.1/DTD/svg11.dtd">
<svg version="1.1" id="Capa_1" xmlns="http://www.w3.org/2000/svg" xmlns:xlink="http://www.w3.org/1999/xlink" x="0px" y="0px"
	 width="182.011px" height="182.01px" viewBox="0 0 182.011 182.01" style="enable-background:new 0 0 182.011 182.01;"
	 xml:space="preserve">
<g>
	<g>
		<path d="M99.715,108.161v61.469h82.296v-61.469l-39.607-42.689L99.715,108.161z M128.861,146.756c0,0-3.049,0-6.81,0
			c-3.755,0-6.807-3.142-6.807-7.009v-19.144c0-3.867,3.052-7.009,6.807-7.009h6.81V146.756z M152.218,146.756h-19.726v-33.161
			h19.726V146.756z M155.216,113.595c0,0,3.049,0,6.81,0c3.758,0,6.804,3.142,6.804,7.009v19.144c0,3.867-3.046,7.009-6.804,7.009
			h-6.81V113.595z M152.218,95.325v11.468h-19.726c0,0,0-5.134,0-11.468c0-6.336,4.418-11.47,9.859-11.47
			C147.803,83.852,152.218,88.988,152.218,95.325z"/>
		<path d="M98.35,25.701l-81.615,82.46v53.273H8.198v-55.703l84.685-87.634l-5.875-5.715L0,102.398v67.229h44.389v-30.639
			c0-5.804,4.708-10.513,10.513-10.513h5.099c5.807,0,10.513,4.709,10.513,10.513v30.639h24.078v-61.466l44.704-46.291L98.35,25.701
			z M86.396,101.419H63.601c0,0,0-6.652,0-14.855S68.702,71.71,74.997,71.71c6.297,0,11.399,6.651,11.399,14.854V101.419z"/>
	</g>
</g>
<g>
</g>
<g>
</g>
<g>
</g>
<g>
</g>
<g>
</g>
<g>
</g>
<g>
</g>
<g>
</g>
<g>
</g>
<g>
</g>
<g>
</g>
<g>
</g>
<g>
</g>
<g>
</g>
<g>
</g>
</svg>
