<?xml version="1.0" encoding="iso-8859-1"?>
<!-- Generator: Adobe Illustrator 16.0.0, SVG Export Plug-In . SVG Version: 6.00 Build 0)  -->
<!DOCTYPE svg PUBLIC "-//W3C//DTD SVG 1.1//EN" "http://www.w3.org/Graphics/SVG/1.1/DTD/svg11.dtd">
<svg version="1.1" id="Capa_1" xmlns="http://www.w3.org/2000/svg" xmlns:xlink="http://www.w3.org/1999/xlink" x="0px" y="0px"
	 width="58.466px" height="58.466px" viewBox="0 0 58.466 58.466" style="enable-background:new 0 0 58.466 58.466;"
	 xml:space="preserve">
<g>
	<g>
		<path d="M46.123,7.517l-3.834,0.791c-0.005,0.035,0,0.072-0.007,0.106l-0.516,4.622c1.024-0.531,2.096-0.448,2.713,0.253
			c0.595,0.675,0.791,1.849,0.583,3.489c-0.555,4.369-0.745,7.376-0.747,7.406c-0.114,3.419-0.649,4.951-1.733,4.951
			c-0.326,0-0.621-0.163-0.871-0.377l-0.369,2.622l4.427-0.612l4.257-18.518L46.123,7.517z"/>
		<rect x="17.316" y="32.466" width="20" height="4"/>
		<path d="M38.098,37.466H16.825c-0.285,0-0.602,0.172-0.667,0.556L13.63,54.677c-0.042,0.25,0.028,0.544,0.167,0.708
			c0.021,0.023,0.073,0.081,0.119,0.081l0.212,0.047l6.299,2.953h14.356l6.107-3h0.115c0.021,0,0.088,0,0.164-0.09
			c0.109-0.132,0.158-0.349,0.123-0.558l-2.531-16.934C38.716,37.611,38.492,37.466,38.098,37.466z"/>
		<path d="M27.139,9.165c-2.806,0-11.444-0.132-12.819-1.699h-0.404c-0.021,0-0.088,0-0.163,0.089
			c-0.002,0.003-0.002,0.008-0.005,0.011l-1.13,0.322L8.441,9.08c0,0,2.031,4.062,5.032,6.72c0.355,0.314,0.721,0.61,1.102,0.876
			l1.588,14.391c0.044,0.256,0.269,0.399,0.663,0.399H38.1c0.284,0,0.603-0.172,0.667-0.556l2.525-22.636
			c0.023-0.147,0.008-0.296-0.027-0.433C38.126,9.147,27.66,9.165,27.139,9.165z"/>
		<path d="M40.958,6.974c-1.023-0.618-4.983-1.681-9.955-2l-1.618,1.492h-2.938l-1.757-1.455C19.902,5.38,16.16,6.42,15.266,7.008
			c0.992,0.521,5.291,1.157,11.874,1.157C33.597,8.165,39.556,7.545,40.958,6.974z"/>
		<polygon points="28.996,5.466 30.316,4.247 30.316,0.931 27.949,0 25.316,0.943 25.316,4.231 26.808,5.466 		"/>
	</g>
</g>
<g>
</g>
<g>
</g>
<g>
</g>
<g>
</g>
<g>
</g>
<g>
</g>
<g>
</g>
<g>
</g>
<g>
</g>
<g>
</g>
<g>
</g>
<g>
</g>
<g>
</g>
<g>
</g>
<g>
</g>
</svg>
