<?xml version="1.0" encoding="iso-8859-1"?>
<!-- Generator: Adobe Illustrator 18.1.1, SVG Export Plug-In . SVG Version: 6.00 Build 0)  -->
<svg version="1.1" id="Capa_1" xmlns="http://www.w3.org/2000/svg" xmlns:xlink="http://www.w3.org/1999/xlink" x="0px" y="0px"
	 viewBox="0 0 57.376 57.376" style="enable-background:new 0 0 57.376 57.376;" xml:space="preserve">
<g>
	<g>
		<path style="fill:#010002;" d="M48.471,15.366l-2.685-3.037c-0.421-0.476-2.653-0.999-4.265-0.999
			c-0.223,0-0.413,0.011-0.555,0.039l-0.952,0.183l0.044-1.027l0.195-4.587C36.968,7.972,24.165,8,24.017,8
			C19.356,8,11.393,7.588,8.343,6.184l1.886,44.313c-0.111,0.287-0.186,0.579-0.186,0.879c0,3.145,6.352,6,14.187,6
			c7.834,0,14.187-2.855,14.187-6c0-0.195-0.025-0.389-0.073-0.579l0.46-10.801l0.043-1.006l3.785-0.361
			c0.875-0.113,1.809-0.947,2.023-1.819l4.549-18.454C49.431,17.439,49.095,16.071,48.471,15.366z M19.294,51.861l-4.381-1.087
			l-0.611-39.73l4.992,0.416V51.861z M42.967,23.299l-0.087,0.654c-0.498,4.017-0.678,6.661-0.68,6.688
			c-0.164,4.515-2.065,5.712-3.048,5.712l-0.106-0.005c-0.031-0.003-0.055-0.007-0.086-0.01l0.043-1.002l0.725-17.017l0.042-1.002
			c1.649,0.191,3.258,1.002,3.431,2.541C43.308,20.817,43.119,22.193,42.967,23.299z"/>
		<path style="fill:#010002;" d="M40.023,4.877c-0.004-1.917-0.014-2.059-12.729-2.069V4h-6V2.808
			C8.104,2.815,8.101,2.935,8.101,4.903c0.3,0.737,5.879,2.096,15.917,2.096C33.259,6.999,39.669,5.742,40.023,4.877z"/>
		<rect x="22.294" style="fill:#010002;" width="4" height="3"/>
	</g>
</g>
<g>
</g>
<g>
</g>
<g>
</g>
<g>
</g>
<g>
</g>
<g>
</g>
<g>
</g>
<g>
</g>
<g>
</g>
<g>
</g>
<g>
</g>
<g>
</g>
<g>
</g>
<g>
</g>
<g>
</g>
</svg>
