<?xml version="1.0" encoding="iso-8859-1"?>
<!-- Generator: Adobe Illustrator 16.0.0, SVG Export Plug-In . SVG Version: 6.00 Build 0)  -->
<!DOCTYPE svg PUBLIC "-//W3C//DTD SVG 1.1//EN" "http://www.w3.org/Graphics/SVG/1.1/DTD/svg11.dtd">
<svg version="1.1" id="Capa_1" xmlns="http://www.w3.org/2000/svg" xmlns:xlink="http://www.w3.org/1999/xlink" x="0px" y="0px"
	 width="59px" height="59px" viewBox="0 0 59 59" style="enable-background:new 0 0 59 59;" xml:space="preserve">
<g>
	<g>
		<rect x="3" y="41.5" width="8" height="2"/>
		<rect x="48" y="41.5" width="8" height="2"/>
		<path d="M5.336,26.087l48.67,0.409l0.031-2.26c-1.077-1.982-4.055-2.866-7.387-2.792c-5.791,0.13-19.287-0.269-24.753,2.049
			c-0.263-0.053-1.521,0.886-1.779,0.826c-4.756-5.335-11.482-5.169-14.752-2.434L5.336,26.087z"/>
		<polygon points="54.993,27.504 4.33,27.079 4.414,15.5 0,15.5 0,40.5 3,40.5 11,40.5 48,40.5 56,40.5 59,40.5 59,21.497 
			55.077,21.473 		"/>
	</g>
</g>
<g>
</g>
<g>
</g>
<g>
</g>
<g>
</g>
<g>
</g>
<g>
</g>
<g>
</g>
<g>
</g>
<g>
</g>
<g>
</g>
<g>
</g>
<g>
</g>
<g>
</g>
<g>
</g>
<g>
</g>
</svg>
