<?xml version="1.0" encoding="iso-8859-1"?>
<!-- Generator: Adobe Illustrator 16.0.0, SVG Export Plug-In . SVG Version: 6.00 Build 0)  -->
<!DOCTYPE svg PUBLIC "-//W3C//DTD SVG 1.1//EN" "http://www.w3.org/Graphics/SVG/1.1/DTD/svg11.dtd">
<svg version="1.1" id="Capa_1" xmlns="http://www.w3.org/2000/svg" xmlns:xlink="http://www.w3.org/1999/xlink" x="0px" y="0px"
	 width="48px" height="48px" viewBox="0 0 48 48" style="enable-background:new 0 0 48 48;" xml:space="preserve">
<g>
	<g>
		<path d="M38.141,11.844C39.283,13.031,40,14.64,40,16.384v14.037c0,1.714-0.682,3.271-1.784,4.423h3.853
			c0.221,0.756,0.91,1.312,1.738,1.312s1.52-0.558,1.74-1.312H48v-23H38.141z M43.842,21.311c-1.224,0-2.216-0.992-2.216-2.216
			s0.992-2.216,2.216-2.216c1.225,0,2.217,0.992,2.217,2.216S45.066,21.311,43.842,21.311z"/>
		<path d="M33.551,11.844H11H0v23h2.762c0.221,0.756,0.912,1.312,1.74,1.312s1.519-0.558,1.74-1.312H11h22.551
			c2.453,0,4.449-1.984,4.449-4.423V16.384C38,13.923,35.963,11.844,33.551,11.844z M31,31.844H3v-17h28V31.844z M36,30.033
			c0,0.447-0.363,0.811-0.811,0.811h-0.379c-0.447,0-0.811-0.363-0.811-0.811V15.654c0-0.447,0.363-0.81,0.811-0.81h0.379
			c0.447,0,0.811,0.363,0.811,0.81V30.033z"/>
	</g>
</g>
<g>
</g>
<g>
</g>
<g>
</g>
<g>
</g>
<g>
</g>
<g>
</g>
<g>
</g>
<g>
</g>
<g>
</g>
<g>
</g>
<g>
</g>
<g>
</g>
<g>
</g>
<g>
</g>
<g>
</g>
</svg>
