<?xml version="1.0" encoding="iso-8859-1"?>
<!-- Generator: Adobe Illustrator 16.0.0, SVG Export Plug-In . SVG Version: 6.00 Build 0)  -->
<!DOCTYPE svg PUBLIC "-//W3C//DTD SVG 1.1//EN" "http://www.w3.org/Graphics/SVG/1.1/DTD/svg11.dtd">
<svg version="1.1" id="Capa_1" xmlns="http://www.w3.org/2000/svg" xmlns:xlink="http://www.w3.org/1999/xlink" x="0px" y="0px"
	 width="58px" height="58px" viewBox="0 0 58 58" style="enable-background:new 0 0 58 58;" xml:space="preserve">
<g>
	<g>
		<path d="M55.852,10.25H2.148C0.962,10.25,0,11.212,0,12.398v30.704c0,1.188,0.962,2.148,2.148,2.148H4.5v2.5h3v-2.5h43v2.5h3v-2.5
			h2.352c1.188,0,2.148-0.962,2.148-2.148V12.398C58,11.212,57.038,10.25,55.852,10.25z M47.5,42.75h-43v-3v-27h43V42.75z
			 M52.581,40.17c-1.886,0-3.414-1.527-3.414-3.414c0-1.885,1.528-3.414,3.414-3.414s3.414,1.529,3.414,3.414
			C55.995,38.643,54.467,40.17,52.581,40.17z M52.581,31.17c-1.886,0-3.414-1.527-3.414-3.414c0-1.885,1.528-3.414,3.414-3.414
			s3.414,1.529,3.414,3.414C55.995,29.643,54.467,31.17,52.581,31.17z M52.581,22.17c-1.886,0-3.414-1.528-3.414-3.414
			c0-1.885,1.528-3.414,3.414-3.414s3.414,1.529,3.414,3.414C55.995,20.642,54.467,22.17,52.581,22.17z"/>
		<rect x="5.5" y="13.75" width="41" height="5"/>
		<path d="M46.5,35.75c0,1.657-1.343,3-3,3h-35c-1.657,0-3-1.343-3-3v6h41V35.75z"/>
	</g>
</g>
<g>
</g>
<g>
</g>
<g>
</g>
<g>
</g>
<g>
</g>
<g>
</g>
<g>
</g>
<g>
</g>
<g>
</g>
<g>
</g>
<g>
</g>
<g>
</g>
<g>
</g>
<g>
</g>
<g>
</g>
</svg>
