<?xml version="1.0" encoding="iso-8859-1"?>
<!-- Generator: Adobe Illustrator 18.1.1, SVG Export Plug-In . SVG Version: 6.00 Build 0)  -->
<svg version="1.1" id="Capa_1" xmlns="http://www.w3.org/2000/svg" xmlns:xlink="http://www.w3.org/1999/xlink" x="0px" y="0px"
	 viewBox="0 0 54.052 54.052" style="enable-background:new 0 0 54.052 54.052;" xml:space="preserve">
<g>
	<g>
		<path style="fill:#010002;" d="M26.796,26.299c7.811,0,13.7-1.72,13.7-4c0-4.972,0-10.605-1.739-14.965
			C36.788,2.399,32.876,0,26.797,0C13.096,0,13.096,12.364,13.096,22.299C13.095,24.579,18.985,26.299,26.796,26.299z"/>
		<rect x="24.653" y="27.799" style="fill:#010002;" width="5" height="1"/>
		<rect x="24.653" y="29.799" style="fill:#010002;" width="5" height="1"/>
		<rect x="24.653" y="31.799" style="fill:#010002;" width="5" height="1"/>
		<path style="fill:#010002;" d="M38.135,33.421c-1.21,0-2.631,0.143-4.277,0.307c-2.049,0.205-4.371,0.437-6.832,0.437
			c-2.613,0-5.053-0.328-7.206-0.617c-1.668-0.224-3.109-0.417-4.302-0.417c-2.371,0-3.252,0.778-3.252,2.872
			c0,1.38,5.615,3.306,14.76,3.306s14.76-1.926,14.76-3.306C41.786,34.121,40.797,33.421,38.135,33.421z"/>
		<ellipse style="fill:#010002;" cx="14.83" cy="52.087" rx="1.626" ry="1.657"/>
		<path style="fill:#010002;" d="M38.703,49.43c0.307,0,0.597,0.063,0.871,0.162c-0.438-5.505-6.555-6.181-9.921-6.129
			c-0.369,0.005-0.708,0.019-1,0.036v-3.214c-0.541,0.014-1.084,0.022-1.627,0.022c-0.458,0-0.916-0.006-1.373-0.017v3.27
			c-0.243-0.024-0.583-0.053-1-0.073c-3.088-0.155-10.219,0.146-10.694,6.104c0.274-0.099,0.564-0.162,0.871-0.162
			c0.465,0,0.895,0.133,1.274,0.349c0.066-1.539,1.226-4.312,8.549-4.671c0.321-0.017,0.655-0.027,1-0.033v0.449v1.883v2.479
			c0.435-0.286,0.951-0.456,1.508-0.456c0.55,0,1.061,0.167,1.492,0.447v-2.471v-1.883v-0.428c0.347,0.015,0.68,0.034,1,0.059
			c6.634,0.511,7.712,3.14,7.776,4.623C37.808,49.563,38.238,49.43,38.703,49.43z"/>
		<ellipse style="fill:#010002;" cx="38.703" cy="52.087" rx="1.626" ry="1.657"/>
		<ellipse style="fill:#010002;" cx="27.161" cy="52.241" rx="1.778" ry="1.811"/>
	</g>
</g>
<g>
</g>
<g>
</g>
<g>
</g>
<g>
</g>
<g>
</g>
<g>
</g>
<g>
</g>
<g>
</g>
<g>
</g>
<g>
</g>
<g>
</g>
<g>
</g>
<g>
</g>
<g>
</g>
<g>
</g>
</svg>
