<?xml version="1.0" encoding="iso-8859-1"?>
<!-- Generator: Adobe Illustrator 18.1.1, SVG Export Plug-In . SVG Version: 6.00 Build 0)  -->
<svg version="1.1" id="Capa_1" xmlns="http://www.w3.org/2000/svg" xmlns:xlink="http://www.w3.org/1999/xlink" x="0px" y="0px"
	 viewBox="0 0 59.312 59.312" style="enable-background:new 0 0 59.312 59.312;" xml:space="preserve">
<g>
	<path style="fill:#010002;" d="M41.507,0c-9.225,0-16.729,7.504-16.729,16.728c0,2.829,0.711,5.492,1.956,7.831L2.525,48.979
		c-1.944,1.962-1.93,5.127,0.031,7.071c0.975,0.967,2.248,1.449,3.52,1.449c1.287,0,2.573-0.494,3.551-1.479l2.831-2.855
		l6.148,6.147l3.662-3.662l-2.951-3.027l2.148-2.094l2.924,3l2.702-2.701l-6.185-6.186l12.945-13.059
		c2.297,1.188,4.896,1.872,7.656,1.872c9.224,0,16.728-7.504,16.728-16.728S50.73,0,41.507,0z M41.507,27.456
		c-5.917,0-10.729-4.812-10.729-10.728S35.59,6,41.507,6c5.915,0,10.728,4.812,10.728,10.728S47.422,27.456,41.507,27.456z"/>
</g>
<g>
</g>
<g>
</g>
<g>
</g>
<g>
</g>
<g>
</g>
<g>
</g>
<g>
</g>
<g>
</g>
<g>
</g>
<g>
</g>
<g>
</g>
<g>
</g>
<g>
</g>
<g>
</g>
<g>
</g>
</svg>
