<?xml version="1.0" encoding="iso-8859-1"?>
<!-- Generator: Adobe Illustrator 18.1.1, SVG Export Plug-In . SVG Version: 6.00 Build 0)  -->
<svg version="1.1" id="Capa_1" xmlns="http://www.w3.org/2000/svg" xmlns:xlink="http://www.w3.org/1999/xlink" x="0px" y="0px"
	 viewBox="0 0 48 48" style="enable-background:new 0 0 48 48;" xml:space="preserve">
<g>
	<g>
		<path style="fill:#010002;" d="M46.5,5V2c0-1.105-0.895-2-2-2h-41c-1.105,0-2,0.895-2,2v3c0,0.366,0.105,0.705,0.277,1h44.445
			C46.395,5.705,46.5,5.366,46.5,5z M5.879,4.935c-1.103,0-1.997-0.894-1.997-1.997s0.894-1.997,1.997-1.997
			c0.696,0,1.307,0.357,1.665,0.896l-1.34,0.476C5.944,2.405,5.808,2.691,5.9,2.952c0.073,0.205,0.266,0.333,0.471,0.333
			c0.056,0,0.112-0.009,0.167-0.029L7.86,2.787c0.004,0.051,0.015,0.1,0.015,0.152C7.876,4.041,6.982,4.935,5.879,4.935z
			 M26.062,4.893c-1.092,0-1.977-0.885-1.977-1.976s0.885-1.976,1.977-1.976c0.703,0,1.316,0.37,1.666,0.923L26.68,2.236
			c-0.261,0.092-0.396,0.378-0.305,0.639c0.073,0.205,0.266,0.333,0.472,0.333c0.056,0,0.112-0.009,0.167-0.029l1.014-0.36
			c0.001,0.033,0.01,0.065,0.01,0.099C28.038,4.008,27.153,4.893,26.062,4.893z M33.757,4.893c-1.091,0-1.976-0.885-1.976-1.976
			s0.885-1.976,1.976-1.976c0.703,0,1.315,0.37,1.666,0.923l-1.048,0.372c-0.261,0.092-0.396,0.378-0.305,0.639
			c0.073,0.205,0.266,0.333,0.472,0.333c0.056,0,0.112-0.009,0.167-0.029l1.014-0.36c0.002,0.033,0.01,0.065,0.01,0.099
			C35.732,4.008,34.848,4.893,33.757,4.893z M41.452,4.893c-1.091,0-1.976-0.885-1.976-1.976s0.885-1.976,1.976-1.976
			c0.702,0,1.315,0.37,1.666,0.922l-1.049,0.373c-0.261,0.092-0.396,0.378-0.305,0.639c0.073,0.205,0.266,0.333,0.472,0.333
			c0.056,0,0.112-0.009,0.167-0.029l1.015-0.36c0.002,0.033,0.01,0.065,0.01,0.099C43.428,4.008,42.543,4.893,41.452,4.893z"/>
		<rect x="2.5" y="45" style="fill:#010002;" width="4" height="3"/>
		<rect x="40.5" y="45" style="fill:#010002;" width="4" height="3"/>
		<path style="fill:#010002;" d="M46.309,8H1.693C1.035,8,0.5,8.535,0.5,9.193v32.614C0.5,42.465,1.035,43,1.693,43h44.614
			c0.658,0,1.193-0.535,1.193-1.193V9.193C47.5,8.535,46.966,8,46.309,8z M23.625,40.125c-8.133,0-14.75-6.617-14.75-14.75
			s6.617-14.75,14.75-14.75s14.75,6.617,14.75,14.75S31.758,40.125,23.625,40.125z"/>
		<path style="fill:#010002;" d="M23.625,12.625c-7.03,0-12.75,5.72-12.75,12.75s5.72,12.75,12.75,12.75
			c4.604,0,8.634-2.461,10.875-6.129V18.754C32.259,15.086,28.229,12.625,23.625,12.625z"/>
	</g>
</g>
<g>
</g>
<g>
</g>
<g>
</g>
<g>
</g>
<g>
</g>
<g>
</g>
<g>
</g>
<g>
</g>
<g>
</g>
<g>
</g>
<g>
</g>
<g>
</g>
<g>
</g>
<g>
</g>
<g>
</g>
</svg>
