<?xml version="1.0" encoding="iso-8859-1"?>
<!-- Generator: Adobe Illustrator 18.1.1, SVG Export Plug-In . SVG Version: 6.00 Build 0)  -->
<svg version="1.1" id="Capa_1" xmlns="http://www.w3.org/2000/svg" xmlns:xlink="http://www.w3.org/1999/xlink" x="0px" y="0px"
	 viewBox="0 0 58.25 58.25" style="enable-background:new 0 0 58.25 58.25;" xml:space="preserve">
<g>
	<g>
		<rect x="48.255" y="55.25" style="fill:#010002;" width="3" height="3"/>
		<rect x="3.254" y="55.25" style="fill:#010002;" width="3" height="3"/>
		<path style="fill:#010002;" d="M48.255,54.25h3v-45h-3.659c-0.177-0.529-0.726-0.988-1.502-1.314l5.919-4.689
			c0.315,0.257,0.713,0.417,1.151,0.417c1.012,0,1.832-0.82,1.832-1.832S54.176,0,53.164,0s-1.832,0.82-1.832,1.832
			c0,0.209,0.042,0.406,0.106,0.593l-6.51,5.157c-0.479-0.094-0.992-0.151-1.535-0.151c-0.048,0-0.092,0.006-0.139,0.007V3.303
			c0.452-0.333,0.749-0.866,0.749-1.471C44.002,0.82,43.182,0,42.17,0s-1.832,0.82-1.832,1.832s0.82,1.832,1.832,1.832
			c0.028,0,0.055-0.007,0.083-0.008V7.52c-1.578,0.224-2.784,0.892-3.064,1.73H3.254v45h3H48.255z M36.255,46.25h-1
			c-0.276,0-0.5-0.224-0.5-0.5s0.224-0.5,0.5-0.5h1c0.276,0,0.5,0.224,0.5,0.5S36.531,46.25,36.255,46.25z M40.255,46.25h-2
			c-0.276,0-0.5-0.224-0.5-0.5s0.224-0.5,0.5-0.5h2c0.276,0,0.5,0.224,0.5,0.5S40.531,46.25,40.255,46.25z M44.255,46.25h-1
			c-0.276,0-0.5-0.224-0.5-0.5s0.224-0.5,0.5-0.5h1c0.276,0,0.5,0.224,0.5,0.5S44.531,46.25,44.255,46.25z M47.255,46.25h-1
			c-0.276,0-0.5-0.224-0.5-0.5s0.224-0.5,0.5-0.5h1c0.276,0,0.5,0.224,0.5,0.5S47.531,46.25,47.255,46.25z M10.254,14.25h35v28h-35
			V14.25z"/>
	</g>
</g>
<g>
</g>
<g>
</g>
<g>
</g>
<g>
</g>
<g>
</g>
<g>
</g>
<g>
</g>
<g>
</g>
<g>
</g>
<g>
</g>
<g>
</g>
<g>
</g>
<g>
</g>
<g>
</g>
<g>
</g>
</svg>
