<?xml version="1.0" encoding="iso-8859-1"?>
<!-- Generator: Adobe Illustrator 18.1.1, SVG Export Plug-In . SVG Version: 6.00 Build 0)  -->
<svg version="1.1" id="Capa_1" xmlns="http://www.w3.org/2000/svg" xmlns:xlink="http://www.w3.org/1999/xlink" x="0px" y="0px"
	 viewBox="0 0 56 56" style="enable-background:new 0 0 56 56;" xml:space="preserve">
<g>
	<g>
		<path style="fill:#010002;" d="M0,8.5v39h56v-39H0z M47.292,44.591c-0.176,0.521-0.548,0.821-1.022,0.821
			c-0.356,0-0.701-0.172-0.9-0.449c-0.204-0.283-0.24-0.65-0.103-1.062c0.096-0.286,0.209-0.592,0.331-0.906
			c0.559-0.219,0.989-0.256,1.283-0.104c0.285,0.146,0.501,0.498,0.646,1.049C47.449,44.155,47.361,44.386,47.292,44.591z
			 M45.323,17.134c-0.404,0.529-0.518,1.219-0.319,1.945c0.171,0.624,0.348,1.23,0.524,1.825c-1.254-0.472-2.153-1.675-2.153-3.092
			c0-1.827,1.486-3.313,3.312-3.313c1.827,0,3.313,1.486,3.313,3.313c0,0.677-0.206,1.307-0.557,1.832
			c-0.162-0.553-0.323-1.115-0.481-1.693c-0.328-1.2-1.241-1.627-1.986-1.627C46.328,16.324,45.71,16.627,45.323,17.134z M9,44.5H3
			v-1h6V44.5z M20.5,45.333c-9.665,0-17.5-7.835-17.5-17.5s7.835-17.5,17.5-17.5S38,18.168,38,27.833S30.165,45.333,20.5,45.333z
			 M47.335,42c-0.365-0.187-0.784-0.241-1.269-0.166c0.177-0.423,0.36-0.854,0.551-1.301c1.327-3.102,2.831-6.617,2.528-9.205
			c-0.384-3.277-1.224-6.012-2.111-8.908c-0.357-1.163-0.722-2.35-1.065-3.605c-0.116-0.423-0.064-0.794,0.149-1.074
			c0.199-0.261,0.52-0.417,0.858-0.417c0.233,0,0.802,0.087,1.021,0.891c0.341,1.244,0.694,2.42,1.04,3.571
			c0.874,2.906,1.7,5.65,2.123,8.9c0.381,2.922-1.217,6.996-2.627,10.592c-0.18,0.458-0.35,0.896-0.517,1.331
			C47.828,42.343,47.604,42.137,47.335,42z M53,44.5h-3v-1h3V44.5z"/>
		<path style="fill:#010002;" d="M20.5,11.5c-9.021,0-16.333,7.312-16.333,16.333S11.479,44.166,20.5,44.166
			s16.333-7.312,16.333-16.333S29.521,11.5,20.5,11.5z M6.875,20.875c2.25-4.875,5.875-6.25,5.875-6.25l3.375,6l-2.75,3
			L6.875,20.875z M20.5,34.375c-3.728,0-6.75-3.021-6.75-6.75c0-3.728,3.022-6.75,6.75-6.75s6.75,3.022,6.75,6.75
			C27.25,31.354,24.228,34.375,20.5,34.375z"/>
		<circle style="fill:#010002;" cx="20.562" cy="27.312" r="1.312"/>
	</g>
</g>
<g>
</g>
<g>
</g>
<g>
</g>
<g>
</g>
<g>
</g>
<g>
</g>
<g>
</g>
<g>
</g>
<g>
</g>
<g>
</g>
<g>
</g>
<g>
</g>
<g>
</g>
<g>
</g>
<g>
</g>
</svg>
