<?xml version="1.0" encoding="iso-8859-1"?>
<!-- Generator: Adobe Illustrator 18.1.1, SVG Export Plug-In . SVG Version: 6.00 Build 0)  -->
<svg version="1.1" id="Capa_1" xmlns="http://www.w3.org/2000/svg" xmlns:xlink="http://www.w3.org/1999/xlink" x="0px" y="0px"
	 viewBox="0 0 56.75 56.75" style="enable-background:new 0 0 56.75 56.75;" xml:space="preserve">
<g>
	<g>
		<path style="fill:#010002;" d="M37.658,27.766c2.228-1.483,4.576-2.457,6.105-2.558l-6.755-8.77l-0.038,0.023
			c-0.283-0.285-0.696-0.429-1.227-0.423c-0.418,0.004-0.898,0.091-1.421,0.249c-2.094-3.602-5.88-8.582-8.397-10.792
			c-1.8-1.581-4.664-1.128-7.179-0.786C17.606,1.93,15.13,0,12.25,0C8.289,0,5.078,3.644,5.078,8.139s3.211,8.139,7.172,8.139
			c3.185,0,5.881-2.358,6.817-5.618c1.591-0.252,3.353-0.586,4.139,0.185c1.166,1.145,4.25,5.713,5.958,8.59
			c-0.352,0.377-0.63,0.752-0.809,1.112c-0.23,0.464-0.285,0.894-0.164,1.271l-0.056,0.034l4.931,10.298
			c0.169-0.292,0.381-0.607,0.671-0.963C34.673,30.042,36.065,28.826,37.658,27.766z"/>
		<path style="fill:#010002;" d="M45.505,27.47c-0.012,0.028-0.02,0.056-0.032,0.084l0.066-0.04L45.505,27.47z"/>
		<path style="fill:#010002;" d="M44.681,26.373c-0.077-0.116-0.323-0.185-0.657-0.185c-1.31,0-3.646,0.968-5.811,2.409
			c-1.491,0.993-2.84,2.167-3.7,3.223c-0.936,1.146-0.983,1.748-0.878,1.906c0.076,0.113,0.319,0.182,0.65,0.182
			c1.318,0,3.668-0.976,5.848-2.426C43.549,29.208,45.019,26.882,44.681,26.373z"/>
		<path style="fill:#010002;" d="M42.156,39.809l-1.159-2.567c-0.228-0.502-0.818-0.728-1.323-0.499
			c-0.503,0.228-0.727,0.819-0.499,1.323l1.159,2.566c0.167,0.369,0.53,0.588,0.912,0.588c0.138,0,0.277-0.028,0.411-0.089
			C42.16,40.904,42.384,40.312,42.156,39.809z"/>
		<path style="fill:#010002;" d="M44.524,48.004c-0.342-0.754-1.234-1.088-1.986-0.744c-0.754,0.343-1.087,1.232-0.744,1.986
			l3.014,6.625c0.251,0.553,0.796,0.879,1.366,0.879c0.208,0,0.419-0.043,0.62-0.135c0.754-0.343,1.087-1.232,0.744-1.986
			L44.524,48.004z"/>
		<path style="fill:#010002;" d="M49.266,40.672c0.169,0.364,0.53,0.578,0.907,0.578c0.141,0,0.284-0.03,0.421-0.094
			c0.501-0.232,0.718-0.827,0.484-1.328l-4.014-8.625c-0.231-0.5-0.825-0.718-1.328-0.484c-0.501,0.232-0.718,0.827-0.484,1.328
			L49.266,40.672z"/>
		<path style="fill:#010002;" d="M51.528,49.61l-5.014-10.625c-0.354-0.75-1.25-1.07-1.996-0.717
			c-0.75,0.354-1.07,1.247-0.717,1.996l5.014,10.625c0.256,0.543,0.795,0.86,1.357,0.86c0.215,0,0.433-0.046,0.639-0.144
			C51.562,51.253,51.882,50.359,51.528,49.61z"/>
	</g>
</g>
<g>
</g>
<g>
</g>
<g>
</g>
<g>
</g>
<g>
</g>
<g>
</g>
<g>
</g>
<g>
</g>
<g>
</g>
<g>
</g>
<g>
</g>
<g>
</g>
<g>
</g>
<g>
</g>
<g>
</g>
</svg>
