<?xml version="1.0" encoding="iso-8859-1"?>
<!-- Generator: Adobe Illustrator 18.1.1, SVG Export Plug-In . SVG Version: 6.00 Build 0)  -->
<svg version="1.1" id="Capa_1" xmlns="http://www.w3.org/2000/svg" xmlns:xlink="http://www.w3.org/1999/xlink" x="0px" y="0px"
	 viewBox="0 0 56 56" style="enable-background:new 0 0 56 56;" xml:space="preserve">
<g>
	<g>
		<path style="fill:#010002;" d="M55,13h-3c-0.552,0-1,0.448-1,1v6.479c0.341,0.635,0.552,1.35,0.552,2.12s-0.211,1.484-0.552,2.12
			V27h-2.958c-0.328,0.076-0.666,0.125-1.017,0.125S46.337,27.076,46.009,27H5v-9c0-0.552-0.448-1-1-1H1c-0.552,0-1,0.448-1,1v10v5
			v9c0,0.552,0.448,1,1,1h3c0.552,0,1-0.448,1-1v-8h46v8c0,0.552,0.448,1,1,1h3c0.552,0,1-0.448,1-1V14C56,13.448,55.552,13,55,13z"
			/>
		<path style="fill:#010002;" d="M42.813,20.977L35,20H13.875L6,21v5h37v-1.376c-0.31-0.612-0.5-1.293-0.5-2.024
			C42.5,22.026,42.618,21.482,42.813,20.977z"/>
		<path style="fill:#010002;" d="M47.025,26.125c1.944,0,3.526-1.582,3.526-3.526s-1.582-3.526-3.526-3.526S43.5,20.655,43.5,22.599
			S45.081,26.125,47.025,26.125z"/>
	</g>
</g>
<g>
</g>
<g>
</g>
<g>
</g>
<g>
</g>
<g>
</g>
<g>
</g>
<g>
</g>
<g>
</g>
<g>
</g>
<g>
</g>
<g>
</g>
<g>
</g>
<g>
</g>
<g>
</g>
<g>
</g>
</svg>
