<?xml version="1.0" encoding="iso-8859-1"?>
<!-- Generator: Adobe Illustrator 16.0.0, SVG Export Plug-In . SVG Version: 6.00 Build 0)  -->
<!DOCTYPE svg PUBLIC "-//W3C//DTD SVG 1.1//EN" "http://www.w3.org/Graphics/SVG/1.1/DTD/svg11.dtd">
<svg version="1.1" id="Capa_1" xmlns="http://www.w3.org/2000/svg" xmlns:xlink="http://www.w3.org/1999/xlink" x="0px" y="0px"
	 width="331.333px" height="331.333px" viewBox="0 0 331.333 331.333" style="enable-background:new 0 0 331.333 331.333;"
	 xml:space="preserve">
<g>
	<g>
		<path d="M29.297,171.461h2.294c-5.065,9.596-7.968,20.507-7.968,32.09v97.037c0,16.952,13.793,30.745,30.744,30.745h55.34
			c16.952,0,30.745-13.793,30.745-30.745v-49.191h48.591l0.48,49.359c0.156,16.862,14.003,30.577,30.864,30.577h55.341
			c16.951,0,30.744-13.793,30.744-30.745v-97.037c0-11.583-2.906-22.494-7.969-32.09h3.525c9.188,0,16.897-4.863,20.128-12.685
			c3.23-7.821,1.183-16.708-5.332-23.181l-35.248-35.056c0.12-0.91,0.3-1.778,0.3-2.783V54.557
			c0-13.544-10.977-24.521-24.518-24.521h-0.156c-12.718,0-23.059,9.728-24.271,22.131L190.423,9.899
			C184.041,3.51,175.507,0,166.396,0c-9.434,0-18.714,3.873-25.397,10.562L14.546,135.576c-6.537,6.468-8.602,15.354-5.381,23.188
			C12.387,166.592,20.098,171.461,29.297,171.461z M269.579,203.551v90.889h-43.217l-0.479-49.359
			c-0.15-16.861-13.998-30.576-30.859-30.576h-60.72c-16.952,0-30.745,13.793-30.745,30.744v49.191H60.516v-90.889
			c0-17.696,14.393-32.09,32.092-32.09h144.875C255.185,171.461,269.579,185.854,269.579,203.551z M166.038,37.68l97.434,96.887
			h-25.989H92.608H68.043L166.038,37.68z"/>
	</g>
</g>
<g>
</g>
<g>
</g>
<g>
</g>
<g>
</g>
<g>
</g>
<g>
</g>
<g>
</g>
<g>
</g>
<g>
</g>
<g>
</g>
<g>
</g>
<g>
</g>
<g>
</g>
<g>
</g>
<g>
</g>
</svg>
