<?xml version="1.0" encoding="iso-8859-1"?>
<!-- Generator: Adobe Illustrator 16.0.0, SVG Export Plug-In . SVG Version: 6.00 Build 0)  -->
<!DOCTYPE svg PUBLIC "-//W3C//DTD SVG 1.1//EN" "http://www.w3.org/Graphics/SVG/1.1/DTD/svg11.dtd">
<svg version="1.1" id="Capa_1" xmlns="http://www.w3.org/2000/svg" xmlns:xlink="http://www.w3.org/1999/xlink" x="0px" y="0px"
	 width="55.126px" height="55.126px" viewBox="0 0 55.126 55.126" style="enable-background:new 0 0 55.126 55.126;"
	 xml:space="preserve">
<g>
	<g>
		<path d="M44.281,28.009l-33.458,7.824c-0.019,0.005-0.036,0.014-0.054,0.019c-0.089,0.023-0.175,0.058-0.262,0.09
			c-0.069,0.026-0.139,0.05-0.205,0.08c-0.072,0.035-0.139,0.08-0.208,0.122c-0.072,0.044-0.145,0.086-0.211,0.137
			c-0.056,0.043-0.106,0.094-0.159,0.142c-0.071,0.062-0.141,0.126-0.204,0.197c-0.013,0.015-0.028,0.023-0.04,0.039
			c-0.035,0.042-0.058,0.089-0.09,0.132c-0.054,0.074-0.108,0.146-0.154,0.227c-0.041,0.069-0.072,0.142-0.105,0.213
			c-0.034,0.074-0.068,0.147-0.095,0.227C9.01,37.533,8.992,37.61,8.973,37.69c-0.019,0.077-0.037,0.154-0.048,0.234
			c-0.011,0.083-0.015,0.165-0.018,0.248c-0.003,0.078-0.007,0.155-0.002,0.234c0.005,0.093,0.021,0.184,0.036,0.274
			c0.009,0.052,0.008,0.104,0.02,0.155c0.005,0.02,0.014,0.038,0.019,0.058c0.017,0.063,0.04,0.125,0.062,0.188
			c0.029,0.084,0.06,0.168,0.098,0.247c0.026,0.057,0.056,0.109,0.087,0.164c0.047,0.084,0.098,0.164,0.154,0.24
			c0.033,0.047,0.067,0.092,0.104,0.136c0.072,0.086,0.15,0.164,0.232,0.238c0.024,0.022,0.043,0.05,0.068,0.07l4.825,4.062
			c0.482,7.42,5.859,10.885,12.435,10.885c6.893,0,12.48-9.195,12.48-17.376l-19.784,4.278l-2.924-2.463l28.603-6.688
			c1.345-0.314,2.18-1.659,1.864-3.004C46.972,28.528,45.626,27.7,44.281,28.009z"/>
		<path d="M48.397,18.676c-0.326-1.341-1.676-2.166-3.02-1.839l-36.81,8.942c-1.341,0.326-2.165,1.678-1.839,3.019
			c0.278,1.144,1.3,1.911,2.427,1.911c0.195,0,0.394-0.023,0.592-0.071l36.809-8.942C47.899,21.37,48.723,20.018,48.397,18.676z"/>
		<path d="M7.846,17.616c0.276,1.146,1.3,1.916,2.429,1.916c0.193,0,0.39-0.022,0.587-0.07l27.868-6.707
			c1.343-0.323,2.169-1.673,1.846-3.016c-0.321-1.342-1.674-2.171-3.016-1.846L9.692,14.6C8.349,14.924,7.521,16.274,7.846,17.616z"
			/>
		<path d="M10.274,9.472c0.19,0,0.383-0.022,0.577-0.067l18.927-4.471c1.344-0.317,2.175-1.664,1.857-3.008
			c-0.318-1.344-1.664-2.176-3.008-1.858L9.701,4.538C8.357,4.855,7.525,6.202,7.843,7.546C8.115,8.696,9.141,9.472,10.274,9.472z"
			/>
	</g>
</g>
<g>
</g>
<g>
</g>
<g>
</g>
<g>
</g>
<g>
</g>
<g>
</g>
<g>
</g>
<g>
</g>
<g>
</g>
<g>
</g>
<g>
</g>
<g>
</g>
<g>
</g>
<g>
</g>
<g>
</g>
</svg>
