<?xml version="1.0" encoding="iso-8859-1"?>
<!-- Generator: Adobe Illustrator 18.1.1, SVG Export Plug-In . SVG Version: 6.00 Build 0)  -->
<svg version="1.1" id="Capa_1" xmlns="http://www.w3.org/2000/svg" xmlns:xlink="http://www.w3.org/1999/xlink" x="0px" y="0px"
	 viewBox="0 0 55 55" style="enable-background:new 0 0 55 55;" xml:space="preserve">
<g>
	<g>
		<path style="fill:#010002;" d="M5,20v5.696C5,26.14,5.36,26.5,5.804,26.5h13.392C19.64,26.5,20,26.14,20,25.696v-6.392
			c0-0.444-0.36-0.804-0.804-0.804H6.5C5.673,18.5,5,19.173,5,20z M9,21.5C9,21.224,9.224,21,9.5,21s0.5,0.224,0.5,0.5h5
			c0-0.276,0.224-0.5,0.5-0.5s0.5,0.224,0.5,0.5v1c0,0.276-0.224,0.5-0.5,0.5S15,22.776,15,22.5h-5c0,0.276-0.224,0.5-0.5,0.5
			S9,22.776,9,22.5V21.5z"/>
		<path style="fill:#010002;" d="M53.5,13.5h-52C0.673,13.5,0,14.173,0,15v25c0,0.827,0.673,1.5,1.5,1.5h1C3.327,41.5,4,40.827,4,40
			v-1.512C4.04,38.491,4.078,38.5,4.118,38.5H5h15.007c0.361,0,0.696-0.093,0.993-0.243v1.17c0,1.145,0.895,2.073,2,2.073
			s2-0.928,2-2.073V18.5v-0.843c0-0.054-0.011-0.104-0.015-0.157H48.5c1.379,0,2.5,1.122,2.5,2.5v20c0,0.827,0.673,1.5,1.5,1.5h1
			c0.827,0,1.5-0.673,1.5-1.5V15C55,14.173,54.327,13.5,53.5,13.5z M21,17.657V18.5v16.244c-0.298-0.15-0.633-0.244-0.994-0.244H5
			H4.118c-0.04,0-0.078,0.009-0.118,0.012V20c0-1.378,1.122-2.5,2.5-2.5h14.515C21.011,17.553,21,17.604,21,17.657z"/>
	</g>
</g>
<g>
</g>
<g>
</g>
<g>
</g>
<g>
</g>
<g>
</g>
<g>
</g>
<g>
</g>
<g>
</g>
<g>
</g>
<g>
</g>
<g>
</g>
<g>
</g>
<g>
</g>
<g>
</g>
<g>
</g>
</svg>
