<?xml version="1.0" encoding="iso-8859-1"?>
<!-- Generator: Adobe Illustrator 18.1.1, SVG Export Plug-In . SVG Version: 6.00 Build 0)  -->
<svg version="1.1" id="Capa_1" xmlns="http://www.w3.org/2000/svg" xmlns:xlink="http://www.w3.org/1999/xlink" x="0px" y="0px"
	 viewBox="0 0 58.574 58.574" style="enable-background:new 0 0 58.574 58.574;" xml:space="preserve">
<g>
	<g>
		<path style="fill:#010002;" d="M29.272,56.659c-4.321,0-8.996-0.891-12.633-3.021c-0.355,0.408-0.555,0.818-0.555,1.213
			c0,2.444,6.609,3.723,13.138,3.723s13.139-1.278,13.139-3.723c0-0.382-0.191-0.778-0.524-1.174
			C38.209,55.779,33.566,56.659,29.272,56.659z"/>
		<path style="fill:#010002;" d="M45.171,34.903c-4.532,1.191-10.369,2.243-16.858,2.243c-5.229,0-10.261-0.688-15.058-2.019
			c-1.269,2.343-2.021,4.916-2.021,7.537c0,9.591,9.717,12.994,18.038,12.994c8.32,0,18.037-3.403,18.037-12.994
			C47.31,39.96,46.515,37.304,45.171,34.903z M39.595,52.165l-0.001-0.003c-0.015,0.007-0.028,0.013-0.041,0.017l-0.169-0.514
			l-0.329-0.312c0.05-0.053,4.899-5.329,0.991-13.047l-0.298-0.589l4.836-0.953l0.143,0.412
			C44.767,37.291,48.603,48.743,39.595,52.165z"/>
		<path style="fill:#010002;" d="M53.912,30.852L40.677,0L15.322,0.062L4.662,30.818c7.224,3.536,15.179,5.328,23.651,5.328
			C41.353,36.146,51.713,31.838,53.912,30.852z"/>
	</g>
</g>
<g>
</g>
<g>
</g>
<g>
</g>
<g>
</g>
<g>
</g>
<g>
</g>
<g>
</g>
<g>
</g>
<g>
</g>
<g>
</g>
<g>
</g>
<g>
</g>
<g>
</g>
<g>
</g>
<g>
</g>
</svg>
