<?xml version="1.0" encoding="iso-8859-1"?>
<!-- Generator: Adobe Illustrator 16.0.0, SVG Export Plug-In . SVG Version: 6.00 Build 0)  -->
<!DOCTYPE svg PUBLIC "-//W3C//DTD SVG 1.1//EN" "http://www.w3.org/Graphics/SVG/1.1/DTD/svg11.dtd">
<svg version="1.1" id="Capa_1" xmlns="http://www.w3.org/2000/svg" xmlns:xlink="http://www.w3.org/1999/xlink" x="0px" y="0px"
	 width="50px" height="50px" viewBox="0 0 50 50" style="enable-background:new 0 0 50 50;" xml:space="preserve">
<g>
	<g>
		<path d="M38.5,0h-27C5.159,0,0,5.159,0,11.5v27C0,44.841,5.159,50,11.5,50h27C44.841,50,50,44.841,50,38.5v-27
			C50,5.159,44.841,0,38.5,0z M47,36.162C47,42.139,42.139,47,36.162,47H13.838C7.862,47,3,42.139,3,36.162V13.838
			C3,7.862,7.862,3,13.838,3h22.324C42.139,3,47,7.862,47,13.838V36.162z"/>
		<path d="M36.162,5H13.838C8.965,5,5,8.965,5,13.838v22.324C5,41.035,8.965,45,13.838,45h22.324C41.035,45,45,41.035,45,36.162
			V13.838C45,8.965,41.035,5,36.162,5z M25,7h1v7h-1V7z M14,25H7v-1h7V25z M26,43h-1v-7h1V43z M39.012,40.562
			c-0.097,0.084-0.214,0.125-0.332,0.125c-0.139,0-0.275-0.059-0.375-0.17L25.825,26.373c-0.821,0.425-1.128,0.07-1.421-0.223
			c-0.528-0.527-1.176-1.116,2.725-4.635l11.555-9.649l-9.644,11.56c-1.021,1.147-1.787,1.895-2.384,2.377l12.398,14.053
			C39.236,40.062,39.218,40.38,39.012,40.562z M43,25h-7v-1h7V25z"/>
	</g>
</g>
<g>
</g>
<g>
</g>
<g>
</g>
<g>
</g>
<g>
</g>
<g>
</g>
<g>
</g>
<g>
</g>
<g>
</g>
<g>
</g>
<g>
</g>
<g>
</g>
<g>
</g>
<g>
</g>
<g>
</g>
</svg>
