<?xml version="1.0" encoding="iso-8859-1"?>
<!-- Generator: Adobe Illustrator 16.0.0, SVG Export Plug-In . SVG Version: 6.00 Build 0)  -->
<!DOCTYPE svg PUBLIC "-//W3C//DTD SVG 1.1//EN" "http://www.w3.org/Graphics/SVG/1.1/DTD/svg11.dtd">
<svg version="1.1" id="Capa_1" xmlns="http://www.w3.org/2000/svg" xmlns:xlink="http://www.w3.org/1999/xlink" x="0px" y="0px"
	 width="48px" height="48px" viewBox="0 0 48 48" style="enable-background:new 0 0 48 48;" xml:space="preserve">
<g>
	<g>
		<path d="M44.036,39c0.139,0,0.274,0.025,0.407,0.061L44.442,28.75c0-2.466-0.461-16.08-1.282-17.75H4.75
			c-0.821,1.669-1.307,15.377-1.307,17.75v10.354C3.611,39.04,3.786,39,3.964,39H44.036z M19.583,29h1.86V15.962
			c0-1.084,0.878-1.962,1.962-1.962h0.077c1.083,0,1.961,0.878,1.961,1.962V29h1.94c0.443,0,1.477,0.195,1.477,2s-1.032,2-1.477,2
			h-1.94v1.038c0,1.084-0.878,1.962-1.962,1.962h-0.077c-1.083,0-1.961-0.878-1.961-1.962V33h-1.86c-0.443,0-1.475-0.195-1.475-2
			S19.14,29,19.583,29z"/>
		<path d="M44.756,40.654C44.713,40.307,44.376,40,44.036,40H3.964c-0.318,0-0.675,0.361-0.721,0.729l-0.814,6.609
			c-0.022,0.182,0.039,0.377,0.159,0.514C2.648,47.92,2.747,48,2.882,48h7.561v-3.917c0-0.599,0.485-1.083,1.083-1.083H37.36
			c0.599,0,1.083,0.484,1.083,1.083V48h6.677c0.133,0,0.23-0.08,0.29-0.146c0.121-0.139,0.185-0.343,0.161-0.521L44.756,40.654z"/>
		<path d="M22.443,34.02c0,0.541,0.439,0.98,0.981,0.98h0.038c0.542,0,0.981-0.439,0.981-0.98V33h-2V34.02z"/>
		<path d="M24.443,15.981c0-0.542-0.439-0.981-0.981-0.981h-0.038c-0.542,0-0.981,0.439-0.981,0.981V29h2V15.981z"/>
		<path d="M19.583,32h7.8c0.13,0,0.477,0,0.477-1s-0.347-1-0.477-1h-7.8c-0.13,0-0.475,0-0.475,1S19.453,32,19.583,32z"/>
		<rect x="11.443" y="4" width="5" height="5"/>
		<rect x="11.443" width="5" height="3"/>
		<rect x="29.443" width="5" height="3"/>
		<rect x="29.443" y="4" width="5" height="5"/>
	</g>
</g>
<g>
</g>
<g>
</g>
<g>
</g>
<g>
</g>
<g>
</g>
<g>
</g>
<g>
</g>
<g>
</g>
<g>
</g>
<g>
</g>
<g>
</g>
<g>
</g>
<g>
</g>
<g>
</g>
<g>
</g>
</svg>
