<?xml version="1.0" encoding="iso-8859-1"?>
<!-- Generator: Adobe Illustrator 16.0.0, SVG Export Plug-In . SVG Version: 6.00 Build 0)  -->
<!DOCTYPE svg PUBLIC "-//W3C//DTD SVG 1.1//EN" "http://www.w3.org/Graphics/SVG/1.1/DTD/svg11.dtd">
<svg version="1.1" id="Capa_1" xmlns="http://www.w3.org/2000/svg" xmlns:xlink="http://www.w3.org/1999/xlink" x="0px" y="0px"
	 width="57.792px" height="57.792px" viewBox="0 0 57.792 57.792" style="enable-background:new 0 0 57.792 57.792;"
	 xml:space="preserve">
<g>
	<g>
		<rect x="24.396" y="30" width="8" height="1"/>
		<path d="M4.396,0v29h49V0H4.396z M7.396,3h43v21h-43V3z M50.396,27h-2c-0.275,0-0.5-0.224-0.5-0.5s0.225-0.5,0.5-0.5h2
			c0.275,0,0.5,0.224,0.5,0.5S50.671,27,50.396,27z"/>
		<path d="M43.142,33h-4.746v2h-21v-2h-1.552c-5.836,0-10.448,6.074-10.448,11.91v7.045c0,2.159,1,4.164,3,5.837v-10.24
			C8.396,41.716,12.649,37,18.486,37h22.016c5.836,0,10.895,4.716,10.895,10.552v10.24c1-1.673,2-3.678,2-5.837V44.91
			C53.396,39.074,48.978,33,43.142,33z"/>
		<path d="M10.396,47.102V56h18V40h-9.322C14.283,40,10.396,42.516,10.396,47.102z M22.396,49.174c0-0.648,0.526-1.174,1.174-1.174
			h0.652c0.648,0,1.174,0.525,1.174,1.174v0.652c0,0.648-0.526,1.174-1.174,1.174H23.57c-0.648,0-1.174-0.525-1.174-1.174V49.174z"
			/>
		<path d="M40.25,40h-9.854v16h18v-8.898C48.396,42.516,45.3,40,40.25,40z M36.396,49.826c0,0.648-0.525,1.174-1.174,1.174H34.57
			c-0.648,0-1.174-0.525-1.174-1.174v-0.652c0-0.648,0.525-1.174,1.174-1.174h0.652c0.648,0,1.174,0.525,1.174,1.174V49.826z"/>
		<path d="M19.707,32c-0.126,0-0.296-0.008-0.482-0.016c-0.28-0.015-0.635-0.023-0.829-0.018V34h19v-1.984
			C37.187,32.008,36.938,32,36.714,32h-4.318h-8H19.707z"/>
	</g>
</g>
<g>
</g>
<g>
</g>
<g>
</g>
<g>
</g>
<g>
</g>
<g>
</g>
<g>
</g>
<g>
</g>
<g>
</g>
<g>
</g>
<g>
</g>
<g>
</g>
<g>
</g>
<g>
</g>
<g>
</g>
</svg>
