<?xml version="1.0" encoding="iso-8859-1"?>
<!-- Generator: Adobe Illustrator 18.1.1, SVG Export Plug-In . SVG Version: 6.00 Build 0)  -->
<svg version="1.1" id="Capa_1" xmlns="http://www.w3.org/2000/svg" xmlns:xlink="http://www.w3.org/1999/xlink" x="0px" y="0px"
	 viewBox="0 0 514.409 514.409" style="enable-background:new 0 0 514.409 514.409;" xml:space="preserve">
<g>
	<g>
		<path style="fill:#010002;" d="M171.197,61.615L23.517,96.779V471.27l149.094,43.138l146.046-42.26c0,0,0.504-371.102,0-371.2
			L171.197,61.615z M302.709,456.988l-112.719,32.596V154.646l112.719-32.596V456.988z"/>
		<polygon style="fill:#010002;" points="204.37,175.447 204.37,228.641 214.059,225.893 242.087,217.992 242.087,164.815 
			214.059,172.716 		"/>
		<polygon style="fill:#010002;" points="290.297,151.273 252.597,161.905 252.597,215.098 290.297,204.458 		"/>
		<polygon style="fill:#010002;" points="204.37,245.068 204.37,298.262 214.059,295.514 242.087,287.605 242.087,234.428 
			214.059,242.345 		"/>
		<polygon style="fill:#010002;" points="290.297,220.894 252.597,231.534 252.597,284.72 290.297,274.079 		"/>
		<polygon style="fill:#010002;" points="204.37,314.69 204.37,367.875 214.059,365.144 242.087,357.251 242.087,304.057 
			214.059,311.95 		"/>
		<polygon style="fill:#010002;" points="290.297,290.523 252.597,301.139 252.597,354.325 290.297,343.692 		"/>
		<path style="fill:#010002;" d="M490.675,37.001L344.637,0L195.526,32.839v20.256l137.601,36.123c0,0,0,324.972-0.041,357.885
			l11.551,3.341l146.038-42.228C490.675,408.217,491.162,37.099,490.675,37.001z M474.718,393.041l-112.695,32.62V90.707
			l112.695-32.604C474.718,58.103,474.718,393.041,474.718,393.041z"/>
		<polygon style="fill:#010002;" points="376.379,111.516 376.379,164.693 386.068,161.962 414.095,154.061 414.095,100.876 
			386.068,108.777 		"/>
		<polygon style="fill:#010002;" points="462.306,87.333 424.614,97.974 424.614,151.151 462.306,140.527 		"/>
		<polygon style="fill:#010002;" points="376.379,181.129 376.379,234.322 386.068,231.583 414.095,223.674 414.095,170.497 
			386.068,178.398 		"/>
		<polygon style="fill:#010002;" points="462.306,156.955 424.614,167.603 424.614,220.78 462.306,210.14 		"/>
		<polygon style="fill:#010002;" points="376.379,250.758 376.379,303.936 386.068,301.204 414.095,293.312 414.095,240.118 
			386.068,248.019 		"/>
		<polygon style="fill:#010002;" points="462.306,226.584 424.614,237.216 424.614,290.393 462.306,279.753 		"/>
	</g>
</g>
<g>
</g>
<g>
</g>
<g>
</g>
<g>
</g>
<g>
</g>
<g>
</g>
<g>
</g>
<g>
</g>
<g>
</g>
<g>
</g>
<g>
</g>
<g>
</g>
<g>
</g>
<g>
</g>
<g>
</g>
</svg>
