<?xml version="1.0" encoding="iso-8859-1"?>
<!-- Generator: Adobe Illustrator 18.1.1, SVG Export Plug-In . SVG Version: 6.00 Build 0)  -->
<svg version="1.1" id="Capa_1" xmlns="http://www.w3.org/2000/svg" xmlns:xlink="http://www.w3.org/1999/xlink" x="0px" y="0px"
	 viewBox="0 0 59.171 59.171" style="enable-background:new 0 0 59.171 59.171;" xml:space="preserve">
<g>
	<g>
		<path style="fill:#010002;" d="M6.675,28.457v3.587l8.463-1.352l2.69-0.061l11.847,0.949v-8.678c0-4.718-3.825-8.543-8.544-8.543
			h-8.913c-4.718,0-8.543,3.825-8.543,8.544v2.003C5.371,25.182,6.675,26.663,6.675,28.457z M19.581,19.552
			c0.381,0,0.69,0.309,0.69,0.69s-0.309,0.69-0.69,0.69s-0.69-0.309-0.69-0.69S19.2,19.552,19.581,19.552z M19.581,25.803
			c0.381,0,0.69,0.309,0.69,0.69s-0.309,0.69-0.69,0.69s-0.69-0.309-0.69-0.69S19.2,25.803,19.581,25.803z M13.33,19.552
			c0.381,0,0.69,0.309,0.69,0.69s-0.309,0.69-0.69,0.69c-0.381,0-0.69-0.309-0.69-0.69S12.949,19.552,13.33,19.552z M13.33,25.803
			c0.381,0,0.69,0.309,0.69,0.69s-0.309,0.69-0.69,0.69c-0.381,0-0.69-0.309-0.69-0.69S12.949,25.803,13.33,25.803z"/>
		<path style="fill:#010002;" d="M6.753,44.362c0.101,0.195,0.214,0.45,0.305,0.45c0.044,0,0.088-0.033,0.122-0.098l1.215-2.355
			H5.712L6.753,44.362z"/>
		<path style="fill:#010002;" d="M45.067,30.42l7.608,1.587v-3.551c0-1.957,1.741-3.609,3.803-3.609c0.067,0,0.131,0.017,0.197,0.02
			v-1.965c0-4.718-3.825-8.543-8.544-8.543h-8.913c-4.718,0-8.543,3.825-8.543,8.544v8.65l11.742-1.157L45.067,30.42z
			 M46.459,19.552c0.381,0,0.69,0.309,0.69,0.69s-0.31,0.69-0.69,0.69c-0.382,0-0.69-0.309-0.69-0.69S46.077,19.552,46.459,19.552z
			 M46.459,25.803c0.381,0,0.69,0.309,0.69,0.69s-0.31,0.69-0.69,0.69c-0.382,0-0.69-0.309-0.69-0.69S46.077,25.803,46.459,25.803z
			 M40.208,27.183c-0.381,0-0.69-0.309-0.69-0.69s0.31-0.69,0.69-0.69s0.689,0.309,0.689,0.69
			C40.898,26.874,40.589,27.183,40.208,27.183z M40.208,20.932c-0.381,0-0.69-0.309-0.69-0.69s0.31-0.69,0.69-0.69
			s0.689,0.309,0.689,0.69C40.898,20.623,40.589,20.932,40.208,20.932z"/>
		<path style="fill:#010002;" d="M53.28,44.361c0.101,0.195,0.213,0.45,0.305,0.45c0.044,0,0.088-0.033,0.122-0.099l1.213-2.353
			h-2.681L53.28,44.361z"/>
		<path style="fill:#010002;" d="M56.478,25.847c-1.493,0-2.803,1.219-2.803,2.609v4.783l-8.716-1.83l-2.498-0.015l-12.369,1.214
			L17.799,31.63l-2.572,0.057l-9.552,1.529v-4.759c0-1.463-1.126-2.609-2.563-2.609C1.702,25.848,0,27.012,0,28.457
			c0,1.532,0.732,2.369,2.238,2.56l0.437,0.056v4.488c0.334-0.124,0.691-0.202,1.068-0.202h23.932h0.932h27.366
			c0.251,0,0.482,0.029,0.702,0.072v-3.615v-0.743l0.438-0.056c1.461-0.186,2.058-0.927,2.058-2.56
			C59.17,27.042,57.937,25.847,56.478,25.847z"/>
		<path style="fill:#010002;" d="M55.973,36.359H28.607h-0.932H3.743c-1.14,0-2.068,0.928-2.068,2.068v0.863
			c0,1.141,0.928,2.069,2.068,2.069h23.932h0.932h27.366c1.481,0,1.702-1.15,1.702-1.836v-1.49
			C57.675,36.907,57.118,36.359,55.973,36.359z"/>
	</g>
</g>
<g>
</g>
<g>
</g>
<g>
</g>
<g>
</g>
<g>
</g>
<g>
</g>
<g>
</g>
<g>
</g>
<g>
</g>
<g>
</g>
<g>
</g>
<g>
</g>
<g>
</g>
<g>
</g>
<g>
</g>
</svg>
