<?xml version="1.0" encoding="iso-8859-1"?>
<!-- Generator: Adobe Illustrator 16.0.0, SVG Export Plug-In . SVG Version: 6.00 Build 0)  -->
<!DOCTYPE svg PUBLIC "-//W3C//DTD SVG 1.1//EN" "http://www.w3.org/Graphics/SVG/1.1/DTD/svg11.dtd">
<svg version="1.1" id="Capa_1" xmlns="http://www.w3.org/2000/svg" xmlns:xlink="http://www.w3.org/1999/xlink" x="0px" y="0px"
	 width="53.693px" height="53.693px" viewBox="0 0 53.693 53.693" style="enable-background:new 0 0 53.693 53.693;"
	 xml:space="preserve">
<g>
	<g>
		<path d="M10.249,19.694h40.842c0.056,0,0.106,0.014,0.158,0.032v-3.032h-41V19.694z"/>
		<path d="M39.969,42.695c1.468,1.453,2.487,3.106,2.729,4.998h4.219c-0.149-1.849-0.717-3.508-1.601-4.998
			c-0.202-0.342-0.424-0.674-0.657-0.998l6.567,0.002c0.75,0,0.981-0.062,1.046-0.114l-0.023-8.483
			c0-2.187-0.494-11.298-1.278-12.408H9.902c-0.29,0.257-0.698,1.264-1.136,2.588c-0.287-0.2-0.578-0.393-0.855-0.605
			c-0.046-0.036-0.097-0.066-0.143-0.102c-4.73-3.678,0.212-7.368,4.074-9.773c-0.116,0.867-0.182,1.892-0.182,2.892h38.662
			C50.322,0.694,47.315,0,36.233,0c-7.402,0-15.873,0.694-20.687,4.694h-0.618c-1.856,0-2.68,1.056-2.68,2.463V7.63
			c0,0.051-0.358,0.118-0.539,0.226c-3.891,2.306-9.848,5.737-10.266,10.88C1.145,22.423,3.792,25,6.639,26.904
			c0.299,0.2,0.6,0.392,0.9,0.577c-0.701,2.641-1.266,5.146-1.29,5.629v8.506c0.03,0.064,0.245,0.084,0.604,0.084l0.732-0.006
			l31.271,0.004C39.248,42.02,39.62,42.352,39.969,42.695z M33.896,3.054c5.881-0.167,10.724,1.764,10.789,3.583
			c0.063,1.819-4.721,1.483-10.602,1.65S23.435,8.59,23.365,6.65C23.301,4.831,28.016,3.221,33.896,3.054z"/>
		<path d="M50.249,48.693h-11c-1.121,0-2,1.099-2,2.5c0,1.402,0.879,2.5,2,2.5h11c1.121,0,2-1.098,2-2.5
			C52.249,49.792,51.37,48.693,50.249,48.693z"/>
	</g>
</g>
<g>
</g>
<g>
</g>
<g>
</g>
<g>
</g>
<g>
</g>
<g>
</g>
<g>
</g>
<g>
</g>
<g>
</g>
<g>
</g>
<g>
</g>
<g>
</g>
<g>
</g>
<g>
</g>
<g>
</g>
</svg>
