<?xml version="1.0" encoding="iso-8859-1"?>
<!-- Generator: Adobe Illustrator 18.1.1, SVG Export Plug-In . SVG Version: 6.00 Build 0)  -->
<svg version="1.1" id="Capa_1" xmlns="http://www.w3.org/2000/svg" xmlns:xlink="http://www.w3.org/1999/xlink" x="0px" y="0px"
	 viewBox="0 0 61.271 61.271" style="enable-background:new 0 0 61.271 61.271;" xml:space="preserve">
<g>
	<g>
		<path style="fill:#010002;" d="M58.673,4.315h-0.577c-0.325,0.356-0.528,0.824-0.528,1.343v2.14
			C57.924,7.492,59.784,5.783,58.673,4.315z"/>
		<path style="fill:#010002;" d="M20.849,20.679c0.251-0.387,0.364-0.864,0.479-1.438c0.01,0.001,0.017,0.006,0.026,0.007
			c5.611,0.43,7.201-4.449,9.048-8.489l26.166-2.808V5.658c0-0.485,0.127-0.937,0.332-1.343L35.138,4.311l-6.394-1.206L18.26,6.85
			c-0.52,0.186-0.494,0.392,0.028,0.574c0.62,0.216,1.292,0.604,1.207,1.259l-0.825,6.344c-0.2-0.004-0.409,0.012-0.634,0.077
			c-3.781,1.095-6.498,3.894-7.534,7.656c-0.102,0.226-0.171,0.48-0.184,0.772c-0.281,6.143-0.487,12.515-1.687,18.621
			c-2.499,1.17-4.858,2.573-6.821,4.244c-3.817,3.247-1.183,10.053,4.053,8.885c3.958-0.883,5.483-5.935,6.283-10.239
			c1.774-0.737,3.605-1.361,5.422-1.851v-4.125c-1.535,0.366-3.114,0.822-4.695,1.368c0.826-5.43,1.163-10.917,1.419-16.399
			c0.567-2.184,1.838-3.825,3.819-4.709l-0.249,1.915C17.862,21.241,18.791,23.844,20.849,20.679z M22.058,15.371l2.172-4.83
			c0.26-0.58,1.124-0.767,1.895-0.422c0.1,0.044,0.239,0.102,0.399,0.167c0.729,0.297,1.209,0.515,1.515,0.727l1.129-0.121
			c-1.504,3.474-3.05,7.501-7.617,7.271c0.125-0.535,0.314-1.145,0.603-1.818C21.967,16.029,21.919,15.679,22.058,15.371z M7,48.336
			c-0.298,0.869-1.154,3.494-2.422,2.846c-2.196-1.125,1.475-3.07,2.715-3.756C7.196,47.728,7.103,48.034,7,48.336z"/>
		<path style="fill:#010002;" d="M23.41,16.157c0.137,0.062,0.281,0.095,0.406,0.095c0.112,0,0.169-0.027,0.181-0.036l3.343-4.467
			c-0.325-0.183-0.908-0.421-1.195-0.538c-0.173-0.071-0.324-0.133-0.431-0.181c-0.136-0.062-0.281-0.095-0.406-0.095
			c-0.111,0-0.169,0.026-0.181,0.036l-2.158,4.809C22.979,15.817,23.108,16.021,23.41,16.157z"/>
		<path style="fill:#010002;" d="M60.318,56.158c-3.412-0.417-2.066-3.348-1.712-5.762c0.199-1.354,0.137-2.623-0.324-3.781
			c-0.135-0.337-0.307-0.664-0.514-0.981c1.128-1.573,1.8-3.494,1.8-5.573v-1.805c0-6.01-2.84-9.598-7.598-9.598H38.166
			c-4.354,0-12.996,3.706-15.738,8h1.14v9h-0.679c1.087,1.673,2.795,2.906,4.935,3.532l0.65,1.182l1.428,2.591
			c0,0,1.583,0.807,3.083,0.122l1.155-2.427l0.477-1h12.757l0.477,1l1.155,2.427c1.5,0.685,3.082-0.122,3.082-0.122l1.66-3.013
			l0.804-1.458c0.659-0.359,1.265-0.802,1.818-1.3c0.157,0.341,0.255,0.697,0.311,1.063c0.294,1.943-0.624,4.194-0.664,6.11
			c-0.054,2.569,2.095,3.522,4.302,3.792C61.595,58.314,61.582,56.312,60.318,56.158z M38.568,33.575
			c0-1.06,0.857-1.917,1.917-1.917h10.167c1.059,0,3.916,0,3.916,1.5v1.5h-16V33.575z M48.95,41.269
			c0.117-1.342,0.716-2.325,1.692-3.238c0.787-0.737,1.974,0.443,1.184,1.182c-1.429,1.338-1.031,2.379-1.162,4.094
			c-0.104,1.358-1.066,2.246-2.146,2.943c-0.91,0.588-1.748-0.861-0.845-1.445C49.317,43.744,48.808,42.896,48.95,41.269z
			 M40.518,46.25c-0.91,0.588-1.748-0.861-0.845-1.445c1.644-1.061,1.135-1.908,1.276-3.535c0.117-1.342,0.716-2.325,1.692-3.238
			c0.787-0.737,1.974,0.443,1.184,1.182c-1.429,1.338-1.031,2.379-1.162,4.094C42.56,44.665,41.597,45.553,40.518,46.25z
			 M44.518,46.25c-0.91,0.588-1.748-0.861-0.845-1.445c1.644-1.061,1.135-1.908,1.276-3.535c0.117-1.342,0.716-2.325,1.692-3.238
			c0.787-0.737,1.974,0.443,1.184,1.182c-1.429,1.338-1.031,2.379-1.162,4.094C46.56,44.665,45.597,45.553,44.518,46.25z"/>
		<polygon style="fill:#010002;" points="20.568,39.256 20.568,41.06 20.568,41.658 19.568,41.658 19.568,37.658 18.568,37.658 
			18.568,44.658 22.568,44.658 22.568,37.658 20.568,37.658 		"/>
	</g>
</g>
<g>
</g>
<g>
</g>
<g>
</g>
<g>
</g>
<g>
</g>
<g>
</g>
<g>
</g>
<g>
</g>
<g>
</g>
<g>
</g>
<g>
</g>
<g>
</g>
<g>
</g>
<g>
</g>
<g>
</g>
</svg>
