<?xml version="1.0" encoding="iso-8859-1"?>
<!-- Generator: Adobe Illustrator 18.1.1, SVG Export Plug-In . SVG Version: 6.00 Build 0)  -->
<svg version="1.1" id="Capa_1" xmlns="http://www.w3.org/2000/svg" xmlns:xlink="http://www.w3.org/1999/xlink" x="0px" y="0px"
	 viewBox="0 0 50.571 50.571" style="enable-background:new 0 0 50.571 50.571;" xml:space="preserve">
<g>
	<g>
		<path style="fill:#010002;" d="M9.373,22.347v6.124l13.816-1.409l4.245-0.003l12.939,1.396v-6.108
			c0-2.968,2.652-5.475,5.792-5.475c0.07,0,0.139,0.008,0.208,0.011v-2.156c0-7.548-6.119-13.668-13.669-13.668H18.041
			c-7.548,0-13.668,6.12-13.668,13.668v2.16C7.231,16.966,9.373,19.28,9.373,22.347z M30.144,9.101c0.609,0,1.104,0.494,1.104,1.104
			s-0.494,1.104-1.104,1.104s-1.104-0.494-1.104-1.104S29.534,9.101,30.144,9.101z M30.144,19.101c0.609,0,1.104,0.494,1.104,1.104
			s-0.494,1.104-1.104,1.104s-1.104-0.494-1.104-1.104S29.534,19.101,30.144,19.101z M20.144,9.101c0.61,0,1.104,0.494,1.104,1.104
			s-0.494,1.104-1.104,1.104s-1.104-0.494-1.104-1.104S19.534,9.101,20.144,9.101z M20.144,19.101c0.61,0,1.104,0.494,1.104,1.104
			s-0.494,1.104-1.104,1.104s-1.104-0.494-1.104-1.104S19.534,19.101,20.144,19.101z"/>
		<path style="fill:#010002;" d="M5.981,34.059h37.785c0.969,0,1.866,0.304,2.608,0.815v-8.075l0.433-0.059
			c3.11-0.421,3.764-2.621,3.764-4.394c-0.002-2.509-1.937-4.475-4.405-4.475c-2.553,0-4.792,2.091-4.792,4.475v7.222l-13.993-1.513
			l-4.141,0.004l-14.867,1.52v-7.231c0-2.551-1.783-4.475-4.147-4.475C1.817,17.874,0,19.798,0,22.348
			c0,2.454,1.437,4.055,3.941,4.394l0.433,0.059v7.564C4.876,34.176,5.414,34.059,5.981,34.059z"/>
		<path style="fill:#010002;" d="M7.259,44.248l2.362,4.543c0.162,0.312,0.344,0.72,0.489,0.72c0.071,0,0.141-0.052,0.195-0.156
			l2.731-5.296H7.161C7.195,44.123,7.228,44.189,7.259,44.248z"/>
		<path style="fill:#010002;" d="M38.597,44.059c0.034,0.064,0.067,0.13,0.099,0.189l2.361,4.543c0.162,0.312,0.344,0.72,0.489,0.72
			c0.071,0,0.142-0.052,0.195-0.156l2.77-5.371c-0.244,0.04-0.491,0.075-0.745,0.075H38.597z"/>
		<path style="fill:#010002;" d="M43.766,35.059H5.981c-1.989,0-3.608,1.618-3.608,3.607v0.785c0,1.99,1.619,3.608,3.608,3.608
			h12.06h14.664h11.061c1.989,0,3.607-1.618,3.607-3.607v-0.785C47.373,36.677,45.755,35.059,43.766,35.059z"/>
	</g>
</g>
<g>
</g>
<g>
</g>
<g>
</g>
<g>
</g>
<g>
</g>
<g>
</g>
<g>
</g>
<g>
</g>
<g>
</g>
<g>
</g>
<g>
</g>
<g>
</g>
<g>
</g>
<g>
</g>
<g>
</g>
</svg>
