<?xml version="1.0" encoding="iso-8859-1"?>
<!-- Generator: Adobe Illustrator 18.1.1, SVG Export Plug-In . SVG Version: 6.00 Build 0)  -->
<svg version="1.1" id="Capa_1" xmlns="http://www.w3.org/2000/svg" xmlns:xlink="http://www.w3.org/1999/xlink" x="0px" y="0px"
	 viewBox="0 0 327.924 327.924" style="enable-background:new 0 0 327.924 327.924;" xml:space="preserve">
<g>
	<g>
		<path style="fill:#010002;" d="M43.164,218.461c4.335,0,8.572-0.636,12.602-1.86v85.083c0,9.013,7.305,16.317,16.317,16.317
			h65.269h59.83h65.269c9.013,0,16.317-7.305,16.317-16.317v-83.685c1.98,0.277,3.981,0.462,6.016,0.462
			c11.525,0,22.365-4.487,30.519-12.64c16.828-16.828,16.828-44.209,0-61.037L203.981,33.462c-2.051-4.063-4.727-7.751-7.979-10.998
			c-8.452-8.452-19.912-12.945-32.031-12.51c-12.048-0.451-23.578,4.063-32.031,12.51c-3.253,3.253-5.929,6.94-7.979,10.998
			L12.64,144.783C4.487,152.936,0,163.776,0,175.302c0,11.525,4.487,22.371,12.64,30.519S31.634,218.461,43.164,218.461z
			 M35.713,167.861l20.054-20.054l19.787-19.787l75.908-75.902l1.246-3.084c0.533-1.316,1.311-2.491,2.317-3.497
			c2.464-2.469,5.379-2.986,7.386-2.986l1.566,0.071l1.566-0.071c2.007,0,4.922,0.517,7.386,2.986
			c1.006,1.006,1.784,2.181,2.317,3.497l1.246,3.084l77.789,77.789l24.487,24.492l13.462,13.462
			c4.106,4.106,4.106,10.78,0.005,14.887c-3.53,3.541-9.41,3.911-13.467,1.148c-0.5-0.343-0.984-0.713-1.425-1.148l-31.209-31.215
			l-82.157-82.157l-75.576,75.57L55.767,177.58l-5.167,5.167c-3.965,3.976-10.911,3.976-14.881,0
			c-1.985-1.985-3.079-4.634-3.079-7.441S33.728,169.846,35.713,167.861z M153.67,285.366v-59.83h27.195v59.83H153.67z
			 M246.134,285.366H213.5V209.22c0-9.013-7.305-16.317-16.317-16.317h-59.83c-9.013,0-16.317,7.305-16.317,16.317v76.147H88.401
			v-94.264l75.576-75.57l82.157,82.157V285.366z"/>
	</g>
</g>
<g>
</g>
<g>
</g>
<g>
</g>
<g>
</g>
<g>
</g>
<g>
</g>
<g>
</g>
<g>
</g>
<g>
</g>
<g>
</g>
<g>
</g>
<g>
</g>
<g>
</g>
<g>
</g>
<g>
</g>
</svg>
