<?xml version="1.0" encoding="iso-8859-1"?>
<!-- Generator: Adobe Illustrator 16.0.0, SVG Export Plug-In . SVG Version: 6.00 Build 0)  -->
<!DOCTYPE svg PUBLIC "-//W3C//DTD SVG 1.1//EN" "http://www.w3.org/Graphics/SVG/1.1/DTD/svg11.dtd">
<svg version="1.1" id="Capa_1" xmlns="http://www.w3.org/2000/svg" xmlns:xlink="http://www.w3.org/1999/xlink" x="0px" y="0px"
	 width="56px" height="56px" viewBox="0 0 56 56" style="enable-background:new 0 0 56 56;" xml:space="preserve">
<g>
	<g>
		<path d="M37.836,44.5H32v-1h-9v1h-5.613C16.792,44.5,16,44.182,16,44.479s0,2.021,0,2.021h23v-2.021
			C39,44.182,38.43,44.5,37.836,44.5z"/>
		<path d="M0,9.5v33h56v-33H0z M52,40.5h-2c-0.275,0-0.5-0.225-0.5-0.5s0.225-0.5,0.5-0.5h2c0.275,0,0.5,0.225,0.5,0.5
			S52.275,40.5,52,40.5z M53,36.5H3v-24h50V36.5z"/>
	</g>
</g>
<g>
</g>
<g>
</g>
<g>
</g>
<g>
</g>
<g>
</g>
<g>
</g>
<g>
</g>
<g>
</g>
<g>
</g>
<g>
</g>
<g>
</g>
<g>
</g>
<g>
</g>
<g>
</g>
<g>
</g>
</svg>
