<?xml version="1.0" encoding="iso-8859-1"?>
<!-- Generator: Adobe Illustrator 18.1.1, SVG Export Plug-In . SVG Version: 6.00 Build 0)  -->
<svg version="1.1" id="Capa_1" xmlns="http://www.w3.org/2000/svg" xmlns:xlink="http://www.w3.org/1999/xlink" x="0px" y="0px"
	 viewBox="0 0 59.214 59.214" style="enable-background:new 0 0 59.214 59.214;" xml:space="preserve">
<g>
	<path style="fill:#010002;" d="M28.693,25.135l-4.187-3.881c-1.003,2.072-2.365,3.81-4.543,4.672l3.361,3.626
		c0.445-0.214,0.938-0.341,1.46-0.36L28.693,25.135z"/>
	<path style="fill:#010002;" d="M19.131,24.136c0.004-0.023,0.003-0.045,0.008-0.069c0.098-0.464,0.36-0.954,0.776-1.371
		l1.428-1.428c0.426-0.426,0.929-0.687,1.403-0.78c0.007-0.001,0.014-0.001,0.021-0.002l3.3-12.259L13.865,1.374L8.299,6.662
		l8.717,5.491l-1.46,4.777l-4.777,1.46L5.288,9.673L0,15.239l6.853,12.202L19.131,24.136z"/>
	<path style="fill:#010002;" d="M27.914,31.69l-0.277-0.275c-0.798-0.798-1.759-1.237-2.707-1.237c-0.715,0-1.373,0.263-1.85,0.74
		L1.817,49.845c-0.541,0.542-0.892,1.422-0.919,2.335c-0.03,1.008,0.33,1.939,1.015,2.624l2.609,2.609
		c0.707,0.707,1.731,1.112,2.812,1.112c0.95,0,1.833-0.315,2.361-0.844l18.89-21.219C29.705,35.342,29.388,33.167,27.914,31.69z"/>
	<path style="fill:#010002;" d="M55.336,49.835L34.083,30.131l-3.857,4.004c0.11,0.863-0.024,1.702-0.433,2.393l18.689,20.16
		c0.104,0.104,0.257,0.148,0.445,0.148c0.91,0,2.634-1.057,3.353-1.775l1.429-1.428C54.575,52.766,55.934,50.434,55.336,49.835z
		 M49.207,53.448c-1.341,0-2.428-1.086-2.428-2.427s1.087-2.427,2.428-2.427c1.34,0,2.426,1.086,2.426,2.427
		S50.546,53.448,49.207,53.448z"/>
	<path style="fill:#010002;" d="M58.705,18.012c-0.68-0.68-1.781-0.68-2.461,0l-0.684,0.684c-0.566-0.782-1.505-2.111-1.391-2.551
		c0.502-1.924-3.426-6.484-3.426-6.484c-9.76-9.76-16.283-9.54-19.384-8.472c-1.245,0.429-1.019,0.699,0.278,0.928
		c9.406,1.642,10.58,7.194,8.984,9.338c-0.615,0.827-0.795,1.45-0.686,2.01c0.064,0.33,0.229,0.639,0.468,0.954L26.028,29.341
		c0.831,0.224,1.629,0.679,2.315,1.366l0.277,0.276c0.606,0.607,1.031,1.306,1.304,2.023l14.214-14.751
		c0.271,0.22,0.552,0.415,0.842,0.567c0.774,0.41,1.616,0.53,2.548,0.064c1.054-0.527,4.167,2.019,5.112,2.699
		c0.007,0.005,0.013,0.007,0.02,0.012l-0.518,0.517c-0.68,0.68-0.68,1.781,0,2.461s1.781,0.68,2.461,0l4.102-4.102
		C59.384,19.793,59.384,18.692,58.705,18.012z"/>
</g>
<g>
</g>
<g>
</g>
<g>
</g>
<g>
</g>
<g>
</g>
<g>
</g>
<g>
</g>
<g>
</g>
<g>
</g>
<g>
</g>
<g>
</g>
<g>
</g>
<g>
</g>
<g>
</g>
<g>
</g>
</svg>
